<svg xmlns="http://www.w3.org/2000/svg" viewBox="0 0 596.9 151"><defs><style>.cls-1,.cls-3{stroke:#231f20;}.cls-1{stroke-linecap:round;stroke-linejoin:round;stroke-width:5px;}.cls-2{fill:#fff;}.cls-3{stroke-miterlimit:10;stroke-width:3px;}</style></defs><title>black</title><g id="Layer_2" data-name="Layer 2"><g id="Layer_1-2" data-name="Layer 1"><path class="cls-1" d="M2.5,2.5l432.5,8s48,79.7-1.8,137.1c.4-2.5-316.5.9-316.5.9S64.5,124.5,2.5,2.5Z"/><polygon class="cls-2" points="17.3 26.3 419 30 426.7 49.3 31.2 44.9 17.3 26.3"/><polygon class="cls-3" points="535.8 54.7 595.4 56 594.1 104 538 107.4 535.8 54.7"/><path class="cls-1" d="M445.1,32.2,547,43.3s29.7,43.6-2.4,78.9h0l-98,5.1S467.4,88.6,445.1,32.2Z"/><polygon class="cls-2" points="462.8 53.4 535.8 54.7 538.6 71.3 468.8 68.9 462.8 53.4"/></g></g></svg>