<svg id="Layer_1" data-name="Layer 1" xmlns="http://www.w3.org/2000/svg" viewBox="0 0 338.9 165.1"><defs><style>.cls-1,.cls-2{fill:#fff;}.cls-2{stroke:#fff;stroke-miterlimit:10;stroke-width:0.79px;}</style></defs><title>clothing</title><path class="cls-1" d="M16.9,221l21.7,16.4,20.8,19,16.2,3.4,17.2,9.4,30.1-77.9s15.5,8.6,24.7,5.4S186.7,146,186.7,146l-42.6-11.9s-12.1-1.6-16.4-4.7-21.2-8.5-27.2-9.5-13.9-4.5-13.9-4.5-8.3-.5-7.8.8-7.6-.5-10.7,5c0,0-17,9.5-17.7,14.9s-3.7,9.6,12.8,23.4l4.1,3.3s-18.7,29.8-20.5,34.5S29.8,223.5,16.9,221Z" transform="translate(-5.1 -113.3)"/><path d="M160.9,163.2c-5.7-4.9-17-3.5-23.4-1.1-11.3,4.3-20.8,12.7-28.4,21.9a309.8,309.8,0,0,0-23.7,33.6c-7.9,12.7-18.9,22.5-28.4,33.8-2.4,2.9,3.4,4.9,5.4,2.8,8.6-9.1,17.6-18.1,25-28.2,3.8-5.2,6.8-10.8,10.4-16.1s7.4-10.4,11.1-15.6c6.8-9.4,14.2-18.4,24.2-24.6,4.5-2.8,9.5-5.2,14.9-5.3,3.9,0,7.8.5,11.6.8,1.1.1,2.5-1.1,1.3-2.1Z" transform="translate(-5.1 -113.3)"/><path d="M156.3,164.2c-9.7-4.3-22,3.5-29.3,9.5-10.1,8.4-18.4,19.5-25.9,30.2s-15.8,22.8-24,34c-6.8,9.2-15.7,19.6-28.1,18.6-1-.1-1.3,2-.4,2.3,8.8,3,17.9-5.3,23.3-11.2,8.6-9.2,15.8-20.3,22.9-30.8s15.7-23.3,25.2-33.6c8.1-8.8,22.7-21.7,35.9-17.4.8.3,1.2-1.3.4-1.6Z" transform="translate(-5.1 -113.3)"/><path d="M155,164c-1.9-4.2-6.2-5.9-10.3-7.5a31.2,31.2,0,0,0-13.5-2.5c-6.5.5-14.3,4-19.7,7.4-.4.3-.7,1.5.1,1.5,5.9-.3,11.2-5.2,17-6.3,8.2-1.6,20.4,1.8,25.9,8.2.4.4.7-.4.6-.7Z" transform="translate(-5.1 -113.3)"/><path d="M136.6,154.2c-2.8-1-4.4-3.9-6.5-5.8s-5.9-3.5-9-4.6a60.3,60.3,0,0,0-20.5-3.5c-13.1.3-23.2,9.6-31.7,18.6-13.5,14.2-18.9,34-31.3,49-7.9,9.5-17.7,13.9-30,11.1-1.8-.4-3.7,2.5-1.4,3.1,19.5,5,33-9.3,42.2-24.5,11.3-18.7,19.8-41.9,41-51.9,8.5-4,18.2-2.7,27-.4,4.7,1.2,9.2,2.9,12.8,6.2,2.1,1.9,3.7,3.7,6.6,4.2.7.1,1.8-1.1.9-1.4Z" transform="translate(-5.1 -113.3)"/><path d="M15.8,221.5c6.2,6.5,14.3,10.3,21.2,15.8S51.4,250.7,58.9,257c.8.7,1.4-.7.9-1.4-6.2-7.1-13.8-13.5-21.2-19.4s-15.4-9.8-22.3-15.8c-.6-.5-.9.6-.5,1Z" transform="translate(-5.1 -113.3)"/><path d="M51.6,248.8c-3.8,1.7-7.7,1.8-11.7,2.3-.7.1-.6,1.6.1,1.6a22.8,22.8,0,0,0,12-2.8c.5-.3.2-1.4-.4-1.1Z" transform="translate(-5.1 -113.3)"/><path d="M44.1,242.1a12.2,12.2,0,0,0-4.5.4l-5.8,1.2c-.6.1-1,1.5-.2,1.6,3.5.4,6.8-1.8,10.3-1.9.6,0,.8-1.3.2-1.4Z" transform="translate(-5.1 -113.3)"/><path d="M38.5,237.4c-4.7.3-9.2-.5-13.8-.7-.7,0-1.2,1.3-.4,1.6,4.1,1.8,10.1,1.5,14.3.2.5-.2.6-1.2-.1-1.1Z" transform="translate(-5.1 -113.3)"/><path d="M27.7,230a16.4,16.4,0,0,1-9.2-.2c-.6-.2-1.3.5-.6.9,3.1,1.9,7.1,1.3,10.3,0,.7-.3,0-.9-.5-.8Z" transform="translate(-5.1 -113.3)"/><path d="M20.2,225.3c-2.2.6-4.4.8-6.6,1.2-.5.1-1,1.3-.3,1.4a14.5,14.5,0,0,0,7.1-1.3c.6-.2.6-1.5-.2-1.3Z" transform="translate(-5.1 -113.3)"/><path d="M152,164.3c2.9,1.3,5.8,1.3,8.8,2.1s6.5,2.5,9.6,4a123.2,123.2,0,0,0,17.9,6.7c8.9,2.6,21.6,5.1,29.7-.9.9-.7-.7-1.3-1.3-1.1-11.7,4.5-22.8,2.5-34.3-1.6-5.1-1.8-10-4-15-6.2a31.2,31.2,0,0,0-7.1-2.4c-2.8-.5-5.5-.2-8.3-1-.3-.1-.4.2-.1.4Z" transform="translate(-5.1 -113.3)"/><path d="M215.5,176.6c5.4.3,10.9-4.7,6.5-9.8-2.4-2.9-6.8-3.4-9.8-5.6s-6.8-6.8-10.7-9.5c-8.1-5.6-18.6-8.4-28-11-5.1-1.4-10.3-2.5-15.4-3.7s-10.7-3.6-16.1-4.6c-1.1-.2-2.3,1.5-1.3,2.3,5.5,4.2,14.4,5.1,20.9,6.6a205.5,205.5,0,0,1,23.3,6.6c8.1,2.9,14.5,6.3,20.6,12.2a29.8,29.8,0,0,0,7.3,5.7c1.6.8,3.3,1.2,4.9,2.1,4.2,2.4,2.9,6.4-2,7-.8.1-1.4,1.6-.3,1.7Z" transform="translate(-5.1 -113.3)"/><path d="M140.9,131.9c-5.4.3-11.2-3.3-15.8-5.6a64.1,64.1,0,0,0-16.4-5.9c-6.1-1.3-11.6-3.5-17.5-5.4-4.3-1.4-9.8-3-13.8-.1-.6.5-.6,2.3.5,2.1,6.3-1.4,11.8.6,17.7,2.8s12.2,3.1,18.3,4.9,10.5,4.7,15.8,7c3.4,1.4,7.8,3.7,11.4,2,.7-.3.7-1.9-.2-1.8Z" transform="translate(-5.1 -113.3)"/><path d="M77.6,117.3c8.1,3,6,12.4,12.7,16.8s15.2,2.5,18.7,8.9c.8,1.5,3-.1,2.7-1.5-1.6-7.2-13-7.2-18.3-9.8s-5.1-6.2-6.9-10.2-4.1-5.3-8.2-5.8c-.8-.1-1.5,1.3-.6,1.6Z" transform="translate(-5.1 -113.3)"/><path d="M77.5,115.8c-8-1.5-10.1,5.5-15.9,8.8s-10.3,5.2-12.8,11.6c-4.4,11.3,8.8,21.7,17,26.8,1.3.8,4-.7,2.5-2.1C62,155.3,50.1,149.3,51,139.2c.6-6.8,6.6-9.9,11.9-12.9a13.9,13.9,0,0,0,3.8-3.1c3.2-3.6,5.4-5.9,10.7-6.4.6-.1,1-.9.2-1Z" transform="translate(-5.1 -113.3)"/><path d="M115.1,187.4l-.5-1.3-1.5.5c6.6,4.1,13,8.5,20.6,10.2a80.9,80.9,0,0,0,13.7,1.8c4.8.3,9.9,1.2,14.7.7.9-.1.8-1.2.1-1.4-3.6-1.5-7.6-1.3-11.5-1.5a96.5,96.5,0,0,1-14.8-1.5c-8.2-1.7-14.2-6.7-21.8-9.4-.6-.2-1.7.1-1.1.9s.7,1.1,1.8,1.3.5-.1.3-.4Z" transform="translate(-5.1 -113.3)"/><path d="M140.5,196.9c6.3,1,11.5,6.5,16.7,10s10.9,6.9,16.4,10,9.6,5.2,14.8,4.9,12.3-3.8,17.7-6.3,10.1-4.1,13.4-8.4,3.8-8.4,4.6-12.8c1.3-7.1,4.1-20.4-3.3-25.2-.9-.6-2.3,1-1.4,1.7,7,5.1,3.9,18.5,2.4,25.6s-3.6,11.1-9.6,14.1a156,156,0,0,1-15.3,7c-6.5,2.5-11.7,2.6-18-.3s-10.2-6.1-15.3-9.1c-6.8-3.9-14.6-11.9-22.8-12.1-.5,0-1,.9-.3,1Z" transform="translate(-5.1 -113.3)"/><path d="M132.6,154.4c3.8,3.3,9.4,3.2,14.1,4.3,7.1,1.8,12.5,5.3,18.7,8.9s12.5,6.5,19.4,7.8c.5.1,1.5-.6.7-1-2.7-1.2-5.7-1.7-8.4-2.6a60.4,60.4,0,0,1-10.8-5.1c-4.7-2.7-9.1-5.8-14.4-7.5s-13.8-1.7-18.9-5.1c-.2-.1-.6.1-.4.3Z" transform="translate(-5.1 -113.3)"/><path d="M211.2,179.5c4.1,3.2-.3,13-1.3,17-2.3,8.7-5.8,15.9-13.1,21.4-.4.3-.2,1,.3.7,8.3-4.8,11.6-14.3,14-23,1-3.8,5.7-14.3.6-16.9-.4-.2-.8.5-.5.8Z" transform="translate(-5.1 -113.3)"/><path d="M191.9,177.2c-1.6,7.6-1.4,14.4-7.2,20.3A49.3,49.3,0,0,1,166.1,210c-.3.1-.4.7,0,.7,7.8-1.9,14.2-7.6,19.5-13.3s5.1-12.7,6.5-20.2c0-.2-.2-.1-.3,0Z" transform="translate(-5.1 -113.3)"/><path d="M170.8,169.1c-5.6,3.5-5.4,10.4-10.6,14.4-3,2.3-6.9,3.1-10.1,5.1s-6.9,5.7-11.2,7.6c-.6.3-.3,1.1.3.8,3.4-1.4,6.1-3.6,9-5.9s7.2-3.9,10.9-5.9a14.9,14.9,0,0,0,5.7-5.4c2.3-3.8,2.2-7.5,6.3-10.3.3-.2,0-.5-.3-.3Z" transform="translate(-5.1 -113.3)"/><path d="M89.7,132.4c-2.5,2.5-6.4,3.1-9.7,4a31.3,31.3,0,0,0-8.2,3.6c-6.2,3.8-11.6,8.6-14.3,15.5-.2.5.5,1.3.8.6,3.1-7.8,10-13.4,17.4-17.1,4.5-2.2,10.9-2,14.3-6.2.1-.2-.1-.6-.3-.4Z" transform="translate(-5.1 -113.3)"/><path d="M74.7,154.2c14.5,8.8,27.7,20,43,27.3.7.3.9-.9.3-1.1-15.3-7.3-27.8-19.5-43.2-26.6-.3-.1-.3.3-.1.4Z" transform="translate(-5.1 -113.3)"/><path d="M99.7,141.8c8.5,4.3,14.3,11.9,22.1,17.2.1.1.2-.2.1-.2-7.6-5.6-13.3-13.2-22.1-17.3-.1-.1-.3.2-.1.3Z" transform="translate(-5.1 -113.3)"/><path d="M121.6,159.2c2.6,3.9,7.6,4.2,11.7,5.6.4.1.8-.7.4-.9-3.8-2-8.7-1.6-11.6-5.2-.3-.4-.7.3-.5.6Z" transform="translate(-5.1 -113.3)"/><path d="M56.7,179.6c2.2,2.5,5.1,3.6,7.9,5.2s7.3,5.1,10.8,7.7c7.5,5.4,16,9.5,22.6,16,.5.5.9-.5.5-.9-5.8-6-13.2-9.7-20-14.3-3.8-2.6-7.4-5.6-11.3-8.2s-7.4-3.4-10.2-6.3c-.4-.4-.6.4-.4.7Z" transform="translate(-5.1 -113.3)"/><path d="M42.4,203c11.3,11.9,24.9,21.5,37.1,32.4.6.5.9-.6.5-1-12.1-11.1-25.2-20.9-37.3-32-.4-.4-.6.4-.3.7Z" transform="translate(-5.1 -113.3)"/><path d="M199.3,153.1c-1.9,3.5-4.2,6.9-5.8,10.5s-3.4,8.4-6.5,12c-.2.3.1,1.1.5.7a32.7,32.7,0,0,0,5.5-9.6c1.9-4.6,4.7-8.7,6.8-13.2.1-.2-.2-.7-.4-.4Z" transform="translate(-5.1 -113.3)"/><path d="M210.9,162.2c.2,6.1-4.2,12.9-8,17.3-.4.4.4.7.7.4,2.4-2.1,4.1-5.3,5.5-8.2s2.8-6.2,2.6-9.5c0-.4-.8-.5-.8-.1Z" transform="translate(-5.1 -113.3)"/><path d="M181.2,144.5c-8.5,3.3-9.2,15.4-13.9,22-.3.5.2,1.3.6.7,4.8-6.7,5.3-18,13.4-21.9.4-.2.3-1-.2-.8Z" transform="translate(-5.1 -113.3)"/><path d="M163.4,139.2c-7.8,4.3-8,14.1-13.8,20.2-.2.2.2.4.4.2,6.4-5.6,5.9-15.6,13.7-20.2.2-.1-.1-.3-.3-.2Z" transform="translate(-5.1 -113.3)"/><path d="M144,135.4c-2.7,1.3-4.1,3.7-5.3,6.3s-3.1,7.5-5.8,10.8c-.3.3.1.8.4.5,5.1-4.7,4.7-13.5,10.8-17.2.2-.1.2-.6-.1-.4Z" transform="translate(-5.1 -113.3)"/><path d="M100.6,120.3c.5,5.4-2.6,8.8-4.5,13.5-.2.4.3.5.5.2,2.5-4.4,5.2-8.6,4.4-13.9,0-.3-.5,0-.4.2Z" transform="translate(-5.1 -113.3)"/><path d="M120.2,125.6c-.6,6.3-4.6,11.8-5,18.2,0,.4.9.4.9,0,.5-6.3,4.4-11.8,4.7-18.2,0-.3-.6-.2-.6,0Z" transform="translate(-5.1 -113.3)"/><path d="M122.3,190.6c-7.4,13.1-12,28-17.1,42s-10.5,29.1-17,43.2c-.9,2,1.6,3.7,2.6,1.4,6.3-13.8,11.5-28.1,16.5-42.5s11.1-28.8,16.3-43.3c.3-.8-.6-2-1.2-.9Z" transform="translate(-5.1 -113.3)"/><path d="M59.1,256.8c11,2.4,22,7.4,32.3,11.9.9.4,1.9-1.4.9-1.8-10-4.6-21.8-10.2-33-11.2-.5,0-.9.9-.3,1Z" transform="translate(-5.1 -113.3)"/><path d="M59.1,255.3c-.5,2.9-2.1,5.4-3,8.1-.2.6.5,1.8,1,.9a21,21,0,0,0,2.9-8.7c0-.5-.8-1-.9-.3Z" transform="translate(-5.1 -113.3)"/><path d="M63.9,257.2c-1.3,2.4-2.8,5.7-2.4,8.5a.5.5,0,0,0,1,.2,13.2,13.2,0,0,0,.9-3.8,27.2,27.2,0,0,1,1.2-4.3c.2-.4-.3-1-.6-.5Z" transform="translate(-5.1 -113.3)"/><path d="M70.9,259.6c-.3,1.7-.6,3.3-1,5s-.9,3.1-.7,4.6a.8.8,0,0,0,1.5.2,26.2,26.2,0,0,0,.9-4.7c.3-1.6.6-3.1.7-4.7s-1.5-1.2-1.6-.4Z" transform="translate(-5.1 -113.3)"/><path d="M78.3,261.6c-.2,3.7-3.7,7-2.3,10.8.3.7,1.1.8,1.1-.1a19.5,19.5,0,0,1,1.2-6.1,12.4,12.4,0,0,0,.8-4.4c0-.5-.8-.9-.9-.2Z" transform="translate(-5.1 -113.3)"/><path d="M85.8,264.9c-.4,2.8-2.4,5.4-2.1,8.3a.5.5,0,0,0,1,0c.4-2.8,1.9-5.3,2.2-8.1.1-.7-.9-1-1-.2Z" transform="translate(-5.1 -113.3)"/><path d="M72.7,242.4c5.2,2.4,10.8,3.3,16.2,5.1,3.4,1.1,7.9,3.1,11.5,2.1.5-.1.2-.7-.2-.7-4.8,0-9.3-1.7-13.8-3.1s-9.1-2-13.5-3.7c-.2-.1-.5.2-.2.3Z" transform="translate(-5.1 -113.3)"/><path d="M86.9,223.5c6.6,2.2,14.4,4.2,21.4,4.2.7,0,.7-1.3,0-1.4-7.2-.7-14.2-3-21.4-3.5-.4,0-.3.5,0,.6Z" transform="translate(-5.1 -113.3)"/><path d="M104.6,200c4,.8,8.3,1.5,12.1,3,.5.2,1.2-.6.6-.9-3.8-1.7-8.2-2.2-12.3-3-.4-.1-1,.7-.4.8Z" transform="translate(-5.1 -113.3)"/><path class="cls-1" d="M295.3,148.3c-5.2.6-7.4,6.5-11.6,8.4.5-8.9.8-18.1,0-22.1-2.2-11.3-11.5-14.2-22.1-14s-15.6,8.8-14.9,19.4c.5,6.4,1,12.8,2.1,18.7.7,4.3,3.5,7.9,3.1,12.1l4.1.6c-2.9-.1-5.5.1-7.3,1h-.1l-.6.4h.7c.6,3.4-.2,9.1,2.6,11.3s9.5.8,13.2.6c5.3-.6,11.1-.1,17-.2,2.6.2,6.3,1.2,8.5-.2v-.2c.5-1.3,1.4-3.1,1.3-4.7l.2-.9a10.3,10.3,0,0,1-3-.8c2.1-6.2,6.8-12.1,9.4-18.2C299.9,156.1,301.6,148.3,295.3,148.3Zm-7.5,26.4.8,3.2C288.1,177.7,287.9,176.5,287.8,174.7Z" transform="translate(-5.1 -113.3)"/><path d="M289.5,178.5c3.3-6.2,7.3-12.3,10.1-18.8,1.1-2.6,2.1-5.8,1.3-8.6-3-10.2-13.6,3.2-17.2,5-1,.5-.5,2.6.7,2s4.2-3.3,6.1-5.3,4.4-4.1,7.1-2.9,2.1,4.2,1.5,6.4c-2,7.8-8.5,13.8-10.3,21.7-.1.5.4,1.1.8.5Z" transform="translate(-5.1 -113.3)"/><path d="M284.1,157.6c2.5-9.5,4.5-24.3-3.2-32-5.3-5.3-15-6.7-22.1-5.2s-11.9,7.3-12.7,14.7c-.6,5.5.3,11.3,1,16.8a61,61,0,0,0,1.5,9.1c1,3.5,2.6,6.5,2.7,10.3,0,1.3,2.6,1,2.7-.3.1-4.3-2.2-8-3.1-12.1a127.1,127.1,0,0,1-1.9-15.8c-.7-7.9,0-17.3,8.7-20.3,6.8-2.4,17.3-.7,22.1,4.9,7.1,8.4,2.5,20.3,3.3,30.1,0,.5,1,.4,1.1,0Z" transform="translate(-5.1 -113.3)"/><path d="M291.2,184.8c.9-1.7,2.5-4.8.9-6.5s-1.2.5-1.1.9a6,6,0,0,1-.1,2.9c-.3.8-.6,1.7-.9,2.5s.9.8,1.2.2Z" transform="translate(-5.1 -113.3)"/><path d="M292.3,178.3c-4.3-1.3-7.9-3.3-12.4-4.1s-9.2-1.8-13.8-2.5-12.9-2.9-17.9.4c-1.1.7.1,3.3,1.2,2.4,4.7-3.4,13.1-.8,18.4,0l11.4,2c4.4.8,8.7,3,13.1,3.3.8.1.6-1.3,0-1.5Z" transform="translate(-5.1 -113.3)"/><path d="M290.6,184.4c-4.5.8-9.5-.3-14.1-.4a102.9,102.9,0,0,0-13.1.3c-3.5.3-8.8,1.9-11-1.4s-1.2-7-1.8-10.3c-.2-1.2-2.8-1.1-2.6.3.6,3.6-.3,8.4,2.2,11.5s5.3,2.6,8.2,2.5c6-.2,11.8-1,17.9-1,4.2,0,11.1,1.9,14.7-.8.4-.3,0-.7-.4-.7Z" transform="translate(-5.1 -113.3)"/><path d="M252,171.5c.4,1.8,0,3.5.6,5.3s.9,0,.8-.5-.4-3.4-1-5-.4,0-.3.2Z" transform="translate(-5.1 -113.3)"/><path d="M254.5,175.6c.2,3-.3,6.5,1.3,9.3.3.5,1.2-.1,1-.6-1.3-2.9-1.1-5.9-1.4-9-.1-.6-.9-.2-.9.3Z" transform="translate(-5.1 -113.3)"/><path d="M259.7,172.5a12.2,12.2,0,0,0,.8,5.2c.2.3.8.2.7-.2s-.6-3.3-.8-5.1-.7-.3-.7.1Z" transform="translate(-5.1 -113.3)"/><path d="M261.6,179.7a8.4,8.4,0,0,0,1.3,3.8c.3.4,1-.2.9-.6a28.1,28.1,0,0,1-1.2-3.6c-.1-.5-1,0-.9.4Z" transform="translate(-5.1 -113.3)"/><path d="M271.7,173.1a21.8,21.8,0,0,1,.4,6.1c0,.6.7.3.8-.2a18,18,0,0,0-.7-6.3c-.1-.4-.6.1-.5.4Z" transform="translate(-5.1 -113.3)"/><path d="M267.5,176.3c.2,1.3.2,2.7.5,4s.8.1.7-.2-.3-2.7-.6-4-.7,0-.6.3Z" transform="translate(-5.1 -113.3)"/><path d="M278.2,178.6c-.4,1.7-.5,3.5-.9,5.2s.8.3.9-.1.5-3.5.9-5.2-.8-.4-.9.1Z" transform="translate(-5.1 -113.3)"/><path d="M283.4,177.3c.5,1.7.1,3.3.3,5s.9.3.9-.1a13.7,13.7,0,0,0-.3-5.1c-.2-.5-1.2-.3-1,.2Z" transform="translate(-5.1 -113.3)"/><path d="M252.1,185.9c.3,2-1.4,4-1.5,5.9s.8,2.7,2.4,2.3,2.1-2,2.4-3.2.9-3.3.1-4.4-2.2-.3-1.9.6a5.7,5.7,0,0,1,0,2.9c-.1.4-.8,2.9-1,2.8s.2-3,.3-3.4a6.2,6.2,0,0,0,.3-3.6c-.2-.5-1.2-.4-1.1.2Z" transform="translate(-5.1 -113.3)"/><path d="M247.6,147.9c6.4-5.4,16.1-6.2,23.9-4.4.9.2,1.9-1,.7-1.3-7.9-2-19.8-1.2-25.6,5.2-.5.6.6.9,1,.5Z" transform="translate(-5.1 -113.3)"/><path d="M270.9,142.9c.2,5.2-.5,10.9.9,16,.3.9,1.7,0,1.6-.8-.8-5.1-.4-10.6-1.6-15.6-.1-.5-.9,0-.9.4Z" transform="translate(-5.1 -113.3)"/><path d="M250.4,162.7c6.5-2.1,13-3.5,19.8-3.3,1.1,0,1.4-2,.2-2a49.7,49.7,0,0,0-20.3,4.4c-.5.2-.4,1.2.2,1Z" transform="translate(-5.1 -113.3)"/><path class="cls-1" d="M285.1,175.1c-.8,6.6.2,14.1-1,20.5a10.3,10.3,0,0,1-3-.8l-.3.9c-.9,1.2-1.1,3.3-1.3,4.7v.2c1.2,2.3,4.8,3.3,7.2,4.5,5,3,10.3,5.4,14.6,8.7s8.4,6.9,11.7,6.1,5.7-5.8,7.9-8.5l.6.3-.3-.6h0c-1-1.7-3.2-3.2-5.7-4.6l3.9,1.5c1.8-3.8,6-5.5,8.8-8.9s7.6-9.8,11.3-15.1c6-8.9,6.2-18.1-3.1-24.2s-18.6-7.6-26.2,1c-2.7,3.1-7.1,11.2-11.1,19.1-2.7-3.7-1.6-9.9-5.8-13.1S285.2,171,285.1,175.1Zm-1,20.5.2-.2C283.3,196.8,284.5,195.6,284.1,195.6Z" transform="translate(-5.1 -113.3)"/><path d="M284,195.6c2.5-7.6-.1-16,2-23.7.3-1.2.7-3,1.7-3.9,4.2-3.5,6.2,1.8,7,4.2s1.2,5.7,2.9,8.3c.6.9,2.6-.1,1.9-1.1-2.4-3.6-4.3-19.8-12.5-13.1-2.4,2-3.2,5.5-3.5,8.5-.8,6.8-.6,14.1-.6,20.9,0,.6,1,.4,1.1,0Z" transform="translate(-5.1 -113.3)"/><path d="M299.1,180.7c5-7.7,6.9-18.6,15.5-23.4s20.6.7,25.1,8-1.6,17.5-6.5,24.3c-2.9,4.1-5.9,8.3-9.7,11.5s-4.5,3.7-6,6.5,1.6,1.5,2.2.5c2.7-4.5,7.8-7.5,11.1-11.7s7.8-9.8,10.6-15.1c4.1-7.6,3.6-16.2-3.6-21.7s-15.4-7.9-22.8-4.5c-9.1,4.1-14.2,16.3-16.8,25.3-.2.6.6.6.9.2Z" transform="translate(-5.1 -113.3)"/><path d="M279.5,200.4c.4-1.9.5-3.7,1.8-5.2s0-1.1-.6-.9c-2.3.8-2.5,4.1-2.6,6.2s1.2.5,1.3-.1Z" transform="translate(-5.1 -113.3)"/><path d="M280,195.2c4.1,1.9,8.8,2.1,13.1,3.7l10.7,4c4.9,1.9,13.5,3.9,15.8,9.1.6,1.3,3.2.4,2.6-.8-2.5-5.1-9.3-7.1-14.2-9L297.1,198c-2.6-.9-5.3-2.1-8-2.8s-5.5-.5-8.3-1.2c-.7-.2-1.7.7-.8,1.1Z" transform="translate(-5.1 -113.3)"/><path d="M278.5,200.7c1.5,3.7,6.4,4.8,9.6,6.7,5.5,3.3,10.9,6.6,16.1,10.3,2.6,1.9,6,4.4,9.4,3.1s5.3-6.1,7.7-9c.8-1-.5-3.1-1.5-2s-3.8,7.2-7.1,8.2-8.5-3.3-11.7-5.6a102.5,102.5,0,0,0-10.3-6.2c-3.8-2.1-8.4-3.5-11.8-6.3-.4-.4-.6.3-.5.6Z" transform="translate(-5.1 -113.3)"/><path d="M318.7,208c-1.3,1.1-2.2,2.6-3.4,3.8s-.1,1.2.4.7,1.9-3,3.2-4.3.1-.5-.2-.3Z" transform="translate(-5.1 -113.3)"/><path d="M314,210.1c-1.9,2.5-3.2,5.2-5.8,7.1-.6.4.4.9.8.7,2.8-1.5,4-4.8,5.8-7.3.3-.4-.6-.8-.8-.4Z" transform="translate(-5.1 -113.3)"/><path d="M311.3,204.9c-1,1.4-2.1,2.7-3.3,4s-.1.9.3.6a12.8,12.8,0,0,0,3.4-4.2c.2-.3-.2-.8-.4-.5Z" transform="translate(-5.1 -113.3)"/><path d="M306,209.8a31.1,31.1,0,0,1-2.9,2.5c-.3.3,0,1.1.4,1a8.2,8.2,0,0,0,3-2.7c.3-.3-.3-1.2-.6-.8Z" transform="translate(-5.1 -113.3)"/><path d="M300.7,199.4a17.9,17.9,0,0,0-3.8,5.2c-.3.5.7.6.9.2a21.2,21.2,0,0,1,3.4-5c.3-.3-.3-.5-.5-.3Z" transform="translate(-5.1 -113.3)"/><path d="M302.7,204.2c-.9,1-1.7,2.1-2.5,3.1s0,1,.4.7,1.6-2.2,2.5-3.2,0-.9-.3-.6Z" transform="translate(-5.1 -113.3)"/><path d="M292,200.9c-.5,1.7-1.5,3.3-1.9,5.1s.5.8.6.2,1.4-3.3,1.9-5.1-.5-.8-.6-.2Z" transform="translate(-5.1 -113.3)"/><path d="M288,197.1a14.2,14.2,0,0,0-2.8,4.3c-.3.5.5.6.8.3s1.5-3,2.8-4.2-.4-.8-.8-.4Z" transform="translate(-5.1 -113.3)"/><path d="M310.8,220.1a5.6,5.6,0,0,0-1.5,2.9c-.2.7-.4,1.5-.6,2.2l-.4,1c-.2.5-.3.2-.1.3s-.1-2.3.1-2.9a5.9,5.9,0,0,1,1.4-2.7c.9-.7-.2-1.6-1.1-1.2s-1.9,2.4-2.3,3.8-.8,3.2.4,4.1,2.8,0,3.4-1.3a12.8,12.8,0,0,0,.7-2.9,6,6,0,0,1,.9-2.8c.4-.5-.5-.8-.8-.5Z" transform="translate(-5.1 -113.3)"/><path d="M335.6,190.1c-1.8-8.3-11.6-15.2-19.4-17.3-1-.3-1,1.5-.2,1.7,7.7,2.4,15.9,7.9,18.7,15.9.3.7,1.1.5.9-.3Z" transform="translate(-5.1 -113.3)"/><path d="M316.4,173.3c-3.6,3.8-6,8.6-9.2,12.7-.5.6,0,2.1.8,1.3,3.9-3.5,6-9,8.9-13.3.2-.3,0-1.2-.5-.8Z" transform="translate(-5.1 -113.3)"/><path d="M325.6,200.9a48.5,48.5,0,0,0-15.4-14c-.9-.5-2.2,1-1.2,1.6,6.1,3.3,11.1,7.9,15.7,13,.3.3,1.2-.2.9-.6Z" transform="translate(-5.1 -113.3)"/><path class="cls-2" d="M277.7,213.7a12.4,12.4,0,0,1,.9-4.2l-.9.2v-.5l1.4-.4c-1.7-6.8-7.1-9.6-13.7-10.4-6.7-25.8-20.1-49.6-47.3-53.7,2.5-5.1.3-11.7-6-9.9.3-7.4-6.6-12.7-13.6-12.1l-1-.4c-1.2-1.9-8.7-8.9-12.4-7.2a2.9,2.9,0,0,0-2.8,2.2,4.6,4.6,0,0,0-4.9-1c-3.6.4-6.7,4.7-1.4,9.3a21.2,21.2,0,0,0-3,2.9c-6.2,3.5-17.1,8.1-5.3,13l-.4.6.7,1.7-.5.4-.3-.5c-6.4,4.9-.9,10.7,5.6,12.3l-.2.4-5.3,4.8-1.6,1.2a67.4,67.4,0,0,0-17.3,19c-8.6,14.4-10.9,24.8-6.9,40.9l.8-1.6.2.9-.9,1.8a22.5,22.5,0,0,0-5.3,2.7c-9.2,7.2-.6,12.4,1.5,20.4l1.2-.3h.5v.5l-1.6.4c0,6.5,7.8,3.4,13.4,1.3l4.3-1.4,5.6-1.2c12.6-2.9,25.3-8.1,37.9-11.2l5-1c16.5-1.7,33.6,3.6,50.7-.5l1.8-.4h.6l5-1.1c4.8-1.1,10-2.5,13.4-6S278.2,217.9,277.7,213.7ZM176.9,124.9h.1l-.4.3Z" transform="translate(-5.1 -113.3)"/><path class="cls-1" d="M278.2,208.9l1.4-.4c-1.7-6.8-7.1-9.6-13.7-10.4-6.7-25.8-20.1-49.6-47.3-53.7,2.5-5.1.3-11.7-6-9.9.3-7.4-6.6-12.7-13.6-12.1l-1-.4c-1.4-2.3-12-12-14-5l-.8.2c-3.8-4.5-12.4,1.1-5.7,7.4a21.2,21.2,0,0,0-4.4,4.3c-6.1,3.3-13.8,7.4-4.2,11.7a20.5,20.5,0,0,0,.1,2.8c-6,4.7-.9,10.3,5.3,12-7.6,6.3-19.9,19-23.9,25.6-8.2,13.6-10.1,26.9-6.8,42a22.4,22.4,0,0,0-5.2,2.6c-9.2,7.2-.6,12.4,1.5,20.4h.5c.5,7.5,12.3,1.8,16.8.7,16.4-2.9,32.8-10.7,49.2-13.6s34,3.7,51.3-.6c5.8-1.4,14.1-2.3,19-7.2S277.1,214.1,278.2,208.9Zm-88.3-88.3v-.2l.9.2Zm-10.4,2.3v.4l-.6.3Z" transform="translate(-5.1 -113.3)"/><path d="M227.9,164.9a16,16,0,0,0,2.9,4.7c1.1,1.2,2.7,2.6,4.4,2.4s.7-1.1.3-1.5-2.7-1.4-3.9-2.4a13.9,13.9,0,0,1-2.9-3.9c-.4-.7-1,.1-.8.6Z" transform="translate(-5.1 -113.3)"/><path d="M235.8,168.3c1.8,1.5,2.8,3.9,5,4.9s1.3-.9.8-1.4a32.7,32.7,0,0,0-5.2-4.6c-.4-.3-1,.7-.6,1Z" transform="translate(-5.1 -113.3)"/><path d="M244.9,173.6c1.3,2.4,2.6,4.9,4.6,6.7s.9-.6.6-1a55.1,55.1,0,0,1-4.4-6.2c-.4-.7-1.1-.1-.8.5Z" transform="translate(-5.1 -113.3)"/><path d="M244.2,183.3c.2,1.8.3,4.1,1.3,5.6s1-.1,1-.4c.2-1.9-.5-4-1-5.7s-1.3-.1-1.3.5Z" transform="translate(-5.1 -113.3)"/><path d="M230.3,157.7a3.8,3.8,0,0,0,3.5,3c.4.1.9-.5.4-.8a8.4,8.4,0,0,1-1.8-.9,2.6,2.6,0,0,1-.9-1.5c-.1-.6-1.4-.4-1.2.2Z" transform="translate(-5.1 -113.3)"/><path d="M233.6,178.3c.9,1.4,1,2.9,1.5,4.5s1.4.1,1.4-.6a8.7,8.7,0,0,0-1.9-4.5c-.4-.4-1.3.1-.9.6Z" transform="translate(-5.1 -113.3)"/><path d="M230.6,184.4a15.3,15.3,0,0,0,.9,4c.2.5,1.2.1,1.2-.3a16.1,16.1,0,0,0-.7-4c-.2-.7-1.5-.3-1.4.4Z" transform="translate(-5.1 -113.3)"/><path d="M234.6,191.7a4.5,4.5,0,0,0,2.5,3.1c.5.2.8-.7.5-1a7.9,7.9,0,0,1-2-2.8c-.2-.8-1.2,0-1,.6Z" transform="translate(-5.1 -113.3)"/><path d="M250,188.1a3.7,3.7,0,0,1,1,1.1,5.8,5.8,0,0,0,1.3,1.6c.3.2,1.2-.1,1-.5a6.9,6.9,0,0,0-2.2-3.1c-.6-.4-1.7.4-1,.9Z" transform="translate(-5.1 -113.3)"/><path d="M218.6,183.9a3.4,3.4,0,0,0-.3,2.7c.1.5,1.3.6,1.2,0a2.9,2.9,0,0,1,.3-2.2c.4-.6-.8-1-1.2-.5Z" transform="translate(-5.1 -113.3)"/><path d="M173.2,156c-5.5,4.3-11.3,8.1-16.1,13.2a72.8,72.8,0,0,0-11.6,16.2c-6.3,11.8-8,24.1-4.6,37.2.4,1.6,2.8.4,2.6-1-3-13.4-1.9-24.8,4.8-36.9a67.8,67.8,0,0,1,11.3-15.3c4.5-4.5,9.7-8,14.6-12.1.8-.7.1-2-.9-1.3Z" transform="translate(-5.1 -113.3)"/><path d="M217,145.2c12.6,2.8,23.5,8.2,31.4,18.7s11.1,21.1,14.3,32.6c.4,1.5,3.7,1.7,3.2-.2-5.9-24.8-21.1-50-48.9-52.3-1.1-.1-.9,1.1,0,1.3Z" transform="translate(-5.1 -113.3)"/><path d="M139.6,246.3c-.7-5.8-7.6-11.8-3.2-17.4s13.6-6.2,19.8-8.3a397.1,397.1,0,0,1,50.5-13.5c13.8-2.7,27.8-4.4,41.7-6.4,5.3-.8,10.8-1.4,16.2-.6s9.3,3.5,11.6,9c.7,1.7,4.9,1.9,4.5-.5-1.3-8.6-10.6-11.9-18.1-12.5-9.5-.7-18.7,1.8-28.1,2.9-31.3,3.9-61.5,11.7-91.2,21.9-4.8,1.6-11.3,4.5-12.1,10.3s4.2,10.7,6.3,15.2c.4.8,2.2.9,2.1-.2Z" transform="translate(-5.1 -113.3)"/><path d="M137.8,246.9c-.1,10.1,14.5,2.3,19.4,1.3a231.2,231.2,0,0,0,23.4-6.4c8.9-2.9,18.2-6.4,27.6-6.9s19.1,1.1,28.6,1.4a87.6,87.6,0,0,0,22.1-2.3c6.2-1.4,13-2.6,17.8-7.3s3.5-11.6,4.3-17.8c.3-2.5-3.2-1.4-4-.1-3.3,6,1,13.2-6.1,17.4-5.1,3.1-12.3,4.1-18.1,5.1-14.6,2.6-29.3-1.1-44-.3s-27.7,7.3-41.1,11.2c-5.2,1.5-10.7,2.3-15.7,4.3-3.2,1.3-11.6,5.8-12.5,0-.1-.9-1.7-.4-1.7.3Z" transform="translate(-5.1 -113.3)"/><path d="M144.9,230.9c-1,5.6,1.3,11.6,4.2,16.4.4.6,1.7.4,1.4-.4-2.3-5-4.9-10.2-3.9-15.8.1-.8-1.5-1-1.6-.2Z" transform="translate(-5.1 -113.3)"/><path d="M148.9,220.6c1.8,3.1,2.6,6.5,3.6,9.9.2.7,1,.6.8-.2a31.4,31.4,0,0,0-3.9-10.3c-.3-.5-.7.2-.5.5Z" transform="translate(-5.1 -113.3)"/><path d="M153.9,236.4c.5,2,.8,4.6,2.7,5.8s1.1-.7.6-1.1-2-3.5-2.5-5.2-.9.1-.8.5Z" transform="translate(-5.1 -113.3)"/><path d="M160.4,218.9c1.1,5.4,1.3,11.8,5.3,15.9.4.4,1.2-.2.9-.7-3.1-4.8-3.7-10.4-5.1-15.7-.2-.6-1.1,0-1,.5Z" transform="translate(-5.1 -113.3)"/><path d="M172.2,222.1a50.9,50.9,0,0,0,4.3,12.5c.3.6,1.3-.3,1-.8a61.5,61.5,0,0,1-4.3-12.2c-.2-.7-1.2,0-1,.5Z" transform="translate(-5.1 -113.3)"/><path d="M203.3,233.4c-.8-3.6-.5-7.3-.3-11,0-.6-1-.2-1.1.2a33.4,33.4,0,0,0,.3,11.2c.1.5,1.1,0,1-.5Z" transform="translate(-5.1 -113.3)"/><path d="M210.6,224.5c-1-4.8-1.9-9.4-1.1-14.3.1-.8-.9-.6-1,0-1.1,5-.1,9.9,1.3,14.8.2.5.9-.1.8-.5Z" transform="translate(-5.1 -113.3)"/><path d="M197.2,208.6a8.1,8.1,0,0,1,1.6,6.6c-.1.5.6.4.7,0a8,8,0,0,0-1.8-7.3c-.3-.4-.8.4-.6.7Z" transform="translate(-5.1 -113.3)"/><path d="M188.3,211.5c-4.1,4.1-2.1,12.1,1.2,16,.3.4,1.5.1,1.1-.4-2.9-4-4.5-10.8-1.7-15.3.2-.3-.4-.5-.6-.3Z" transform="translate(-5.1 -113.3)"/><path d="M226.4,234.1c1.2-5.7,0-11.4-.3-17.2-.1-1-1.4-.3-1.3.4.4,5.6,1.7,11.2.9,16.8-.1.6.6.4.7,0Z" transform="translate(-5.1 -113.3)"/><path d="M236.6,230.4c1.1-8.2-1.2-17.1-3.5-24.9-.2-.8-1.9-.6-1.7.2,1.7,8,4.6,16.3,4,24.6,0,.6,1,.6,1.1.1Z" transform="translate(-5.1 -113.3)"/><path d="M239.7,202.6c.9,4.3,1.8,8.6,3,12.8.2.7,1.2,0,1-.5-1-4.2-2.1-8.4-3.3-12.6-.1-.5-.8,0-.7.4Z" transform="translate(-5.1 -113.3)"/><path d="M243.6,223.9c1.3.9,1.7,2.7,2.4,4.1s1,.1,1-.3a5.8,5.8,0,0,0-2.3-4.6c-.5-.3-1.7.3-1.1.8Z" transform="translate(-5.1 -113.3)"/><path d="M248.3,199.3a91.4,91.4,0,0,1,5.4,21.8c.1.9,1,.5,1-.3a62.7,62.7,0,0,0-5.6-22c-.3-.7-1,0-.8.5Z" transform="translate(-5.1 -113.3)"/><path d="M260,210.7a157.6,157.6,0,0,1,2.7,16.4c.1.6,1.4.9,1.4.1-.1-5.7-1.5-11.1-3.1-16.5-.1-.4-1.1-.5-1,0Z" transform="translate(-5.1 -113.3)"/><path d="M264.9,206.1c.6,2.7,1,5.5,2.1,8,.2.4,1,.1.9-.3a46.7,46.7,0,0,0-2-8.2c-.2-.6-1.2-.1-1.1.5Z" transform="translate(-5.1 -113.3)"/><path class="cls-1" d="M188.3,167.5c-24.4-5-22.6-36.7,1.4-40.7,27.6-4.1,35.3,30.3,10,40.3-.9,0-1.4.5-2.3.5" transform="translate(-5.1 -113.3)"/><path d="M188.4,167.1c-10-3.1-19.1-11.2-16.7-22.7,2.1-10.1,11.8-16.1,21.6-16.4s18.2,4.8,20.6,14.1c2.7,10.9-6,21.9-16.5,23.9-1.1.2-.8,3.4.1,3.2,17.2-3.7,25-27.1,11.1-39.1s-39.3-.3-38.1,19c.6,10,8.1,17.6,18,19,.3,0,.3-.9,0-1Z" transform="translate(-5.1 -113.3)"/><path class="cls-1" d="M178,134c-2.4-2.4-6.5-7.5-9.8-8.1a17.2,17.2,0,0,1-3.1,5.4h0L175,137" transform="translate(-5.1 -113.3)"/><path d="M178.2,133.2c-2.4-3.6-6.2-6.3-9.9-8.5-.2-.1-.4.1-.5.3a20.4,20.4,0,0,1-3,5.2c-.4.5-.4,1.8.2,2.1l5.3,3.2c1.5.9,3,2.2,4.7,2.6s.5-1.7.2-2a23.4,23.4,0,0,0-4.6-2.9l-5.3-3.1.2,2.1a19,19,0,0,0,2.4-3.8c.5-1.1.7-1.5,1.9-1.1a6.1,6.1,0,0,1,1.7,1.1c2.4,1.8,4,4.8,6.5,6.4.6.4.4-1.3.3-1.6Z" transform="translate(-5.1 -113.3)"/><path class="cls-1" d="M174.5,138.1c-3.4,1.4-7.5.3-11.2-.3h0a28.9,28.9,0,0,1-2,5.8c3.1,1.7,7.1,1.7,10.5,1" transform="translate(-5.1 -113.3)"/><path d="M174.5,137.5c-1.8-.1-3.6.3-5.5.1s-3.8-.6-5.7-1c-.3-.1-.4.4-.5.6a34.6,34.6,0,0,1-2,5.6c-.2.5-.3,1.6.3,1.9a15.4,15.4,0,0,0,10.7,1.2c.8-.2.8-2.5-.1-2.4-3.6.4-7,.8-10.4-.9l.3,1.9a31.7,31.7,0,0,0,2.1-6l-.5.6c3.4.6,8.2,2.1,11.3-.2.3-.2.3-1.2-.1-1.2Z" transform="translate(-5.1 -113.3)"/><path class="cls-1" d="M173.8,148.6c-3.7,1-7.5,2.4-11.2,2.4a28.7,28.7,0,0,1,1.7,5.8c3.7-1.7,8.1-2.4,11.2-5.1" transform="translate(-5.1 -113.3)"/><path d="M173.8,147.8c-1.9,0-3.7.8-5.6,1.2a28.3,28.3,0,0,1-5.6.8c-.7,0-.6,1.4-.4,1.8a33,33,0,0,1,1.6,5.5c.1.3.2,1,.7.8,3.4-1.5,9.2-1.9,11.3-5.4.2-.3.4-2-.3-1.8s-3.4,1.9-5.2,2.5l-6.2,2.4.7.8a32.5,32.5,0,0,0-1.7-6.1l-.4,1.8a26.3,26.3,0,0,0,11.3-2.8c.4-.2.4-1.6-.1-1.6Z" transform="translate(-5.1 -113.3)"/><path class="cls-1" d="M177.6,154.4c-2,4.1-7.5,5.8-11.2,7.8a16.1,16.1,0,0,0,3.4,3.4,79.4,79.4,0,0,0,10.5-8.1" transform="translate(-5.1 -113.3)"/><path d="M177.3,153.6c-2.7,4-7.1,5.4-11.1,7.5-.6.3-.4,1.6-.1,2.1a16.6,16.6,0,0,0,3.5,3.5h.3c3.8-2.4,7.8-4.9,10.6-8.4.3-.3.3-2.3-.4-1.9-2.6,1.5-4.8,3.8-7.2,5.6s-2.4,2.4-3.9,1.7-1.8-1.8-2.4-2.6v2.1c4.1-2.2,9.3-3.8,11.4-8.3.2-.4-.1-2.1-.6-1.4Z" transform="translate(-5.1 -113.3)"/><path class="cls-1" d="M183,156.8a86.1,86.1,0,0,1-7.8,11.5c8.8,2,9.2-3.7,10.5-11.2" transform="translate(-5.1 -113.3)"/><path d="M182.8,156.2a111.1,111.1,0,0,1-7.9,11.1c-.3.4-.4,1.9.2,2.1,3.2.8,6.7,1,8.7-2.1a20.1,20.1,0,0,0,2.5-10.2c0-.5-.5-1.7-.9-.8-1.2,2.7-.8,5.9-2.3,8.5s-4.9,2.8-7.9,2.4l.3,2.1a82.9,82.9,0,0,0,7.7-12.1c.1-.3-.1-1.5-.4-1Z" transform="translate(-5.1 -113.3)"/><path class="cls-1" d="M188.1,160.2c.7,4.4-1,8.5-.7,12.6a20.9,20.9,0,0,1,6.5-.7c0-4.4-1.4-9.2-2.4-13.2" transform="translate(-5.1 -113.3)"/><path d="M187.6,160.2c.3,4.2-1,8.3-.8,12.6,0,.3.2,1.3.6,1.2a26,26,0,0,1,6.5-.5c.6,0,.7-1.1.7-1.5-.1-4.5-.8-9.8-2.8-13.8-.3-.7-.7.3-.7.6.3,4.5,1.9,8.7,2.1,13.2l.7-1.5a22,22,0,0,0-6.6.9l.8,1.2c-.2-4.3,1.1-8.5.5-12.8-.2-1-.9-.6-.9.3Z" transform="translate(-5.1 -113.3)"/><path class="cls-1" d="M193.5,158.8a88.5,88.5,0,0,0,11.5,15.6,62.9,62.9,0,0,0,4.8-4.8,45.2,45.2,0,0,1-9.5-10.2" transform="translate(-5.1 -113.3)"/><path d="M193.3,159.3a96.4,96.4,0,0,0,11.5,16.2c.1.1.3.2.5.1,1.8-1.5,3.3-3.1,4.9-4.8a1.8,1.8,0,0,0-.2-2.3c-3.7-2.8-6-6.7-9.5-9.7-.6-.5-.6,1-.4,1.3,2.1,4.3,5.9,8,9.6,10.8l-.2-2.3c-.8.9-2.7,3.9-3.9,4.1s-3.5-2.9-4.3-3.9a86.6,86.6,0,0,1-7.5-10.4c-.4-.6-.6.5-.4.9Z" transform="translate(-5.1 -113.3)"/><path class="cls-1" d="M202.3,156.1a43,43,0,0,0,7.1,8.5c1.4-1,3.1-2.7,4.4-3.7-3.1-2-5.4-5.4-7.5-8.5" transform="translate(-5.1 -113.3)"/><path d="M202.1,156.6a42.9,42.9,0,0,0,7.1,8.9c.1.1.3.2.4.1l4.4-3.5a1.8,1.8,0,0,0,.1-2.3,33.3,33.3,0,0,1-4.1-3.9c-1.2-1.4-2.1-3.1-3.4-4.3s-.6,1.2-.5,1.5c1.4,3.4,4.4,7.2,7.6,9v-2.4l-2.3,2.1c-.5.5-1,1.1-1.7,1.2s-1.1-.3-1.8-1a56.3,56.3,0,0,1-5.4-6.4c-.3-.4-.5.7-.3,1Z" transform="translate(-5.1 -113.3)"/><path class="cls-1" d="M206.4,150c4.1,4.8,8.5,9.5,14.3,11.9a67,67,0,0,0,2.4-8.8h0c-5.1-2.4-9.5-6.5-14.6-9.2" transform="translate(-5.1 -113.3)"/><path d="M206.3,150.4c4,5,8.3,9.8,14.2,12.5.4.2.5-.3.6-.5,1-2.9,1.7-5.8,2.4-8.8.1-.5.1-1.6-.4-1.9a65.6,65.6,0,0,1-7.8-4.8c-2.1-1.5-4.3-3.4-6.9-3.9-.5-.1-.3,1.2-.1,1.4,2,1.9,4.5,3.3,6.8,4.9a58.1,58.1,0,0,0,7.8,4.8l-.5-1.6a58.9,58.9,0,0,1-2.3,8.6l.6-.5c-5.7-2.5-10.1-6.7-14.3-11.2-.3-.3-.4.7-.2.9Z" transform="translate(-5.1 -113.3)"/><path class="cls-1" d="M178.2,135.4c1.4-5.1-1.7-10.2-4.1-14.6,1.4-.7,2.7-1,4.1-1.7,2.4,4.1,2.7,8.5,4.1,12.9" transform="translate(-5.1 -113.3)"/><path d="M178.5,135.7c1.9-5.5-1.4-11-4-15.7l-.2,1.9c1.2-.5,2.8-1.6,4.1-.9s1.3,3.5,1.6,4.5.9,4.8,2,7c.3.6.5-.4.5-.6a39.2,39.2,0,0,0-4-13.5c-.1-.2-.3-.4-.5-.3l-4.1,1.7c-.6.2-.4,1.5-.2,1.9,2.4,4.4,4.6,8.5,4.1,13.6,0,.4.3,1.1.5.4Z" transform="translate(-5.1 -113.3)"/><path class="cls-1" d="M186.4,131.7a46,46,0,0,0-6.1-14.6,25.4,25.4,0,0,0,5.4-1.4h0c2.4,4.4,2,9.5,4.4,13.9" transform="translate(-5.1 -113.3)"/><path d="M186.7,131.5a47.3,47.3,0,0,0-6.1-15.1l-.3,1.8c1.2-.2,3.5-1.2,4.6-1s2.1,4.4,2.4,5.9.7,5.7,2.7,7.2c.3.2.4-.7.4-.8-.5-2.5-1.5-4.9-2-7.4a30.8,30.8,0,0,0-2.3-7.1c-.1-.2-.3-.4-.5-.3a30,30,0,0,1-5.3,1.4c-.6.1-.5,1.4-.3,1.8a50,50,0,0,1,6.2,14.2c.2.8.7-.1.6-.5Z" transform="translate(-5.1 -113.3)"/><path class="cls-1" d="M191.1,131.7c.7-4.8-.3-9.2-1.4-13.9l5.4,1c-.3,4.4-.3,8.8-.3,13.2" transform="translate(-5.1 -113.3)"/><path d="M191.5,132c.9-4.9-.1-9.8-1.1-14.6l-.5,1.6,5.4,1-.6-1.6c-.3,4.3-1.2,9.7-.1,13.9.1.5.5.4.6,0a19.7,19.7,0,0,0,.3-5.4c0-2.6.1-5.3.2-7.9,0-.5,0-1.4-.6-1.6l-5.4-1c-.6-.1-.6,1.3-.5,1.6,1,4.5,1.8,8.8,1.6,13.4,0,.4.5,1.4.7.5Z" transform="translate(-5.1 -113.3)"/><path class="cls-1" d="M195.9,132c2.4-5.4,2.7-11.2,3.4-17h0c1.7,1.7,4.4,1.4,6.8,1-1.4,4.8-2.7,9.8-3.7,14.6" transform="translate(-5.1 -113.3)"/><path d="M196.1,132.5c2.6-5.4,3.1-11.3,3.7-17.1l-.7.9c2.1,1.6,4.5,1.4,7,1.1l-.6-2a147.1,147.1,0,0,0-3.8,14.9c-.1.8.8,2.5,1.2,1,1.3-4.8,2.3-9.8,3.7-14.6.1-.4.1-2.1-.6-2-2.4.3-4.6.6-6.6-1-.4-.4-.7.7-.7.9-.7,5.8-1.2,11.5-3.1,17-.1.3.2,1.5.5.8Z" transform="translate(-5.1 -113.3)"/><path class="cls-1" d="M201,134.1c4.1-1,6.5-7.1,8.5-10.5,1.4,1.4,2.4,2.4,4.4,2.4-2,3.1-3.7,6.8-6.1,9.5" transform="translate(-5.1 -113.3)"/><path d="M201,134.8c3.2-.6,5-3.5,6.5-6.1l1.1-1.9a5.1,5.1,0,0,1,.7-1.2c.8-.6-.1-.4.6-.1s1.1,1,1.6,1.3a5.6,5.6,0,0,0,2.4.6l-.4-2.4a116.4,116.4,0,0,0-6.1,10c-.1.3-.1,2,.5,1.6,2.9-1.8,4.5-6.5,6.3-9.3.3-.5.5-2.4-.4-2.4s-2.8-1-4.1-2.2-.6-.1-.7.2c-2.1,3.8-3.8,8.9-8.1,10.7-.4.2-.3,1.5.1,1.4Z" transform="translate(-5.1 -113.3)"/><path class="cls-1" d="M205.7,136.8c4.4-.7,9.5-2.7,12.6-6.5a38.5,38.5,0,0,0,3.4,4.4h0c-2.7,2.7-7.8,5.1-11.9,4.8" transform="translate(-5.1 -113.3)"/><path d="M205.8,137.6a20,20,0,0,0,9.1-2.9c.6-.4,2.5-2.5,3.2-2.5s2.7,3,3.4,3.8v-2.4c-3.4,3.2-7.1,4.1-11.5,4.8-.8.1-.7,2.1.1,2.2,4.1.9,9.2-1.9,12.1-4.6a2.1,2.1,0,0,0,.1-2.5,45.6,45.6,0,0,1-3.4-4.3c-.2-.2-.4-.2-.6,0-3.4,3.6-7.5,5.4-12.2,6.7-.5.1-.5,1.6,0,1.6Z" transform="translate(-5.1 -113.3)"/><path class="cls-1" d="M208.5,141.2c5.1,1,10.5,0,15.3-1.7a46,46,0,0,0,.7,6.8c-4.1.3-8.5-1.7-12.6-2.4" transform="translate(-5.1 -113.3)"/><path d="M208.5,141.9c5.1,1.2,10.7,1,15.4-1.5l-.6-.9a55.5,55.5,0,0,0,.6,7.1l.5-1.5a23.4,23.4,0,0,1-7.2-1.1c-1.8-.5-3.6-1.4-5.4-.8s-.4,1.2-.1,1.4,4.3,1.5,6.3,2a23.2,23.2,0,0,0,6.4.8c.6,0,.6-1.2.5-1.5a57.1,57.1,0,0,1-.8-6.5c0-.2-.1-1-.5-1-5.2.8-9.9,2.6-15.3,2-.5-.1-.4,1.3,0,1.4Z" transform="translate(-5.1 -113.3)"/><path class="cls-1" d="M190.8,138.1c2.4-3.7,3.7-9.2,2.4-13.6a31.1,31.1,0,0,0,5.8.3h0c-.3,4.8-2.7,9.2-3.4,13.9" transform="translate(-5.1 -113.3)"/><path d="M191,138.8a17.4,17.4,0,0,0,2.6-14.7l-.3,1.5a39.5,39.5,0,0,0,5.8.6l-.6-1.6c-.5,4.8-3.3,9.4-3.3,14.2,0,.3.4,1.4.7.6s1.3-4.7,2-7a36.7,36.7,0,0,0,1.6-7.3c0-.3,0-1.6-.6-1.6a32.9,32.9,0,0,1-5.8-.1c-.5-.1-.4,1.3-.3,1.5,1.1,4.3-.3,8.7-2.3,12.5-.1.3.1,1.6.4,1.1Z" transform="translate(-5.1 -113.3)"/><path class="cls-1" d="M196.9,139.8c2.4-3.4,2.4-7.8,3.7-11.9,1.4,1.7,3.7,2.4,5.8,2.7-1.7,3.1-3.7,6.4-5.1,9.5" transform="translate(-5.1 -113.3)"/><path d="M197.1,140.6c2.5-3.5,2.7-8,4-12.1l-.7.5a10.4,10.4,0,0,0,6,2.9l-.3-2.4c-1.8,3.2-4.3,6.5-5.2,10.1-.1.3.1,2.1.7,1.4a25.6,25.6,0,0,0,2.6-4.7l2.6-4.8c.3-.5.3-2-.5-2.2a9.1,9.1,0,0,1-5.5-2.5c-.4-.4-.6.1-.7.5-1.2,3.9-1.4,8.1-3.5,11.7-.2.4,0,2.2.5,1.6Z" transform="translate(-5.1 -113.3)"/><path class="cls-1" d="M199,139.8c3.4,1.4,8.5,1.7,11.2-1.4h.3c0,2.4,1,5.4,1.4,8.1a9.6,9.6,0,0,1-9.8-2.4" transform="translate(-5.1 -113.3)"/><path d="M198.9,140.6a13.9,13.9,0,0,0,6.6,1.4,8.1,8.1,0,0,0,2.7-.7c.6-.3,1.8-1.7,2.3-1.6l-.6-1.2c.1,2.9.9,5.6,1.3,8.5l.6-1.7a11.3,11.3,0,0,1-5.2.2c-1.7-.4-2.9-1.5-4.5-2s-.4,1-.3,1.2c2,3.5,6.5,4,10.1,3.1.6-.2.6-1.2.6-1.7-.4-2.6-1.2-5.2-1.4-7.8,0-.3-.1-1.2-.6-1.2s-.8.3-1.2.6a9.4,9.4,0,0,1-3.4,1.5,13.7,13.7,0,0,1-6.7-.4c-.6-.2-.6,1.4-.2,1.6Z" transform="translate(-5.1 -113.3)"/><path class="cls-1" d="M197.3,147.3c1,3.7,3.1,7.5,4.8,10.9,1.4-1.7,2.7-3.4,4.8-4.1-1.4-2-3.1-4.1-4.4-5.8" transform="translate(-5.1 -113.3)"/><path d="M197,147.6a61.9,61.9,0,0,0,4.6,11.4c.1.3.5.5.7.2s2.6-3.1,4.6-3.8.5-1.9.2-2.3a22.4,22.4,0,0,0-4.8-5.7c-.6-.4-.6,1.4-.4,1.7a59.7,59.7,0,0,0,4.4,6.3v-2.5a12.7,12.7,0,0,0-4.9,4.4l.7.2a68.6,68.6,0,0,1-4.9-10.3c-.3-.9-.6.3-.5.7Z" transform="translate(-5.1 -113.3)"/><path class="cls-1" d="M191.8,148.6c.7,4.1-1,8.5-1.7,12.6,7.5.3,8.1-2.7,6.1-10.5" transform="translate(-5.1 -113.3)"/><path d="M191.6,148.8c.5,4.1-1,8-1.9,12-.1.4-.1,1.3.4,1.4,2.6.4,6,.1,7.2-2.6s.3-6.7-.7-9.4c-.4-1.1-.9.2-.8.8s1.6,5.3.4,7.3-4.2,1.8-6.1,2l.5,1.2c.6-4.3,2.1-8.5,1.5-12.9-.1-.7-.5-.2-.5.3Z" transform="translate(-5.1 -113.3)"/><path class="cls-1" d="M187.4,146.6a25,25,0,0,1-7.1,7.5c2,1.7,3.4,3.7,5.4,5.4,2-2.7,3.4-5.8,5.4-8.5" transform="translate(-5.1 -113.3)"/><path d="M187.3,146.1a27.8,27.8,0,0,1-7.1,7,1.6,1.6,0,0,0-.1,1.9c1.9,1.7,3.5,3.8,5.4,5.6.2.2.4.2.6,0a57.8,57.8,0,0,0,5.4-8.9c.1-.2,0-2-.5-1.5-2.1,1.9-2.7,4.8-4.6,6.8s-.7,1-1.7.4a9.4,9.4,0,0,1-1.5-1.5,38.4,38.4,0,0,0-2.9-2.7v2a26,26,0,0,0,7.2-8c.1-.3-.1-1.4-.4-1Z" transform="translate(-5.1 -113.3)"/><path class="cls-1" d="M184,142.9c-3.4-.3-6.5-1.4-9.8-2a39.5,39.5,0,0,1,1.4,6.1h0c3.7,0,7.1-1.4,10.5-2.4" transform="translate(-5.1 -113.3)"/><path d="M184,142c-3.3-.7-6.5-1.6-9.9-2.3-.6-.1-.5,1.5-.4,1.8a43.5,43.5,0,0,1,1.3,5.8c0,.2.1.8.5.8,3.2,0,8-.6,10.6-2.6.3-.3.4-1.6-.1-1.7s-3.5.7-5.1,1.2a25.5,25.5,0,0,1-5.4,1l.5.8a49,49,0,0,0-1.4-6.4l-.4,1.8c3.3.7,6.5,1.7,9.8,1.8.6,0,.5-1.7,0-1.8Z" transform="translate(-5.1 -113.3)"/><path class="cls-1" d="M187.7,140.8c-4.1-.3-7.5-4.1-10.5-6.8a7.3,7.3,0,0,0,5.8-2.7c2.4,2.4,4.4,5.8,6.5,8.5" transform="translate(-5.1 -113.3)"/><path d="M187.7,139.9c-4.2-1-7.3-4.1-10.4-6.9v2a8.5,8.5,0,0,0,3.7-.9c1.3-.7,1.6-1.9,2.9-.7s3.1,5.7,5.5,7.2c.5.3.4-1.2.3-1.4-1.3-3.2-4.1-6.4-6.5-8.9-.2-.2-.3-.2-.5,0a7.3,7.3,0,0,1-5.5,2.6c-.7,0-.4,1.7-.1,2,3.1,2.8,6.2,6.5,10.6,6.7.6,0,.5-1.7,0-1.8Z" transform="translate(-5.1 -113.3)"/><path class="cls-1" d="M190.1,136.8c-2-4.1-4.4-8.1-6.4-11.9l5.4-2c2,4.4,1.7,9.8,3.1,14.6" transform="translate(-5.1 -113.3)"/><path d="M190.4,136.2c-1.9-4.1-4.3-8-6.4-12v1.6c.9-.3,3.7-1.9,4.6-1.6s1.8,4.2,2,5.7.5,5.7,1.5,8.3c.4.9.7-.6.7-.9-.7-5-1.2-10.4-3.2-15.1-.1-.2-.2-.3-.4-.3l-5.4,2.1c-.4.2-.3,1.3-.1,1.6,2.2,3.9,4.2,7.9,6.5,11.8.5.8.7-.8.5-1.2Z" transform="translate(-5.1 -113.3)"/><path class="cls-1" d="M191.5,142.2c-1.7,2-4.1,3.7-5.8,6.1,1.7,0,3.4,1.7,4.8,2.7l3.7-5.8" transform="translate(-5.1 -113.3)"/><path d="M191.3,141.5c-1.9,2.1-4,4-5.7,6.2-.2.2-.3,1.1.1,1.2a14.6,14.6,0,0,1,4.7,3.1c.1.1.3,0,.4-.1a41.4,41.4,0,0,0,3.9-5.8c.2-.4,0-2.8-.7-1.9A17.2,17.2,0,0,0,192,147c-.3.6-1.1,2.6-1.8,2.7s-1.7-1.2-2.1-1.5a3.5,3.5,0,0,0-2.4-.6l.2,1.3c1.6-2.3,4-3.9,5.8-6,.3-.3.1-1.8-.4-1.3Z" transform="translate(-5.1 -113.3)"/><path class="cls-1" d="M193.9,142.2a75.1,75.1,0,0,1,1.7,8.5,68,68,0,0,0,5.4-4.8,20.7,20.7,0,0,1-5.4-4.1" transform="translate(-5.1 -113.3)"/><path d="M193.6,142.4c.6,2.8,1.2,5.7,1.5,8.6,0,.2.2.9.6.7a67.7,67.7,0,0,0,5.5-4.4c.5-.5.7-2.2-.1-2.6a20.3,20.3,0,0,1-3.1-2c-.8-.6-1.5-1.5-2.5-1.6s-.3,1.2-.2,1.4c1,2.2,3.5,3.7,5.5,4.8l-.2-2.5c-1.7,1.7-3.4,3.4-5.2,4.9l.6.7a69.7,69.7,0,0,0-1.9-8.5c-.2-.6-.5.1-.5.4Z" transform="translate(-5.1 -113.3)"/><path class="cls-1" d="M194.5,144.2c-2.7-2-5.1-4.4-7.8-6.4h0c3.1-.3,10.9-5.8,9.8.7" transform="translate(-5.1 -113.3)"/><path d="M194.7,143.4a91.2,91.2,0,0,0-7.9-6.8V139c2-.3,3.8-1.3,5.8-1.9a5.7,5.7,0,0,1,2.7-.4c1.2.3.7,1.3,1,2.2s.2.6.5.4.6-2.8.3-3.7a2.3,2.3,0,0,0-2.2-1.7c-2.9-.1-5.4,2.1-8.2,2.6-.8.1-.6,2.1-.1,2.4,2.6,2,4.9,4.6,7.8,6.2.6.4.6-1.5.3-1.9Z" transform="translate(-5.1 -113.3)"/><path class="cls-1" d="M181.3,149c-2.7.7-5.8.7-8.5,1a35.4,35.4,0,0,0,3.4,6.1,30.6,30.6,0,0,1,6.8-6.5" transform="translate(-5.1 -113.3)"/><path d="M181.3,148.2c-2.8.4-5.7.4-8.5.7-.7.1-.5,1.6-.3,2a36.3,36.3,0,0,0,3.5,6.4c.2.2.4.2.6,0a50.2,50.2,0,0,1,6.6-6.9c.3-.2.3-1.7-.2-1.4a24.1,24.1,0,0,0-7,6h.6a37.7,37.7,0,0,1-3.3-5.8l-.3,2a41,41,0,0,0,8.6-1.4c.4-.1.3-1.7-.1-1.6Z" transform="translate(-5.1 -113.3)"/></svg>