<svg id="Layer_2" data-name="Layer 2" xmlns="http://www.w3.org/2000/svg" viewBox="0 0 331.1 206.2"><defs><style>.cls-1{fill:#fff;stroke-miterlimit:10;}.cls-1,.cls-2{stroke:#000;stroke-width:2.03px;}.cls-2{fill:none;stroke-linecap:round;stroke-linejoin:round;}</style></defs><title>dino</title><path class="cls-1" d="M339.3,100.6c-10-9.4-19.9-18.2-27-21.1s-26.4-15.2-32.8-16.4-29.9-2.9-35.8,10-8.2,31.1-8.2,31.1c-.6,5.3-.6,11.1-7,8.8s-38.7,6.5-42.8,9.4-29.9,19.9-39.9,31.1-36.9,2.9-41.6-1.8S67.8,120,52.5,115.3s-27-9.4-34.6-1.8,0,7,8.2,7.6,27.6,8.2,38.7,22.3,27.6,46.9,83.9,63.9c0,0-13.5,18.8-18.2,24.6s-18.8,18.8,5.3,20.5c7.6,1.2,49.3-.6,49.3-.6s-7.6,10.6,4.1,12.3,19.4-1.8,29.3,1.2,21.7-1.2,23.5-2.9,5.3-5.3-4.1-8.2c14.7.6,24.6-5.9,7-11.7,3.5-2.3,1.8-6.5-15.2-3.5-.6,0-2.9-2.9-2.9-2.9s10-10.6,1.8-17.6c-.6,0-10-14.1-10-14.1s32.3-11.1,38.7-22.9c0,0,10.6,7,11.7,14.1s3.5,11.7,1.8,16.4c-.6.6,8.8,0,8.8-11.1,0,.6,4.7,16.4,4.7,16.4s15.8-11.7-.6-31.1c0,.6-11.1-15.8-17-18.8,0,0,7.6-4.7,11.1-20.5,3.5-11.1,16.4-6.5,22.9-4.7s17.6,6.5,23.5-1.8c3.5-6.5,0-10.6-9.4-14.7-1.2-1.2-15.8-3.5-23.5-5.9s-7.6-10,.6-11.1c4.7,1.8,8.2,7,8.2,7l5.3-4,5.9,6.5,5.3-4.1,4.7,6.5,4.7-1.8,3.5,7a19.1,19.1,0,0,0,9.4-7C339.9,115.9,349.2,110,339.3,100.6ZM195.5,238.4H182.1s8.2-3.5,7.6-4.1c-10.6-5.9-32.8-1.8-32.8-1.8,11.7-5.3,19.4-15.2,19.4-15.2s15.1,12,23,14C199.5,231.6,195.5,238.4,195.5,238.4Z" transform="translate(-13.7 -61.3)"/><path d="M287.3,89.6c-2.8,0-4-1.4-3.4-3.6a12,12,0,0,1,5.7-7c2.8-1.6,6.9,0,8.2,3s.5,3.7-1.4,4.8A20.3,20.3,0,0,1,287.3,89.6Z" transform="translate(-13.7 -61.3)"/><path d="M166.9,158.9c-.1.3-.3.9-.6,1-2.4.9-4,2.8-6.2,4a1.8,1.8,0,0,1-1.8,0c-.6-.4-.4-1-.3-1.6.6-3.4,3.7-4.3,6.1-5.8S167,157.4,166.9,158.9Z" transform="translate(-13.7 -61.3)"/><path d="M186.6,163.8a3,3,0,0,1-.7-.5,1.9,1.9,0,0,1-.2-2.2,6.7,6.7,0,0,1,6-3.6,1.7,1.7,0,0,1,.9,3.2c-2,.8-4,1.5-5.6,3Z" transform="translate(-13.7 -61.3)"/><path d="M197.7,204.2a7.2,7.2,0,0,1,3.4.4,1,1,0,0,1,.4.7,1.1,1.1,0,0,1-.3.8,2.6,2.6,0,0,1-1.2.6,19.4,19.4,0,0,0-5.3,1.4c-1.4.6-2.7-.3-2.9-2s0-1.6,1.1-1.6Z" transform="translate(-13.7 -61.3)"/><path d="M236.5,135a1.7,1.7,0,0,1-.6,1.7,16.6,16.6,0,0,1-5.9,2.2,1.4,1.4,0,0,1-1.1-2.5,10.7,10.7,0,0,1,5.6-2.8A1.8,1.8,0,0,1,236.5,135Z" transform="translate(-13.7 -61.3)"/><path d="M181.9,145.6a1.2,1.2,0,0,1-1.2-.9,2.2,2.2,0,0,1,1-2.8,24,24,0,0,1,3.8-1.7c1.2-.4,2.2.5,2.6,2a1.6,1.6,0,0,1-1.6,2.2,7.6,7.6,0,0,0-3.5.9A2.6,2.6,0,0,1,181.9,145.6Z" transform="translate(-13.7 -61.3)"/><path d="M206.5,131.9a1.8,1.8,0,0,1-1.5-2.4c.6-1.6,6.1-3.6,7.7-2.8s.9,1.7.2,2-4.3,1.5-6,3.2Z" transform="translate(-13.7 -61.3)"/><path d="M208.8,151c-1.5-.1-2.1-.9-2-1.7a2.4,2.4,0,0,1,1.2-1.9l3.4-1.5a1.6,1.6,0,0,1,2.3.9,2,2,0,0,1-.5,2.5C211.8,150.4,209.9,150.5,208.8,151Z" transform="translate(-13.7 -61.3)"/><path d="M268.1,73h.8a1.3,1.3,0,0,1,1,1.3,1.1,1.1,0,0,1-.7,1.1l-4.3,1.6c-.7.3-1.5.7-2.1-.1a2.8,2.8,0,0,1-.3-2.6,1.7,1.7,0,0,1,1.7-1.2Z" transform="translate(-13.7 -61.3)"/><path d="M255.7,89.8a4.2,4.2,0,0,1-.3,1,.8.8,0,0,1-1.2.4c-2.8-1.6-3.3-4.5-1.3-6.9a1.2,1.2,0,0,1,1.7-.2c.4.2.9.7.8.9S255.8,88,255.7,89.8Z" transform="translate(-13.7 -61.3)"/><path d="M95.4,157.3c-.5,1.5-.8,2.8-1.3,4.1a1,1,0,0,1-1.1.6c-.6,0-.8-.5-.9-.9s-.4-2.1-.6-3.2a4.3,4.3,0,0,1,.6-3.1,1.5,1.5,0,0,1,1.5-.8,1.5,1.5,0,0,1,1.3,1.2A20.2,20.2,0,0,1,95.4,157.3Z" transform="translate(-13.7 -61.3)"/><path d="M133.5,176.2a1.7,1.7,0,0,1-.6,1.6,6.7,6.7,0,0,1-4.9,1.9c-.6,0-1.1-.9-.7-1.3a42.3,42.3,0,0,1,3.4-3.6C131.5,174.1,133.3,175,133.5,176.2Z" transform="translate(-13.7 -61.3)"/><path d="M325.3,103.4a.9.9,0,0,1-.9.9,9.9,9.9,0,0,1-4.8-1,1.6,1.6,0,0,1-.8-1.9,1.5,1.5,0,0,1,1.7-1.3,5.7,5.7,0,0,1,4.8,2.9A1.2,1.2,0,0,1,325.3,103.4Z" transform="translate(-13.7 -61.3)"/><path d="M245.9,104.5a3.3,3.3,0,0,1-2.7-4,2.7,2.7,0,0,1,2.8-1.1c1.5.7,2,3.8.8,4.8Z" transform="translate(-13.7 -61.3)"/><path d="M182.8,195.9c-1.2-.1-2-1.4-1.5-2.2a8.7,8.7,0,0,1,1.4-1.8,1.9,1.9,0,0,1,2.1-.4,2.1,2.1,0,0,1,1.2,2.3c0,.9-.6,1.3-1.4,1.6Z" transform="translate(-13.7 -61.3)"/><path d="M154.8,183.5a1.5,1.5,0,0,1-1.5-1.5,2.9,2.9,0,0,1,.6-1.7c.9-1.2,2.2-1.7,3.1-1.2a1.4,1.4,0,0,1,.7,1.5A3.1,3.1,0,0,1,154.8,183.5Z" transform="translate(-13.7 -61.3)"/><path d="M147.4,194.6c-.5-.5-1-.8-1.3-1.3a1.2,1.2,0,0,1,.5-1.6,13.8,13.8,0,0,1,2.5-1,1.8,1.8,0,0,1,2,1.4,1.4,1.4,0,0,1-1.1,1.7Z" transform="translate(-13.7 -61.3)"/><path d="M268.7,98.5a4.4,4.4,0,0,1,.4,2.7c0,.9,0,2-1.2,2.2a2.4,2.4,0,0,1-2-3.7A2.9,2.9,0,0,1,268.7,98.5Z" transform="translate(-13.7 -61.3)"/><path d="M261.6,122.9c1.1.3,2.4.2,3.2,1.3a1.5,1.5,0,0,1,.2,1.7,1.8,1.8,0,0,1-1,.8,2.8,2.8,0,0,1-3.7-2.3A1.3,1.3,0,0,1,261.6,122.9Z" transform="translate(-13.7 -61.3)"/><path d="M309.4,96.1h-.9c-.9-.2-1.4-1-1.2-2.1s.8-1.2,1.6-1.1l.9.2c.9.4,2.2.3,2.5,1.7S311.2,96.1,309.4,96.1Z" transform="translate(-13.7 -61.3)"/><path d="M257.7,113.8a1.6,1.6,0,0,1-1.6,1.8,1.8,1.8,0,0,1-2.1-1.8c-.1-1.4.6-2.5,1.5-2.4A2.7,2.7,0,0,1,257.7,113.8Z" transform="translate(-13.7 -61.3)"/><path d="M103.4,170.8c.1-.6.3-1.2,1-1.4s1.9,1.4,2.1,3.2a1.5,1.5,0,0,1-1.2,1.7,1.4,1.4,0,0,1-1.2-.5C103.4,172.8,103.3,172.3,103.4,170.8Z" transform="translate(-13.7 -61.3)"/><path class="cls-1" d="M242.5,193.9c2.3,4.7,4.7,10.6,1.8,18.2,0,.6,7-4.7,7-4.7a11.2,11.2,0,0,1,0,10.6c8.2-5.3,15.2-14.7-1.8-28.7Z" transform="translate(-13.7 -61.3)"/><path class="cls-2" d="M163.9,185.7c2.3,8.8,2.9,34,36.9,45.7-.6-.6-18.2,25.8-18.2,25.8" transform="translate(-13.7 -61.3)"/><path class="cls-2" d="M218.5,204.4c-15.2-15.8-21.7-18.8-28.1-24" transform="translate(-13.7 -61.3)"/><path class="cls-2" d="M266.6,167.5c5.9-7.6,9.4-11.1,11.1-20.5-9.4-17-30.5-2.3-40.5,1.8Z" transform="translate(-13.7 -61.3)"/><path class="cls-2" d="M254.8,183.9s-23.5,18.8-35.8,20.5c0,0-15.8-15.8-24.6-21.1,0,0,21.7-19.9,33.4-22.9,0,.6,17,4.7,29.3,20.5C256,181,254.8,183.9,254.8,183.9Z" transform="translate(-13.7 -61.3)"/></svg>