<svg id="Layer_1" data-name="Layer 1" xmlns="http://www.w3.org/2000/svg" xmlns:xlink="http://www.w3.org/1999/xlink" viewBox="0 0 612 273"><defs><style>.cls-1,.cls-10,.cls-13,.cls-14,.cls-4,.cls-5{fill:none;}.cls-2{clip-path:url(#clip-path);}.cls-3{fill:#2b388f;}.cls-4,.cls-5{stroke:#2b388f;stroke-linejoin:round;}.cls-4{stroke-width:3.44px;}.cls-5{stroke-width:4.01px;}.cls-6{fill:#25a9e0;}.cls-7{fill:#6fafdf;}.cls-8{fill:#fff;}.cls-9{fill:#1b75bb;}.cls-10{stroke:#1b75bb;stroke-width:1.7px;}.cls-10,.cls-13,.cls-14{stroke-miterlimit:10;}.cls-11{fill:#00a8e1;}.cls-12{fill:#004959;}.cls-13,.cls-14{stroke:#004959;}.cls-13{stroke-width:1.61px;}.cls-14{stroke-width:2.14px;}.cls-15{fill:#009694;}</style><clipPath id="clip-path" transform="translate(-16 -2)"><rect class="cls-1" x="3" y="2" width="633.5" height="273"/></clipPath></defs><title>header-desktop</title><g class="cls-2"><path class="cls-3" d="M35.9,191.5q9.4-4.4,19-8.4l2.5,27.5L68,206.1l-2.3-27.3q9.7-3.7,19.6-7,2.9,39.6,5.7,79.2-9.3,3.8-18.5,8.1l-2.5-29.7L59.5,234l2.7,29.9q-9.1,4.5-18,9.4-4.1-40.9-8.4-81.9m18,66.5L51,227.1q12.8-6.1,25.9-11.3l2.4,30.3,2.3-1q-2.3-30.3-4.7-60.6l-2.4.9,2.2,27.5q-13.1,5.2-25.9,11.3l-2.7-28-2.3,1q3,30.9,6,61.9l2.2-1.1" transform="translate(-16 -2)"/><path class="cls-4" d="M35.9,191.5q9.4-4.4,19-8.4l2.5,27.5L68,206.1l-2.3-27.3q9.7-3.7,19.6-7,2.9,39.6,5.7,79.2-9.3,3.8-18.5,8.1l-2.5-29.7L59.5,234l2.7,29.9q-9.1,4.5-18,9.4Q40.1,232.4,35.9,191.5Zm18,66.5L51,227.1q12.8-6.1,25.9-11.3l2.4,30.3,2.3-1q-2.3-30.3-4.7-60.6l-2.4.9,2.2,27.5q-13.1,5.2-25.9,11.3l-2.7-28-2.3,1q3,30.9,6,61.9Z" transform="translate(-16 -2)"/><path class="cls-3" d="M90.1,210.7a58.3,58.3,0,0,1,7.3-32.4,44.5,44.5,0,0,1,9.8-11.9,30.6,30.6,0,0,1,12.5-6.6,24.1,24.1,0,0,1,12.9.2,26.2,26.2,0,0,1,10.8,6.4,33.4,33.4,0,0,1,7.5,11.3,42.1,42.1,0,0,1,3.1,14.9,50.9,50.9,0,0,1-2,16,55.8,55.8,0,0,1-6.4,14.3,49.5,49.5,0,0,1-9.7,11.3,34.7,34.7,0,0,1-12,6.9,23.7,23.7,0,0,1-12.3.9,22.3,22.3,0,0,1-10.4-5.3,30.7,30.7,0,0,1-7.5-10.7,44.9,44.9,0,0,1-3.6-15.2m8.5-3a32.6,32.6,0,0,0,2.6,11.1,22.7,22.7,0,0,0,5.5,7.9,16.7,16.7,0,0,0,7.7,4,17.3,17.3,0,0,0,9-.5,24.8,24.8,0,0,0,8.8-5,35.7,35.7,0,0,0,7.1-8.3,41,41,0,0,0,4.6-10.6,37.8,37.8,0,0,0,1.4-11.8,31.1,31.1,0,0,0-2.3-10.9,24.2,24.2,0,0,0-5.5-8.2,18.8,18.8,0,0,0-7.9-4.6,17.6,17.6,0,0,0-9.4,0,22.7,22.7,0,0,0-9.1,4.8,33.1,33.1,0,0,0-7.1,8.6,41.5,41.5,0,0,0-4.4,11.2,40.9,40.9,0,0,0-1,12.3m24.6,19.4a15.5,15.5,0,0,1-8.1.5,15.3,15.3,0,0,1-6.9-3.6,20.6,20.6,0,0,1-5-7.1,29,29,0,0,1-2.3-10,36.4,36.4,0,0,1,1-11.1,37.5,37.5,0,0,1,4-10,30,30,0,0,1,6.4-7.8,20.3,20.3,0,0,1,8.2-4.3,15.7,15.7,0,0,1,8.4,0,16.9,16.9,0,0,1,7,4.1,21.7,21.7,0,0,1,5,7.3,27.8,27.8,0,0,1,2.1,9.8,33.9,33.9,0,0,1-1.2,10.6,37,37,0,0,1-4.2,9.5,32.3,32.3,0,0,1-6.4,7.5,22.1,22.1,0,0,1-8,4.5M109,204.3a17.6,17.6,0,0,0,1.4,6.1,12.6,12.6,0,0,0,3,4.3,9.3,9.3,0,0,0,9.2,2,13.3,13.3,0,0,0,4.9-2.7,19.2,19.2,0,0,0,3.9-4.6,22.6,22.6,0,0,0,2.5-5.9,21,21,0,0,0,.7-6.5,17.1,17.1,0,0,0-1.3-6,13,13,0,0,0-3-4.4,10.1,10.1,0,0,0-4.3-2.4,9.6,9.6,0,0,0-5.1.1,12.6,12.6,0,0,0-4.9,2.7,18.5,18.5,0,0,0-3.9,4.7,22.7,22.7,0,0,0-2.4,6,22,22,0,0,0-.6,6.7" transform="translate(-16 -2)"/><path class="cls-4" d="M90.1,210.7a58.3,58.3,0,0,1,7.3-32.4,44.5,44.5,0,0,1,9.8-11.9,30.6,30.6,0,0,1,12.5-6.6,24.1,24.1,0,0,1,12.9.2,26.2,26.2,0,0,1,10.8,6.4,33.4,33.4,0,0,1,7.5,11.3,42.1,42.1,0,0,1,3.1,14.9,50.9,50.9,0,0,1-2,16,55.8,55.8,0,0,1-6.4,14.3,49.5,49.5,0,0,1-9.7,11.3,34.7,34.7,0,0,1-12,6.9,23.7,23.7,0,0,1-12.3.9,22.3,22.3,0,0,1-10.4-5.3,30.7,30.7,0,0,1-7.5-10.7A44.9,44.9,0,0,1,90.1,210.7Zm8.5-3a32.6,32.6,0,0,0,2.6,11.1,22.7,22.7,0,0,0,5.5,7.9,16.7,16.7,0,0,0,7.7,4,17.3,17.3,0,0,0,9-.5,24.8,24.8,0,0,0,8.8-5,35.7,35.7,0,0,0,7.1-8.3,41,41,0,0,0,4.6-10.6,37.8,37.8,0,0,0,1.4-11.8,31.1,31.1,0,0,0-2.3-10.9,24.2,24.2,0,0,0-5.5-8.2,18.8,18.8,0,0,0-7.9-4.6,17.6,17.6,0,0,0-9.4,0,22.7,22.7,0,0,0-9.1,4.8,33.1,33.1,0,0,0-7.1,8.6,41.5,41.5,0,0,0-4.4,11.2A40.9,40.9,0,0,0,98.5,207.7Zm24.6,19.4a15.5,15.5,0,0,1-8.1.5,15.3,15.3,0,0,1-6.9-3.6,20.6,20.6,0,0,1-5-7.1,29,29,0,0,1-2.3-10,36.4,36.4,0,0,1,1-11.1,37.5,37.5,0,0,1,4-10,30,30,0,0,1,6.4-7.8,20.3,20.3,0,0,1,8.2-4.3,15.7,15.7,0,0,1,8.4,0,16.9,16.9,0,0,1,7,4.1,21.7,21.7,0,0,1,5,7.3,27.8,27.8,0,0,1,2.1,9.8,33.9,33.9,0,0,1-1.2,10.6,37,37,0,0,1-4.2,9.5,32.3,32.3,0,0,1-6.4,7.5A22.1,22.1,0,0,1,123.1,227.1ZM109,204.3a17.6,17.6,0,0,0,1.4,6.1,12.6,12.6,0,0,0,3,4.3,9.3,9.3,0,0,0,9.2,2,13.3,13.3,0,0,0,4.9-2.7,19.2,19.2,0,0,0,3.9-4.6,22.6,22.6,0,0,0,2.5-5.9,21,21,0,0,0,.7-6.5,17.1,17.1,0,0,0-1.3-6,13,13,0,0,0-3-4.4,10.1,10.1,0,0,0-4.3-2.4,9.6,9.6,0,0,0-5.1.1,12.6,12.6,0,0,0-4.9,2.7,18.5,18.5,0,0,0-3.9,4.7,22.7,22.7,0,0,0-2.4,6A22,22,0,0,0,109,204.3Z" transform="translate(-16 -2)"/><path class="cls-3" d="M154.7,154.3q10.5-1.8,21-3.1.7,27.4,1.3,54.8,8.5-1.5,17-2.6l.3,19.2q-18.6,2.8-37,7.2-1.3-37.7-2.6-75.5M189,214.6V212q-10.3,1.6-20.5,3.6-.8-27.1-1.5-54.2l-2.4.4q.8,28.5,1.7,57,11.4-2.4,22.9-4.1" transform="translate(-16 -2)"/><path class="cls-4" d="M154.7,154.3q10.5-1.8,21-3.1.7,27.4,1.3,54.8,8.5-1.5,17-2.6l.3,19.2q-18.6,2.8-37,7.2Q156,192.1,154.7,154.3ZM189,214.6V212q-10.3,1.6-20.5,3.6-.8-27.1-1.5-54.2l-2.4.4q.8,28.5,1.7,57Q177.5,216.4,189,214.6Z" transform="translate(-16 -2)"/><path class="cls-3" d="M197.1,149q10.7-.9,21.4-1.3.2,35.9.3,71.9-10.4,1-20.7,2.5-.5-36.5-1-73.1m12.5,62.9q-.2-27.5-.5-55l-2.5.2q.3,27.6.5,55.2l2.4-.3" transform="translate(-16 -2)"/><path class="cls-4" d="M197.1,149q10.7-.9,21.4-1.3.2,35.9.3,71.9-10.4,1-20.7,2.5Q197.6,185.5,197.1,149Zm12.5,62.9q-.2-27.5-.5-55l-2.5.2q.3,27.6.5,55.2Z" transform="translate(-16 -2)"/><path class="cls-3" d="M224,219.1q-.1-35.8-.2-71.6,8.7-.2,17.4-.1a47.5,47.5,0,0,1,15.7,2.7,31,31,0,0,1,11.5,7.2,29.8,29.8,0,0,1,7,11.3,42.5,42.5,0,0,1,2.2,15,41.3,41.3,0,0,1-2.7,14.7,28.1,28.1,0,0,1-7.2,10.5,32.3,32.3,0,0,1-11.4,6.5,55,55,0,0,1-15.3,2.7q-8.5.4-17,1.1m9.2-9.2,7.8-.4c8.9-.4,15.7-2.7,20.3-7.3s7-10.9,7.1-19.3-2.1-14.9-6.6-19.7-11.4-7.4-20.5-7.4h-8q0,27-.1,54m2.4-2.7q.1-24.4.1-48.8h5.5c7.9,0,14.1,2.3,18.4,6.4s6.4,10.2,6.3,18.1-2.4,13.7-6.7,17.7-10.4,6.1-18.2,6.4l-5.4.2m8.1-9.4c4.6-.1,8.2-1.4,10.7-3.8s3.8-6.2,3.9-11.3-1.2-8.9-3.7-11.4-6.1-3.8-10.8-3.8q-.1,15.2-.2,30.3" transform="translate(-16 -2)"/><path class="cls-4" d="M224,219.1q-.1-35.8-.2-71.6,8.7-.2,17.4-.1a47.5,47.5,0,0,1,15.7,2.7,31,31,0,0,1,11.5,7.2,29.8,29.8,0,0,1,7,11.3,42.5,42.5,0,0,1,2.2,15,41.3,41.3,0,0,1-2.7,14.7,28.1,28.1,0,0,1-7.2,10.5,32.3,32.3,0,0,1-11.4,6.5,55,55,0,0,1-15.3,2.7Q232.5,218.4,224,219.1Zm9.2-9.2,7.8-.4c8.9-.4,15.7-2.7,20.3-7.3s7-10.9,7.1-19.3-2.1-14.9-6.6-19.7-11.4-7.4-20.5-7.4h-8Q233.2,182.9,233.2,209.9Zm2.4-2.7q.1-24.4.1-48.8h5.5c7.9,0,14.1,2.3,18.4,6.4s6.4,10.2,6.3,18.1-2.4,13.7-6.7,17.7-10.4,6.1-18.2,6.4Zm8.1-9.4c4.6-.1,8.2-1.4,10.7-3.8s3.8-6.2,3.9-11.3-1.2-8.9-3.7-11.4-6.1-3.8-10.8-3.8Q243.7,182.7,243.6,197.9Z" transform="translate(-16 -2)"/><path class="cls-3" d="M294.9,151.2l14.7,2.2q10.6,35.2,20.8,69.5-9.3-1.5-18.7-2.6l-1.8-6.2q-9.1-1-18.2-1.7l-2.1,5.9q-9.5-.6-19.1-.8,12.1-34.2,24.5-66.4m-10.8,58.7,1.8-5q15,1,29.8,3l1.6,5.2,2.5.3q-7.9-26.2-16-52.9l-3.5-.5q-9.4,24.3-18.7,49.7h2.5m17.9-47.2,13,42.7q-14-1.9-28.2-2.9,7.5-20.3,15.2-39.9m3.2,36.2-3.8-12.2L297,198l8.2.9" transform="translate(-16 -2)"/><path class="cls-4" d="M294.9,151.2l14.7,2.2q10.6,35.2,20.8,69.5-9.3-1.5-18.7-2.6l-1.8-6.2q-9.1-1-18.2-1.7l-2.1,5.9q-9.5-.6-19.1-.8Q282.4,183.4,294.9,151.2Zm-10.8,58.7,1.8-5q15,1,29.8,3l1.6,5.2,2.5.3q-7.9-26.2-16-52.9l-3.5-.5q-9.4,24.3-18.7,49.7Zm17.9-47.2,13,42.7q-14-1.9-28.2-2.9Q294.3,182.2,301.9,162.7Zm3.2,36.2-3.8-12.2L297,198Z" transform="translate(-16 -2)"/><path class="cls-3" d="M333.8,195.3q-8.6-20.3-17.5-40.8,10.8,1.9,21.4,4.4l6.4,15.3,7.2-11.9q10.5,2.8,20.7,6.1-9.6,14.9-19.4,30.9l-1,27.4q-9.3-2-18.7-3.5l.9-27.9m9.9,22.1.8-23q6.9-11.5,13.8-22.5l-2.7-.8q-6,9.8-12.1,20l-10.7-25.5-2.7-.6,12,28.8-.8,23.1,2.4.5" transform="translate(-16 -2)"/><path class="cls-4" d="M333.8,195.3q-8.6-20.3-17.5-40.8,10.8,1.9,21.4,4.4l6.4,15.3,7.2-11.9q10.5,2.8,20.7,6.1-9.6,14.9-19.4,30.9l-1,27.4q-9.3-2-18.7-3.5Zm9.9,22.1.8-23q6.9-11.5,13.8-22.5l-2.7-.8q-6,9.8-12.1,20l-10.7-25.5-2.7-.6,12,28.8-.8,23.1Z" transform="translate(-16 -2)"/><path class="cls-3" d="M33.9,78.8q12.8-4.5,25.8-8.4l3.8,31.7,14.2-4.3L74.2,66.4q13.1-3.4,26.4-6.2,4.1,45.7,8.2,91.4-12.3,3.3-24.5,7.4l-3.7-34.3-13.9,4.4,4.1,34.5q-12,4.4-23.7,9.4-6.6-47.1-13.3-94.2m25.8,77.3-4.6-35.5q17.1-6,34.6-10.8l3.5,34.9,3-.9L89.4,73.9l-3.2.8,3.2,31.8q-17.5,4.7-34.7,10.7L50.6,84.9l-3.1,1,9.3,71.3,2.9-1.1" transform="translate(-16 -2)"/><path class="cls-5" d="M33.9,78.8q12.8-4.5,25.8-8.4l3.8,31.7,14.2-4.3L74.2,66.4q13.1-3.4,26.4-6.2,4.1,45.7,8.2,91.4-12.3,3.3-24.5,7.4l-3.7-34.3-13.9,4.4,4.1,34.5q-12,4.4-23.7,9.4Q40.6,125.9,33.9,78.8Zm25.8,77.3-4.6-35.5q17.1-6,34.6-10.8l3.5,34.9,3-.9L89.4,73.9l-3.2.8,3.2,31.8q-17.5,4.7-34.7,10.7L50.6,84.9l-3.1,1,9.3,71.3Z" transform="translate(-16 -2)"/><path class="cls-3" d="M132.5,54.7q10-1.4,20.1-2.4,18.3,42.8,34.8,85-12.5,1.2-25,3.1l-3-7.6q-12,1.8-23.9,4.2l-2,8.6q-12.3,2.6-24.4,5.9,10.6-49.6,23.4-96.8m-6.9,81.7,1.7-7.3q19.5-4.1,39.3-6.6l2.6,6.3,3.3-.4q-13-32.1-27-64.5l-4.7.6q-9.9,35.6-18.6,72.7l3.3-.7m17.8-69q11.3,26.2,22,52.1-18.8,2.4-37.3,6.2,7.2-29.6,15.3-58.3m8.3,46.9-6.4-14.8q-2.3,8.3-4.5,16.6l10.8-1.7" transform="translate(-16 -2)"/><path class="cls-5" d="M132.5,54.7q10-1.4,20.1-2.4,18.3,42.8,34.8,85-12.5,1.2-25,3.1l-3-7.6q-12,1.8-23.9,4.2l-2,8.6q-12.3,2.6-24.4,5.9Q119.6,101.9,132.5,54.7Zm-6.9,81.7,1.7-7.3q19.5-4.1,39.3-6.6l2.6,6.3,3.3-.4q-13-32.1-27-64.5l-4.7.6q-9.9,35.6-18.6,72.7Zm17.8-69q11.3,26.2,22,52.1-18.8,2.4-37.3,6.2Q135.3,96,143.3,67.3Zm8.3,46.9-6.4-14.8q-2.3,8.3-4.5,16.6Z" transform="translate(-16 -2)"/><path class="cls-3" d="M249.8,83.7a32.6,32.6,0,0,1-3,14.5,25.4,25.4,0,0,1-8,9.5,35.1,35.1,0,0,1-11.8,5.4,63.9,63.9,0,0,1-14.5,2l.4,20.4q-12.8.5-25.5,1.8-1.5-43.6-3-87.2,13.4-.5,26.8-.3a55.5,55.5,0,0,1,15.1,2.2,36.1,36.1,0,0,1,12.2,6.2,28.8,28.8,0,0,1,8.2,10.4,34.5,34.5,0,0,1,2.9,14.9m-12-.7a24,24,0,0,0-2-9.9,19.1,19.1,0,0,0-5.5-7.1,24.9,24.9,0,0,0-8.3-4.3,36.7,36.7,0,0,0-10.5-1.5H197.5l1.7,65.7,3.1-.2-.5-20.6,10.6-.3a40,40,0,0,0,10.2-1.5,24,24,0,0,0,8.1-3.9,17.4,17.4,0,0,0,5.3-6.7,23.1,23.1,0,0,0,1.9-9.8m-3.5-.1a19.8,19.8,0,0,1-1.8,9.1,15,15,0,0,1-4.9,5.7,20.7,20.7,0,0,1-7,3.1,38.5,38.5,0,0,1-8.4,1l-10.6.3-1-38.8h10.9a35.1,35.1,0,0,1,8.6,1.1,21.2,21.2,0,0,1,7.2,3.3,16.4,16.4,0,0,1,5,6,20.6,20.6,0,0,1,1.9,9.2M212.3,92h1.1c3.4,0,5.9-.9,7.4-2.5a9.8,9.8,0,0,0,2.2-6.9,10.1,10.1,0,0,0-2.4-7c-1.6-1.7-4.1-2.6-7.5-2.6h-1.1Z" transform="translate(-16 -2)"/><path class="cls-5" d="M249.8,83.7a32.6,32.6,0,0,1-3,14.5,25.4,25.4,0,0,1-8,9.5,35.1,35.1,0,0,1-11.8,5.4,63.9,63.9,0,0,1-14.5,2l.4,20.4q-12.8.5-25.5,1.8-1.5-43.6-3-87.2,13.4-.5,26.8-.3a55.5,55.5,0,0,1,15.1,2.2,36.1,36.1,0,0,1,12.2,6.2,28.8,28.8,0,0,1,8.2,10.4A34.5,34.5,0,0,1,249.8,83.7Zm-12-.7a24,24,0,0,0-2-9.9,19.1,19.1,0,0,0-5.5-7.1,24.9,24.9,0,0,0-8.3-4.3,36.7,36.7,0,0,0-10.5-1.5H197.5l1.7,65.7,3.1-.2-.5-20.6,10.6-.3a40,40,0,0,0,10.2-1.5,24,24,0,0,0,8.1-3.9,17.4,17.4,0,0,0,5.3-6.7A23.1,23.1,0,0,0,237.9,83Zm-3.5-.1a19.8,19.8,0,0,1-1.8,9.1,15,15,0,0,1-4.9,5.7,20.7,20.7,0,0,1-7,3.1,38.5,38.5,0,0,1-8.4,1l-10.6.3-1-38.8h10.9a35.1,35.1,0,0,1,8.6,1.1,21.2,21.2,0,0,1,7.2,3.3,16.4,16.4,0,0,1,5,6A20.6,20.6,0,0,1,234.4,82.8ZM212.3,92h1.1c3.4,0,5.9-.9,7.4-2.5a9.8,9.8,0,0,0,2.2-6.9,10.1,10.1,0,0,0-2.4-7c-1.6-1.7-4.1-2.6-7.5-2.6h-1.1Z" transform="translate(-16 -2)"/><path class="cls-3" d="M316,92.8c-.2,5.5-1.3,9.9-3.3,13.4a20.8,20.8,0,0,1-8.1,8,32.1,32.1,0,0,1-11.8,3.5,65.5,65.5,0,0,1-14.4-.1l-.3,19.5q-12.7-1.2-25.5-1.7.1-41.6.3-83.3,13.3,1.3,26.5,3.3A59.7,59.7,0,0,1,294,59.6a41,41,0,0,1,11.8,7.6,32.2,32.2,0,0,1,7.7,11A33.9,33.9,0,0,1,316,92.8m-11.7-2.3a23.6,23.6,0,0,0-1.6-9.7,21.3,21.3,0,0,0-5.1-7.5,28.4,28.4,0,0,0-8.1-5.2,39.8,39.8,0,0,0-10.3-2.9l-14-1.8-.6,62.7,3.1.2.2-19.6,10.6,1.1a40.7,40.7,0,0,0,10.1,0,21.9,21.9,0,0,0,8.1-2.6,14.3,14.3,0,0,0,5.4-5.6,19.9,19.9,0,0,0,2.1-9m-3.4-.6a17,17,0,0,1-2,8.4,12.4,12.4,0,0,1-5,4.8,19.1,19.1,0,0,1-7,2,39.2,39.2,0,0,1-8.3-.1l-10.6-1.1.4-37,10.7,1.4a37.8,37.8,0,0,1,8.4,2.2,24.1,24.1,0,0,1,7,4.1,18.4,18.4,0,0,1,4.8,6.4,20.2,20.2,0,0,1,1.6,9m-22.2,5.7h1.1c3.4.4,5.9,0,7.4-1.4s2.3-3.5,2.4-6.3a10.3,10.3,0,0,0-2.1-7c-1.5-1.8-3.9-3-7.4-3.5l-1.1-.2-.3,18.1" transform="translate(-16 -2)"/><path class="cls-5" d="M316,92.8c-.2,5.5-1.3,9.9-3.3,13.4a20.8,20.8,0,0,1-8.1,8,32.1,32.1,0,0,1-11.8,3.5,65.5,65.5,0,0,1-14.4-.1l-.3,19.5q-12.7-1.2-25.5-1.7.1-41.6.3-83.3,13.3,1.3,26.5,3.3A59.7,59.7,0,0,1,294,59.6a41,41,0,0,1,11.8,7.6,32.2,32.2,0,0,1,7.7,11A33.9,33.9,0,0,1,316,92.8Zm-11.7-2.3a23.6,23.6,0,0,0-1.6-9.7,21.3,21.3,0,0,0-5.1-7.5,28.4,28.4,0,0,0-8.1-5.2,39.8,39.8,0,0,0-10.3-2.9l-14-1.8-.6,62.7,3.1.2.2-19.6,10.6,1.1a40.7,40.7,0,0,0,10.1,0,21.9,21.9,0,0,0,8.1-2.6,14.3,14.3,0,0,0,5.4-5.6A19.9,19.9,0,0,0,304.3,90.5Zm-3.4-.6a17,17,0,0,1-2,8.4,12.4,12.4,0,0,1-5,4.8,19.1,19.1,0,0,1-7,2,39.2,39.2,0,0,1-8.3-.1l-10.6-1.1.4-37,10.7,1.4a37.8,37.8,0,0,1,8.4,2.2,24.1,24.1,0,0,1,7,4.1,18.4,18.4,0,0,1,4.8,6.4A20.2,20.2,0,0,1,300.9,89.9Zm-22.2,5.7h1.1c3.4.4,5.9,0,7.4-1.4s2.3-3.5,2.4-6.3a10.3,10.3,0,0,0-2.1-7c-1.5-1.8-3.9-3-7.4-3.5l-1.1-.2Z" transform="translate(-16 -2)"/><path class="cls-3" d="M333.3,111.7q-11.5-25.1-23.4-50.6,14.5,3.1,28.8,7.2l8.5,19,9.8-13.4q14.1,4.6,27.9,10-13.1,16.4-26.3,34.6l-1.5,32.8q-12.4-3.3-24.9-5.9l1.3-33.5m13.2,27.5,1.2-27.6q9.3-13.1,18.6-25.4l-3.7-1.2q-8.2,11-16.4,22.6Q339.3,91.8,332,75.9l-3.6-.9q8.2,17.9,16.1,35.7l-1.2,27.7,3.2.8" transform="translate(-16 -2)"/><path class="cls-5" d="M333.3,111.7q-11.5-25.1-23.4-50.6,14.5,3.1,28.8,7.2l8.5,19,9.8-13.4q14.1,4.6,27.9,10-13.1,16.4-26.3,34.6l-1.5,32.8q-12.4-3.3-24.9-5.9Zm13.2,27.5,1.2-27.6q9.3-13.1,18.6-25.4l-3.7-1.2q-8.2,11-16.4,22.6Q339.3,91.8,332,75.9l-3.6-.9q8.2,17.9,16.1,35.7l-1.2,27.7Z" transform="translate(-16 -2)"/><path class="cls-6" d="M26.4,71.6q12.8-4.5,25.8-8.4l4.1,32.4,14.2-4.3L66.8,59.2Q80,55.7,93.3,53q4.4,46.8,8.7,93.5-12.3,3.3-24.5,7.4l-4-35.1-13.9,4.4,4.4,35.3Q52.2,163,40.6,168q-7.1-48.2-14.2-96.3m26.6,79.1-4.9-36.3q17.1-6,34.6-10.8l3.8,35.7,3-.9L82.1,67l-3.2.8,3.4,32.5Q64.8,105,47.6,111L43.2,78,40,79l10,72.9,2.9-1.1" transform="translate(-16 -2)"/><path class="cls-5" d="M26.4,71.6q12.8-4.5,25.8-8.4l4.1,32.4,14.2-4.3L66.8,59.2Q80,55.7,93.3,53q4.4,46.8,8.7,93.5-12.3,3.3-24.5,7.4l-4-35.1-13.9,4.4,4.4,35.3Q52.2,163,40.6,168,33.5,119.8,26.4,71.6Zm26.6,79.1-4.9-36.3q17.1-6,34.6-10.8l3.8,35.7,3-.9L82.1,67l-3.2.8,3.4,32.5Q64.8,105,47.6,111L43.2,78,40,79l10,72.9Z" transform="translate(-16 -2)"/><path class="cls-6" d="M125.2,47.5q10.1-1.4,20.1-2.4,18.5,43.9,35.1,87.1-12.5,1.2-24.9,3.1l-3-7.8q-12,1.8-23.9,4.2l-2,8.8q-12.3,2.6-24.4,5.9,10.3-50.7,22.9-99M118.7,131l1.7-7.4q19.5-4.1,39.3-6.7l2.6,6.5,3.3-.4q-13.1-32.9-27.3-66.1l-4.7.6q-9.8,36.4-18.2,74.3l3.3-.7m17.5-70.6q11.5,26.8,22.2,53.4-18.7,2.4-37.3,6.2,7.1-30.3,15-59.6m8.5,48-6.4-15.2q-2.2,8.4-4.4,17l10.8-1.8" transform="translate(-16 -2)"/><path class="cls-5" d="M125.2,47.5q10.1-1.4,20.1-2.4,18.5,43.9,35.1,87.1-12.5,1.2-24.9,3.1l-3-7.8q-12,1.8-23.9,4.2l-2,8.8q-12.3,2.6-24.4,5.9Q112.5,95.8,125.2,47.5ZM118.7,131l1.7-7.4q19.5-4.1,39.3-6.7l2.6,6.5,3.3-.4q-13.1-32.9-27.3-66.1l-4.7.6q-9.8,36.4-18.2,74.3Zm17.5-70.6q11.5,26.8,22.2,53.4-18.7,2.4-37.3,6.2Q128.2,89.8,136.2,60.5Zm8.5,48-6.4-15.2q-2.2,8.4-4.4,17Z" transform="translate(-16 -2)"/><path class="cls-6" d="M242.9,77.3a34.1,34.1,0,0,1-3,14.9,26,26,0,0,1-8,9.8,34.7,34.7,0,0,1-11.8,5.5,62.3,62.3,0,0,1-14.5,2l.4,20.9q-12.7.6-25.4,1.8l-3.1-89.3q13.5-.5,26.9-.3a54.7,54.7,0,0,1,15.1,2.3,35.9,35.9,0,0,1,12.2,6.4A29.3,29.3,0,0,1,240,62a36,36,0,0,1,2.9,15.3m-12-.7a25,25,0,0,0-2-10.2,19.5,19.5,0,0,0-5.5-7.3,24.7,24.7,0,0,0-8.4-4.4,36.2,36.2,0,0,0-10.5-1.6H190.5l1.8,67.3,3.1-.2-.5-21.1,10.6-.3a39,39,0,0,0,10.2-1.5,23.9,23.9,0,0,0,8.1-4,17.8,17.8,0,0,0,5.3-6.9,24.1,24.1,0,0,0,1.9-10m-3.5-.1a20.7,20.7,0,0,1-1.8,9.3,15.3,15.3,0,0,1-4.9,5.9,20.4,20.4,0,0,1-7,3.1,37.3,37.3,0,0,1-8.4,1.1l-10.6.3-1-39.8h10.9a34.5,34.5,0,0,1,8.6,1.1,21.1,21.1,0,0,1,7.2,3.4,16.7,16.7,0,0,1,5,6.2,21.5,21.5,0,0,1,1.9,9.4m-22.2,9.4h1.1c3.4,0,5.9-.9,7.4-2.6s2.2-4,2.2-7.1a10.5,10.5,0,0,0-2.4-7.2c-1.6-1.7-4.1-2.6-7.6-2.6h-1.1l.4,19.5" transform="translate(-16 -2)"/><path class="cls-5" d="M242.9,77.3a34.1,34.1,0,0,1-3,14.9,26,26,0,0,1-8,9.8,34.7,34.7,0,0,1-11.8,5.5,62.3,62.3,0,0,1-14.5,2l.4,20.9q-12.7.6-25.4,1.8l-3.1-89.3q13.5-.5,26.9-.3a54.7,54.7,0,0,1,15.1,2.3,35.9,35.9,0,0,1,12.2,6.4A29.3,29.3,0,0,1,240,62,36,36,0,0,1,242.9,77.3Zm-12-.7a25,25,0,0,0-2-10.2,19.5,19.5,0,0,0-5.5-7.3,24.7,24.7,0,0,0-8.4-4.4,36.2,36.2,0,0,0-10.5-1.6H190.5l1.8,67.3,3.1-.2-.5-21.1,10.6-.3a39,39,0,0,0,10.2-1.5,23.9,23.9,0,0,0,8.1-4,17.8,17.8,0,0,0,5.3-6.9A24.1,24.1,0,0,0,230.9,76.6Zm-3.5-.1a20.7,20.7,0,0,1-1.8,9.3,15.3,15.3,0,0,1-4.9,5.9,20.4,20.4,0,0,1-7,3.1,37.3,37.3,0,0,1-8.4,1.1l-10.6.3-1-39.8h10.9a34.5,34.5,0,0,1,8.6,1.1,21.1,21.1,0,0,1,7.2,3.4,16.7,16.7,0,0,1,5,6.2A21.5,21.5,0,0,1,227.5,76.4Zm-22.2,9.4h1.1c3.4,0,5.9-.9,7.4-2.6s2.2-4,2.2-7.1a10.5,10.5,0,0,0-2.4-7.2c-1.6-1.7-4.1-2.6-7.6-2.6h-1.1Z" transform="translate(-16 -2)"/><path class="cls-6" d="M309.1,86.5c-.2,5.6-1.3,10.1-3.4,13.7a21.4,21.4,0,0,1-8.2,8.2,31.8,31.8,0,0,1-11.8,3.6,63.8,63.8,0,0,1-14.4,0l-.4,19.9q-12.7-1.2-25.5-1.6l.4-85.3q13.4,1.3,26.6,3.3a58.8,58.8,0,0,1,14.8,4.2,40.7,40.7,0,0,1,11.8,7.7,32.5,32.5,0,0,1,7.7,11.3,35.2,35.2,0,0,1,2.4,14.9m-11.7-2.3a24.4,24.4,0,0,0-1.6-9.9,21.5,21.5,0,0,0-5.1-7.6,28.1,28.1,0,0,0-8.1-5.3,39.1,39.1,0,0,0-10.3-2.9l-14-1.8-.7,64.2,3.1.2.3-20.1,10.6,1.1a39.6,39.6,0,0,0,10.1,0,21.7,21.7,0,0,0,8.1-2.7,14.7,14.7,0,0,0,5.5-5.8,20.8,20.8,0,0,0,2.2-9.2m-3.4-.6a17.9,17.9,0,0,1-2.1,8.6,12.7,12.7,0,0,1-5,4.9,18.9,18.9,0,0,1-7,2,38.3,38.3,0,0,1-8.3-.1L261,97.9l.5-37.9,10.8,1.4a37.2,37.2,0,0,1,8.4,2.2,23.9,23.9,0,0,1,7,4.2,18.6,18.6,0,0,1,4.7,6.5,21,21,0,0,1,1.6,9.2m-22.3,5.9h1.1c3.4.4,5.9,0,7.4-1.4s2.3-3.5,2.4-6.4a10.7,10.7,0,0,0-2.1-7.1c-1.5-1.8-3.9-3-7.4-3.5l-1.1-.2Z" transform="translate(-16 -2)"/><path class="cls-5" d="M309.1,86.5c-.2,5.6-1.3,10.1-3.4,13.7a21.4,21.4,0,0,1-8.2,8.2,31.8,31.8,0,0,1-11.8,3.6,63.8,63.8,0,0,1-14.4,0l-.4,19.9q-12.7-1.2-25.5-1.6l.4-85.3q13.4,1.3,26.6,3.3a58.8,58.8,0,0,1,14.8,4.2,40.7,40.7,0,0,1,11.8,7.7,32.5,32.5,0,0,1,7.7,11.3A35.2,35.2,0,0,1,309.1,86.5Zm-11.7-2.3a24.4,24.4,0,0,0-1.6-9.9,21.5,21.5,0,0,0-5.1-7.6,28.1,28.1,0,0,0-8.1-5.3,39.1,39.1,0,0,0-10.3-2.9l-14-1.8-.7,64.2,3.1.2.3-20.1,10.6,1.1a39.6,39.6,0,0,0,10.1,0,21.7,21.7,0,0,0,8.1-2.7,14.7,14.7,0,0,0,5.5-5.8A20.8,20.8,0,0,0,297.4,84.2Zm-3.4-.6a17.9,17.9,0,0,1-2.1,8.6,12.7,12.7,0,0,1-5,4.9,18.9,18.9,0,0,1-7,2,38.3,38.3,0,0,1-8.3-.1L261,97.9l.5-37.9,10.8,1.4a37.2,37.2,0,0,1,8.4,2.2,23.9,23.9,0,0,1,7,4.2,18.6,18.6,0,0,1,4.7,6.5A21,21,0,0,1,294,83.5Zm-22.3,5.9h1.1c3.4.4,5.9,0,7.4-1.4s2.3-3.5,2.4-6.4a10.7,10.7,0,0,0-2.1-7.1c-1.5-1.8-3.9-3-7.4-3.5l-1.1-.2Z" transform="translate(-16 -2)"/><path class="cls-6" d="M326.4,105.6Q315.1,80,303.2,54q14.5,3.2,28.9,7.2l8.5,19.4,9.9-13.8q14.1,4.6,27.9,10.1-13.4,16.9-26.7,35.5l-1.8,33.5q-12.4-3.3-24.9-5.9l1.5-34.3m13,28,1.4-28.2q9.4-13.5,18.9-26.1l-3.7-1.2q-8.3,11.3-16.6,23.2-7-16.1-14.1-32.3l-3.6-.9q8.1,18.3,15.9,36.5l-1.4,28.3,3.2.8" transform="translate(-16 -2)"/><path class="cls-5" d="M326.4,105.6Q315.1,80,303.2,54q14.5,3.2,28.9,7.2l8.5,19.4,9.9-13.8q14.1,4.6,27.9,10.1-13.4,16.9-26.7,35.5l-1.8,33.5q-12.4-3.3-24.9-5.9Zm13,28,1.4-28.2q9.4-13.5,18.9-26.1l-3.7-1.2q-8.3,11.3-16.6,23.2-7-16.1-14.1-32.3l-3.6-.9q8.1,18.3,15.9,36.5l-1.4,28.3Z" transform="translate(-16 -2)"/><path class="cls-7" d="M30.7,181.3q9.4-4.4,19-8.4l2.5,27.5L62.9,196l-2.3-27.3q9.7-3.7,19.6-7,2.9,39.6,5.7,79.2-9.3,3.8-18.5,8.1l-2.5-29.7-10.4,4.7,2.7,29.9q-9.1,4.5-18,9.4-4.1-40.9-8.4-81.9m18,66.5L45.9,217q12.8-6.1,25.9-11.3l2.4,30.3,2.3-1q-2.3-30.3-4.7-60.6l-2.4.9,2.2,27.5Q58.4,208,45.6,214l-2.7-28-2.3,1q3,30.9,6,61.9l2.2-1.1" transform="translate(-16 -2)"/><path class="cls-4" d="M30.7,181.3q9.4-4.4,19-8.4l2.5,27.5L62.9,196l-2.3-27.3q9.7-3.7,19.6-7,2.9,39.6,5.7,79.2-9.3,3.8-18.5,8.1l-2.5-29.7-10.4,4.7,2.7,29.9q-9.1,4.5-18,9.4Q35,222.3,30.7,181.3Zm18,66.5L45.9,217q12.8-6.1,25.9-11.3l2.4,30.3,2.3-1q-2.3-30.3-4.7-60.6l-2.4.9,2.2,27.5Q58.4,208,45.6,214l-2.7-28-2.3,1q3,30.9,6,61.9Z" transform="translate(-16 -2)"/><path class="cls-7" d="M85,200.6a58.3,58.3,0,0,1,7.3-32.4,44.5,44.5,0,0,1,9.8-11.9,30.6,30.6,0,0,1,12.5-6.6,24.1,24.1,0,0,1,12.9.2,26.2,26.2,0,0,1,10.8,6.4,33.4,33.4,0,0,1,7.5,11.3,42.1,42.1,0,0,1,3.1,14.9,50.9,50.9,0,0,1-2,16,55.7,55.7,0,0,1-6.4,14.3,49.4,49.4,0,0,1-9.7,11.3,34.7,34.7,0,0,1-12,6.9,23.7,23.7,0,0,1-12.3.9,22.3,22.3,0,0,1-10.4-5.3,30.6,30.6,0,0,1-7.5-10.7A45,45,0,0,1,85,200.6m8.5-3A32.6,32.6,0,0,0,96,208.7a22.7,22.7,0,0,0,5.5,7.9,16.8,16.8,0,0,0,7.7,4,17.3,17.3,0,0,0,9-.5,24.9,24.9,0,0,0,8.8-5,35.7,35.7,0,0,0,7.1-8.3,41,41,0,0,0,4.6-10.6,37.8,37.8,0,0,0,1.4-11.8,31,31,0,0,0-2.3-10.9,24.2,24.2,0,0,0-5.5-8.2,18.8,18.8,0,0,0-7.9-4.6,17.6,17.6,0,0,0-9.4,0,22.7,22.7,0,0,0-9.1,4.8,33.1,33.1,0,0,0-7.1,8.6,41.6,41.6,0,0,0-4.4,11.2,40.9,40.9,0,0,0-1,12.3M118,217a15.5,15.5,0,0,1-8.1.5,15.2,15.2,0,0,1-6.9-3.6,20.5,20.5,0,0,1-5-7.1,29,29,0,0,1-2.3-10,36.4,36.4,0,0,1,1-11.1,37.5,37.5,0,0,1,4-10,30,30,0,0,1,6.4-7.8,20.3,20.3,0,0,1,8.2-4.3,15.7,15.7,0,0,1,8.4,0,16.9,16.9,0,0,1,7,4.1,21.7,21.7,0,0,1,5,7.3,27.8,27.8,0,0,1,2.1,9.8,33.9,33.9,0,0,1-1.2,10.6,37.1,37.1,0,0,1-4.2,9.5,32.2,32.2,0,0,1-6.4,7.5,22.1,22.1,0,0,1-8,4.5m-14.1-22.9a17.6,17.6,0,0,0,1.4,6.1,12.6,12.6,0,0,0,3,4.3,9.3,9.3,0,0,0,9.2,2,13.3,13.3,0,0,0,4.9-2.7,19.2,19.2,0,0,0,3.9-4.6,22.5,22.5,0,0,0,2.5-5.9,21,21,0,0,0,.7-6.5,17.1,17.1,0,0,0-1.3-6,13,13,0,0,0-3-4.4,10.1,10.1,0,0,0-4.3-2.4,9.6,9.6,0,0,0-5.1.1,12.6,12.6,0,0,0-4.9,2.7,18.4,18.4,0,0,0-3.9,4.7,22.6,22.6,0,0,0-2.4,6,22,22,0,0,0-.6,6.7" transform="translate(-16 -2)"/><path class="cls-4" d="M85,200.6a58.3,58.3,0,0,1,7.3-32.4,44.5,44.5,0,0,1,9.8-11.9,30.6,30.6,0,0,1,12.5-6.6,24.1,24.1,0,0,1,12.9.2,26.2,26.2,0,0,1,10.8,6.4,33.4,33.4,0,0,1,7.5,11.3,42.1,42.1,0,0,1,3.1,14.9,50.9,50.9,0,0,1-2,16,55.7,55.7,0,0,1-6.4,14.3,49.4,49.4,0,0,1-9.7,11.3,34.7,34.7,0,0,1-12,6.9,23.7,23.7,0,0,1-12.3.9,22.3,22.3,0,0,1-10.4-5.3,30.6,30.6,0,0,1-7.5-10.7A45,45,0,0,1,85,200.6Zm8.5-3A32.6,32.6,0,0,0,96,208.7a22.7,22.7,0,0,0,5.5,7.9,16.8,16.8,0,0,0,7.7,4,17.3,17.3,0,0,0,9-.5,24.9,24.9,0,0,0,8.8-5,35.7,35.7,0,0,0,7.1-8.3,41,41,0,0,0,4.6-10.6,37.8,37.8,0,0,0,1.4-11.8,31,31,0,0,0-2.3-10.9,24.2,24.2,0,0,0-5.5-8.2,18.8,18.8,0,0,0-7.9-4.6,17.6,17.6,0,0,0-9.4,0,22.7,22.7,0,0,0-9.1,4.8,33.1,33.1,0,0,0-7.1,8.6,41.6,41.6,0,0,0-4.4,11.2A40.9,40.9,0,0,0,93.4,197.6ZM118,217a15.5,15.5,0,0,1-8.1.5,15.2,15.2,0,0,1-6.9-3.6,20.5,20.5,0,0,1-5-7.1,29,29,0,0,1-2.3-10,36.4,36.4,0,0,1,1-11.1,37.5,37.5,0,0,1,4-10,30,30,0,0,1,6.4-7.8,20.3,20.3,0,0,1,8.2-4.3,15.7,15.7,0,0,1,8.4,0,16.9,16.9,0,0,1,7,4.1,21.7,21.7,0,0,1,5,7.3,27.8,27.8,0,0,1,2.1,9.8,33.9,33.9,0,0,1-1.2,10.6,37.1,37.1,0,0,1-4.2,9.5,32.2,32.2,0,0,1-6.4,7.5A22.1,22.1,0,0,1,118,217Zm-14.1-22.9a17.6,17.6,0,0,0,1.4,6.1,12.6,12.6,0,0,0,3,4.3,9.3,9.3,0,0,0,9.2,2,13.3,13.3,0,0,0,4.9-2.7,19.2,19.2,0,0,0,3.9-4.6,22.5,22.5,0,0,0,2.5-5.9,21,21,0,0,0,.7-6.5,17.1,17.1,0,0,0-1.3-6,13,13,0,0,0-3-4.4,10.1,10.1,0,0,0-4.3-2.4,9.6,9.6,0,0,0-5.1.1,12.6,12.6,0,0,0-4.9,2.7,18.4,18.4,0,0,0-3.9,4.7,22.6,22.6,0,0,0-2.4,6A22,22,0,0,0,103.9,194.2Z" transform="translate(-16 -2)"/><path class="cls-7" d="M149.6,144.2q10.5-1.8,21-3.1.7,27.4,1.3,54.8,8.5-1.5,17-2.6l.3,19.2q-18.6,2.8-37,7.2-1.3-37.7-2.6-75.5m34.3,60.3v-2.6q-10.3,1.6-20.5,3.6-.8-27.1-1.5-54.2l-2.4.4q.8,28.5,1.7,57,11.4-2.4,22.9-4.1" transform="translate(-16 -2)"/><path class="cls-4" d="M149.6,144.2q10.5-1.8,21-3.1.7,27.4,1.3,54.8,8.5-1.5,17-2.6l.3,19.2q-18.6,2.8-37,7.2Q150.9,181.9,149.6,144.2Zm34.3,60.3v-2.6q-10.3,1.6-20.5,3.6-.8-27.1-1.5-54.2l-2.4.4q.8,28.5,1.7,57Q172.4,206.3,183.8,204.5Z" transform="translate(-16 -2)"/><path class="cls-7" d="M192,138.8q10.7-.9,21.4-1.3.2,35.9.3,71.9-10.4,1-20.7,2.5-.5-36.5-1-73.1m12.5,62.9q-.2-27.5-.5-55.1l-2.5.2q.3,27.6.5,55.2l2.4-.3" transform="translate(-16 -2)"/><path class="cls-4" d="M192,138.8q10.7-.9,21.4-1.3.2,35.9.3,71.9-10.4,1-20.7,2.5Q192.5,175.4,192,138.8Zm12.5,62.9q-.2-27.5-.5-55.1l-2.5.2q.3,27.6.5,55.2Z" transform="translate(-16 -2)"/><path class="cls-7" d="M218.9,209q-.1-35.8-.2-71.6,8.7-.2,17.4-.1a47.5,47.5,0,0,1,15.7,2.7,31,31,0,0,1,11.5,7.2,29.8,29.8,0,0,1,7,11.3,42.5,42.5,0,0,1,2.2,15,41.3,41.3,0,0,1-2.7,14.7,28.1,28.1,0,0,1-7.2,10.5,32.3,32.3,0,0,1-11.4,6.5,55,55,0,0,1-15.3,2.7q-8.5.4-17,1.1m9.2-9.2,7.8-.4c8.9-.4,15.7-2.7,20.3-7.3s7-10.9,7.1-19.3-2.1-14.9-6.6-19.7-11.4-7.4-20.5-7.4h-8q0,27-.1,54m2.4-2.7q.1-24.4.1-48.8h5.5c7.9,0,14.1,2.3,18.4,6.4s6.4,10.2,6.3,18.1-2.4,13.7-6.7,17.7-10.4,6.1-18.2,6.4l-5.4.2m8.1-9.4c4.6-.1,8.2-1.4,10.7-3.8s3.8-6.2,3.9-11.3-1.2-8.9-3.7-11.4-6.1-3.8-10.8-3.8q-.1,15.2-.2,30.3" transform="translate(-16 -2)"/><path class="cls-4" d="M218.9,209q-.1-35.8-.2-71.6,8.7-.2,17.4-.1a47.5,47.5,0,0,1,15.7,2.7,31,31,0,0,1,11.5,7.2,29.8,29.8,0,0,1,7,11.3,42.5,42.5,0,0,1,2.2,15,41.3,41.3,0,0,1-2.7,14.7,28.1,28.1,0,0,1-7.2,10.5,32.3,32.3,0,0,1-11.4,6.5,55,55,0,0,1-15.3,2.7Q227.4,208.3,218.9,209Zm9.2-9.2,7.8-.4c8.9-.4,15.7-2.7,20.3-7.3s7-10.9,7.1-19.3-2.1-14.9-6.6-19.7-11.4-7.4-20.5-7.4h-8Q228.1,172.8,228.1,199.8Zm2.4-2.7q.1-24.4.1-48.8h5.5c7.9,0,14.1,2.3,18.4,6.4s6.4,10.2,6.3,18.1-2.4,13.7-6.7,17.7-10.4,6.1-18.2,6.4Zm8.1-9.4c4.6-.1,8.2-1.4,10.7-3.8s3.8-6.2,3.9-11.3-1.2-8.9-3.7-11.4-6.1-3.8-10.8-3.8Q238.6,172.6,238.5,187.7Z" transform="translate(-16 -2)"/><path class="cls-7" d="M289.7,141.1l14.7,2.2q10.6,35.2,20.8,69.5-9.3-1.5-18.7-2.6l-1.8-6.2q-9.1-1-18.2-1.7l-2.1,5.9q-9.5-.6-19.1-.8,12.1-34.2,24.5-66.4M279,199.8l1.8-5q15,1,29.8,3l1.6,5.2,2.5.3q-7.9-26.2-16-52.9l-3.5-.5q-9.4,24.3-18.7,49.7H279m17.9-47.2,13,42.7q-14-1.9-28.2-2.9,7.5-20.3,15.2-39.9m3.2,36.2-3.8-12.2-4.4,11.3,8.2.9" transform="translate(-16 -2)"/><path class="cls-4" d="M289.7,141.1l14.7,2.2q10.6,35.2,20.8,69.5-9.3-1.5-18.7-2.6l-1.8-6.2q-9.1-1-18.2-1.7l-2.1,5.9q-9.5-.6-19.1-.8Q277.3,173.3,289.7,141.1ZM279,199.8l1.8-5q15,1,29.8,3l1.6,5.2,2.5.3q-7.9-26.2-16-52.9l-3.5-.5q-9.4,24.3-18.7,49.7Zm17.9-47.2,13,42.7q-14-1.9-28.2-2.9Q289.2,172.1,296.8,152.6Zm3.2,36.2-3.8-12.2-4.4,11.3Z" transform="translate(-16 -2)"/><path class="cls-7" d="M328.7,185.2q-8.6-20.3-17.4-40.8,10.8,1.9,21.4,4.4l6.4,15.3,7.2-11.9q10.5,2.8,20.7,6.1-9.6,14.9-19.4,30.9l-1,27.4q-9.3-2-18.7-3.5l.9-28m9.9,22.1.8-23q6.9-11.5,13.8-22.5l-2.7-.8q-6,9.8-12.1,20l-10.7-25.5L325,155l12,28.8-.8,23.1,2.4.5" transform="translate(-16 -2)"/><path class="cls-4" d="M328.7,185.2q-8.6-20.3-17.4-40.8,10.8,1.9,21.4,4.4l6.4,15.3,7.2-11.9q10.5,2.8,20.7,6.1-9.6,14.9-19.4,30.9l-1,27.4q-9.3-2-18.7-3.5Zm9.9,22.1.8-23q6.9-11.5,13.8-22.5l-2.7-.8q-6,9.8-12.1,20l-10.7-25.5L325,155l12,28.8-.8,23.1Z" transform="translate(-16 -2)"/><path class="cls-8" d="M196,21.7l5.2.7c.3,0,22.2,1.8,30.4,3L221,35.6l-.7.6,14.2,11.9L199.3,51Z" transform="translate(-16 -2)"/><path class="cls-9" d="M197,22.7l4.1.5h.1c.2,0,19.5,1.6,28.6,2.7l-9.3,9-1.3,1.3,1.4,1.2,11.9,10L200,50.1,197,22.7m-1.9-1.9,3.5,31.2,38.1-3.1-15-12.6s12-11.4,11.7-11.4h0c-6.6-1.1-32-3.2-32-3.2Z" transform="translate(-16 -2)"/><line class="cls-8" x1="183.2" y1="49.3" x2="190.9" y2="39.8"/><line class="cls-10" x1="183.2" y1="49.3" x2="190.9" y2="39.8"/><path class="cls-8" d="M31,59l-.8-.5L17.7,50.8c7.7-2.9,28.5-9.5,28.8-9.5l4.9-1.8,3.3,29.3L19.9,73.7Z" transform="translate(-16 -2)"/><path class="cls-9" d="M50.7,40.6,53.7,68,21.8,72.6l9.3-12.4,1.1-1.5-1.6-1L19.6,51c8.6-3.1,26.9-8.9,27.1-8.9h.1l3.8-1.4m1.4-2.3-5.8,2.2S22.1,48,16,50.6c-.3,0,13.8,8.6,13.8,8.6L18,74.8l37.6-5.3Z" transform="translate(-16 -2)"/><line class="cls-8" x1="29.1" y1="59.2" x2="38.7" y2="66.6"/><line class="cls-10" x1="29.1" y1="59.2" x2="38.7" y2="66.6"/><path class="cls-8" d="M40.9,24.1S120.1-6.8,203.4,6l3.2,35.5S117.1,30.2,45.3,60.8L40.9,24.1" transform="translate(-16 -2)"/><path class="cls-10" d="M40.9,24.1S120.1-6.8,203.4,6l3.2,35.5S117.1,30.2,45.3,60.8Z" transform="translate(-16 -2)"/></g><path class="cls-3" d="M61,40.1h.4v1.6q-.2,1.5-.8,1.7h-.5a.8.8,0,0,1-.4-.5,4.1,4.1,0,0,1-.2-1.5,18.9,18.9,0,0,1,.2-2.5q.2-1.5.7-3.6t1.2-4.4l-2,.6a17.1,17.1,0,0,0-2.7,1.4l-2.5,1.7q-1,.8-.9,1h.5q1.1-.3,1.2-.1l-.4.3-1.1.4-.8.3h-.4l-.2-.3-.2-.7a4.8,4.8,0,0,1-.1-1.8,2.8,2.8,0,0,1,.7-1.4,8.1,8.1,0,0,1,1.8-1.4,24.1,24.1,0,0,1,3.5-1.8l1.7-.6h1l.5.2.4.5.6.7h.2a1.4,1.4,0,0,1,.1.7L62.2,32l-.3,1.1A68.6,68.6,0,0,0,61,40.1Z" transform="translate(-16 -2)"/><path class="cls-3" d="M70.6,35.1l.2.6-.8,1.9-.7,1.2-.6.6q-.7.3-1-.6a3.9,3.9,0,0,1-.2-1.7,19.1,19.1,0,0,1,.4-2.6l-.6.8-.4.9-.3.7L66,38.7l-.4,1.2a.6.6,0,0,1-.3.4q-.7.3-1.4-1.5a5.6,5.6,0,0,1-.3-1.3,7,7,0,0,1,.2-2.2q.6-3,1.2-5a27.8,27.8,0,0,1,1-3.1q.4-1.1.7-1.2h.6l.3.2a1.9,1.9,0,0,1,0,.9L67.1,29l-.5,2.1L66,32.9,65.4,35l-.7,2,.4,1.1L66.4,35a15.1,15.1,0,0,1,1-1.9,2.1,2.1,0,0,1,.7-.8.7.7,0,0,1,.6.1l.4.4a.5.5,0,0,1,0,.3l-.5,1.7a7.1,7.1,0,0,0-.2,1.2,1.7,1.7,0,0,0,.1.8.4.4,0,0,0,.6.3A5.5,5.5,0,0,0,70.6,35.1Z" transform="translate(-16 -2)"/><path class="cls-3" d="M72.1,34.8v.2a1.3,1.3,0,0,0,.6.7.9.9,0,0,0,.8,0l.8-.6.7-.9.8-1.4.2.6a12.3,12.3,0,0,1-1.2,2.7,3.3,3.3,0,0,1-1.6,1.4,1.6,1.6,0,0,1-1.5-.1,3,3,0,0,1-1.2-1.5,3.7,3.7,0,0,1-.2-1.9,7.1,7.1,0,0,1,.8-2.2,6.1,6.1,0,0,1,1-1.4,3.3,3.3,0,0,1,1.1-.8h.8a.8.8,0,0,1,.5.5,2,2,0,0,1,0,1.3,5.3,5.3,0,0,1-.9,1.7A14.4,14.4,0,0,1,72.1,34.8Zm-.1-.6a5.6,5.6,0,0,0,1.1-1.4,4.4,4.4,0,0,0,.5-1.3,1.5,1.5,0,0,0,0-.7c-.1-.1-.1-.2-.3-.1l-.5.4-.5.8a4.4,4.4,0,0,0-.4,1.1A2.8,2.8,0,0,0,72,34.2Z" transform="translate(-16 -2)"/><g class="cls-2"><path class="cls-11" d="M92,31.1c1.2-.3,1.8-.9,1.6-1.7h0c-.2-.8-.9-1.2-2.2-.9l-3,.6.6,2.6Zm-1.7-5.3c1.2-.3,1.8-.8,1.6-1.6h0c-.2-.8-.9-1.1-2.1-.8l-2.6.5.5,2.5Zm-7.6-4.4,7.3-1.5a5.4,5.4,0,0,1,4.2.5,3.2,3.2,0,0,1,1.4,2.1h0a3.4,3.4,0,0,1-1.5,3.7c1.9.2,3.2,1,3.6,2.9h0c.5,2.5-1.2,4.4-4.6,5.1l-7.4,1.5Z" transform="translate(-16 -2)"/><path class="cls-11" d="M114.4,24.8,112.2,21l-1,4.4Zm-4.9-8.3,3.9-.6,8.4,13.6-4.3.7L116,27.8l-5.6.9-.6,2.7-4.2.6Z" transform="translate(-16 -2)"/><path class="cls-11" d="M125.8,22h0a7.5,7.5,0,0,1,6.8-8.4,7.2,7.2,0,0,1,6.5,2.3l-2.8,2.7a3.9,3.9,0,0,0-3.4-1.3,3.6,3.6,0,0,0-3,4.2h0a3.6,3.6,0,0,0,3.9,3.5,4,4,0,0,0,3.1-2.1l3.3,1.8A7.7,7.7,0,0,1,125.8,22" transform="translate(-16 -2)"/><polygon class="cls-11" points="131.4 10.9 135.5 10.8 135.7 16.7 140.5 10.6 145.3 10.5 140 16.9 145.9 25.1 141.1 25.2 137.2 19.9 135.8 21.6 135.9 25.4 131.9 25.5 131.4 10.9"/><polygon class="cls-11" points="153.8 10.7 165.6 11.1 165.5 14.5 157.7 14.3 157.6 16.5 164.7 16.7 164.6 19.9 157.5 19.7 157.5 22 165.3 22.3 165.2 25.7 153.3 25.4 153.8 10.7"/><path class="cls-12" d="M531.1,170.5c1.5,4.4-3.5,17.3-17.8,29.2-3.9,3.2-9.9,6-13.1-.1-1.1-2.2-1.8-2.2-.4-18-1.8,1.1-5.6,4-6.9,1.8s9-11.8,10.7-13.6c2-7.2,1.2-14.1,8.1-18.2.1,1.5-.1,2.7-2.5,12.9,14-11.3,16.3-17.4,15.3-19.4s-3.9-3.3-11.9,1.8c-1.5,1-8.9,6.1-16.8,17.1.5-.1,1.2-.2,1.5.4s-.7,2.5-1.5,3.3c-3.6,3.7-4.4,5.2-7.3,9.4A9.7,9.7,0,0,1,487,179c-1,.9-1.9.7-2.6-.4s-.8-3.6-.6-7.9.5-6.9,2.2-9.6c4.8-7.6,16.5-19.1,24.3-23.1,12.8-6.8,18.1-2.6,19.5,1.2,4,11.6-15.9,24.7-22.3,31.7l-.7,2.1c4.8-2.5,21.6-9.9,24.1-2.6m-27.1,13c-.3,1.5-.8,4-.1,5.5s6.4.3,8.3-1c5.1-3.8,11.9-13.4,10.8-16.2s-15.3,3-17.7,5.1q-.7,3.3-1.3,6.7" transform="translate(-16 -2)"/><path class="cls-13" d="M531.1,170.5c1.5,4.4-3.5,17.3-17.8,29.2-3.9,3.2-9.9,6-13.1-.1-1.1-2.2-1.8-2.2-.4-18-1.8,1.1-5.6,4-6.9,1.8s9-11.8,10.7-13.6c2-7.2,1.2-14.1,8.1-18.2.1,1.5-.1,2.7-2.5,12.9,14-11.3,16.3-17.4,15.3-19.4s-3.9-3.3-11.9,1.8c-1.5,1-8.9,6.1-16.8,17.1.5-.1,1.2-.2,1.5.4s-.7,2.5-1.5,3.3c-3.6,3.7-4.4,5.2-7.3,9.4A9.7,9.7,0,0,1,487,179c-1,.9-1.9.7-2.6-.4s-.8-3.6-.6-7.9.5-6.9,2.2-9.6c4.8-7.6,16.5-19.1,24.3-23.1,12.8-6.8,18.1-2.6,19.5,1.2,4,11.6-15.9,24.7-22.3,31.7l-.7,2.1C511.8,170.6,528.6,163.2,531.1,170.5Zm-27.1,13c-.3,1.5-.8,4-.1,5.5s6.4.3,8.3-1c5.1-3.8,11.9-13.4,10.8-16.2s-15.3,3-17.7,5.1Q504.6,180.1,504,183.5Z" transform="translate(-16 -2)"/><path class="cls-12" d="M562.5,161.4c-2.3,5.1-4.9,7.7-9.8,9.2-2,4.2-4.6,7.7-8.6,9.3s-7.4-1.1-9.9-7.7-.8-10.3,2-15.1a23.4,23.4,0,0,1,11.7-10.4c1.6-.6,4.3-.5,4.8,1.5s-.5,1.8-1.1,2.5c2.4,0,3.2,1.5,3.8,3.7s0,6.4-.6,9.7c3.2-.3,4.5-3.7,6.3-6l1.4,3m-22.1,3.1a12.9,12.9,0,0,0-.6,8c.7,2.2,2.1,2.3,3.7,1.6s3.2-2.8,4.3-4.9A8.9,8.9,0,0,1,546,166c-1.1-3.9.8-9.8.5-9.8-2,2.3-4.7,5.3-6.1,8.3" transform="translate(-16 -2)"/><path class="cls-13" d="M562.5,161.4c-2.3,5.1-4.9,7.7-9.8,9.2-2,4.2-4.6,7.7-8.6,9.3s-7.4-1.1-9.9-7.7-.8-10.3,2-15.1a23.4,23.4,0,0,1,11.7-10.4c1.6-.6,4.3-.5,4.8,1.5s-.5,1.8-1.1,2.5c2.4,0,3.2,1.5,3.8,3.7s0,6.4-.6,9.7c3.2-.3,4.5-3.7,6.3-6Zm-22.1,3.1a12.9,12.9,0,0,0-.6,8c.7,2.2,2.1,2.3,3.7,1.6s3.2-2.8,4.3-4.9A8.9,8.9,0,0,1,546,166c-1.1-3.9.8-9.8.5-9.8C544.5,158.5,541.8,161.5,540.4,164.5Z" transform="translate(-16 -2)"/><path class="cls-12" d="M590.8,157.8c-2.9,4.5-5.8,6.5-11,7.1-2.5,3.7-5.6,6.6-9.9,7.4s-7.5-2.5-9.3-9.4.3-10.2,3.8-14.3a21.7,21.7,0,0,1,13.1-7.9c1.7-.3,4.4.3,4.7,2.4s-.7,1.7-1.4,2.2c2.4.4,3.1,2,3.4,4.4s-.7,6.2-1.7,9.4c3.3.3,5-2.7,7.1-4.6l1.1,3.2m-23-1.2a11.8,11.8,0,0,0-1.6,7.6c.4,2.2,1.9,2.6,3.6,2.3s3.5-2.1,4.9-4a9.4,9.4,0,0,1-1.4-3.4c-.7-4,1.9-9.4,1.6-9.5-2.3,1.9-5.4,4.3-7.2,6.9" transform="translate(-16 -2)"/><path class="cls-13" d="M590.8,157.8c-2.9,4.5-5.8,6.5-11,7.1-2.5,3.7-5.6,6.6-9.9,7.4s-7.5-2.5-9.3-9.4.3-10.2,3.8-14.3a21.7,21.7,0,0,1,13.1-7.9c1.7-.3,4.4.3,4.7,2.4s-.7,1.7-1.4,2.2c2.4.4,3.1,2,3.4,4.4s-.7,6.2-1.7,9.4c3.3.3,5-2.7,7.1-4.6Zm-23-1.2a11.8,11.8,0,0,0-1.6,7.6c.4,2.2,1.9,2.6,3.6,2.3s3.5-2.1,4.9-4a9.4,9.4,0,0,1-1.4-3.4c-.7-4,1.9-9.4,1.6-9.5C572.6,151.5,569.5,153.9,567.8,156.5Z" transform="translate(-16 -2)"/><path class="cls-12" d="M592.7,155.8l1.1,3.1c3.4-4.1,19-17.3,24.8-16.1,2.8.4,4.3,4.1,4.3,6.4,0,7.2-10.4,9.3-15.2,12.1,1.5,2.2,2.3,3.5,4.9,3.9s4.2-.6,13.8-6.3l.7,3.3c-4,2.5-12.9,9.8-17.7,9.4s-8.3-6.5-10.9-10.3a18.5,18.5,0,0,0-3.5,5.2c-.5,1.2-1,2.3-2.4,2.4s-3.9-7.4-4.1-9.3c-.6-5,2.5-12.4,2.4-13-1.9-8.4,12.9-36.3,17.2-35.4,1.2.2,3.8-.6,4,.5.3,5.3-15.4,38.7-19.4,44m19.7-1.3c1.1-.7,3.6-2,3.6-3.6s-.6-.7-1-.8c-3-.5-10.8,4.3-12.5,6.9a9.4,9.4,0,0,1,3,1.9l6.9-4.4" transform="translate(-16 -2)"/><path class="cls-13" d="M592.7,155.8l1.1,3.1c3.4-4.1,19-17.3,24.8-16.1,2.8.4,4.3,4.1,4.3,6.4,0,7.2-10.4,9.3-15.2,12.1,1.5,2.2,2.3,3.5,4.9,3.9s4.2-.6,13.8-6.3l.7,3.3c-4,2.5-12.9,9.8-17.7,9.4s-8.3-6.5-10.9-10.3a18.5,18.5,0,0,0-3.5,5.2c-.5,1.2-1,2.3-2.4,2.4s-3.9-7.4-4.1-9.3c-.6-5,2.5-12.4,2.4-13-1.9-8.4,12.9-36.3,17.2-35.4,1.2.2,3.8-.6,4,.5C612.4,117.2,596.8,150.5,592.7,155.8Zm19.7-1.3c1.1-.7,3.6-2,3.6-3.6s-.6-.7-1-.8c-3-.5-10.8,4.3-12.5,6.9a9.4,9.4,0,0,1,3,1.9Z" transform="translate(-16 -2)"/><path class="cls-12" d="M407.6,137.3c.3-.8,1.9-4.2,2.6-4.5s1.1.3,1,1.7h.2c4.8-9.4,7.3-18.5,6.8-21.4s-1.1-1.8-2.1-1.1-8.3,3.7-18.2,31.3c-3.1,8.6-4.5,19.3-3.2,25.8s4.1,8.9,8.6,7.3c8-2.8,19.3-21.9,24-31.2,1,4.3.3,5.9-1.6,9.8-9.3,20.5-18.9,29.4-24.9,31.5s-13.3-1.6-15.2-11.5c-2.4-12.6,2.8-28.9,7.7-39.6,4.1-8.9,14.8-27.3,22.4-30,3.8-1.4,6.8.5,8.1,5.8,2.7,11.4-9.5,39.2-17.2,43.6-1.8,1-3.8-.1-4.4-2.9s.7-5.8,1.8-7.8Z" transform="translate(-16 -2)"/><path class="cls-14" d="M407.6,137.3c.3-.8,1.9-4.2,2.6-4.5s1.1.3,1,1.7h.2c4.8-9.4,7.3-18.5,6.8-21.4s-1.1-1.8-2.1-1.1-8.3,3.7-18.2,31.3c-3.1,8.6-4.5,19.3-3.2,25.8s4.1,8.9,8.6,7.3c8-2.8,19.3-21.9,24-31.2,1,4.3.3,5.9-1.6,9.8-9.3,20.5-18.9,29.4-24.9,31.5s-13.3-1.6-15.2-11.5c-2.4-12.6,2.8-28.9,7.7-39.6,4.1-8.9,14.8-27.3,22.4-30,3.8-1.4,6.8.5,8.1,5.8,2.7,11.4-9.5,39.2-17.2,43.6-1.8,1-3.8-.1-4.4-2.9s.7-5.8,1.8-7.8Z" transform="translate(-16 -2)"/><path class="cls-12" d="M453.1,142.5c-1.9,5.9-4.3,9-9,10.6-2,4.6-4.6,8.5-8.6,9.9s-7.2-2.2-9-9.9.1-11.5,3-16.5,6.9-8.9,10.7-10.6c1.4-.6,3.7-.5,4.1,1.8a3.3,3.3,0,0,1-1,2.8c2,0,2.8,1.7,3.3,4.2s0,7.2-.5,11c2.9-.3,4.1-4.2,5.7-6.9Zm-20.2,2.8a17,17,0,0,0-1.1,8.8c.5,2.5,1.8,2.8,3.4,2.3s3.1-2.8,4.2-5.2a10.9,10.9,0,0,1-1.5-3.7c-.9-4.5,1.1-10.9.8-11-1.8,2.5-4.4,5.6-5.9,8.8" transform="translate(-16 -2)"/><path class="cls-14" d="M453.1,142.5c-1.9,5.9-4.3,9-9,10.6-2,4.6-4.6,8.5-8.6,9.9s-7.2-2.2-9-9.9.1-11.5,3-16.5,6.9-8.9,10.7-10.6c1.4-.6,3.7-.5,4.1,1.8a3.3,3.3,0,0,1-1,2.8c2,0,2.8,1.7,3.3,4.2s0,7.2-.5,11c2.9-.3,4.1-4.2,5.7-6.9Zm-20.2,2.8a17,17,0,0,0-1.1,8.8c.5,2.5,1.8,2.8,3.4,2.3s3.1-2.8,4.2-5.2a10.9,10.9,0,0,1-1.5-3.7c-.9-4.5,1.1-10.9.8-11C436.9,139.1,434.3,142.2,432.9,145.3Z" transform="translate(-16 -2)"/><path class="cls-12" d="M472.2,135.9c-2.6,6.1-6.9,16.9-12.4,18.8s-6.9-4.1-7.8-9.1a58.1,58.1,0,0,1,2-28c3.8-11.3,8.3-21.4,10.3-22.2s1.7,1.6,1.9,2.7c1.1,8.3.9,16.4-9.4,39.3a13,13,0,0,0,.7,6.1c1,1.8,2.2,3.2,3.9,2.6,3.5-1.2,7.4-8.5,9.3-12.5Zm-15.4-6.8c3.4-7.3,5.8-16.9,6-22.2-2.7,3.2-4.9,12.2-6.1,22.1Z" transform="translate(-16 -2)"/><path class="cls-14" d="M472.2,135.9c-2.6,6.1-6.9,16.9-12.4,18.8s-6.9-4.1-7.8-9.1a58.1,58.1,0,0,1,2-28c3.8-11.3,8.3-21.4,10.3-22.2s1.7,1.6,1.9,2.7c1.1,8.3.9,16.4-9.4,39.3a13,13,0,0,0,.7,6.1c1,1.8,2.2,3.2,3.9,2.6,3.5-1.2,7.4-8.5,9.3-12.5Zm-15.4-6.8c3.4-7.3,5.8-16.9,6-22.2-2.7,3.2-4.9,12.2-6.1,22.1Z" transform="translate(-16 -2)"/><path class="cls-12" d="M496.6,127.1c-1.9,5.9-4.3,9-9,10.6-2,4.6-4.6,8.5-8.6,9.9s-7.2-2.2-9-9.9.1-11.5,3-16.5,6.9-8.9,10.7-10.6c1.4-.6,3.7-.5,4.1,1.8a3.3,3.3,0,0,1-1,2.8c2,0,2.8,1.7,3.3,4.2s0,7.2-.5,11c2.9-.3,4.1-4.2,5.7-6.9ZM476.4,130a17,17,0,0,0-1.1,8.8c.5,2.5,1.8,2.8,3.4,2.3s3.1-2.8,4.2-5.2a10.9,10.9,0,0,1-1.5-3.7c-.9-4.5,1.1-10.9.8-11-1.8,2.5-4.4,5.6-5.9,8.8" transform="translate(-16 -2)"/><path class="cls-14" d="M496.6,127.1c-1.9,5.9-4.3,9-9,10.6-2,4.6-4.6,8.5-8.6,9.9s-7.2-2.2-9-9.9.1-11.5,3-16.5,6.9-8.9,10.7-10.6c1.4-.6,3.7-.5,4.1,1.8a3.3,3.3,0,0,1-1,2.8c2,0,2.8,1.7,3.3,4.2s0,7.2-.5,11c2.9-.3,4.1-4.2,5.7-6.9ZM476.4,130a17,17,0,0,0-1.1,8.8c.5,2.5,1.8,2.8,3.4,2.3s3.1-2.8,4.2-5.2a10.9,10.9,0,0,1-1.5-3.7c-.9-4.5,1.1-10.9.8-11C480.4,123.7,477.8,126.8,476.4,130Z" transform="translate(-16 -2)"/><path class="cls-12" d="M499.6,118.9c-1.2,5.9-3.4,9.4-5.6,13.3l-1-3.7a36.2,36.2,0,0,0,3-7.7c-1.4.3-1.9-.2-2.2-2-1.2-6.2,4.1-14.6,5.6-15.2a1.2,1.2,0,0,1,1.4,1.1,8.1,8.1,0,0,1,0,2.6c5.8-3.2,9.1-5.5,9.9-4.7a8.9,8.9,0,0,1,2.4,4c.5,2.7-.4,4.4-1.6,6.5s-3.7,8.1-3.1,11.5a2,2,0,0,0,2.4,1.7c2.7-1,5.7-8,7.4-10.9l1.1,3c-1.7,4.5-7.2,16.7-10.8,17.9s-5-1.8-5.6-5.1c-1.1-5.8,1.3-11.5,3-16.6h-.2Z" transform="translate(-16 -2)"/><path class="cls-14" d="M499.6,118.9c-1.2,5.9-3.4,9.4-5.6,13.3l-1-3.7a36.2,36.2,0,0,0,3-7.7c-1.4.3-1.9-.2-2.2-2-1.2-6.2,4.1-14.6,5.6-15.2a1.2,1.2,0,0,1,1.4,1.1,8.1,8.1,0,0,1,0,2.6c5.8-3.2,9.1-5.5,9.9-4.7a8.9,8.9,0,0,1,2.4,4c.5,2.7-.4,4.4-1.6,6.5s-3.7,8.1-3.1,11.5a2,2,0,0,0,2.4,1.7c2.7-1,5.7-8,7.4-10.9l1.1,3c-1.7,4.5-7.2,16.7-10.8,17.9s-5-1.8-5.6-5.1c-1.1-5.8,1.3-11.5,3-16.6h-.2Z" transform="translate(-16 -2)"/><path class="cls-12" d="M535.5,115.2c-2,5.7-6.1,15.4-10.9,17.1s-6.6-3.9-7.5-8.3c-2-10.5,4-23.5,7.8-24.8,1.1-.4,2.9-.5,3.3,1.4.8,4.3-4,14.1-6.2,17.6.2,3.7,1.5,5.2,4.4,4.2s5.8-6.9,7.9-10.3ZM524.7,93.5c-.7-3.5,1.8-7.7,4.3-8.6s2.3.4,2.6,1.9c.7,3.4-.9,8.5-3.6,9.4s-2.9-.7-3.3-2.8" transform="translate(-16 -2)"/><path class="cls-14" d="M535.5,115.2c-2,5.7-6.1,15.4-10.9,17.1s-6.6-3.9-7.5-8.3c-2-10.5,4-23.5,7.8-24.8,1.1-.4,2.9-.5,3.3,1.4.8,4.3-4,14.1-6.2,17.6.2,3.7,1.5,5.2,4.4,4.2s5.8-6.9,7.9-10.3ZM524.7,93.5c-.7-3.5,1.8-7.7,4.3-8.6s2.3.4,2.6,1.9c.7,3.4-.9,8.5-3.6,9.4S525.1,95.6,524.7,93.5Z" transform="translate(-16 -2)"/><path class="cls-12" d="M563.5,99.1l1.2,3.6c-2.6,5.2-7.1,18.1-11.8,19.7-2.4.9-4.1-1.5-4.7-4.4-1-5.1,1.3-12,2.6-16.7h-.2a79.1,79.1,0,0,0-7.3,16.6c-.6,2-2.2,7-3.9,7.6s-4.6-4.2-5.2-7.1c-1.3-5.8,1-15.9,3.9-21.4a3.3,3.3,0,0,1,2.3-1.9c3.9-1.2,3.8.1,3.9.6.6,3.3-5.7,14.8-5.3,16.9.1.5.5.8.9.7s.9-1.1,1-1.7c3.4-10.5,13.1-25.2,14.9-25.9.3-.1.7.2,1.3,1.3a23.2,23.2,0,0,1,1.9,4.3c.6,3.3-5.9,12.6-4.8,18.5.1.8.8,1.4,1.4,1.1s3.8-4.5,4.7-6.2Z" transform="translate(-16 -2)"/><path class="cls-14" d="M563.5,99.1l1.2,3.6c-2.6,5.2-7.1,18.1-11.8,19.7-2.4.9-4.1-1.5-4.7-4.4-1-5.1,1.3-12,2.6-16.7h-.2a79.1,79.1,0,0,0-7.3,16.6c-.6,2-2.2,7-3.9,7.6s-4.6-4.2-5.2-7.1c-1.3-5.8,1-15.9,3.9-21.4a3.3,3.3,0,0,1,2.3-1.9c3.9-1.2,3.8.1,3.9.6.6,3.3-5.7,14.8-5.3,16.9.1.5.5.8.9.7s.9-1.1,1-1.7c3.4-10.5,13.1-25.2,14.9-25.9.3-.1.7.2,1.3,1.3a23.2,23.2,0,0,1,1.9,4.3c.6,3.3-5.9,12.6-4.8,18.5.1.8.8,1.4,1.4,1.1s3.8-4.5,4.7-6.2Z" transform="translate(-16 -2)"/><path class="cls-12" d="M580.4,97.9h-.2c-1.6,4.2-6.8,14.4-10.3,15.7s-6-4.6-6.7-8.3c-2.2-11.2,10-25.2,14.7-27.6.9-.4,3.4-.9,3.8.9s-.7,3.2-1.4,4.3l-6.2,7.9c-3.5,4.3-7.7,8.4-5.9,14.5.2.7.6.7,1.2.5s5.3-3.8,7.1-8.2l4.9-12.5c.5-1.2.9-2.9,2-3.3s3,2.1,3.3,3.5A16.7,16.7,0,0,1,586,90l-2.5,13.7h.2l7.9-12.8,1,3.5-10.8,18.3c-3.9,16.7-8.5,24.2-10.9,25-.9.3-1.6-.4-1.9-1.5-1.2-6.2,6.4-20.4,9.2-25.1Z" transform="translate(-16 -2)"/><path class="cls-14" d="M580.4,97.9h-.2c-1.6,4.2-6.8,14.4-10.3,15.7s-6-4.6-6.7-8.3c-2.2-11.2,10-25.2,14.7-27.6.9-.4,3.4-.9,3.8.9s-.7,3.2-1.4,4.3l-6.2,7.9c-3.5,4.3-7.7,8.4-5.9,14.5.2.7.6.7,1.2.5s5.3-3.8,7.1-8.2l4.9-12.5c.5-1.2.9-2.9,2-3.3s3,2.1,3.3,3.5A16.7,16.7,0,0,1,586,90l-2.5,13.7h.2l7.9-12.8,1,3.5-10.8,18.3c-3.9,16.7-8.5,24.2-10.9,25-.9.3-1.6-.4-1.9-1.5-1.2-6.2,6.4-20.4,9.2-25.1Z" transform="translate(-16 -2)"/><path class="cls-12" d="M488.3,132s3.1.5,5.8-3.4l3.6-6.6s-2.4,12.3-10.8,14.6Z" transform="translate(-16 -2)"/><path class="cls-15" d="M405.5,134.4c.3-.8,1.9-4.2,2.6-4.5s1.1.3,1,1.7h.2c4.8-9.4,7.3-18.5,6.8-21.4s-1.1-1.8-2.1-1.1-8.3,3.7-18.2,31.3c-3.1,8.6-4.5,19.3-3.2,25.8s4.1,8.9,8.6,7.3c8-2.8,19.3-21.9,24-31.2,1,4.3.3,5.9-1.6,9.8-9.3,20.5-18.9,29.4-24.9,31.5s-13.3-1.6-15.2-11.5c-2.4-12.6,2.8-28.9,7.7-39.6,4.1-8.9,14.8-27.3,22.4-30,3.8-1.4,6.8.5,8.1,5.8,2.7,11.4-9.5,39.2-17.2,43.6-1.8,1-3.8-.1-4.4-2.9s.7-5.8,1.8-7.8Z" transform="translate(-16 -2)"/><path class="cls-14" d="M405.5,134.4c.3-.8,1.9-4.2,2.6-4.5s1.1.3,1,1.7h.2c4.8-9.4,7.3-18.5,6.8-21.4s-1.1-1.8-2.1-1.1-8.3,3.7-18.2,31.3c-3.1,8.6-4.5,19.3-3.2,25.8s4.1,8.9,8.6,7.3c8-2.8,19.3-21.9,24-31.2,1,4.3.3,5.9-1.6,9.8-9.3,20.5-18.9,29.4-24.9,31.5s-13.3-1.6-15.2-11.5c-2.4-12.6,2.8-28.9,7.7-39.6,4.1-8.9,14.8-27.3,22.4-30,3.8-1.4,6.8.5,8.1,5.8,2.7,11.4-9.5,39.2-17.2,43.6-1.8,1-3.8-.1-4.4-2.9s.7-5.8,1.8-7.8Z" transform="translate(-16 -2)"/><path class="cls-15" d="M451,139.5c-1.9,5.9-4.3,9-9,10.6-2,4.6-4.6,8.5-8.6,9.9s-7.2-2.2-9-9.9.1-11.5,3-16.5,6.9-8.9,10.7-10.6c1.4-.6,3.7-.5,4.1,1.8a3.3,3.3,0,0,1-1,2.8c2,0,2.8,1.7,3.3,4.2s0,7.2-.5,11c2.9-.3,4.1-4.2,5.7-6.9Zm-20.2,2.8a17,17,0,0,0-1.1,8.8c.5,2.5,1.8,2.8,3.4,2.3s3.1-2.8,4.2-5.2a10.9,10.9,0,0,1-1.5-3.7c-.9-4.5,1.1-10.9.8-11-1.8,2.5-4.4,5.6-5.9,8.8" transform="translate(-16 -2)"/><path class="cls-14" d="M451,139.5c-1.9,5.9-4.3,9-9,10.6-2,4.6-4.6,8.5-8.6,9.9s-7.2-2.2-9-9.9.1-11.5,3-16.5,6.9-8.9,10.7-10.6c1.4-.6,3.7-.5,4.1,1.8a3.3,3.3,0,0,1-1,2.8c2,0,2.8,1.7,3.3,4.2s0,7.2-.5,11c2.9-.3,4.1-4.2,5.7-6.9Zm-20.2,2.8a17,17,0,0,0-1.1,8.8c.5,2.5,1.8,2.8,3.4,2.3s3.1-2.8,4.2-5.2a10.9,10.9,0,0,1-1.5-3.7c-.9-4.5,1.1-10.9.8-11C434.8,136.1,432.2,139.2,430.8,142.4Z" transform="translate(-16 -2)"/><path class="cls-15" d="M470.1,133c-2.6,6.1-6.9,16.9-12.4,18.8s-6.9-4.1-7.8-9.1a58.1,58.1,0,0,1,2-28c3.8-11.3,8.3-21.4,10.3-22.2s1.7,1.6,1.9,2.7c1.1,8.3.9,16.4-9.4,39.3a13,13,0,0,0,.7,6.1c1,1.8,2.2,3.2,3.9,2.6,3.5-1.2,7.4-8.5,9.3-12.5Zm-15.4-6.8c3.4-7.3,5.8-16.9,6-22.2-2.7,3.2-4.9,12.2-6.1,22.1Z" transform="translate(-16 -2)"/><path class="cls-14" d="M470.1,133c-2.6,6.1-6.9,16.9-12.4,18.8s-6.9-4.1-7.8-9.1a58.1,58.1,0,0,1,2-28c3.8-11.3,8.3-21.4,10.3-22.2s1.7,1.6,1.9,2.7c1.1,8.3.9,16.4-9.4,39.3a13,13,0,0,0,.7,6.1c1,1.8,2.2,3.2,3.9,2.6,3.5-1.2,7.4-8.5,9.3-12.5Zm-15.4-6.8c3.4-7.3,5.8-16.9,6-22.2-2.7,3.2-4.9,12.2-6.1,22.1Z" transform="translate(-16 -2)"/><path class="cls-15" d="M494.5,124.2c-1.9,5.9-4.3,9-9,10.6-2,4.6-4.6,8.5-8.6,9.9s-7.2-2.2-9-9.9.1-11.5,3-16.5,6.9-8.9,10.7-10.6c1.4-.6,3.7-.5,4.1,1.8a3.3,3.3,0,0,1-1,2.8c2,0,2.8,1.7,3.3,4.2s0,7.2-.5,11c2.9-.3,4.1-4.2,5.7-6.9ZM474.3,127a17,17,0,0,0-1.1,8.8c.5,2.5,1.8,2.8,3.4,2.3s3.1-2.8,4.2-5.2a10.9,10.9,0,0,1-1.5-3.7c-.9-4.5,1.1-10.9.8-11-1.8,2.5-4.4,5.6-5.9,8.8" transform="translate(-16 -2)"/><path class="cls-14" d="M494.5,124.2c-1.9,5.9-4.3,9-9,10.6-2,4.6-4.6,8.5-8.6,9.9s-7.2-2.2-9-9.9.1-11.5,3-16.5,6.9-8.9,10.7-10.6c1.4-.6,3.7-.5,4.1,1.8a3.3,3.3,0,0,1-1,2.8c2,0,2.8,1.7,3.3,4.2s0,7.2-.5,11c2.9-.3,4.1-4.2,5.7-6.9ZM474.3,127a17,17,0,0,0-1.1,8.8c.5,2.5,1.8,2.8,3.4,2.3s3.1-2.8,4.2-5.2a10.9,10.9,0,0,1-1.5-3.7c-.9-4.5,1.1-10.9.8-11C478.3,120.7,475.7,123.8,474.3,127Z" transform="translate(-16 -2)"/><path class="cls-15" d="M497.5,115.9c-1.2,5.9-3.4,9.4-5.6,13.3l-1-3.7a36.2,36.2,0,0,0,3-7.7c-1.4.3-1.9-.2-2.2-2-1.2-6.2,4.1-14.6,5.6-15.2a1.2,1.2,0,0,1,1.4,1.1,8.1,8.1,0,0,1,0,2.6c5.8-3.2,9.1-5.5,9.9-4.7a8.9,8.9,0,0,1,2.4,4c.5,2.7-.4,4.4-1.6,6.5s-3.7,8.1-3.1,11.5a2,2,0,0,0,2.4,1.7c2.7-1,5.7-8,7.4-10.9l1.1,3c-1.7,4.5-7.2,16.7-10.8,17.9s-5-1.8-5.6-5.1c-1.1-5.8,1.3-11.5,3-16.6h-.2Z" transform="translate(-16 -2)"/><path class="cls-14" d="M497.5,115.9c-1.2,5.9-3.4,9.4-5.6,13.3l-1-3.7a36.2,36.2,0,0,0,3-7.7c-1.4.3-1.9-.2-2.2-2-1.2-6.2,4.1-14.6,5.6-15.2a1.2,1.2,0,0,1,1.4,1.1,8.1,8.1,0,0,1,0,2.6c5.8-3.2,9.1-5.5,9.9-4.7a8.9,8.9,0,0,1,2.4,4c.5,2.7-.4,4.4-1.6,6.5s-3.7,8.1-3.1,11.5a2,2,0,0,0,2.4,1.7c2.7-1,5.7-8,7.4-10.9l1.1,3c-1.7,4.5-7.2,16.7-10.8,17.9s-5-1.8-5.6-5.1c-1.1-5.8,1.3-11.5,3-16.6h-.2Z" transform="translate(-16 -2)"/><path class="cls-15" d="M533.4,112.3c-2,5.7-6.1,15.4-10.9,17.1s-6.6-3.9-7.5-8.3c-2-10.5,4-23.5,7.8-24.8,1.1-.4,2.9-.5,3.3,1.4.8,4.3-4,14.1-6.2,17.6.2,3.7,1.5,5.2,4.4,4.2s5.8-6.9,7.9-10.3ZM522.6,90.6c-.7-3.5,1.8-7.7,4.3-8.6s2.3.4,2.6,1.9c.7,3.4-.9,8.5-3.6,9.4s-2.9-.7-3.3-2.8" transform="translate(-16 -2)"/><path class="cls-14" d="M533.4,112.3c-2,5.7-6.1,15.4-10.9,17.1s-6.6-3.9-7.5-8.3c-2-10.5,4-23.5,7.8-24.8,1.1-.4,2.9-.5,3.3,1.4.8,4.3-4,14.1-6.2,17.6.2,3.7,1.5,5.2,4.4,4.2s5.8-6.9,7.9-10.3ZM522.6,90.6c-.7-3.5,1.8-7.7,4.3-8.6s2.3.4,2.6,1.9c.7,3.4-.9,8.5-3.6,9.4S523,92.6,522.6,90.6Z" transform="translate(-16 -2)"/><path class="cls-15" d="M561.4,96.1l1.2,3.6c-2.6,5.2-7.1,18.1-11.8,19.7-2.4.9-4.1-1.5-4.7-4.4-1-5.1,1.3-12,2.6-16.7h-.2a79.1,79.1,0,0,0-7.3,16.6c-.6,2-2.2,7-3.9,7.6s-4.6-4.2-5.2-7.1c-1.3-5.8,1-15.9,3.9-21.4a3.3,3.3,0,0,1,2.3-1.9c3.9-1.2,3.8.1,3.9.6.6,3.3-5.7,14.8-5.3,16.9.1.5.5.8.9.7s.9-1.1,1-1.7c3.4-10.5,13.1-25.2,14.9-25.9.3-.1.7.2,1.3,1.3a23.2,23.2,0,0,1,1.9,4.3c.6,3.3-5.9,12.6-4.8,18.5.1.8.8,1.4,1.4,1.1s3.8-4.5,4.7-6.2Z" transform="translate(-16 -2)"/><path class="cls-14" d="M561.4,96.1l1.2,3.6c-2.6,5.2-7.1,18.1-11.8,19.7-2.4.9-4.1-1.5-4.7-4.4-1-5.1,1.3-12,2.6-16.7h-.2a79.1,79.1,0,0,0-7.3,16.6c-.6,2-2.2,7-3.9,7.6s-4.6-4.2-5.2-7.1c-1.3-5.8,1-15.9,3.9-21.4a3.3,3.3,0,0,1,2.3-1.9c3.9-1.2,3.8.1,3.9.6.6,3.3-5.7,14.8-5.3,16.9.1.5.5.8.9.7s.9-1.1,1-1.7c3.4-10.5,13.1-25.2,14.9-25.9.3-.1.7.2,1.3,1.3a23.2,23.2,0,0,1,1.9,4.3c.6,3.3-5.9,12.6-4.8,18.5.1.8.8,1.4,1.4,1.1s3.8-4.5,4.7-6.2Z" transform="translate(-16 -2)"/><path class="cls-15" d="M578.3,95h-.2c-1.6,4.2-6.8,14.4-10.3,15.7s-6-4.6-6.7-8.3c-2.2-11.2,10-25.2,14.7-27.6.9-.4,3.4-.9,3.8.9s-.7,3.2-1.4,4.3L572,87.7c-3.5,4.3-7.7,8.4-5.9,14.5.2.7.6.7,1.2.5s5.3-3.8,7.1-8.2l4.9-12.5c.5-1.2.9-2.9,2-3.3s3,2.1,3.3,3.5A16.7,16.7,0,0,1,584,87l-2.5,13.7h.2l7.9-12.8,1,3.5-10.8,18.3c-3.9,16.7-8.5,24.2-10.9,25-.9.3-1.6-.4-1.9-1.5-1.2-6.2,6.4-20.4,9.2-25.1Z" transform="translate(-16 -2)"/><path class="cls-14" d="M578.3,95h-.2c-1.6,4.2-6.8,14.4-10.3,15.7s-6-4.6-6.7-8.3c-2.2-11.2,10-25.2,14.7-27.6.9-.4,3.4-.9,3.8.9s-.7,3.2-1.4,4.3L572,87.7c-3.5,4.3-7.7,8.4-5.9,14.5.2.7.6.7,1.2.5s5.3-3.8,7.1-8.2l4.9-12.5c.5-1.2.9-2.9,2-3.3s3,2.1,3.3,3.5A16.7,16.7,0,0,1,584,87l-2.5,13.7h.2l7.9-12.8,1,3.5-10.8,18.3c-3.9,16.7-8.5,24.2-10.9,25-.9.3-1.6-.4-1.9-1.5-1.2-6.2,6.4-20.4,9.2-25.1Z" transform="translate(-16 -2)"/><path class="cls-15" d="M486.2,129.1s3.1.5,5.8-3.4l3.6-6.6s-2.4,12.3-10.8,14.6Z" transform="translate(-16 -2)"/><path class="cls-15" d="M528.2,168.3c1.5,4.4-3.5,17.3-17.8,29.2-3.9,3.2-9.9,6-13.1-.1-1.1-2.2-1.8-2.2-.4-18-1.8,1.1-5.6,4-6.9,1.8s9-11.8,10.7-13.6c2-7.2,1.2-14.1,8.2-18.2.1,1.5-.1,2.7-2.5,12.9,14-11.3,16.3-17.4,15.3-19.4s-3.9-3.3-11.9,1.8c-1.5,1-8.9,6.1-16.8,17.1.5-.1,1.2-.2,1.5.4s-.7,2.5-1.5,3.3c-3.6,3.7-4.4,5.2-7.3,9.4a9.7,9.7,0,0,1-1.6,2.1c-1,.9-1.9.7-2.6-.4s-.8-3.6-.6-7.9.5-6.9,2.2-9.6c4.8-7.6,16.5-19.1,24.3-23.1,12.8-6.8,18.1-2.6,19.5,1.2,4,11.6-15.9,24.7-22.3,31.7l-.7,2.1c4.8-2.5,21.6-9.9,24.1-2.6m-27.1,13c-.3,1.5-.8,4-.1,5.5s6.4.3,8.3-1c5.1-3.8,11.9-13.4,10.8-16.2s-15.3,3-17.7,5.1q-.7,3.3-1.3,6.7" transform="translate(-16 -2)"/><path class="cls-13" d="M528.2,168.3c1.5,4.4-3.5,17.3-17.8,29.2-3.9,3.2-9.9,6-13.1-.1-1.1-2.2-1.8-2.2-.4-18-1.8,1.1-5.6,4-6.9,1.8s9-11.8,10.7-13.6c2-7.2,1.2-14.1,8.2-18.2.1,1.5-.1,2.7-2.5,12.9,14-11.3,16.3-17.4,15.3-19.4s-3.9-3.3-11.9,1.8c-1.5,1-8.9,6.1-16.8,17.1.5-.1,1.2-.2,1.5.4s-.7,2.5-1.5,3.3c-3.6,3.7-4.4,5.2-7.3,9.4a9.7,9.7,0,0,1-1.6,2.1c-1,.9-1.9.7-2.6-.4s-.8-3.6-.6-7.9.5-6.9,2.2-9.6c4.8-7.6,16.5-19.1,24.3-23.1,12.8-6.8,18.1-2.6,19.5,1.2,4,11.6-15.9,24.7-22.3,31.7l-.7,2.1C508.8,168.3,525.7,160.9,528.2,168.3Zm-27.1,13c-.3,1.5-.8,4-.1,5.5s6.4.3,8.3-1c5.1-3.8,11.9-13.4,10.8-16.2s-15.3,3-17.7,5.1Q501.7,177.9,501,181.2Z" transform="translate(-16 -2)"/><path class="cls-15" d="M559.5,159.1c-2.3,5.1-4.9,7.7-9.8,9.2-2,4.2-4.6,7.7-8.6,9.3s-7.4-1.1-9.9-7.7-.8-10.3,2-15.1a23.4,23.4,0,0,1,11.7-10.4c1.6-.6,4.3-.5,4.8,1.5s-.5,1.8-1.1,2.5c2.4,0,3.2,1.5,3.8,3.7s0,6.4-.6,9.7c3.2-.3,4.5-3.7,6.3-6l1.4,3m-22.1,3.1a12.8,12.8,0,0,0-.6,8c.7,2.2,2.1,2.3,3.7,1.6s3.2-2.8,4.3-4.9a8.9,8.9,0,0,1-1.8-3.2c-1.1-3.9.8-9.8.5-9.8-2,2.3-4.7,5.3-6.1,8.3" transform="translate(-16 -2)"/><path class="cls-13" d="M559.5,159.1c-2.3,5.1-4.9,7.7-9.8,9.2-2,4.2-4.6,7.7-8.6,9.3s-7.4-1.1-9.9-7.7-.8-10.3,2-15.1a23.4,23.4,0,0,1,11.7-10.4c1.6-.6,4.3-.5,4.8,1.5s-.5,1.8-1.1,2.5c2.4,0,3.2,1.5,3.8,3.7s0,6.4-.6,9.7c3.2-.3,4.5-3.7,6.3-6Zm-22.1,3.1a12.8,12.8,0,0,0-.6,8c.7,2.2,2.1,2.3,3.7,1.6s3.2-2.8,4.3-4.9a8.9,8.9,0,0,1-1.8-3.2c-1.1-3.9.8-9.8.5-9.8C541.5,156.2,538.8,159.3,537.4,162.2Z" transform="translate(-16 -2)"/><path class="cls-15" d="M587.8,155.5c-2.9,4.5-5.8,6.5-11,7.1-2.5,3.7-5.6,6.6-9.9,7.4s-7.5-2.5-9.3-9.4.3-10.2,3.8-14.3a21.7,21.7,0,0,1,13.1-7.9c1.7-.3,4.4.3,4.7,2.4s-.7,1.7-1.4,2.2c2.4.4,3.1,2,3.4,4.4s-.7,6.2-1.7,9.4c3.3.3,5-2.7,7.1-4.6l1.1,3.2m-23-1.2a11.8,11.8,0,0,0-1.6,7.6c.4,2.2,1.9,2.6,3.6,2.3s3.5-2.1,4.9-4a9.4,9.4,0,0,1-1.4-3.4c-.7-4,1.9-9.4,1.6-9.5-2.3,1.9-5.4,4.3-7.2,6.9" transform="translate(-16 -2)"/><path class="cls-13" d="M587.8,155.5c-2.9,4.5-5.8,6.5-11,7.1-2.5,3.7-5.6,6.6-9.9,7.4s-7.5-2.5-9.3-9.4.3-10.2,3.8-14.3a21.7,21.7,0,0,1,13.1-7.9c1.7-.3,4.4.3,4.7,2.4s-.7,1.7-1.4,2.2c2.4.4,3.1,2,3.4,4.4s-.7,6.2-1.7,9.4c3.3.3,5-2.7,7.1-4.6Zm-23-1.2a11.8,11.8,0,0,0-1.6,7.6c.4,2.2,1.9,2.6,3.6,2.3s3.5-2.1,4.9-4a9.4,9.4,0,0,1-1.4-3.4c-.7-4,1.9-9.4,1.6-9.5C569.7,149.2,566.6,151.6,564.8,154.3Z" transform="translate(-16 -2)"/><path class="cls-15" d="M589.8,153.6l1.1,3.1c3.4-4.1,19-17.3,24.8-16.1,2.8.4,4.3,4.1,4.3,6.4,0,7.2-10.4,9.3-15.2,12.1,1.5,2.2,2.3,3.5,4.9,3.9s4.2-.6,13.8-6.3l.7,3.3c-4,2.5-12.9,9.8-17.7,9.4s-8.3-6.5-10.9-10.3a18.5,18.5,0,0,0-3.5,5.2c-.5,1.2-1,2.3-2.4,2.4s-3.9-7.4-4.1-9.3c-.6-5,2.5-12.4,2.4-13-1.9-8.4,12.9-36.3,17.2-35.4,1.2.2,3.8-.6,4,.5.3,5.3-15.4,38.7-19.4,44m19.7-1.3c1.1-.7,3.6-2,3.6-3.6s-.6-.7-1-.8c-3-.5-10.8,4.3-12.5,6.9a9.4,9.4,0,0,1,3,1.9l6.9-4.4" transform="translate(-16 -2)"/><path class="cls-13" d="M589.8,153.6l1.1,3.1c3.4-4.1,19-17.3,24.8-16.1,2.8.4,4.3,4.1,4.3,6.4,0,7.2-10.4,9.3-15.2,12.1,1.5,2.2,2.3,3.5,4.9,3.9s4.2-.6,13.8-6.3l.7,3.3c-4,2.5-12.9,9.8-17.7,9.4s-8.3-6.5-10.9-10.3a18.5,18.5,0,0,0-3.5,5.2c-.5,1.2-1,2.3-2.4,2.4s-3.9-7.4-4.1-9.3c-.6-5,2.5-12.4,2.4-13-1.9-8.4,12.9-36.3,17.2-35.4,1.2.2,3.8-.6,4,.5C609.4,114.9,593.8,148.3,589.8,153.6Zm19.7-1.3c1.1-.7,3.6-2,3.6-3.6s-.6-.7-1-.8c-3-.5-10.8,4.3-12.5,6.9a9.4,9.4,0,0,1,3,1.9Z" transform="translate(-16 -2)"/></g></svg>