<svg xmlns="http://www.w3.org/2000/svg" viewBox="0 0 594.1 729.4"><defs><style>.cls-1,.cls-3{fill:#fff;}.cls-2{fill:#1b75bc;}.cls-3{stroke:#1b75bc;}.cls-11,.cls-13,.cls-3,.cls-8,.cls-9{stroke-miterlimit:10;}.cls-13,.cls-3,.cls-8{stroke-width:3px;}.cls-14,.cls-4,.cls-5{fill:#2b3990;}.cls-4,.cls-5,.cls-6,.cls-7{stroke:#2b3990;stroke-linejoin:round;}.cls-4,.cls-7{stroke-width:6px;}.cls-5,.cls-6{stroke-width:7px;}.cls-6{fill:#27aae1;}.cls-7{fill:#6fb0e0;}.cls-10,.cls-8,.cls-9{fill:#004959;}.cls-11,.cls-13,.cls-8,.cls-9{stroke:#004959;}.cls-11,.cls-9{stroke-width:4px;}.cls-11,.cls-12,.cls-13{fill:#009794;}.cls-14{font-size:36px;font-family:BrushScriptMT, Brush Script MT;font-style:italic;}.cls-15{letter-spacing:-0.01em;}.cls-16{fill:#00a8e1;}</style></defs><title>Asset 1</title><g id="Layer_2" data-name="Layer 2"><g id="Layer_1-2" data-name="Layer 1"><path class="cls-1" d="M422.3,98.1V45.4l9,2.2c.5.1,39.1,7.6,53.5,11.3C480.6,62.3,470.6,70,464,75l-1.3,1,22.8,24Z"/><path class="cls-2" d="M423.8,47.3l7.2,1.8h.1c.4.1,34.4,6.7,50.3,10.5L463.1,73.8l-2.7,2,2.3,2.4,19.1,20.1-58.1-1.7V47.3m-3-3.8V99.6l68.3,2L464.9,76.2s23.6-18,23-18c-11.5-3.3-56.2-12-56.2-12l-10.9-2.7Z"/><line class="cls-3" x1="422.2" y1="98.6" x2="437.6" y2="83.2"/><path class="cls-1" d="M121.8,78.9l-1.3-1c-6.6-5.1-16.4-12.7-20.6-16.1,14.2-3.7,52.6-11.2,53-11.3l9-2.2V101l-62.7,1.9Z"/><path class="cls-2" d="M160.4,50.2V99.6l-57.6,1.7,19-20.1,2.3-2.4-2.6-2L103.2,62.5c15.9-3.8,49.6-10.4,50-10.5h.1l7.1-1.8m3-3.8-10.8,2.7s-44.4,8.7-55.8,12c-.6,0,22.8,18,22.8,18l-24,25.4,67.8-2V46.4Z"/><line class="cls-3" x1="146.4" y1="85.8" x2="162.1" y2="100.9"/><path class="cls-3" d="M146.2,18.9s146.9-39.2,292.3,0l-1.4,63.7S280.4,44.8,146.9,85C146.9,83.4,146.2,18.9,146.2,18.9Z"/><path class="cls-4" d="M16.8,389.4q15.6-8.2,31.4-15.5l3.6,52.3q8.7-4.3,17.4-8.3L65.9,366q16-6.9,32.2-12.9,4,75.3,7.8,150.5-15.4,7-30.5,14.9-1.7-28.2-3.5-56.5-8.6,4.2-17.1,8.6,1.9,28.4,3.8,56.9-14.9,8.3-29.6,17.4Q22.9,467.2,16.8,389.4ZM45.1,515.8q-2.1-29.3-4.2-58.5Q62,446,83.5,436.4q1.7,28.8,3.3,57.5l3.7-1.8Q87.3,434.6,84,377.1l-3.9,1.6,3,52.3q-21.5,9.6-42.7,20.8l-3.9-53.2-3.8,1.9q4.4,58.8,8.6,117.5Z"/><path class="cls-4" d="M105.2,427.1a124.3,124.3,0,0,1,2.5-32.2,118.2,118.2,0,0,1,10.1-29.1A82.6,82.6,0,0,1,134,343.4a48,48,0,0,1,20.6-12.2,34.4,34.4,0,0,1,21.1.6,42.2,42.2,0,0,1,17.6,12.3,65,65,0,0,1,12.1,21.5,91,91,0,0,1,4.8,28.3,110.8,110.8,0,0,1-3.6,30.3A114.4,114.4,0,0,1,196,451.3a91.1,91.1,0,0,1-16.1,21.3,55.3,55.3,0,0,1-19.8,12.8c-7,2.5-13.7,3-20.1,1.3a35.2,35.2,0,0,1-17-10.2q-7.4-7.8-12.1-20.5A96.7,96.7,0,0,1,105.2,427.1Zm13.9-5.5a70.1,70.1,0,0,0,4,21.1,43.8,43.8,0,0,0,8.9,15.1,26.5,26.5,0,0,0,12.5,7.7,24.7,24.7,0,0,0,14.8-.8,39.4,39.4,0,0,0,14.6-9.3,65.9,65.9,0,0,0,11.8-15.7,84.2,84.2,0,0,0,7.8-20,82.3,82.3,0,0,0,2.5-22.3,67.1,67.1,0,0,0-3.6-20.8,47,47,0,0,0-8.9-15.6,30.3,30.3,0,0,0-12.8-8.8,25.1,25.1,0,0,0-15.4-.2,35.6,35.6,0,0,0-15,8.9,61.4,61.4,0,0,0-11.8,16.2,86.2,86.2,0,0,0-7.5,21.1A89.4,89.4,0,0,0,119.2,421.6Zm40,37.3a22.1,22.1,0,0,1-13.4.7,24.2,24.2,0,0,1-11.2-7,39.7,39.7,0,0,1-8-13.5,62.5,62.5,0,0,1-3.6-19,79.6,79.6,0,0,1,1.8-21,77.8,77.8,0,0,1,6.7-18.9,55.8,55.8,0,0,1,10.6-14.6,32,32,0,0,1,13.5-8.1,22.4,22.4,0,0,1,13.8.2,27.2,27.2,0,0,1,11.5,7.9,42.2,42.2,0,0,1,8,14,59.9,59.9,0,0,1,3.2,18.7,73.8,73.8,0,0,1-2.2,20.1,76.2,76.2,0,0,1-7,18,59.6,59.6,0,0,1-10.6,14.1A35.1,35.1,0,0,1,159.1,459Zm-22.7-43.7a37.9,37.9,0,0,0,2.1,11.5,24.3,24.3,0,0,0,4.9,8.3,15,15,0,0,0,6.9,4.3,13.5,13.5,0,0,0,8.2-.3,21,21,0,0,0,8-5,35.5,35.5,0,0,0,6.4-8.6,46.4,46.4,0,0,0,4.2-11.1,45.9,45.9,0,0,0,1.3-12.4,37,37,0,0,0-2-11.4,25.3,25.3,0,0,0-4.8-8.5,16.1,16.1,0,0,0-7-4.7,13.6,13.6,0,0,0-8.3,0,19.9,19.9,0,0,0-8.2,5,34.2,34.2,0,0,0-6.5,8.8,46.9,46.9,0,0,0-4.1,11.4A48,48,0,0,0,136.4,415.3Z"/><path class="cls-4" d="M212.2,321.5q17.2-3.2,34.4-5.5.6,52,1.1,104,13.9-2.6,27.8-4.6.1,18.3.1,36.5-30.5,4.9-60.7,12.8Q213.6,393.2,212.2,321.5Zm55,115.1v-5q-16.9,2.8-33.7,6.4-.7-51.4-1.5-102.8l-4,.7q.8,54.1,1.6,108.1Q248.4,439.8,267.2,436.6Z"/><path class="cls-4" d="M281.7,312.3q17.5-1.4,35.1-1.9-.4,68.2-.8,136.4-17,1.7-34,4.2Q281.9,381.7,281.7,312.3ZM301,431.9q.1-52.2.3-104.4l-4,.3q-.1,52.3-.2,104.6Z"/><path class="cls-4" d="M324.5,446q.6-67.9,1.1-135.8,14.3-.2,28.6.2a68.5,68.5,0,0,1,25.7,5.4,50.6,50.6,0,0,1,18.7,13.9,58.9,58.9,0,0,1,11.2,21.5,92.5,92.5,0,0,1,3.3,28.5c-.3,10.6-1.8,19.9-4.7,27.8a54.1,54.1,0,0,1-12,19.8,51.5,51.5,0,0,1-18.8,12.2,79.1,79.1,0,0,1-25.2,4.8Q338.5,444.8,324.5,446Zm15.2-17.3,12.8-.5c14.7-.5,25.8-4.8,33.4-13.3s11.7-20.5,12-36.4-3.1-28.3-10.5-37.5-18.6-14.2-33.5-14.6H340.9Q340.3,377.5,339.8,428.7Zm4-5q.6-46.3,1.1-92.5h9.1c13,.2,23,4.6,30,12.6s10.3,19.5,10,34.4-4.1,26-11.3,33.5-17.2,11.3-29.9,11.7Zm13.4-17.7c7.6-.1,13.4-2.4,17.6-7.1s6.4-11.7,6.6-21.3-1.7-16.8-5.8-21.6-9.9-7.3-17.6-7.5Z"/><path class="cls-4" d="M441.9,318.7q12,2,24,4.4,16.7,67,32.7,132.3-15.2-3-30.6-5.3l-2.8-11.8q-14.8-2.2-29.8-3.6L431.8,446q-15.6-1.3-31.2-1.9Q421,379.5,441.9,318.7ZM423.1,429.8l3.1-9.4q24.6,2.2,48.8,6.3l2.5,9.9,4.1.7q-12.4-49.9-25.3-100.7l-5.7-1q-15.9,45.9-31.7,94Zm30.2-89.2q10.4,41,20.5,81.3-22.9-3.9-46.2-6.1Q440.4,377.5,453.3,340.6Zm4.5,68.7-6-23.2-7.4,21.4Z"/><path class="cls-4" d="M504.9,403.3q-13.7-38.6-27.8-77.8,17.6,3.9,34.9,8.8l10.2,29.1,12-22.4q17.1,5.5,33.8,12.1-16.1,28.1-32.4,58.2l-2.2,52q-15.2-4-30.6-7.1Zm15.9,42.2,1.8-43.7q11.5-21.7,23-42.3l-4.4-1.5q-10.1,18.4-20.2,37.6l-17-48.6-4.4-1.1,19.2,54.9-1.8,43.8Z"/><path class="cls-5" d="M15.7,175.6q21-8.3,42.4-15.3l5.7,60.2q11.6-4.1,23.3-7.8l-5-59.8q21.6-6.3,43.4-11.1,5.8,86.8,11.6,173.6-20.3,6.1-40.3,13.4l-5.4-65.1q-11.4,3.9-22.8,8.1l6.1,65.6q-19.7,8-39,17.3Q25.8,265.1,15.7,175.6ZM56.5,322.7l-6.8-67.5q28.1-11.1,56.9-19.7l5.1,66.4,4.9-1.6q-4.9-66.4-9.9-132.8l-5.2,1.4,4.6,60.3q-28.8,8.5-57,19.6l-6.2-61.3-5.1,1.9q7,67.7,13.9,135.4Z"/><path class="cls-5" d="M177.7,132.1q16.4-2.4,32.9-4.1,29.1,81.7,55.5,162-20.5,2-40.9,5.3l-4.8-14.5q-19.7,3.1-39.3,7.4l-3.5,16.3q-20.2,4.7-40.1,10.7Q155.7,221.3,177.7,132.1ZM164.7,286.8l3-13.7q32.1-7.4,64.6-11.7l4.1,12.1,5.5-.7q-20.7-61.1-43-123l-7.8,1Q174.2,218,159.3,288.1Zm30.5-130.6q18.1,49.9,35.1,99.3-30.8,4.1-61.2,11Q181.5,210.5,195.3,156.3ZM208,245.3l-10.1-28.3q-3.9,15.6-7.6,31.4Z"/><path class="cls-5" d="M369.5,189.6c-.1,10.9-1.8,20.1-5.1,27.5A47,47,0,0,1,351.1,235a54,54,0,0,1-19.4,9.9,91.3,91.3,0,0,1-23.7,3.4l.2,38.8q-20.9.8-41.7,2.8-1.6-82.7-3.2-165.5,22-.6,44,.1a79.6,79.6,0,0,1,24.6,4.6,57,57,0,0,1,19.9,12.1,54.5,54.5,0,0,1,13.2,20Q369.7,173.2,369.5,189.6ZM349.9,188a51.9,51.9,0,0,0-3-18.9,36.3,36.3,0,0,0-8.8-13.6,39.3,39.3,0,0,0-13.6-8.3,52.8,52.8,0,0,0-17.1-3.2q-11.6-.3-23.2-.2.8,62.4,1.6,124.8l5.1-.3-.4-39,17.4-.4a57.1,57.1,0,0,0,16.7-2.5,37.3,37.3,0,0,0,13.3-7.3,32.5,32.5,0,0,0,8.8-12.6A49.7,49.7,0,0,0,349.9,188Zm-5.7-.4q0,10.3-3.1,17.1a27.7,27.7,0,0,1-8.1,10.8,31.6,31.6,0,0,1-11.5,5.7,54.7,54.7,0,0,1-13.7,1.8l-17.4.4-.8-73.7,17.8.2a50.2,50.2,0,0,1,14,2.3,33,33,0,0,1,11.7,6.5,30.7,30.7,0,0,1,8.1,11.5Q344.3,177.3,344.2,187.6Zm-36.5,16.8h1.8c5.6,0,9.7-1.5,12.2-4.6s3.7-7.4,3.7-13.1-1.3-10.1-3.8-13.3-6.6-4.9-12.3-5h-1.8Z"/><path class="cls-5" d="M477.7,208.4c-.4,10.4-2.3,18.8-5.7,25.3a36.9,36.9,0,0,1-13.5,14.9,47.4,47.4,0,0,1-19.4,6.4,92.8,92.8,0,0,1-23.6-.4l-.9,36.9q-20.8-2.5-41.8-3.7l2.1-158q21.8,2.8,43.4,6.9a88.1,88.1,0,0,1,24.1,8.2,67.4,67.4,0,0,1,19.1,14.7,62.3,62.3,0,0,1,12.4,21.1Q478.3,192.9,477.7,208.4Zm-19.2-4.6a51.1,51.1,0,0,0-2.5-18.5,41.2,41.2,0,0,0-8.3-14.3A46.6,46.6,0,0,0,434.6,161a58.6,58.6,0,0,0-16.8-5.7q-11.4-2.1-22.9-3.8l-2.2,119,5.1.5.7-37.2,17.3,2.3a57.6,57.6,0,0,0,16.6.2,32.5,32.5,0,0,0,13.4-4.8,25.6,25.6,0,0,0,9-10.6C457,216.3,458.3,210.6,458.5,203.8Zm-5.6-1.2q-.3,9.8-3.5,15.8a21.9,21.9,0,0,1-8.2,9,28,28,0,0,1-11.5,3.6,55.6,55.6,0,0,1-13.6-.4l-17.3-2.3,1.4-70.2,17.6,2.9a55.5,55.5,0,0,1,13.7,4.3,39,39,0,0,1,11.4,8,35.1,35.1,0,0,1,7.7,12.3A43.8,43.8,0,0,1,452.9,202.6Zm-36.5,10.3,1.8.3c5.6.9,9.6.1,12.2-2.5s3.9-6.5,4-11.9-1-9.8-3.3-13.3-6.4-5.7-12-6.7l-1.8-.3Z"/><path class="cls-5" d="M505.7,244.5q-18.3-47.9-37.4-96.4,23.7,6.3,47,14.2l13.6,36.2q8.1-12.9,16.3-25.3,23,9,45.5,19.6-21.9,30.9-43.8,65l-3.1,62.2q-20.2-6.6-40.7-11.8Zm21.1,52.4,2.5-52.3q15.5-24.7,31-47.8l-6-2.4q-13.6,20.7-27.3,42.6-11.3-30.1-22.8-60.4l-5.9-1.8Q511.4,209,524,243l-2.4,52.4Z"/><path class="cls-6" d="M3.5,161.8q21.1-8.3,42.5-15.3l6.1,61.6q11.6-4.1,23.3-7.8L70,139.1q21.7-6.3,43.6-11.2,6.3,88.8,12.5,177.6-20.3,6.1-40.2,13.4L80,252.4q-11.4,3.9-22.8,8.1l6.6,67.1q-19.6,8-38.9,17.3Q14.3,253.4,3.5,161.8Zm42,150.7-7.3-69q28.1-11.1,56.9-19.7l5.5,67.9,4.9-1.6q-5.3-67.9-10.7-135.9l-5.2,1.4,5,61.7Q65.8,225.9,37.6,237l-6.7-62.7-5.1,1.9q7.5,69.2,15,138.5Z"/><path class="cls-6" d="M166,118.2q16.5-2.4,33-4.1,29.5,83.7,55.9,166-20.5,2-40.9,5.3l-4.8-14.8q-19.7,3.2-39.2,7.5l-3.4,16.7q-20.1,4.7-40,10.7Q144.3,209.5,166,118.2ZM153.6,276.6l2.9-14.1q32-7.4,64.5-11.8l4.1,12.4,5.5-.7q-20.8-62.6-43.4-126.1l-7.8,1q-16.7,68.9-31.3,140.6Zm30.1-133.5q18.3,51.1,35.4,101.7-30.8,4.1-61.2,11Q170.1,198.5,183.7,143.1Zm13,91.2-10.2-29q-3.8,16-7.5,32.1Z"/><path class="cls-6" d="M358.2,177.3c-.1,11.2-1.9,20.5-5.2,28.2a48.3,48.3,0,0,1-13.3,18.4,53.6,53.6,0,0,1-19.4,10.2,89,89,0,0,1-23.7,3.5l.2,39.7q-20.9.8-41.7,2.8-1.7-84.7-3.4-169.4,22.1-.6,44.1.1a78.5,78.5,0,0,1,24.7,4.7,56.8,56.8,0,0,1,19.9,12.4,55.6,55.6,0,0,1,13.2,20.4Q358.5,160.5,358.2,177.3Zm-19.6-1.6a54.2,54.2,0,0,0-3-19.4,37.1,37.1,0,0,0-8.8-13.9,39.1,39.1,0,0,0-13.6-8.5,52,52,0,0,0-17.2-3.2q-11.6-.3-23.2-.2.9,63.9,1.7,127.8l5.1-.3-.5-40,17.4-.4a55.8,55.8,0,0,0,16.7-2.6,37.2,37.2,0,0,0,13.3-7.5,33.4,33.4,0,0,0,8.8-12.9A52,52,0,0,0,338.6,175.7Zm-5.7-.4q-.1,10.6-3.1,17.5a28.4,28.4,0,0,1-8.1,11,31.4,31.4,0,0,1-11.5,5.8,53.3,53.3,0,0,1-13.7,1.9l-17.4.4-.9-75.4,17.9.2a49.4,49.4,0,0,1,14.1,2.3,32.8,32.8,0,0,1,11.8,6.6,31.3,31.3,0,0,1,8.1,11.8Q333,164.8,333,175.4Zm-36.6,17.3h1.8c5.6,0,9.7-1.5,12.2-4.7s3.7-7.6,3.7-13.4-1.3-10.3-3.8-13.6-6.6-5.1-12.3-5.2h-1.8Z"/><path class="cls-6" d="M466.6,196.2c-.4,10.6-2.4,19.2-5.8,25.9a38.1,38.1,0,0,1-13.6,15.3,47,47,0,0,1-19.4,6.7,90.4,90.4,0,0,1-23.6-.3l-1,37.8q-20.8-2.5-41.7-3.7l2.3-161.8q21.9,2.8,43.5,6.9a86.8,86.8,0,0,1,24.1,8.3,67.1,67.1,0,0,1,19.2,14.9,63.2,63.2,0,0,1,12.4,21.5Q467.3,180.3,466.6,196.2Zm-19.2-4.6a53.1,53.1,0,0,0-2.4-18.9,41.9,41.9,0,0,0-8.3-14.6,46.3,46.3,0,0,0-13.1-10.3,57.7,57.7,0,0,0-16.8-5.8q-11.4-2.1-22.9-3.8l-2.4,121.8,5.1.5.8-38.1,17.3,2.3a56.3,56.3,0,0,0,16.6.1,32.3,32.3,0,0,0,13.4-5,26.4,26.4,0,0,0,9-10.9C445.9,204.4,447.1,198.5,447.4,191.6Zm-5.6-1.2q-.4,10-3.6,16.2a22.5,22.5,0,0,1-8.3,9.2,27.7,27.7,0,0,1-11.6,3.7,54.2,54.2,0,0,1-13.6-.4l-17.3-2.3,1.5-71.9,17.6,2.9a54.6,54.6,0,0,1,13.8,4.4,38.7,38.7,0,0,1,11.4,8.2,35.6,35.6,0,0,1,7.6,12.5A45.5,45.5,0,0,1,441.8,190.3ZM405.2,201l1.8.3c5.6.9,9.6,0,12.2-2.6s3.9-6.7,4.1-12.2-.9-10-3.3-13.6-6.4-5.8-12-6.8l-1.8-.3Z"/><path class="cls-6" d="M494.5,233q-18.1-48.9-37.1-98.5,23.8,6.3,47.2,14.3l13.5,37q8.2-13.2,16.5-26,23.1,9,45.6,19.7-22.2,31.8-44.5,66.8L532,309.8q-20.2-6.5-40.7-11.7Zm20.8,53.5,2.8-53.5q15.7-25.3,31.5-49.1l-6-2.4q-13.8,21.3-27.6,43.7-11.1-30.7-22.5-61.6l-5.9-1.8q12.9,34.9,25.4,69.6l-2.8,53.7Z"/><path class="cls-7" d="M8.6,370q15.6-8.2,31.4-15.5l3.6,52.3q8.7-4.3,17.4-8.3l-3.3-51.9q16-6.9,32.2-12.9,4,75.3,7.8,150.5-15.4,7-30.5,14.9-1.7-28.2-3.5-56.5-8.6,4.2-17.1,8.6,1.9,28.4,3.8,56.9-14.9,8.3-29.6,17.4Q14.8,447.8,8.6,370ZM36.9,496.5q-2.1-29.3-4.2-58.5,21.1-11.3,42.6-20.9,1.7,28.8,3.3,57.5l3.7-1.8q-3.2-57.5-6.5-115.1l-3.9,1.6,3,52.3q-21.5,9.6-42.7,20.8l-3.9-53.2-3.8,1.9q4.4,58.8,8.6,117.5Z"/><path class="cls-7" d="M97.1,407.8a124.2,124.2,0,0,1,2.5-32.2,118.2,118.2,0,0,1,10.1-29.1,82.7,82.7,0,0,1,16.2-22.3,48,48,0,0,1,20.6-12.2,34.4,34.4,0,0,1,21.1.6,42.3,42.3,0,0,1,17.6,12.3,65.1,65.1,0,0,1,12.1,21.5,91,91,0,0,1,4.8,28.3,110.8,110.8,0,0,1-3.6,30.3A114.3,114.3,0,0,1,187.8,432a91.1,91.1,0,0,1-16.1,21.3,55.3,55.3,0,0,1-19.8,12.8c-7,2.5-13.7,3-20.1,1.3a35.2,35.2,0,0,1-17-10.2q-7.4-7.8-12.1-20.5A96.7,96.7,0,0,1,97.1,407.8Zm13.9-5.5a70.1,70.1,0,0,0,4,21.1,43.8,43.8,0,0,0,8.9,15.1,26.5,26.5,0,0,0,12.5,7.7,24.7,24.7,0,0,0,14.8-.8,39.5,39.5,0,0,0,14.6-9.3,65.9,65.9,0,0,0,11.8-15.7,84.2,84.2,0,0,0,7.8-20,82.3,82.3,0,0,0,2.5-22.3,67,67,0,0,0-3.6-20.8,47,47,0,0,0-8.9-15.6,30.3,30.3,0,0,0-12.8-8.8,25.1,25.1,0,0,0-15.4-.2,35.6,35.6,0,0,0-15,8.9,61.4,61.4,0,0,0-11.8,16.3,86.2,86.2,0,0,0-7.5,21.1A89.5,89.5,0,0,0,111,402.3Zm40,37.3a22,22,0,0,1-13.4.7,24.2,24.2,0,0,1-11.2-7,39.6,39.6,0,0,1-8-13.5,62.4,62.4,0,0,1-3.6-19,79.6,79.6,0,0,1,1.8-21,77.7,77.7,0,0,1,6.7-18.9,55.7,55.7,0,0,1,10.6-14.6,32,32,0,0,1,13.5-8.1,22.4,22.4,0,0,1,13.8.2,27.2,27.2,0,0,1,11.5,7.9,42.1,42.1,0,0,1,8,14,60,60,0,0,1,3.2,18.7,73.8,73.8,0,0,1-2.2,20.1,76.1,76.1,0,0,1-7,18,59.5,59.5,0,0,1-10.6,14.1A35,35,0,0,1,151,439.6ZM128.2,396a37.8,37.8,0,0,0,2.1,11.5,24.3,24.3,0,0,0,4.9,8.3,14.9,14.9,0,0,0,6.9,4.3,13.5,13.5,0,0,0,8.2-.3,21,21,0,0,0,8-5,35.4,35.4,0,0,0,6.4-8.6,46.4,46.4,0,0,0,4.2-11.1,45.8,45.8,0,0,0,1.3-12.4,36.9,36.9,0,0,0-2-11.4,25.3,25.3,0,0,0-4.8-8.5,16.1,16.1,0,0,0-7-4.7,13.6,13.6,0,0,0-8.3,0,19.9,19.9,0,0,0-8.2,5,34.1,34.1,0,0,0-6.5,8.8,46.9,46.9,0,0,0-4.1,11.4A47.9,47.9,0,0,0,128.2,396Z"/><path class="cls-7" d="M204,302.2q17.2-3.2,34.4-5.5.6,52,1.1,104,13.9-2.6,27.9-4.6.1,18.2.1,36.5-30.5,4.9-60.7,12.8Q205.4,373.8,204,302.2Zm55,115.1v-5q-16.9,2.8-33.7,6.4-.7-51.4-1.5-102.8l-4,.7q.8,54.1,1.6,108.1Q240.2,420.4,259,417.3Z"/><path class="cls-7" d="M273.6,293q17.5-1.4,35.1-1.9-.4,68.2-.8,136.4-17,1.7-34,4.2Q273.7,362.3,273.6,293Zm19.2,119.6q.1-52.2.3-104.4l-4,.3q-.1,52.3-.2,104.6Z"/><path class="cls-7" d="M316.4,426.7q.6-67.9,1.1-135.8,14.3-.2,28.6.2a68.5,68.5,0,0,1,25.7,5.4,50.6,50.6,0,0,1,18.7,13.9,58.9,58.9,0,0,1,11.2,21.5,92.4,92.4,0,0,1,3.3,28.5c-.3,10.6-1.8,19.9-4.7,27.8a54.1,54.1,0,0,1-12,19.8,51.6,51.6,0,0,1-18.8,12.2,79.1,79.1,0,0,1-25.2,4.8Q330.3,425.5,316.4,426.7Zm15.2-17.2,12.8-.5c14.7-.5,25.8-4.8,33.4-13.3s11.7-20.6,12-36.4-3.1-28.3-10.5-37.5-18.6-14.2-33.5-14.6H332.7Q332.2,358.2,331.6,409.4Zm4-5q.6-46.3,1.1-92.5h9.1c13,.2,23,4.6,30,12.6s10.3,19.5,10,34.4-4.1,26-11.3,33.5-17.2,11.3-29.9,11.7Zm13.4-17.7c7.6-.1,13.4-2.4,17.6-7.1s6.4-11.7,6.6-21.3-1.7-16.8-5.8-21.6-9.9-7.3-17.6-7.5Z"/><path class="cls-7" d="M433.8,299.4q12,2,24,4.4,16.7,67,32.7,132.3-15.2-3-30.6-5.3L457,419.1q-14.8-2.2-29.8-3.6l-3.6,11.2q-15.6-1.3-31.2-1.9Q412.8,360.2,433.8,299.4ZM415,410.5l3.1-9.4q24.6,2.2,48.8,6.3l2.5,9.9,4.1.7Q461,368,448.1,317.2l-5.7-1q-15.9,45.9-31.7,94Zm30.2-89.2q10.4,41,20.5,81.3-22.9-3.9-46.2-6.1Q432.3,358.2,445.2,321.3Zm4.5,68.7-6-23.2-7.4,21.4Z"/><path class="cls-7" d="M496.7,383.9q-13.7-38.6-27.8-77.8,17.6,3.9,34.9,8.8L514,344.1l12-22.4q17.1,5.5,33.8,12.1-16.1,28.1-32.4,58.2l-2.2,52q-15.2-4-30.6-7.1Zm15.9,42.2,1.8-43.7q11.5-21.7,23-42.3l-4.4-1.5q-10.1,18.4-20.2,37.6l-17-48.6-4.4-1.1,19.2,54.9-1.8,43.8Z"/><text></text><text></text><text></text><path class="cls-8" d="M344.5,636c3.2,7.3-7.4,29-38.1,48.8-8.3,5.3-21.1,10-28-.1-2.3-3.6-3.8-3.8-.8-30.1-3.8,1.9-12,6.7-14.7,3s19.2-19.8,22.8-22.8c4.3-12,2.5-23.6,17.4-30.4.2,2.5-.2,4.4-5.2,21.5,29.8-18.9,34.9-29.1,32.7-32.5s-8.2-5.5-25.5,3c-3.3,1.8-18.9,10.2-35.8,28.6,1.1-.1,2.5-.3,3.1.6s-1.6,4.2-3.2,5.5c-7.7,6.1-9.5,8.7-15.5,15.7a17.4,17.4,0,0,1-3.4,3.4c-2.2,1.5-4,1.1-5.5-.7s-1.8-6-1.2-13.2c.4-4.9,1.1-11.6,4.8-16,10.2-12.7,35.3-31.9,51.9-38.6,27.4-11.3,38.7-4.4,41.7,2.1,8.5,19.4-34,41.2-47.5,53l-1.4,3.5C303.1,636.1,339.2,623.7,344.5,636Zm-57.9,21.7c-.6,2.6-1.8,6.7-.2,9.1,3.1,4.9,13.6.5,17.7-1.6,10.9-6.3,25.4-22.4,23.1-27.1-3.2-6.6-32.5,5.1-37.7,8.5Q287.9,652.1,286.6,657.7Z"/><path class="cls-8" d="M411.4,620.7c-4.8,8.5-10.4,12.8-20.9,15.4-4.3,7-9.8,12.8-18.4,15.6-7,2.2-15.9-1.9-21.2-12.9-4.2-9.1-1.8-17.2,4.3-25.3s15.5-14.7,25-17.3c3.4-1,9.1-.9,10.3,2.6.6,1.9-1,3.1-2.4,4.2,5,0,6.8,2.4,8,6.3,1.8,5.6.1,10.7-1.2,16.3,6.8-.5,9.6-6.1,13.5-10Zm-47.2,5.2c-2.1,3.7-2.9,9.5-1.4,13.3s4.4,3.8,7.9,2.8,6.7-4.7,9.1-8.2a14.4,14.4,0,0,1-3.8-5.3c-2.4-6.5,1.7-16.4,1.1-16.4C373,615.9,367.2,620.9,364.3,625.9Z"/><path class="cls-8" d="M471.7,614.7c-6.1,7.6-12.5,10.9-23.6,11.9-5.4,6.1-11.9,11-21.1,12.4-7.6,1.1-16-4.2-19.9-15.6-3-9.5.7-17,8.1-24s17.9-12,28-13.2c3.6-.4,9.4.5,10.1,4,.4,2-1.4,2.8-3.1,3.8,5.1.7,6.6,3.4,7.3,7.3,1,5.7-1.4,10.4-3.5,15.7,7,.6,10.7-4.5,15.2-7.6Zm-49-2.1c-2.7,3.3-4.3,8.8-3.3,12.8s4,4.4,7.7,3.9,7.6-3.5,10.5-6.7a14.1,14.1,0,0,1-3.1-5.7c-1.5-6.7,4.1-15.7,3.4-15.9C433.1,604.1,426.4,608.2,422.7,612.6Z"/><path class="cls-8" d="M475.9,611.5l2.3,5.2c7.3-6.9,40.6-28.9,52.8-26.9,5.9.7,9.2,6.9,9.2,10.7,0,12-22.2,15.6-32.5,20.3,3.2,3.6,5,5.8,10.6,6.6,3.1.5,8.9-1.1,29.4-10.6l1.5,5.6c-8.5,4.1-27.6,16.4-37.8,15.7s-17.7-10.8-23.2-17.2a31.7,31.7,0,0,0-7.4,8.8c-1,2-2.2,3.9-5.1,3.9-5.3.1-8.2-12.4-8.7-15.5-1.2-8.3,5.3-20.8,5.1-21.8-4.1-14,27.5-60.7,36.8-59.2,2.7.3,8.2-1,8.4.8C517.9,546.8,484.5,602.6,475.9,611.5Zm41.9-2.1c2.4-1.2,7.8-3.3,7.7-6.1,0-.8-1.4-1.2-2.2-1.3-6.3-.8-23.1,7.1-26.6,11.5a21.3,21.3,0,0,1,6.3,3.2Q510.3,612.9,517.8,609.4Z"/><text></text><path class="cls-9" d="M80.8,580.5c.7-1.3,4.1-7.1,5.6-7.5s2.3.4,2.2,2.9l.3.2c10.2-15.7,15.6-31,14.4-35.7-.6-2.4-2.4-3-4.4-1.9s-17.6,6.3-38.8,52.3c-6.6,14.4-9.6,32.2-6.9,43.1s8.6,14.9,18.4,12.2c17.1-4.8,41.2-36.6,51.2-52.2,2.2,7.2.5,9.8-3.3,16.4-19.8,34.3-40.3,49.2-53.1,52.7C51.3,667.3,38,660.4,33.9,644c-5.2-21.1,5.9-48.4,16.5-66.2C59,563,81.9,532.1,98.1,527.6c8.2-2.3,14.6.9,17.3,9.8,5.8,19.1-20.3,65.5-36.7,73a6.7,6.7,0,0,1-9.3-4.8c-1.1-4.3,1.5-9.6,3.8-13Z"/><path class="cls-9" d="M178.1,589.1c-4.1,9.9-9.2,15-19.2,17.7-4.2,7.7-9.7,14.2-18.3,16.6s-15.5-3.7-19.2-16.6c-2.9-10.7.3-19.2,6.4-27.5s14.6-14.9,22.8-17.7c3-1,7.8-.8,8.8,3.1.5,2.2-.9,3.5-2.2,4.7,4.4,0,5.9,2.8,7,7.1,1.6,6.3.1,12.1-1.1,18.4,6.3-.5,8.7-7,12.1-11.5Zm-43.2,4.8c-2.2,4-3.4,10.3-2.3,14.7s3.9,4.7,7.3,3.8,6.7-4.8,9.1-8.6a16.4,16.4,0,0,1-3.3-6.1c-1.8-7.5,2.3-18.3,1.7-18.4C143.5,583.4,137.9,588.6,134.9,593.9Z"/><path class="cls-9" d="M218.8,578.2c-5.5,10.2-14.7,28.3-26.4,31.5-9.9,2.8-14.6-6.8-16.7-15.3-3.7-15.1-1.6-33,4.4-46.9,8.1-18.9,17.7-35.9,22.1-37.1,2.3-.6,3.7,2.7,4,4.6,2.4,13.9,2,27.5-20,65.8a17.4,17.4,0,0,0,1.5,10.2c2,3,4.7,5.3,8.3,4.3,7.5-2.1,15.7-14.2,19.8-20.8Zm-32.9-11.4c7.3-12.1,12.3-28.2,12.8-37.1-5.8,5.3-10.4,20.3-13.1,36.9Z"/><path class="cls-9" d="M270.9,563.4c-4.1,9.9-9.2,15-19.2,17.7-4.2,7.7-9.7,14.2-18.3,16.6S218,594,214.2,581.1c-2.9-10.7.3-19.2,6.4-27.5s14.6-14.9,22.8-17.7c3-1,7.8-.8,8.8,3.1.5,2.2-.9,3.5-2.2,4.7,4.4,0,5.9,2.8,7,7.1,1.6,6.3.1,12.1-1.1,18.4,6.3-.5,8.7-7,12.1-11.5Zm-43.2,4.8c-2.2,4-3.4,10.3-2.3,14.7s3.9,4.7,7.3,3.8,6.7-4.8,9.1-8.6a16.3,16.3,0,0,1-3.3-6.1c-1.8-7.5,2.3-18.3,1.7-18.4C236.3,557.7,230.7,562.9,227.7,568.2Z"/><path class="cls-9" d="M277.1,549.7c-2.6,9.8-7.2,15.7-11.9,22.3l-2.1-6.2a53.4,53.4,0,0,0,6.4-13c-2.9.5-4-.4-4.8-3.4-2.6-10.3,8.8-24.5,12-25.4a2.5,2.5,0,0,1,3.1,1.8,10.7,10.7,0,0,1,0,4.3c12.3-5.4,19.4-9.2,21.2-7.9a14.7,14.7,0,0,1,5.1,6.7c1.1,4.4-1,7.3-3.4,10.9s-8,13.6-6.6,19.3a4.3,4.3,0,0,0,5.2,2.8c5.8-1.6,12.1-13.3,15.7-18.1l2.3,5c-3.6,7.6-15.3,27.8-23.1,30-5.7,1.6-10.6-3-12-8.5-2.4-9.8,2.8-19.3,6.5-27.7l-.3-.2Z"/><path class="cls-9" d="M353.8,543.5c-4.2,9.6-12.9,25.8-23.3,28.7-8,2.2-14.1-6.5-15.9-13.8-4.3-17.5,8.4-39.3,16.6-41.5,2.3-.6,6.2-.8,7,2.4,1.8,7.2-8.5,23.7-13.2,29.4.4,6.2,3.2,8.8,9.5,7s12.4-11.6,16.8-17.2Zm-22.9-36.2c-1.5-5.9,3.8-12.8,9.1-14.3a4.4,4.4,0,0,1,5.6,3.2c1.4,5.7-1.9,14.2-7.7,15.8C334.5,512.8,331.7,510.7,330.8,507.3Z"/><path class="cls-9" d="M413.5,516.5l2.7,6c-5.5,8.7-15.2,30.3-25.1,33-5.2,1.4-8.8-2.5-10-7.4-2.1-8.6,2.9-20.1,5.6-27.9l-.3-.2a120,120,0,0,0-15.5,27.7c-1.4,3.3-4.7,11.7-8.3,12.7-6,1.7-9.7-7-11.1-11.8-2.9-9.8,2.1-26.6,8.3-35.9,1.4-2.1,2.6-2.5,4.9-3.2,8.2-2,8.1.2,8.3,1.1,1.4,5.6-12.2,24.8-11.3,28.3a1.6,1.6,0,0,0,1.9,1.2c1-.3,1.9-1.9,2.2-2.8,7.3-17.6,27.9-42.2,31.9-43.3.5-.2,1.5.3,2.9,2.1a35,35,0,0,1,4,7.2c1.4,5.6-12.6,21.1-10.2,31a2.6,2.6,0,0,0,3.1,1.9c3.3-.9,8-7.6,9.9-10.4Z"/><path class="cls-9" d="M449.7,514.6l-.3-.2c-3.5,7.1-14.5,24.1-22,26.2S414.5,533,413,526.6c-4.7-18.8,21.2-42.2,31.5-46.1,1.9-.7,7.3-1.6,8.1,1.6s-1.6,5.3-3,7.1l-13.3,13.2c-7.4,7.3-16.4,14.1-12.6,24.2.4,1.1,1.3,1.2,2.5.8,3.9-.6,11.4-6.4,15.1-13.7l10.4-21c1-2,2-4.8,4.2-5.4s6.4,3.4,7,5.9-.6,6-1,8.1l-5.2,22.9.3.2,16.8-21.4,2.2,5.8-23.1,30.6c-8.4,27.9-18,40.4-23.4,41.9a3.2,3.2,0,0,1-4-2.6c-2.6-10.3,13.6-34.1,19.7-41.9Z"/><path class="cls-10" d="M253,571.6s6.6.8,12.4-5.6l7.8-11.1s-5.1,20.6-23.2,24.5Z"/><text></text><path class="cls-11" d="M76.4,575.6c.7-1.3,4.1-7.1,5.6-7.5s2.3.4,2.2,2.9l.3.2c10.2-15.7,15.6-31,14.4-35.7-.6-2.4-2.4-3-4.4-1.9s-17.6,6.3-38.8,52.3C49,600.3,46,618.2,48.7,629s8.6,14.9,18.4,12.2c17.1-4.8,41.2-36.6,51.2-52.2,2.2,7.2.5,9.8-3.3,16.4-19.8,34.3-40.3,49.2-53.1,52.7-15.1,4.2-28.4-2.7-32.5-19.2-5.2-21.1,5.9-48.4,16.5-66.2,8.7-14.8,31.6-45.7,47.8-50.2,8.2-2.3,14.6.9,17.3,9.8,5.8,19.1-20.3,65.5-36.7,73a6.7,6.7,0,0,1-9.3-4.8c-1.1-4.3,1.5-9.6,3.8-13Z"/><path class="cls-11" d="M173.6,584.2c-4.1,9.9-9.2,15-19.2,17.7-4.2,7.7-9.7,14.2-18.3,16.6s-15.5-3.7-19.2-16.6c-2.9-10.7.3-19.2,6.4-27.5s14.6-14.9,22.8-17.7c3-1,7.8-.8,8.8,3.1.5,2.2-.9,3.5-2.2,4.7,4.4,0,5.9,2.8,7,7.1,1.6,6.3.1,12.1-1.1,18.4,6.3-.5,8.7-7,12.1-11.5Zm-43.2,4.8c-2.2,4-3.4,10.3-2.3,14.7s3.9,4.7,7.3,3.8,6.7-4.8,9.1-8.6a16.4,16.4,0,0,1-3.3-6.1c-1.8-7.5,2.3-18.3,1.7-18.4C139,578.4,133.5,583.7,130.4,588.9Z"/><path class="cls-11" d="M214.3,573.2c-5.5,10.2-14.7,28.3-26.4,31.5-9.9,2.8-14.6-6.8-16.7-15.3-3.7-15.1-1.6-33,4.4-46.9,8.1-18.9,17.7-35.9,22.1-37.1,2.3-.6,3.7,2.7,4,4.6,2.4,13.9,2,27.5-20,65.8a17.4,17.4,0,0,0,1.5,10.2c2,3,4.7,5.3,8.3,4.3,7.5-2.1,15.7-14.2,19.8-20.8Zm-32.9-11.4c7.3-12.1,12.3-28.2,12.8-37.1-5.8,5.3-10.4,20.3-13.1,36.9Z"/><path class="cls-11" d="M266.4,558.5c-4.1,9.9-9.2,15-19.2,17.7-4.2,7.7-9.7,14.2-18.3,16.6s-15.5-3.7-19.2-16.6c-2.9-10.7.3-19.2,6.4-27.5s14.6-14.9,22.8-17.7c3-1,7.8-.8,8.8,3.1.5,2.2-.9,3.5-2.2,4.7,4.4,0,5.9,2.8,7,7.1,1.6,6.3.1,12.1-1.1,18.4,6.3-.5,8.7-7,12.1-11.5Zm-43.2,4.8c-2.2,4-3.4,10.3-2.3,14.7s3.9,4.7,7.3,3.8,6.7-4.8,9.1-8.6A16.3,16.3,0,0,1,234,567c-1.8-7.5,2.3-18.3,1.7-18.4C231.8,552.7,226.3,557.9,223.2,563.2Z"/><path class="cls-11" d="M272.6,544.7c-2.6,9.8-7.2,15.7-11.9,22.3l-2.1-6.2a53.4,53.4,0,0,0,6.4-13c-2.9.5-4-.4-4.8-3.4-2.6-10.3,8.8-24.5,12-25.4a2.5,2.5,0,0,1,3.1,1.8,10.7,10.7,0,0,1,0,4.3c12.3-5.4,19.4-9.2,21.2-7.9a14.7,14.7,0,0,1,5.1,6.7c1.1,4.4-1,7.3-3.4,10.9s-8,13.6-6.6,19.3a4.3,4.3,0,0,0,5.2,2.8c5.8-1.6,12.1-13.3,15.7-18.1l2.3,5c-3.6,7.6-15.3,27.8-23.1,30-5.7,1.6-10.6-3-12-8.5-2.4-9.8,2.8-19.3,6.5-27.7l-.3-.2Z"/><path class="cls-11" d="M349.3,538.6c-4.2,9.6-12.9,25.8-23.3,28.7-8,2.2-14.1-6.5-15.9-13.8-4.3-17.5,8.4-39.3,16.6-41.5,2.3-.6,6.2-.8,7,2.4,1.8,7.2-8.5,23.7-13.2,29.4.4,6.2,3.2,8.8,9.5,7s12.4-11.6,16.8-17.2Zm-22.9-36.2c-1.5-5.9,3.8-12.8,9.1-14.3a4.4,4.4,0,0,1,5.6,3.2c1.4,5.7-1.9,14.2-7.7,15.8C330,507.9,327.2,505.8,326.3,502.3Z"/><path class="cls-11" d="M409,511.6l2.7,6c-5.5,8.7-15.2,30.3-25.1,33-5.2,1.4-8.8-2.5-10-7.4-2.1-8.6,2.9-20.1,5.6-27.9l-.3-.2a120,120,0,0,0-15.5,27.7c-1.4,3.3-4.7,11.7-8.3,12.7-6,1.7-9.7-7-11.1-11.8-2.9-9.8,2.1-26.6,8.3-35.9,1.4-2.1,2.6-2.5,4.9-3.2,8.2-2,8.1.2,8.3,1.1,1.4,5.6-12.2,24.8-11.3,28.3a1.6,1.6,0,0,0,1.9,1.2c1-.3,1.9-1.9,2.2-2.8,7.3-17.6,27.9-42.2,31.9-43.3.5-.2,1.5.3,2.9,2.1a35,35,0,0,1,4,7.2c1.4,5.6-12.6,21.1-10.2,31a2.6,2.6,0,0,0,3.1,1.9c3.3-.9,8-7.6,9.9-10.4Z"/><path class="cls-11" d="M445.2,509.7l-.3-.2c-3.5,7.1-14.5,24.1-22,26.2s-12.8-7.6-14.4-13.9c-4.7-18.8,21.2-42.2,31.5-46.1,1.9-.7,7.3-1.6,8.1,1.6s-1.6,5.3-3,7.1l-13.3,13.2c-7.4,7.3-16.4,14.1-12.6,24.2.4,1.1,1.3,1.2,2.5.8,3.9-.6,11.4-6.4,15.1-13.7l10.4-21c1-2,2-4.8,4.2-5.4s6.4,3.4,7,5.9-.6,6-1,8.1L452,519.3l.3.2,16.8-21.4,2.2,5.8-23.1,30.6c-8.4,27.9-18,40.4-23.4,41.9a3.2,3.2,0,0,1-4-2.6c-2.6-10.3,13.6-34.1,19.7-41.9Z"/><path class="cls-12" d="M248.6,566.7s6.6.8,12.4-5.6l7.8-11.1s-5.1,20.6-23.2,24.5Z"/><path class="cls-13" d="M338.2,632.3c3.2,7.3-7.4,29-38.1,48.8-8.3,5.3-21.1,10-28-.1-2.3-3.6-3.8-3.8-.8-30.1-3.8,1.9-12,6.7-14.7,3S275.7,634,279.3,631c4.3-12,2.5-23.6,17.4-30.4.2,2.5-.2,4.4-5.2,21.5,29.8-18.9,34.9-29.1,32.7-32.5s-8.2-5.5-25.5,3c-3.3,1.8-18.9,10.2-35.8,28.6,1.1-.1,2.5-.3,3.1.6s-1.6,4.2-3.2,5.4c-7.7,6.1-9.5,8.7-15.5,15.7a17.5,17.5,0,0,1-3.4,3.4c-2.2,1.5-4,1.1-5.5-.7s-1.8-6-1.2-13.2c.4-4.9,1.1-11.6,4.8-16,10.2-12.7,35.3-31.9,51.9-38.6,27.4-11.3,38.7-4.4,41.7,2.1,8.5,19.4-34,41.2-47.5,53l-1.4,3.5C296.8,632.4,332.8,620,338.2,632.3Zm-57.9,21.7c-.6,2.6-1.8,6.7-.2,9.1,3.1,4.9,13.6.5,17.7-1.6,10.9-6.3,25.4-22.4,23.1-27.1-3.2-6.6-32.6,5.1-37.7,8.5Q281.6,648.4,280.3,653.9Z"/><path class="cls-13" d="M405.1,617c-4.8,8.5-10.4,12.8-20.9,15.4-4.3,7-9.8,12.8-18.4,15.6-7,2.2-15.9-1.9-21.2-12.9-4.2-9.1-1.8-17.2,4.3-25.3s15.5-14.7,25-17.3c3.4-1,9.1-.9,10.3,2.6.6,1.9-1,3.1-2.4,4.2,5,0,6.8,2.4,8,6.3,1.8,5.6.1,10.7-1.2,16.3,6.8-.5,9.6-6.1,13.5-10ZM358,622.2c-2.1,3.7-2.9,9.5-1.4,13.3s4.4,3.8,7.9,2.8,6.7-4.7,9.1-8.2a14.4,14.4,0,0,1-3.8-5.3c-2.4-6.5,1.7-16.4,1.1-16.4C366.7,612.1,360.9,617.2,358,622.2Z"/><path class="cls-13" d="M465.4,610.9c-6.1,7.6-12.4,10.9-23.6,11.9-5.4,6.1-11.9,11-21.1,12.4-7.6,1.1-16-4.2-19.9-15.6-3-9.5.7-17,8.1-24s17.9-12,28-13.2c3.6-.4,9.4.5,10.1,4,.4,2-1.4,2.8-3.1,3.8,5.1.7,6.6,3.4,7.3,7.3,1,5.7-1.4,10.4-3.5,15.7,7,.6,10.7-4.5,15.2-7.6Zm-49-2.1c-2.7,3.3-4.3,8.8-3.3,12.8s4,4.4,7.7,3.9,7.6-3.5,10.5-6.7a14.1,14.1,0,0,1-3.1-5.7c-1.5-6.7,4.1-15.7,3.4-15.9C426.8,600.4,420.1,604.4,416.4,608.8Z"/><path class="cls-13" d="M469.6,607.7l2.3,5.2c7.3-6.9,40.6-28.9,52.8-26.9,5.9.8,9.2,6.9,9.2,10.7,0,12-22.2,15.6-32.5,20.3,3.2,3.6,5,5.8,10.6,6.6,3.1.5,8.9-1.1,29.4-10.6l1.5,5.6c-8.5,4.1-27.6,16.4-37.8,15.7s-17.7-10.8-23.2-17.2a31.8,31.8,0,0,0-7.4,8.8c-1,2-2.2,3.9-5.1,3.9-5.3.1-8.2-12.4-8.7-15.5-1.2-8.3,5.3-20.8,5.1-21.8-4.1-14,27.5-60.7,36.8-59.2,2.7.3,8.2-1,8.5.8C511.6,543,478.2,598.8,469.6,607.7Zm41.9-2.1c2.4-1.2,7.8-3.3,7.7-6.1,0-.8-1.4-1.2-2.2-1.3-6.3-.8-23.1,7.1-26.6,11.5a21.4,21.4,0,0,1,6.3,3.2Q504,609.1,511.5,605.6Z"/><text class="cls-14" transform="matrix(0.96, -0.26, 0.26, 0.96, 165.89, 58.61)"><tspan class="cls-15">T</tspan><tspan x="20.2" y="0">he</tspan></text><path class="cls-16" d="M235.8,41.6c2.2-.2,3.4-1.2,3.2-2.7h0c-.1-1.4-1.3-2.2-3.8-2l-5.5.5.5,4.8,5.6-.5Zm-2-9.8c2.2-.2,3.3-1.1,3.2-2.6h0c-.1-1.4-1.3-2.1-3.5-1.9l-4.7.4.4,4.6,4.5-.4Zm-12.6-9.3,13.3-1.3c3.3-.3,5.7.3,7.3,1.7a5.7,5.7,0,0,1,2.1,4h0a6.1,6.1,0,0,1-3.5,6.2c3.3.7,5.4,2.3,5.8,5.9h0c.4,4.5-3,7.5-9.2,8.1l-13.4,1.3-2.5-26Z"/><path class="cls-16" d="M276.7,34.8l-3.2-7.3-2.6,7.5,5.9-.2Zm-7-15.8,7-.3,12.2,25.9-7.8.3L279,40.4l-10.1.4-1.7,4.7-7.6.3,10-26.8Z"/><path class="cls-16" d="M297.5,32h0a13.4,13.4,0,0,1,13.8-13.6,12.8,12.8,0,0,1,11.1,5.5L316.9,28a7,7,0,0,0-5.7-3.1c-3.7,0-6.2,3.1-6.2,6.9h0c0,3.9,2.6,7,6.2,7s4.3-1.3,5.9-3.2l5.5,3.9A13.8,13.8,0,0,1,297.5,32"/><polygon class="cls-16" points="337.7 20.2 344.9 20.7 344.1 31.3 353.9 21.5 362.5 22.2 351.7 32.6 360.7 48.3 352 47.5 346.3 37.3 343.4 40.1 342.8 46.8 335.6 46.2 337.7 20.2 337.7 20.2"/><polygon class="cls-16" points="377.5 24.3 398.3 27.3 397.4 33.4 383.7 31.4 383.2 35.3 395.6 37.1 394.8 42.8 382.4 41 381.8 45.1 395.7 47.1 394.8 53.2 373.8 50.2 377.5 24.3 377.5 24.3"/></g></g></svg>