<svg id="Layer_1" data-name="Layer 1" xmlns="http://www.w3.org/2000/svg" viewBox="0 0 288.1 174"><defs><style>.cls-1,.cls-2{fill:#fff;}.cls-2{fill-rule:evenodd;}.cls-3{fill:#231f20;}</style></defs><title>mittens</title><path class="cls-1" d="M106.4,218.6c-4.9.9-11.5-4.7-15.6-7-7.6-4.7-15.2-9.4-22.4-14.4C51.2,185.8,35.3,169,30.5,148.4c-3.5-16,1.7-37.2,16.8-45.6,17-9.8,34.7,1.6,47,13.3a108.4,108.4,0,0,1,14.9,18.2c4.2,5.7,11.9,8.9,9.8-1.5-1.1-6.4-4.7-11.2-3.7-17.8s8.1-12.5,13.7-6.4c9.4,10,13.9,29.4,16.7,42.6s4,23.6-1.9,35c-4.2,8.5-12.8,15.9-20.1,21.5-4.5,4-12.1,9.5-18.2,10.4" transform="translate(-28.9 -96.7)"/><path d="M106.4,217.8c-6.4,0-11.9-5.7-17-8.9-7-4.4-14-8.9-20.8-13.6-11.1-7.7-21.5-16.9-28.8-28.4s-11.6-25.8-8-39.8,13.9-25.2,28.4-25.6S88.6,112.1,98,122.4c4.5,5,7.8,11.2,12.5,15.9,1.7,1.8,5.1,4.6,7.8,3.1s2.1-6,1.8-8.5c-1.1-7.1-7.1-15.8-1.4-22.2,10.7-12.1,21,20.8,22.7,26.9,4.3,15.8,9.4,34.1.2,49.1-4.3,7-10.7,12.4-17.1,17.5s-11.6,9.8-19.1,11.2c-1.7.3-1.3,5.3.1,5,7-1.3,12.7-5.7,18.1-10s12-9.5,16.8-15.6c10-12.8,9.8-28.3,6.6-43.5-2.8-13.4-5.9-27.7-13.3-39.3-2.6-4-6.4-9.7-12-8s-7.6,8.2-7.5,13.3a28.9,28.9,0,0,0,1.9,9c.9,2.5,4.7,10.6.4,10.9-2.2.1-4.9-2.9-6-4.3-2.7-3.3-4.9-7.1-7.6-10.4-9.6-11.8-23.6-24.7-39.6-25.9-30.1-2.2-39.5,36.1-31.7,58.7,5.1,15,15.7,27.7,28.1,37.4,8,6.3,16.8,11.6,25.4,16.9,5.8,3.6,14.2,11,21.5,9.7.6-.1.5-1.7,0-1.7Z" transform="translate(-28.9 -96.7)"/><path d="M127.1,241.4c.9,3.6-3.6,7.9-5.1,11.1a13,13,0,0,0-1.2,8.1c1.2,6.2,7.5,9.9,13.6,8.6a14.2,14.2,0,0,0,11-14.1c-.4-9.2-10.3-12.4-13.1-20.4l-1.6,3.3.3.3c1.4,1.6,2.1-3,1.1-4.2l-.3-.3c-1.5-1.7-1.8,2.6-1.6,3.3,1.8,5.3,6,8.4,9.6,12.4s3.4,9.9-1.6,13.2a11.3,11.3,0,0,1-8.5,1.7c-3.8-.8-7.4-3.8-6.3-8.2.6-2.6,2.8-5.1,4-7.5s2.5-6.3.8-9.3-1.3,1.3-1.1,1.9Z" transform="translate(-28.9 -96.7)"/><path class="cls-1" d="M100.7,222.8c-4.4-3,.8-2.7,2.1-3.8s-.1-3,1.5-4.5,3.3.2,4-.4,2.4-4.1,4.3-5.8c.3-.3,1.8.4,2.8-.4s-.4-3.7,1.5-4.5,2.6,1.7,4.2.9,1.1-3,2.4-4.1,2.8-.4,3.4-1,1.4-2.9,2.4-3.8,3.1-.7,3.7-1.3,0-4.2.6-4.8,3.6.2,4.9-1.2-1-3.4,0-4.5c2.3-3.5,7.4-1.7,3.9-8.2,3.9-.1,7.3-10.1,7.8-3.1,2-2.6,6.2-2.3,3.8,1.8l3.7-.4c.6.6,1,2.8,1.3,3.1s-.4,1.2,2,1.9c.3.3,3.1-.7,4-.7-2.1,4.1-1.2,5.4,3.3,5.1a4.6,4.6,0,0,1-2.1,4.1c2.1.7,4.5.6,5.9,2.2-2.5,1.1-5.7,3.3-1.5,4.5-1.6,6.3,2.6,2.6,4.5,5.7s-3.1,5.6-4.1,7.6,1.7,2.5,0,4.2-3.9-.2-5.2.6-.5,3.3-.8,3.6-3.9-.5-4.9.6-.2,3.3-.9,4.2-3.1,1-4.1,1.9c-2.6,2.3-1.8,5.3-5,7.3-1.2.5-3,.1-4,.4s-1.7,2.6-2.6,2.9c-3.1,1-4.8-.9-7.3.8s-1.1,3-3,4.4-2.1-1-3-.5-1.4,2.9-2.3,3.2-4,.4-6.4.5-3.9,3.7-3.8-1.5c-3.7,1.6-6.7,1.1-5.5-3.7-3.9-.2-1.9-3.5-4.2-4.8s-5.7,3.6-3.5-2c-4,.7-3.1-3.2-4.8-5.5l1-.8" transform="translate(-28.9 -96.7)"/><path d="M101.1,221.1l-.9-.4-.8,2.4c1-.9,2.7-.4,3.8-1.2s.8-3.6,2.1-4.2,2.1.6,3,.2,1.1-.7,1.8-1.7,1.5-2.9,2.4-3.8,1-.4,2.2-1.2,1.6-1.4,2.4-3.1-.6-1.4,1.1-1.7,1.4.9,2,1,2.2-1.4,3.2-2.5-1.3-.5,2.5-2.5c.6-.3,1.2-.3,1.7-.7s.9-1.7,1.6-2.5,2.3-1.3,3.4-2.1,1.4-1.4,1.9-3.1-.5-1.7,1-2.6,1.8.2,2.5-.2a4.2,4.2,0,0,0,2.2-3.5c.1-.7-.3-1.7-.2-2.4s-.6.3.7-.9,2.2-.9,3-1.9c2.3-2.7.8-6.6-.5-9.3l-.9,4.8a6.9,6.9,0,0,0,4-2.3,10.9,10.9,0,0,0,1.7-1.9l.9-1.1q-.8-1.8-.3.2c.1.9,1.1,2.9,2.2,1.6a2.1,2.1,0,0,0,1.8-2.9c-.5,1.1-.9,5.7,1.3,5.5a15.5,15.5,0,0,1,1.9-.2l1.2-.2h-.1a6.5,6.5,0,0,1,.7,1.8c.5,1.6-.1-.3.3.3,2,3.3,3.4,2.5,7,2.1l-1.3-5.3c-2.5,5.2-2,10.4,4.6,10.4l-1.7-4-1,1.7c-1.4,1.1-2.1,5.7.2,6.4s3.9.8,5.4,2.1l.3-6.6c-4.9,2.2-7.3,8.9-1.3,11.6l-1.3-5.6c-.9,3-1.6,7.7,1.5,9.7a15.1,15.1,0,0,0,3.1,1q.5-3.6-.7-2.1l-1.2,1.1a10.7,10.7,0,0,0-1.8,2,7.8,7.8,0,0,0-1,4.9,10.6,10.6,0,0,0,.6,2.3q1.2,3-.3-2.9h-1.2a3.9,3.9,0,0,0-4,2.2,8.2,8.2,0,0,0-.7,2.5c-.1.4-.4,3.1.1,1.1l1.6-1.9c-2.3.7-4.4-.6-6.2,1.4a5.4,5.4,0,0,0-1.2,2.7c-.1.4-.4,3.6-.1,2.4l1.1-1.8c-1.9,1.4-3.9,1.3-5.5,3.2s-1.5,4.9-5.2,5.8-2.5.5-4.3,2.2-4.2.5-6.7,1.5-2.2,3.5-3.9,4.3-2.3-.2-3.7.5,0,1.9-3.1,2.9c-1.5.5-3.3-.2-4.8.2a3.6,3.6,0,0,0-1.5.6c-1.1,1-.7,0-.6,1.6,0-1.1-.4-4.1-2.1-3.5l-3.6.7c.1-1,0-4-1.5-4.2-3.2-.3-1.5-3.9-4.2-4.8-.6-.2-1.1.1-1.7.3l-1.3.5q-2.1.1.5,2.9c.4-1,.9-5.9-1.2-5.9s-2.6-2.8-3.7-4.8l-.5,6.5,1-.8c2.1-1.7.2-8.8-1.1-7.6l-1,.9c-1.7,1.6-1.4,5.3-.2,7.1s1.5,5.9,5.6,5.5l-1.2-5.9c-.7,2.3-2.2,8.7,1.8,8.7,2.1,0,1.8-1.7,3.3.1s.8,3.1,3.8,3.9l-1.4-5c-1.3,5.9.5,11.7,7.3,8.9l-2.1-3.5c.1,1.6.1,5.5,2.1,6.1s1.3-.4,2.1-.6,3.5-.2,5.3-.4a5.8,5.8,0,0,0,3.8-1.5c1.4-1.2,1-1.5,2.8-1.9s3.3-4.5,6.4-4.8,3.3.9,5,.3,1.8-1.7,3-2.4,3.6-.4,5.3-1.9a9.9,9.9,0,0,0,2.2-3.2,9,9,0,0,1,4.1-4.3c1.4-.8,2.2-1.3,2.7-2.8s.2-3.4.3-3.5,3.4.7,4.2.4,1-1.3,1.1-1.8a16,16,0,0,1,.3-2.3q0-1.4-.1-.2t1.1.6a4,4,0,0,0,4.5-1.3,6.9,6.9,0,0,0,1-5.3c-.1-.9-.9-4.6-.8-.6s.2,1.6,1.8.2,4.3-6.3,3-10.2a7.3,7.3,0,0,0-3-4,4.8,4.8,0,0,0-1.5-.5c-2.4-.4-.2-.5-.4.9.1-1.2,0-4.2-1.5-4.7H170l-.2,4.5c.4-1,1.8-1.5,2.7-2s1.8-5.4.3-6.6-3.9-1.7-6.4-2.3l.6,6.1a8.7,8.7,0,0,0,2.8-6.2c.1-.9-.1-4.1-1.7-4h-2.3q-.8,3.3.3.2c.5-1.1.8-5.6-1.3-5.3l-2.7.6c-1.7.4-.4,1-1.4.3s-1.4-3.2-2-4.4-.7-.9-1.2-.9l-3.7.3,1.3,5.5c2.5-5.2-.3-11.8-5.9-6.4l2.3,2.4c-.1-1.7-.3-5.5-2.9-5.2s-3.5,5.1-6.5,5.6-1.5,3.6-.9,4.8-1.2,1.6-2.4,2.6a5.6,5.6,0,0,0-2.1,3.7c0,.5.3,1.7.2,2.1s.4-.2-1.6.3-2.4.4-3.1,2,.1,2.6-2.2,4.2a10.6,10.6,0,0,0-2.7,2.6c-1.5,1.8-3.8,2.2-5.4,4s-.2,1.5-1.4,2-1.3-.5-2.6-.6a3.3,3.3,0,0,0-2.9,1.7,9.6,9.6,0,0,0-.7,2.1q-.1.8-.1,1.7l-1.1-.5c-1.1.6-.5-.3-2.1.9s-1.3,1.8-2,2.7-3.8,1.3-5.5,2.8-.6,3.4-1.6,4.8-2.6.9-3.4,2.1-.1,5,2.1,6.1,1.2-3,.6-3.6Z" transform="translate(-28.9 -96.7)"/><path class="cls-2" d="M110,155.7h-1a.7.7,0,0,1-.7-1l.3-.5c.1-.2-1-.9-1.6-1.3a.7.7,0,0,0-.9.1l-3.5,3.8a.7.7,0,0,1-1,0l-2-2.5a.7.7,0,0,0-.8-.2l-6.6,3.3a.7.7,0,0,1-.9-.2l-.5-.8a.7.7,0,0,1,.1-.8l4.9-5.2a.7.7,0,0,0,.1-.8l-1.6-3.1a.7.7,0,0,1,.3-1l4.6-2a.7.7,0,0,0,.4-.9l-.5-1.2a.7.7,0,0,0-.8-.4h-.2a.7.7,0,0,1-.8-.9l.5-1.2a.7.7,0,0,0,0-.5l-1.2-2.6a.7.7,0,0,0-.8-.4l-2.5.8-.4.4-.6,1.3a.7.7,0,0,1-1.2,0h0a.7.7,0,0,0-.9-.3l-1.2.6a.7.7,0,0,0-.3.8l1.6,4.7a.7.7,0,0,1-.6.9l-3.1.4a.7.7,0,0,0-.6.7l-.2,5.3a.7.7,0,0,1-.3.6l-1.6,1a.7.7,0,0,1-1-.4l-1.9-6.2a.7.7,0,0,0-.7-.5H77.1a.7.7,0,0,1-.7-.8l.6-4.6a.7.7,0,0,0-.5-.8l-1.5-.3a.7.7,0,0,0-.8.4v.2a.7.7,0,0,1-1.2.1l-.7-.9-.5-.3-3.3-.4h-.1c-.1.5-.5,2.5-.6,3.3a.7.7,0,0,0,.1.5l.7.9a.7.7,0,0,1-.5,1.1h-.2a.7.7,0,0,0-.6.6v1.5a.7.7,0,0,0,.6.7l4.5.8a.7.7,0,0,1,.5.9l-.9,3a.7.7,0,0,0,.3.8l5.3,3.7a.7.7,0,0,1,0,1.1L76,158.6a.7.7,0,0,1-.6.1l-5.1-1.4a.7.7,0,0,0-.8.4l-1.3,2.9a.7.7,0,0,1-1,.3l-4-2.9a.7.7,0,0,0-.9.1l-.9,1a.7.7,0,0,0,0,.9h0a.7.7,0,0,1-.4,1.1l-1.4.2-.5.3-1.5,2.1a.7.7,0,0,0,.1.9l2.1,1.9.5.2h1.2a.7.7,0,0,1,.7,1v.2a.7.7,0,0,0,.2.9l1,.8a.7.7,0,0,0,1-.1l3.3-3.8a.7.7,0,0,1,1,0l2.4,2.5a.7.7,0,0,0,.8.1l6.4-3.1a.7.7,0,0,1,.8.2l.6.7a.7.7,0,0,1,0,.9l-5.1,5.3a.7.7,0,0,0-.1.9l1.8,2.6a.7.7,0,0,1-.3,1l-4.7,2.2a.7.7,0,0,0-.4.8c.2.7.5,1.9.7,1.9H72a.7.7,0,0,1,.7.9l-.4,1a.7.7,0,0,0,0,.5l1,2.8a.7.7,0,0,0,.9.4l2.6-.9.4-.3.8-1.4a.7.7,0,0,1,1.1-.1h.1a.7.7,0,0,0,.8.2l1.1-.5a.7.7,0,0,0,.4-.8l-1.3-4.6a.7.7,0,0,1,.5-.9l2.9-.6a.7.7,0,0,0,.6-.6l.8-7.7a.7.7,0,0,1,.2-.5l.5-.4a.7.7,0,0,1,1.1.3L89,176a.7.7,0,0,0,.7.5l3.2-.2a.7.7,0,0,1,.7.7l-.4,5.1a.7.7,0,0,0,.5.7l1.3.3a.7.7,0,0,0,.8-.4h.1a.7.7,0,0,1,1.2-.1l.6.8.5.3,3.4.4h.2l.7-3.4a.7.7,0,0,0-.1-.5l-.6-.9a.7.7,0,0,1,.5-1.1h.1a.7.7,0,0,0,.6-.6V176a.7.7,0,0,0-.5-.7l-5-1.1a.7.7,0,0,1-.5-.9l1.2-3a.7.7,0,0,0-.2-.8l-6.6-4.6a.7.7,0,0,1,0-1.2l.5-.3h.5l7.5,1.6a.7.7,0,0,0,.7-.3l1.4-2.6a.7.7,0,0,1,1-.2l4,2.7a.7.7,0,0,0,.9-.1l.8-.9a.7.7,0,0,0,0-.8h-.1a.7.7,0,0,1,.4-1.1l1.5-.3.4-.3,1.6-2.2a.7.7,0,0,0-.1-1l-2.4-1.7Z" transform="translate(-28.9 -96.7)"/><path class="cls-3" d="M113.6,158.2a1.2,1.2,0,0,1-.2.7l-1.6,2.2a1.2,1.2,0,0,1-.7.5l-1.5.3h-.1a.2.2,0,0,0,0,.1h.1a1.2,1.2,0,0,1-.1,1.5l-.8.9a1.2,1.2,0,0,1-1.6.2l-4-2.7h-.2l-1.4,2.6a1.2,1.2,0,0,1-1.3.6l-7.5-1.6h-.1l-.5.3h0l6.6,4.6a1.2,1.2,0,0,1,.4,1.5l-1.2,3a.2.2,0,0,0,0,.1h.1l5,1.1a1.2,1.2,0,0,1,1,1.3v1.3a1.2,1.2,0,0,1-1.1,1.1h-.3a.2.2,0,0,0,0,.2l.6.9a1.2,1.2,0,0,1,.2.9l-.6,3.1.7.9h-.9l-.2.8-.7-.9-3.2-.3a1.2,1.2,0,0,1-.8-.5l-.6-.8h-.3a1.2,1.2,0,0,1-1.4.7l-1.3-.3a1.2,1.2,0,0,1-1-1.3l.4-5.1H93l-3.2.2a1.2,1.2,0,0,1-1.3-.9l-2.4-7.6h-.2l-.5.4h-.1l-.8,7.7a1.2,1.2,0,0,1-1,1.1l-2.9.6h-.1a.2.2,0,0,0,0,.1l1.3,4.6a1.2,1.2,0,0,1-.7,1.5l-1.1.5a1.2,1.2,0,0,1-1.4-.4h-.3l-.8,1.4a1.2,1.2,0,0,1-.7.6l-2.6.9a1.2,1.2,0,0,1-1.6-.8l-1-2.8a1.2,1.2,0,0,1,0-.8l.4-1a.1.1,0,0,0,0-.2h-.7c-.6.1-.9-.5-1.3-2.3a1.2,1.2,0,0,1,.7-1.4l4.7-2.2h.1a.2.2,0,0,0,0-.1l-1.8-2.6a1.2,1.2,0,0,1,.1-1.5l5.1-5.3a.2.2,0,0,0,0-.2l-.6-.7h-.2l-6.4,3.1a1.2,1.2,0,0,1-1.4-.2L68,165.8h-.2l-3.3,3.8a1.2,1.2,0,0,1-1.7.1l-1-.8a1.2,1.2,0,0,1-.3-1.5v-.2a.1.1,0,0,0,0-.2H60.2a1.2,1.2,0,0,1-.9-.3l-2.1-1.9a1.2,1.2,0,0,1-.2-1.6l1.5-2.1a1.2,1.2,0,0,1,.8-.5l1.4-.2h.1a.1.1,0,0,0,0-.2,1.2,1.2,0,0,1,0-1.7l.9-1a1.2,1.2,0,0,1,1.6-.1l4,2.9h.2l1.3-2.9a1.2,1.2,0,0,1,1.5-.7l5.1,1.4h.1l1.5-1.2h0L71.8,153a1.2,1.2,0,0,1-.5-1.4l.9-3a.2.2,0,0,0,0-.1h-.1l-4.6-.8a1.2,1.2,0,0,1-1-1.3v-1.5a1.2,1.2,0,0,1,1.1-1.1h.4a.1.1,0,0,0,0-.2l-.7-.9a1.2,1.2,0,0,1-.2-.9l.5-3.1-.6-.8H68l.2-.7.6.7,3.1.4a1.2,1.2,0,0,1,.8.5l.7.9h.3v-.2a1.2,1.2,0,0,1,1.4-.7l1.5.3a1.2,1.2,0,0,1,.9,1.4l-.6,4.6a.1.1,0,0,0,0,.1h3.2a1.2,1.2,0,0,1,1.2.9l1.9,6.2h.2l1.6-1h.1l.2-5.3a1.2,1.2,0,0,1,1.1-1.2l3.1-.4h.1a.1.1,0,0,0,0-.1l-1.6-4.7a1.2,1.2,0,0,1,.6-1.5l1.2-.6a1.2,1.2,0,0,1,1.6.5h.3l.6-1.3a1.2,1.2,0,0,1,.7-.6l2.5-.8a1.2,1.2,0,0,1,1.5.7l1.2,2.6a1.2,1.2,0,0,1,0,1l-.5,1.2a.1.1,0,0,0,0,.2h.3a1.2,1.2,0,0,1,1.3.8l.5,1.2a1.2,1.2,0,0,1-.7,1.6l-4.6,2h-.1a.2.2,0,0,0,0,.1l1.6,3.1a1.2,1.2,0,0,1-.2,1.4L91.2,156a.2.2,0,0,0,0,.2l.5.8h.2l6.6-3.3a1.2,1.2,0,0,1,1.5.3l2,2.5h.2l3.5-3.8a1.2,1.2,0,0,1,1.6-.2c1.6,1,2.1,1.4,1.8,2l-.3.5a.1.1,0,0,0,0,.2h1.2a1.2,1.2,0,0,1,.8.2l2.4,1.7a1.2,1.2,0,0,1,.5.8A1.2,1.2,0,0,1,113.6,158.2Zm-5.3,3.7v-.4a1.2,1.2,0,0,1,.9-.7l1.5-.3h.1l1.6-2.2h0l-2.4-1.7H109a1.2,1.2,0,0,1-1.2-1.8v-.2l-1.3-.9h-.2l-3.5,3.8a1.2,1.2,0,0,1-1.9-.1l-2-2.5H99L92.4,158a1.2,1.2,0,0,1-1.6-.4l-.5-.8a1.2,1.2,0,0,1,.1-1.5l4.9-5.2a.2.2,0,0,0,0-.2l-1.6-3.1a1.2,1.2,0,0,1,.6-1.7l4.6-2a.2.2,0,0,0,.1-.2l-.5-1.2h-.4a1.2,1.2,0,0,1-1.3-1.7l.5-1.2a.1.1,0,0,0,0-.1l-1.2-2.6h-.2l-2.5.8h-.1l-.6,1.3a1.2,1.2,0,0,1-2.2.1h-.2l-1.2.6a.2.2,0,0,0-.1.2l1.6,4.7a1.2,1.2,0,0,1-1,1.6l-3.1.4h-.1l-.2,5.3a1.2,1.2,0,0,1-.6,1l-1.6,1a1.2,1.2,0,0,1-1.8-.7l-1.9-6.2H77.1a1.2,1.2,0,0,1-1.2-1.4l.6-4.6v-.2l-1.5-.3h-.2v.2a1.2,1.2,0,0,1-2.1.3l-.7-.9h-.1l-2.8-.4-.5,2.8h0l.7.9a1.2,1.2,0,0,1-.9,1.9h-.4v1.7l4.6.8a1.2,1.2,0,0,1,1,1.6l-.9,3a.2.2,0,0,0,.1.2l5.3,3.7a1.2,1.2,0,0,1,.1,2L76.3,159a1.2,1.2,0,0,1-1.1.2l-5.1-1.4h-.2l-1.3,2.9a1.2,1.2,0,0,1-1.8.5l-4-2.9h-.2l-.9,1a.2.2,0,0,0,0,.2,1.2,1.2,0,0,1-.7,2l-1.4.2h-.1l-1.5,2.1a.2.2,0,0,0,0,.2L60,166h1.4a1.2,1.2,0,0,1,1.2,1.8v.2a.2.2,0,0,0,0,.2l1,.8h.2l3.3-3.8a1.2,1.2,0,0,1,1.8-.1l2.4,2.5h.2l6.4-3.1a1.2,1.2,0,0,1,1.5.3l.6.7a1.2,1.2,0,0,1-.1,1.6l-5.1,5.3a.2.2,0,0,0,0,.2l1.8,2.6a1.2,1.2,0,0,1-.5,1.8l-4.7,2.2a.2.2,0,0,0-.1.2,12.7,12.7,0,0,0,.4,1.5h.3a1.2,1.2,0,0,1,1.3,1.7l-.4,1a.2.2,0,0,0,0,.1l1,2.8H74l2.6-.9h.1l.8-1.4a1.2,1.2,0,0,1,2-.2h.2l1.1-.5a.2.2,0,0,0,.1-.2l-1.3-4.6a1.2,1.2,0,0,1,.9-1.5l2.9-.6h.1l.8-7.7a1.2,1.2,0,0,1,.4-.8l.5-.4a1.2,1.2,0,0,1,2,.6l2.4,7.6h.2l3.2-.2a1.2,1.2,0,0,1,1,.4,1.3,1.3,0,0,1,.4,1l-.4,5.1v.2l1.3.3h.2a1.2,1.2,0,0,1,2.1-.2l.6.8h.1l3,.3.6-3h0l-.6-.9a1.2,1.2,0,0,1,.9-1.9h.3v-1.5l-5-1.1a1.2,1.2,0,0,1-.9-1.7l1.2-3a.2.2,0,0,0-.1-.2l-6.6-4.6a1.2,1.2,0,0,1-.5-1,1.2,1.2,0,0,1,.6-1l.5-.3a1.2,1.2,0,0,1,.9-.2l7.5,1.6h.2l1.4-2.6a1.2,1.2,0,0,1,1.8-.4l4,2.7h.2l.8-.9a.2.2,0,0,0,0-.2h-.1A1.2,1.2,0,0,1,108.2,161.9Zm-.2-7.9h0ZM71.3,180.9h0Z" transform="translate(-28.9 -96.7)"/><line class="cls-1" x1="49.7" y1="55.4" x2="62.6" y2="73.4"/><path class="cls-3" d="M92.1,170.1a.5.5,0,0,1-1,.3l-13-18a.5.5,0,0,1,.9-.6l13,18A.5.5,0,0,1,92.1,170.1Z" transform="translate(-28.9 -96.7)"/><line class="cls-1" x1="60" y1="53.8" x2="52.3" y2="74.6"/><path class="cls-3" d="M89.4,150.5v.2l-7.7,20.8a.5.5,0,0,1-1-.4l7.7-20.8a.5.5,0,0,1,1,.2Z" transform="translate(-28.9 -96.7)"/><line class="cls-1" x1="44.9" y1="64.7" x2="67" y2="63.9"/><path class="cls-3" d="M96.5,160.6a.5.5,0,0,1-.5.5l-22.2.8a.5.5,0,0,1,0-1.1l22.2-.8a.5.5,0,0,1,.6.5Z" transform="translate(-28.9 -96.7)"/><circle class="cls-1" cx="85" cy="160.9" r="4.9" transform="translate(-107 -16.5) rotate(-35.8)"/><path class="cls-3" d="M90.4,161.3v.5a5.4,5.4,0,1,1-1-4h0A5.4,5.4,0,0,1,90.4,161.3Zm-9.8-.6a4.4,4.4,0,1,0,7.9-2.3h0a4.4,4.4,0,0,0-7.8,1.9Z" transform="translate(-28.9 -96.7)"/><path class="cls-1" d="M215.6,229.6c4.4,2.4,12.4-.8,17-1.8,8.7-2.1,17.3-4.3,25.8-6.7,19.8-5.5,40.2-16.4,51.1-34.5,8.3-14.1,9.9-35.9-1.8-48.6-13.1-14.6-33.5-9.3-48.8-2a108.4,108.4,0,0,0-19.8,12.7c-5.8,4.1-14,4.8-8.8-4.5,3.1-5.8,8-9.2,9.1-15.8s-3.8-14.4-11.1-10.4c-12,6.6-22.4,23.6-29.1,35.2s-11.1,21.2-9.1,33.9c1.3,9.4,7.2,19.1,12.5,26.7,3,5.2,8.5,12.8,14.1,15.5" transform="translate(-28.9 -96.7)"/><path d="M215.5,230.4c6.1,3.2,14.6-.3,20.9-1.8,9.1-2.2,18.2-4.3,27.2-7.1,14.1-4.4,27.6-11.5,37.9-22.2A53.4,53.4,0,0,0,317,163.1c.3-12.7-4.3-26.2-15.7-32.9s-26.9-3.4-39,1.7a102.2,102.2,0,0,0-21.5,12.8c-2.4,1.9-5.2,4-8.3,4.4s-3.1.4-2.2-2.2,2.4-4.1,3.7-5.8c3.6-4.8,6.9-9.6,6.4-15.9-.3-4.5-2.7-10.1-7.8-10.6s-12,6.2-15.7,10.1a118.8,118.8,0,0,0-13.9,18.8c-8.8,14.2-17.4,29.4-13.8,46.7,1.9,8.9,6.6,16.6,11.5,24.1s8.5,13.6,15.6,17.4c1.5.8,1.9-4.1.5-4.8-6.1-3.3-9.9-9.3-13.5-14.9s-8.7-13.1-11-20.7c-4.7-15.6,3.4-29.4,11.2-42.4a138.2,138.2,0,0,1,11.6-16.8c3.8-4.6,9.5-11.5,15.8-12.8s7.6,3.3,7.4,7.6-3,7.4-5.4,10.6-5.8,7.8-5.2,12.3c1.4,10.4,16.1-2.3,19.2-4.4,11-7.4,23.9-13.5,37.3-14.2s25.9,7.2,29.7,20.8-1,28.8-9.8,39.6-24.2,20.1-38.8,25.3c-8.9,3.2-18.1,5.5-27.3,7.8-6.6,1.7-15.8,6.4-22.5,4.2-.6-.2-.6,1.4-.2,1.6Z" transform="translate(-28.9 -96.7)"/><path d="M188.3,242.3c-7.5,6.2,7.1,22.9-8.3,23.5-8.5.3-15.4-10.2-7-16,4.8-3.3,10.6-4.6,14.2-9.4.6-.8.7-5.4-1-4.4l-.4.2c-1.4.8-.8,5.5.8,4.6l.4-.2-1-4.4c-4.9,6.5-15.5,6.7-18.6,14.9-2.2,6,.4,13.3,5.4,17.1s12.8,3.4,16-2.3a12.8,12.8,0,0,0,1.4-7.8c-.4-4.1-3.3-9.3-1-13.2.3-.5.1-3.3-.8-2.6Z" transform="translate(-28.9 -96.7)"/><path class="cls-1" d="M219.7,235.4c5.1-1.5.1-2.8-.8-4.3s1.1-2.9,0-4.7-3.2-.8-3.7-1.6-1-4.6-2.3-6.8c-.2-.4-1.8-.2-2.5-1.3s1.5-3.4,0-4.7-3,.8-4.2-.5-.1-3.2-1-4.6-2.5-1.3-2.9-2-.4-3.2-1.1-4.3-2.7-1.6-3.1-2.4,1.4-4,.9-4.8-3.5-.9-4.3-2.7,2-2.9,1.4-4.3c-1.1-4-6.5-3.9-1.1-9-3.7-1.3-3.8-11.9-6.4-5.4-1.1-3.1-5.2-4.2-4.2.5l-3.4-1.5c-.7.4-1.9,2.3-2.2,2.5s0,1.2-2.5,1.2c-.4.2-2.7-1.6-3.6-1.9.7,4.6-.5,5.5-4.7,3.8a4.6,4.6,0,0,0,.7,4.6c-2.2.1-4.5-.8-6.3.2,2,1.8,4.4,4.9,0,4.7-.4,6.5-3.2,1.7-6,4.1s1.2,6.2,1.5,8.5-2.4,1.9-1.4,4,3.8,1,4.7,2.2-.5,3.3-.3,3.7,3.9.7,4.5,2.1-.8,3.2-.5,4.2,2.6,1.9,3.3,3c1.7,2.9.1,5.6,2.5,8.5,1,.9,2.9,1.1,3.7,1.6s.8,3,1.6,3.5c2.6,1.9,4.8.6,6.7,3s.1,3.2,1.5,5.1,2.3-.3,3,.5.4,3.2,1.2,3.8,3.7,1.6,5.9,2.5,2.5,4.7,4.1-.2c3.1,2.7,6.1,3.1,6.4-1.8,3.8,1,2.9-2.7,5.5-3.3,1-.4,4.3,5.2,4-.8,3.6,1.9,4-2.1,6.3-3.7l-.6-1.1" transform="translate(-28.9 -96.7)"/><path d="M219.8,237.3c2.3-.4,3.5-1.1,3.4-3.6s-2.1-3.5-3.5-5.3l.8,2.6c0-2.3.9-4.1-.1-6.4s-2.7-1.6-4-3-.5-5.9-2.9-6.8-1.3,3.1-1,.6a11.2,11.2,0,0,0,.2-3c-.2-1.5-1-3.5-2.7-4s-3.2.5-2.9.7-.2-2.8-.4-3.2c-.8-2.3-2.8-2.9-3.7-5.3s-1.9-2.9-4.1-4.9l.7,2.3c.1-2.1,1.5-3.9.7-6.1a4.4,4.4,0,0,0-1.5-2,4.8,4.8,0,0,0-2-.7c-.2,0-1,2.5.1.4a6.1,6.1,0,0,0,.4-5.2,8.9,8.9,0,0,0-1.5-2.6c-1.6-2-1.5-.4.2-2.2s1-4.4-.5-5.2-4.5-12.6-7.8-4.6h2.1c-.9-1.7-2.7-4.4-5-3.5s-2.1,5-1.9,6.9l2-4-3.4-1.4a1.1,1.1,0,0,0-1.3.4c-.8.8-1.9,3-3,3.3s-2.7-1.1-4-1.7-2.1,2.9-2,3.9-2.3,0-2.8-.2-1.7.7-1.9,1.5a11.2,11.2,0,0,0,1,8.5l1.1-5.7c-2.5-.2-4.4-.6-6.8.1s-1.5,5.4-.3,6.6a7.4,7.4,0,0,1,1.2,1.3q1.8,2.5-.4-3.5c-.9,0-1.5,1.2-1.7,1.9-.5,2.3-.7.7-2.9,1a5.7,5.7,0,0,0-3.7,2.5c-2.1,3.1-1.5,8.7,1,11.4s2.2-3.8.7-2.2a5.9,5.9,0,0,0-1,1.7,8.1,8.1,0,0,0-.2,5.2,4.6,4.6,0,0,0,2.9,3.4l2.8.8c.1-.1-.6-3.4-1.1-.5s.1,3.6,1.5,4.6,3.4.9,3.6,1.6V210c-.8,2.9-1.8,5.6-.1,8.3s2.6,2.2,3.2,4,.3,3.3.9,4.8c1.4,3.4,3.8,3.1,5.6,5.4s.8,2.1,1.8,2.9,3.4.7,5,1.5,1.3,4.8,3.9,6.3c.4.2,1-.1,1.3.1l.5-.3.2,1.1c.7.9.6,2.2,1.5,3.1s2.8,1.5,4.2,2a23.5,23.5,0,0,1,3.6,1.9c2.3,1.2,3-.3,4-2.6l-1.6,1c4.9,4.1,7.6.8,8.1-4.5l-1.3,2.5c2.6.2,2.4-.7,3.9-2.2s1.6-.5,3.5.4c3.5,1.6,3.4-3.1,3.5-5.7l-1.7,3.4c3.8,1.6,4.4-1.2,7.1-3.3s1.4-4.9.5-6.5l-.6-1.2c-2-3.7-3.1,4.2-1.8,6.2l.7,1,.2-7.1c-1.6,1.5-2.8,5-5.4,4.1s-1.7,2.5-1.7,3.4a2.6,2.6,0,0,0-2.8-2.4c-2.7.5-1.7,3.9-5.4,3.1-.7-.1-1.1,1.3-1.2,1.7-.6,3.3-3.5.8-4.8-.1s-1.4.5-1.6,1c-.9,2.4-.8.2-1.8-.3s-1.7-1-2.6-1.3-3.2-.7-3.4-.9-.4-2.1-.7-2.7-1.9-1.2-3.2-2.1-1.2-3.8-2.5-5.3-4.4-1.4-6-3.2-.9-3.1-2.9-4.1-2,.2-2.9-2.8c-.3-1.1-.2-2.3-.6-3.5-1-3.1-2.9-3.4-4.7-5.8l1,4.4c.2-2.7,1.4-4.5.2-7.2s-3.4-2.2-5.7-3.7l1.5,4.6c.5-3.1,1.4-6.7-1.8-8.8a6.6,6.6,0,0,0-2.8-1c.6-.2-1.3,6.2.7,3.1a7.4,7.4,0,0,0,1-4.8,10.8,10.8,0,0,0-1.9-5.1l-.6-1q-.6,2.4,1.2,1.8a4.4,4.4,0,0,0,1.7.2c3.8-.5,3.9-4.6,4-7.8l-1.9,3.9c6.7-.7,4.3-8.5.8-11.6l-.3,6.6c1.9-.7,3.8-.4,5.8-.3s1.8-4.6,1.1-5.7l-.3-1.4-2,2.3c6.2,2.1,7.4-2.1,6.7-7.7l-2,3.9c2.8,1.2,4.2,2.9,6.8.6.6-.5,1.5-2,2.2-2.3s-.1.3.9.6l1.8.8c2,.8,2.1-3,2-4,.2,1.8.5.1,1.3,1.9s1.6,2.1,2.3.5.1-.8.9.4.6,1.5.9,2.2a7.3,7.3,0,0,0,3.2,3.6l-.5-5.2c-1.8,1.9-3.2,3.8-3,6.6s1.9,2.9,2.8,4.9c.2.4.2-1,.1.3s-.4.7-.5,1a6.8,6.8,0,0,0-.4,2.8c.3,3.9,3,2.8,5.1,5.2l-.7-2.3c.1,2.3-1.9,4.3-.5,6.7s1.5,1,2.1,1.7,1,3.7,2.2,5.2,2.2,1,2.5,1.4,0,2.8.4,3.7a4,4,0,0,0,2.3,2.5,2.4,2.4,0,0,0,1.3,0c1.1-.3,1-1.5,1.2-.9s-.3,2.2-.2,3.2a4.6,4.6,0,0,0,1.7,2.9c.4.4,1.1.4,1.4.8a9.2,9.2,0,0,1,.7,2.6c.4,1.4.6,3.4,1.6,4.5a4.4,4.4,0,0,0,2.9,1c1.4.1.1-.8.2-.4s-.1,1.3,0,1.8c.2,3.6,1.9,3.2,3.9,5.4l-.6-2.9-1.3.4c-.8.5-.9,4,.3,3.8Z" transform="translate(-28.9 -96.7)"/><path class="cls-2" d="M231.8,168.7l1,.4a.7.7,0,0,0,.9-.7v-.6c0-.2,1.2-.5,1.9-.7a.7.7,0,0,1,.8.4l2.1,4.7a.7.7,0,0,0,1,.3l2.7-1.7a.7.7,0,0,1,.9.1l5.3,5.2a.7.7,0,0,0,.9,0l.7-.6a.7.7,0,0,0,.2-.8l-3.1-6.5a.7.7,0,0,1,.1-.8l2.5-2.4a.7.7,0,0,0,0-1l-3.7-3.3a.7.7,0,0,1-.1-1l.8-1a.7.7,0,0,1,.9-.2h.2a.7.7,0,0,0,1-.7v-1.2a.7.7,0,0,1,.2-.5l1.9-2.1a.7.7,0,0,1,.9-.1l2.1,1.5a.7.7,0,0,1,.3.5l.2,1.4a.7.7,0,0,0,1.1.4h0a.7.7,0,0,1,.9,0l1,.9a.7.7,0,0,1,.1.9l-3,4a.7.7,0,0,0,.3,1l2.9,1.3a.7.7,0,0,1,.4.8l-1.5,5.1a.7.7,0,0,0,.1.6l1.2,1.5a.7.7,0,0,0,1.1,0l3.8-5.3a.7.7,0,0,1,.8-.3l3,1a.7.7,0,0,0,.9-.5l.8-4.5a.7.7,0,0,1,.7-.6h1.5a.7.7,0,0,1,.6.6v.2a.7.7,0,0,0,1.1.5l1-.7h.5l3.3.6h0c-.1.5-.4,2.6-.5,3.3a.7.7,0,0,1-.3.4l-.9.7a.7.7,0,0,0,.1,1.2h.2a.7.7,0,0,1,.4.8l-.3,1.5a.7.7,0,0,1-.8.5l-4.6-.7a.7.7,0,0,0-.8.7v3.1a.7.7,0,0,1-.5.7l-6.2,1.9a.7.7,0,0,0-.4,1l1,1.6a.7.7,0,0,0,.6.3l5.3.2a.7.7,0,0,1,.7.6l.4,3.1a.7.7,0,0,0,.9.6l4.7-1.6a.7.7,0,0,1,.8.4l.6,1.2a.7.7,0,0,1-.3.9h0a.7.7,0,0,0,0,1.2l1.3.7a.7.7,0,0,1,.3.4l.8,2.5a.7.7,0,0,1-.4.8l-2.6,1.1h-.5l-1.2-.5a.7.7,0,0,0-.9.7v.2a.7.7,0,0,1-.4.8l-1.2.5a.7.7,0,0,1-.9-.4l-2-4.6a.7.7,0,0,0-1-.3l-3.1,1.6a.7.7,0,0,1-.8-.1l-5.1-5a.7.7,0,0,0-.8-.1l-.8.5a.7.7,0,0,0-.3.9l3.2,6.6a.7.7,0,0,1-.2.8l-2.5,2a.7.7,0,0,0,0,1l3.8,3.5a.7.7,0,0,1,.1.9c-.4.6-1.1,1.7-1.3,1.6l-.5-.3a.7.7,0,0,0-1,.7v1a.7.7,0,0,1-.1.5l-1.8,2.3a.7.7,0,0,1-1,.1l-2.2-1.6a.7.7,0,0,1-.3-.4l-.3-1.6a.7.7,0,0,0-1.1-.4h-.1a.7.7,0,0,1-.8,0l-.9-.8a.7.7,0,0,1-.1-.9l2.7-4a.7.7,0,0,0-.2-1l-2.6-1.4a.7.7,0,0,1-.3-.8l1.6-7.5a.7.7,0,0,0-.1-.5l-.3-.5a.7.7,0,0,0-1.2,0l-4.6,6.5a.7.7,0,0,1-.8.2l-3-1.2a.7.7,0,0,0-.9.5l-1.2,5a.7.7,0,0,1-.7.5h-1.3a.7.7,0,0,1-.6-.6h0a.7.7,0,0,0-1.1-.5l-.9.6h-.5l-3.3-.7h-.1l.4-3.4a.7.7,0,0,1,.3-.5l.8-.6a.7.7,0,0,0-.1-1.2h-.1a.7.7,0,0,1-.4-.8l.3-1.3a.7.7,0,0,1,.7-.5l5.1.5a.7.7,0,0,0,.8-.7l-.2-3.2a.7.7,0,0,1,.5-.7l7.7-2.3a.7.7,0,0,0,.3-1.1l-.4-.5-.5-.2-7.7-.8a.7.7,0,0,1-.6-.6l-.5-2.9a.7.7,0,0,0-.9-.5l-4.6,1.3a.7.7,0,0,1-.8-.4l-.5-1.1a.7.7,0,0,1,.2-.8h.1a.7.7,0,0,0-.1-1.1l-1.4-.8-.3-.4-.9-2.6a.7.7,0,0,1,.4-.9l2.8-.9Z" transform="translate(-28.9 -96.7)"/><path class="cls-3" d="M227.7,169.8a1.2,1.2,0,0,1,.7-.6l2.8-.9h.8l1,.4h.2a.1.1,0,0,0,.1-.1v-.6c-.1-.6.5-.9,2.3-1.3a1.2,1.2,0,0,1,1.4.7l2.1,4.7h.2l2.7-1.7a1.2,1.2,0,0,1,1.5.1l5.3,5.2h.2l.7-.6a.2.2,0,0,0,0-.2l-3.1-6.5a1.2,1.2,0,0,1,.3-1.4l2.5-2.4h0l-3.7-3.3a1.2,1.2,0,0,1-.1-1.7l.8-1a1.2,1.2,0,0,1,1.5-.3h.4v-1.2a1.2,1.2,0,0,1,.3-.9l1.9-2.1a1.2,1.2,0,0,1,1.6-.2l2.1,1.5a1.2,1.2,0,0,1,.5.8l.2,1.4h.3a1.2,1.2,0,0,1,1.7,0l1,.9a1.2,1.2,0,0,1,.1,1.6l-3,4a.1.1,0,0,0,0,.1h.1l2.9,1.3a1.2,1.2,0,0,1,.7,1.5l-1.5,5.1a.2.2,0,0,0,0,.1l1.2,1.5h.2l3.8-5.3a1.2,1.2,0,0,1,1.4-.5l3,1h.2l.8-4.5a1.2,1.2,0,0,1,1.3-1h1.5a1.2,1.2,0,0,1,1.1,1.1v.2h.2l1-.7a1.2,1.2,0,0,1,.9-.2l3.1.6.8-.5v.7l.7.2-.8.6-.4,3.1a1.2,1.2,0,0,1-.5.8l-.9.7h.3a1.2,1.2,0,0,1,.7,1.4l-.3,1.5a1.2,1.2,0,0,1-1.4.9l-4.6-.7h-.2v3.1a1.2,1.2,0,0,1-.9,1.2l-6.2,1.9h-.1a.1.1,0,0,0,0,.1l1,1.6h.1l5.3.2a1.2,1.2,0,0,1,1.2,1.1l.4,3.1h.2l4.7-1.6a1.2,1.2,0,0,1,1.5.6l.6,1.2a1.2,1.2,0,0,1-.5,1.6h0l1.3.7a1.2,1.2,0,0,1,.6.7l.8,2.5a1.2,1.2,0,0,1-.7,1.5l-2.6,1.1a1.2,1.2,0,0,1-1,0l-1.2-.5h-.2a.1.1,0,0,0-.1.1v.2a1.2,1.2,0,0,1-.8,1.3l-1.2.5a1.2,1.2,0,0,1-1.6-.7l-2-4.6h-.2l-3.1,1.6a1.2,1.2,0,0,1-1.4-.2l-5.1-5h-.2l-.8.5a.2.2,0,0,0-.1.2l3.2,6.6a1.2,1.2,0,0,1-.3,1.5l-2.5,2h0l3.8,3.5a1.2,1.2,0,0,1,.2,1.6c-1,1.6-1.4,2.1-2,1.8l-.5-.3h-.2v1a1.2,1.2,0,0,1-.2.8l-1.8,2.3a1.2,1.2,0,0,1-1.7.2l-2.2-1.6a1.2,1.2,0,0,1-.5-.7l-.3-1.6h-.3a1.2,1.2,0,0,1-1.5-.1l-.9-.8a1.2,1.2,0,0,1-.2-1.6l2.7-4a.2.2,0,0,0,0-.1h-.1l-2.6-1.4a1.2,1.2,0,0,1-.6-1.3L251,189h0l-.3-.5h-.3l-4.6,6.5a1.2,1.2,0,0,1-1.5.4l-3-1.2h-.2l-1.2,5a1.2,1.2,0,0,1-1.3.9h-1.3a1.2,1.2,0,0,1-1.1-1.1H236l-.9.6a1.2,1.2,0,0,1-.9.2l-3.1-.7-.9.7v-.9l-.8-.2.9-.7.4-3.2a1.2,1.2,0,0,1,.5-.8l.8-.6h-.1a1.2,1.2,0,0,1-.7-1.4l.3-1.3a1.2,1.2,0,0,1,1.3-1l5.1.5h.2l-.2-3.2a1.2,1.2,0,0,1,.9-1.3l7.7-2.3h.1a.2.2,0,0,0,0-.1l-.4-.5H246l-7.7-.8a1.2,1.2,0,0,1-1.1-1l-.5-2.9h-.2l-4.6,1.3a1.2,1.2,0,0,1-1.5-.7l-.5-1.1a1.2,1.2,0,0,1,.4-1.4h.1l-1.4-.8a1.2,1.2,0,0,1-.6-.7l-.9-2.6a1.2,1.2,0,0,1,0-.7Zm3.4,6.1H231a.2.2,0,0,0,0,.2l.5,1.1h.2l4.6-1.3a1.2,1.2,0,0,1,1.5,1l.5,2.9h.1l7.7.8a1.2,1.2,0,0,1,.8.4l.4.5a1.2,1.2,0,0,1,.2,1.1,1.2,1.2,0,0,1-.8.8L239,186v.2l.2,3.2a1.2,1.2,0,0,1-1.3,1.3l-5.1-.5h-.2l-.3,1.3a.2.2,0,0,0,.1.2h.1a1.2,1.2,0,0,1,.2,2.1l-.8.6h-.1l-.4,3,3,.6h.1l.9-.6a1.2,1.2,0,0,1,1.9.9H239l1.2-5a1.3,1.3,0,0,1,.6-.8,1.2,1.2,0,0,1,1,0l3,1.2h.2l4.6-6.5a1.2,1.2,0,0,1,2,.1l.3.5a1.2,1.2,0,0,1,.2.9l-1.6,7.5v.2l2.6,1.4a1.2,1.2,0,0,1,.4,1.8l-2.7,4a.2.2,0,0,0,0,.2l.9.8h.3a1.2,1.2,0,0,1,1.9.8l.3,1.6h.1l2.2,1.6h.2l1.8-2.3h0v-1a1.2,1.2,0,0,1,1.8-1.2h.2l.9-1.2a.2.2,0,0,0,0-.2l-3.8-3.5a1.2,1.2,0,0,1,.1-1.9l2.5-2a.2.2,0,0,0,0-.2l-3.2-6.6a1.2,1.2,0,0,1,.5-1.6l.8-.5a1.2,1.2,0,0,1,1.5.2l5.1,5h.2l3.1-1.6a1.2,1.2,0,0,1,1.7.6l2,4.6h.2l1.2-.5v-.4a1.2,1.2,0,0,1,1.7-1.3l1.2.5h.1l2.6-1.1a.2.2,0,0,0,.1-.2l-.8-2.5h-.1l-1.3-.7a1.2,1.2,0,0,1-.1-2.2.2.2,0,0,0,.1-.2l-.6-1.2h-.2l-4.7,1.6a1.2,1.2,0,0,1-1.6-1l-.4-3.1H269l-5.3-.2a1.2,1.2,0,0,1-1-.6l-1-1.6a1.2,1.2,0,0,1,.7-1.8l6.2-1.9h.1v-3.1a1.2,1.2,0,0,1,1.4-1.2l4.6.7h.2l.3-1.5a.2.2,0,0,0-.1-.2h-.2a1.2,1.2,0,0,1-.2-2.1l.9-.7h.1l.4-2.8-2.8-.5h-.1l-1,.7a1.2,1.2,0,0,1-1.9-.9v-.2h-1.8l-.8,4.5a1.2,1.2,0,0,1-1.6.9l-3-1h-.2l-3.8,5.3a1.2,1.2,0,0,1-2,.1l-1.2-1.5a1.2,1.2,0,0,1-.2-1.1l1.5-5.1a.2.2,0,0,0-.1-.2l-2.9-1.3a1.2,1.2,0,0,1-.5-1.8l3-4a.2.2,0,0,0,0-.2l-1-.9h-.2a1.2,1.2,0,0,1-2-.7l-.2-1.4h-.1l-2.1-1.5h-.2l-1.9,2.1h0v1.2a1.2,1.2,0,0,1-1.8,1.2h-.4l-.8,1a.2.2,0,0,0,0,.2l3.7,3.3a1.2,1.2,0,0,1,0,1.8l-2.5,2.4a.2.2,0,0,0,0,.2l3.1,6.5a1.2,1.2,0,0,1-.3,1.5l-.7.6a1.2,1.2,0,0,1-1.6-.1l-5.3-5.2h-.2l-2.7,1.7a1.2,1.2,0,0,1-1.8-.5l-2.1-4.7h-.2l-1.5.4v.3a1.2,1.2,0,0,1-1.7,1.3l-1-.4h-.1l-2.8.9h-.1a.1.1,0,0,0,0,.1l.9,2.6h.1l1.4.8a1.2,1.2,0,0,1,.1,2Zm3.1-8.1h0Zm26.5,37h0Z" transform="translate(-28.9 -96.7)"/><line class="cls-1" x1="233.8" y1="78.4" x2="215.9" y2="91.4"/><path class="cls-3" d="M244.3,188a.5.5,0,0,0,.8.6l17.9-13a.5.5,0,0,0-.6-.9l-17.9,13Z" transform="translate(-28.9 -96.7)"/><line class="cls-1" x1="224.5" y1="73.6" x2="225.4" y2="95.8"/><path class="cls-3" d="M252.9,170.2v.2l.9,22.1a.5.5,0,0,0,1.1,0l-.9-22.1a.5.5,0,0,0-1.1-.1Z" transform="translate(-28.9 -96.7)"/><line class="cls-1" x1="235.5" y1="88.7" x2="214.7" y2="81.1"/><path class="cls-3" d="M243.1,177.6a.5.5,0,0,0,.3.6l20.8,7.6a.5.5,0,0,0,.4-1l-20.8-7.6a.5.5,0,0,0-.7.3Z" transform="translate(-28.9 -96.7)"/><circle class="cls-1" cx="254" cy="181.5" r="4.9" transform="translate(-87.1 87.6) rotate(-36.1)"/><path class="cls-3" d="M250.8,177.1h0a5.4,5.4,0,1,1-2.2,3.5v-.5A5.4,5.4,0,0,1,250.8,177.1Zm7.5,5.1a4.4,4.4,0,0,0-6.9-4.2h0a4.4,4.4,0,1,0,6.8,4.6Z" transform="translate(-28.9 -96.7)"/></svg>