<svg xmlns="http://www.w3.org/2000/svg" viewBox="0 0 288.2 303.5"><defs><style>.cls-1{isolation:isolate;}.cls-2,.cls-3,.cls-4,.cls-5,.cls-9{fill:#fff;}.cls-10,.cls-3,.cls-4,.cls-5,.cls-8,.cls-9{stroke:#000;}.cls-10,.cls-11,.cls-3,.cls-4,.cls-5,.cls-6,.cls-8,.cls-9{stroke-miterlimit:10;}.cls-11,.cls-3,.cls-5,.cls-6{stroke-width:0.39px;}.cls-3{mix-blend-mode:multiply;}.cls-11,.cls-4,.cls-8{stroke-linecap:round;}.cls-4{stroke-width:0.77px;}.cls-6,.cls-7{fill:#1a1a1e;}.cls-6{stroke:#1a1a1e;}.cls-11,.cls-8{fill:none;}.cls-8{stroke-width:0.15px;}.cls-10{stroke-width:0.19px;}.cls-11{stroke:#464c54;}</style></defs><title>skates</title><g class="cls-1"><g id="Layer_1" data-name="Layer 1"><path id="_Compound_Path_" data-name="&lt;Compound Path&gt;" d="M319,290.5h-1.7a.4.4,0,0,0-.5,0,24.9,24.9,0,0,0-4.4,1,.4.4,0,0,0-.6.1h-.1l-4,1.3a.4.4,0,0,0-.6,0l-.2.2h-.3l-3.5,1a.4.4,0,0,0-.5.1h0l-3.6,1a.4.4,0,0,0-.5.1h0a56.6,56.6,0,0,1-7.1,1.3h-.1c-5.9.7-9.5-3.4-8.8-8.6,3.5-1.5,6.5-3.1,5.7-7.4h0a.2.2,0,0,0-.1-.2v-.2l-.6-2.2h0a.3.3,0,0,0-.2-.4l-.6-1.8h-.1l-.6-1.7v-.2c.1-.2-.1-.2-.3-.3l-.7-2.3a.3.3,0,0,0-.1-.4l-.6-2v-.2c0-.1,0-.1-.2-.2a26.7,26.7,0,0,1-.9-5.5c0-.2-.3-.2-.5-.2a4.8,4.8,0,0,0-1.3-1.7,35.6,35.6,0,0,0-1.7-11.8h0c-2-5.6-6.5-11.9-11.3-18.5s-8.6-11.9-11.7-18.1c-6.5-13.1-8.6-30.8-8.6-30.9v-.2h-1.1a99.5,99.5,0,0,0-14.1,1.3,172.4,172.4,0,0,1-20,1.2c-1.7,0-3.6,0-5.5.2C202,155.7,195,122,187.5,87.4l-.7-3.2.4-.5a4.5,4.5,0,0,0,.9-3.6h0l-.4-1.5v.6a5.2,5.2,0,0,0-1.5-1.6l-1-.6q-1.7-7.7-3.4-15.3l-.5-2.2a112.9,112.9,0,0,0-4.8-17c-.6-1.6-1.7-2.6-2.9-2.7s-1.7.3-2.6,1.9a16.1,16.1,0,0,0-1.3,3.9l-.3,1.2-.2.7h0c-1.5,5.6-3,11.4-4.4,16.9l-1.4,5.6-.5,2.1c-2.8,11.2-5.8,22.7-8.7,34-.5,2-1,4.1-1.5,6.1a145.1,145.1,0,0,1-4,14.4,6.7,6.7,0,0,0-3.7,4.3,11.1,11.1,0,0,0-.4,1.4h0a.9.9,0,0,0-.4.6l-.5,2.4h0l.2.4-1.6,7.8-.3,1.2h0c-.3,1.4-.6,2.9-1,4.3l-.5,1.7h-.3a.9.9,0,0,0-.4.5l-.8,2.3h0a1.4,1.4,0,0,0,.3.8,76.5,76.5,0,0,1-3.1,7.4h0a70.5,70.5,0,0,1-3.7,6.6,1,1,0,0,0-.4.3l-1.3,2.1h0a1,1,0,0,0,0,.3q-1.7,2.5-3.7,4.8h-.3a.9.9,0,0,0-.6.3l-1.5,1.9h0a1,1,0,0,0,0,.4c-1.3,1.4-2.6,2.7-4,3.9H120l-2.1,1.3h0a1.4,1.4,0,0,0-.2.9l-.4.3-3.6,2.8h0a.9.9,0,0,0-.7.1l-2.1,1.3h0a1.2,1.2,0,0,0-.2.5l-4.6,2.7-.4-.2a.9.9,0,0,0-.7.1l-2.2,1.1h0a1.4,1.4,0,0,0-.3.9l-5.3,2.3-.3-.2a.9.9,0,0,0-.7,0l-2.3.9h0a1.3,1.3,0,0,0-.3.6l-4.9,1.5-.3-.2a.9.9,0,0,0-.7-.1l-2.4.6h0a1.4,1.4,0,0,0-.4.6H85a39.4,39.4,0,0,1-6.7.9h-1a.9.9,0,0,0-.6-.2H74.2l-.2.2c-3.7-.1-7.8-.1-10.7.8-5.2.7-10,2.5-13.7,7.1a16,16,0,0,0-3.1,6.5c-.2,1.1-1,3.8-.4,4.9l.3.5q0,.4,0,.8c-.2.1-.4.2-.4.5a7,7,0,0,0,2.1,4.4h-.3c-2.3,1.2-5.5,1.8-6.6,4.5s.1,5,1.2,7c3.6,6.2,10.7,9.6,17.1,12.1,18.9,7.4,39.1,12.1,58.9,16s40.7,6.9,61,10.1l6.9,1.1-2.5,2.6h-.3a.9.9,0,0,0-.6.2l-1.8,1.7h0a1.2,1.2,0,0,0-.1.6h-.1a40.9,40.9,0,0,1-6.3,4.5h-.1a.9.9,0,0,0-.7.1l-2.2,1.2h0a1.2,1.2,0,0,0-.2.5,52.8,52.8,0,0,0-7,4.1c-4.7,3.1-8.7,6.8-10.4,12.7a15.9,15.9,0,0,0,.1,8.6c.3,1.2,1,3.9,2.1,4.6l.4.2h0l.4.8c-.2.1-.3.3-.2.5a7.2,7.2,0,0,0,4,2.9l-.4.3h0c-2,2.8-4.8,5.2-2.8,8.8a11,11,0,0,0,4.9,4.3c5.9,3,13.1,2.6,19.5,1.8,18.9-2.3,37.8-7.5,56-13.1,19.9-6.1,39.5-13.5,59.1-20.6l21.1-7.7c1.5-.6,7.1-1.7,7-4.1S320.8,290.6,319,290.5ZM172.4,52.9l1-3.9.8,2.2c.5,1.4,1.1,2.9,1.4,4.4s1.2,5,1.8,7.5c1.1,4.8,2.1,9.5,3.2,14.2l-.6.3-.5.4c-2.5-.2-5.4.6-7.7,4.2-4.3,6.8-5,16.2-4.9,18.9a46.3,46.3,0,0,1-.5,7v.3h.1a14.2,14.2,0,0,1-.5,3,8.8,8.8,0,0,1-1.1,2h-.1l1.3.2h0a7,7,0,0,0,1.3-2.7,35.8,35.8,0,0,1,1.2-3.4,4.6,4.6,0,0,0,1.7-3.1,28.3,28.3,0,0,1,1.3-4.5,34.8,34.8,0,0,0,1.1,5.6,46.2,46.2,0,0,1,1.4,6.8v.3h.1a14.2,14.2,0,0,1,.4,3,8.8,8.8,0,0,1-.5,2.2v.2l1.3-.2h0a7,7,0,0,0,.5-2.9,36,36,0,0,1,.2-3.6,4.6,4.6,0,0,0,.8-3.4c-.4-3.4,1-15.9,2.5-19.8A10.7,10.7,0,0,1,181,85l1.5.5.2,1.1c4.5,21,9,42,13.1,61.7l7.7,37.1h-.2a7.4,7.4,0,0,0-2.8,2.5c-1.4,2.1-1,4.4-.4,6.6a.9.9,0,0,0,0,.6l.7,2.3h0l.4.3c.7,2,1.3,4,1.9,6a.9.9,0,0,0,0,.4l.6,2.4h.2q.8,3,1.4,6v.2a.9.9,0,0,0-.2.6l.4,2.4h0a1.3,1.3,0,0,0,.6.5,73.3,73.3,0,0,1,.7,15.9v.3l-.2,2.4h0c-.1,1.2-.3,2.5-.5,3.7l-.5,2.7a.9.9,0,0,0-.3.5l-.4,2.4h0q-.7,2.9-1.7,5.8v.2l-1.2,2.2h0a1.3,1.3,0,0,0,.2.7l-1,2.4-.3.7v.2l-.8,1.8-.3.3-1.2,2.2h0a1,1,0,0,0,0,.3q-1.3,2.5-2.8,4.8h-.3a.9.9,0,0,0-.6.4l-1.4,2h0a1.4,1.4,0,0,0,.1.8l-.6.9-5.5-1.1c-4.3-1-9.5-1.9-13.4-4.2s-4.7-7.2-2.3-10.8c3.3.3,6.9.6,8.4-2.9s2-9.1,3.1-13.6h0a22.6,22.6,0,0,1,1.7-5.2c.1-.2-.1-.4-.3-.4a5,5,0,0,0-.3-2,35.6,35.6,0,0,0,4.2-11.2h0c1-5.9,0-13.5-1-21.6s-1.8-14.6-1.5-21.5c.6-14.6,7.2-31.1,7.3-31.3h-.1l-.6-.4v-.2c0-.1-.1-.2-.1-.2-4.9-2.7-10.4-4.6-15.6-6.6s-10.9-5.3-16.4-8.1c-2.3-1.2-4.6-2.4-7-2.8,1-3.1,1.8-6.4,2.6-9.5l1.1-4.4c2.6-9.8,5.1-19.6,7.9-30.5l2.4-9.5L172.1,54ZM53,230.5a60.1,60.1,0,0,0,7.3,2.4,173.6,173.6,0,0,0,22.8,4.8c.2,9.1-12.7,7.6-19.1,5.7-3.5-1.1-7.3-2.7-10-5.4-1.1-1.1-2.4-2.6-2.5-4.3A3.9,3.9,0,0,1,53,230.5Zm97.7,30.1h-.6l-4.7-.4a191,191,0,0,1-20.9-3.4h-.4l-7.4-1.5c-5-1-10.6-1.7-15.5-3.6h-.1a23.5,23.5,0,0,1-3.2-1.6c-5.1-3-4.4-7.8-1-11.6,10.9-.3,21.2-3.9,32-5.5a77.8,77.8,0,0,1,10.3-.9,54.5,54.5,0,0,1,6.2.3c1.7.2,1.1-.3,1,1.1-.3,5.2-1.2,10.5-1.8,15.7a.3.3,0,0,0,.2.3l12.8,2.7c.4,2.3.3,5.1-1.3,6.7S153,260.6,150.8,260.7Zm5.7-1.3-.2.2-.8.4Zm22.4,72h-3.5a.4.4,0,0,0-.6,0,14.1,14.1,0,0,1-4.7-1c-3.1-1.3-3.5-3.5-2.7-5.9a62.6,62.6,0,0,0,7.5-1.4,174.5,174.5,0,0,0,22-6.7c2.3,4,.5,7.2-2.7,9.6h-.3a22.8,22.8,0,0,1-3.7,2.1h-.4l-.2.2-3.3,1.3h-.4l-3.9,1h-.6Zm92-30.8a9,9,0,0,1-3.9,3.5h-.1l-2.4,1.2c-2.1,1.1-4.3,2-6.6,2.9h-.4l-3.4,1.3h-.4l-3.4,1.2a.4.4,0,0,0-.5.1h-.1l-3.6,1.2a.4.4,0,0,0-.5.1h0l-2.8.9a.4.4,0,0,0-.6.1v.2l-3.5,1.1a.4.4,0,0,0-.5.1h0l-1.4.4-5.4,1.8a.4.4,0,0,0-.6.1l-.2.2-2.2.7h-.5l-2.3.7a.4.4,0,0,0-.5.1h-.1l-2.3.6a.4.4,0,0,0-.5.1h-.2l-1.9.3h-.1a.4.4,0,0,0-.6,0h-1.9a.4.4,0,0,0-.6,0h-1.5c-5.8-.4-6.8-5.3-5.6-9.9,9-5.3,16-12.9,24.2-19.3a86.7,86.7,0,0,1,9.1-6.3,47.2,47.2,0,0,1,5.6-2.8c.7-.3,1.4-.3,1.6-.5v.3c2.4,4.8,4.1,10.1,6.1,15.1.1.3.5.2.7.2l12.3-3.7C270.8,295.3,272.1,298.2,270.9,300.6ZM244.5,181.9l-2.8.2Z" transform="translate(-37.2 -36.5)"/><g id="_Group_" data-name="&lt;Group&gt;"><g id="_Group_2" data-name="&lt;Group&gt;"><path class="cls-2" d="M45.4,224.4c-2.3,1.3-6.2,1.7-6.6,5.3s1.9,9.9,12.7,15.4,45.1,15.5,76.3,20.7,71,11.6,74.2,11.6,1.5-6.8-7.1-8.5-21.5-4.7-24.7-6.8a8.3,8.3,0,0,1-3.3-8.2,12.4,12.4,0,0,1,2.6-3.9l-14.1-2.3s1.7,6.3-1.7,8.8-15.3,1-32.5-2.5-25.4-4.6-29.3-9.2S95,234.1,95,234.1l-14.2-1.3s.8,4.2-2,7.3-11.8,2.6-19.4,0-16-9.2-8.1-14S45.4,224.4,45.4,224.4Z" transform="translate(-37.2 -36.5)"/><path d="M44.5,224.2c-2.4,1.2-5.7,1.9-6.9,4.5s0,5.4,1.2,7.5c3.8,6.4,11.3,9.7,17.9,12.3,19,7.3,39.3,12.1,59.2,15.9s41.9,7.1,62.8,10.3c6.4,1,12.9,2.1,19.4,2.9,2,.2,5.6.8,6.5-1.5s-2.8-5.5-4.7-6.4c-4.2-2.1-9.6-2.4-14.1-3.5s-10.1-1.8-13.9-4.3-5-8.2-1.3-12.1c.2-.2.2-.4-.1-.4l-14.1-2.3c-.4-.1-2.8.2-2.6.9s.9,5.1-.3,7c-2.1,3.5-9.2,2-12.5,1.6-9.2-1.1-18.4-3.1-27.5-5s-30.5-5.7-17.3-17.7c.4-.3-.1-.4-.4-.5l-14.2-1.3c-.4,0-2.5.3-2.4,1,1.8,11.3-13.4,8.4-19.8,5.9-3.1-1.2-6.8-3.1-8.8-6s.7-5.3,3.2-7.9,1.5-2.2-1.1-2.3a30.1,30.1,0,0,0-7.3,1c-1.1.2-2.6,1.5-.5,1l4.1-.7c.7-.1,2.9-.7,3.1.3s-3.3,2.4-3.9,3c-5.2,5.5,4.1,10.8,8.4,12.5,7.1,2.9,27.7,6.3,25.5-7.6l-2.4,1,10.8,1,2.2.2c1.2.1.7.3.8-.3s-2.4,2.7-2.8,3.3c-5.9,9.3,7.6,12.4,14,13.8,13.4,3,27.8,6.9,41.6,6.8,7-.1,12.3-3,10.3-11l-2.6.9,6.1,1c1.4.2,6.8.2,7.7,1.2s-2.7,3.8-2.7,5.3a8.3,8.3,0,0,0,4.8,7.4c7.8,3.9,16.9,4.1,25,6.6,2.8.8,7.4,3.3,6.8,6.9-.1.9,1.4-.3.2.1h-1l-3.8-.5c-39.7-5.5-80.1-11.2-118.7-22.3-8.5-2.5-17.2-4.9-25.2-8.8-4.5-2.2-9.4-5.3-11.9-9.9a10.1,10.1,0,0,1-1.4-4.5c-.1-3.6,3.3-4.7,6.1-6S45.2,223.9,44.5,224.2Z" transform="translate(-37.2 -36.5)"/></g><path id="_Path_" data-name="&lt;Path&gt;" class="cls-3" d="M201.9,275.4c-3.2,0-43-6.4-74.2-11.6s-65.4-15.1-76.3-20.7c-9.1-4.7-12.2-9.8-12.7-13.5h0c-.5,3.7,1.9,9.9,12.7,15.4s45.1,15.5,76.3,20.7,71,11.6,74.2,11.6c1.3,0,1.8-1.2,1.3-2.7A1.4,1.4,0,0,1,201.9,275.4Z" transform="translate(-37.2 -36.5)"/><path id="_Path_2" data-name="&lt;Path&gt;" class="cls-4" d="M188.8,270.1l4.6-1.6" transform="translate(-37.2 -36.5)"/><path id="_Path_3" data-name="&lt;Path&gt;" class="cls-4" d="M193.6,271.5l4.6-1.6" transform="translate(-37.2 -36.5)"/></g><path id="_Path_4" data-name="&lt;Path&gt;" class="cls-5" d="M183,172.7c.6-14.8,7.3-31.3,7.3-31.3l-1-.6c-4.5,10.8-12.4,31.6-12.9,45.9-.6,17.3,4.9,16.3,5.2,27.7a20.5,20.5,0,0,1-4.1,13.6c3.4-.4,3.7-.9,3.7-.9a35,35,0,0,0,4.2-11.2h0C187.3,204.8,182.3,187.5,183,172.7Z" transform="translate(-37.2 -36.5)"/><g id="_Group_3" data-name="&lt;Group&gt;"><path class="cls-2" d="M176.4,186.6c.5-14.3,8.4-35,12.9-45.9-1.7-1-6.3-3.2-17.1-7.1-5.5-2-19.3-10.9-22.8-10.5-7.8.9-6.3,5.3-8.6,16.9s-7.2,24.9-21.5,39.1-36.4,19.6-42.8,20.2-14.8-1.7-23.7,2.9-9.1,12.8-9.1,15.6c6.8,5.5,22.1,9.9,35.5,11.9,26.8,4,28.6-2.4,47.4-3.6s23.8,1.2,35.8,1.8a101.6,101.6,0,0,0,15.1,0,20.5,20.5,0,0,0,4.1-13.6C181.3,202.9,175.8,203.9,176.4,186.6Z" transform="translate(-37.2 -36.5)"/><path d="M177.9,186.3c.8-15.7,6.9-31.3,12.9-45.8a.2.2,0,0,0-.1-.2,104.7,104.7,0,0,0-13.8-5.9c-6.4-2.4-12.1-5.7-18.2-8.8-3.7-1.9-7-3.7-11.2-2.6s-5.6,3.1-6.4,6.9c-1.5,6.8-2.1,13.6-4.4,20.2a72,72,0,0,1-11.5,21.1A74.8,74.8,0,0,1,81.5,198c-11.8,2.5-26.3-2.2-35.3,8.5-1.8,2.2-5.3,8.6-3.8,11.7s5.7,3.6,7.5,4.4a86,86,0,0,0,11.9,4.2c13.7,3.8,28.9,6.4,43.1,3.8,4.8-.9,9.6-2.4,14.5-3.1a106.3,106.3,0,0,1,25.6-.6c7.3.6,14.6,1.7,21.9,1.9,4.1.1,10.7,1.5,13.2-2.6,3.8-6,3.9-13.9,1.5-20.4s-3.8-12.3-3.7-19.5c0-.4-2.9-.1-2.9.8a47.9,47.9,0,0,0,3.5,19.2c2.7,7.3,2.3,15.6-2.4,22l2.1-.8c-11.7,1.1-23.3-1.3-35-1.9a113.6,113.6,0,0,0-33,3c-13.7,3.3-27.5,1.7-41.2-1.5-7.2-1.7-16.1-3.7-22.1-8.3-3.9-3.1-.2-10.3,2.7-13.2,7.5-7.6,17.5-4.6,26.8-5.6a61.8,61.8,0,0,0,11.2-2.5c11.4-3.4,22.6-8.7,31.4-16.8a75.6,75.6,0,0,0,22-35.7c1.5-5.6,1.6-11.7,3.4-17.2s8.9-2.5,13.2-.3,10.8,5.8,16.7,8c3.4,1.3,6.9,2.6,10.2,4.1s3.5,1,2.6,3.5c-5,14.4-11.3,28.5-12.1,44C174.9,187.4,177.8,187.1,177.9,186.3Z" transform="translate(-37.2 -36.5)"/></g><path id="_Path_5" data-name="&lt;Path&gt;" class="cls-6" d="M85.7,232.4c28.6,2.7,27.2-9.7,68.5-4,12.6,1.7,21.3,1.8,27.4,1a4.4,4.4,0,0,0-.3-2.4s-1.1,1.9-18.8.9c-11.9-.6-17.6-2.9-35.8-1.8s-20.6,7.6-47.4,3.6c-13.4-2-28.7-6.4-35.5-11.9,0,.5,0,1.1,0,1.8h0C46,222.1,60.4,230,85.7,232.4Z" transform="translate(-37.2 -36.5)"/><g id="_Group_4" data-name="&lt;Group&gt;"><path class="cls-2" d="M58,229.4c15.3,4.2,34.4,7.9,50,3.9s24.8-4.7,29.3-4.7a40.7,40.7,0,0,1,7.2.6l-2,16.9s22.5,4.6,26.7,4.8,7,.9,8-4.6,3.1-15.4,4-16.3a1.4,1.4,0,0,0,.3-.6c-6.1.8-14.9.8-27.4-1-41.2-5.7-39.9,6.6-68.5,4C60.4,230,46,222.1,43.8,219.6h0C44,222.4,45.6,226,58,229.4Z" transform="translate(-37.2 -36.5)"/><path class="cls-7" d="M57.7,229.7c11.5,3.1,23.4,5.7,35.3,5.6s21.6-3.8,32.6-5.4a82.1,82.1,0,0,1,10.3-1c1.8,0,5.7-.5,7.2.4s.3-.5.7,1-.8,6.7-1.1,9.3l-.8,6.5c0,.1.1.2.2.2,8.8,1.8,17.7,4,26.7,4.8,3.8.3,7.3.5,8.7-3.6,2.1-5.9,1.8-12.5,4.6-18.2.1-.2-.4-.2-.5-.2-15.5,1.9-30.8-2.4-46.2-2.5-9.1-.1-17.6,1.8-26.4,3.9-12.8,3.1-25.7,2-38.4-.7a91.9,91.9,0,0,1-18.8-5.9,39.1,39.1,0,0,1-5.3-2.8,15.9,15.9,0,0,0-2.3-1.7c-.3-.1-1,0-1,.4.6,6.4,9.5,8.5,14.4,9.9.3.1,1.3-.4.7-.6-4.8-1.4-13.4-3.4-14-9.7l-1,.4c1,.3,2.3,1.8,3.3,2.4a57.1,57.1,0,0,0,9,4.1,115.7,115.7,0,0,0,27.8,6.2,73.3,73.3,0,0,0,20.5-.3c5.2-.9,10.3-2.6,15.5-3.6,19-3.7,37.7,2.4,56.7,1.5.8,0,3.9-.7,4.3-.3s-.6,2.2-.6,2.4a118.3,118.3,0,0,0-2.7,11.9c-.6,3.1-.7,6.1-4.5,6.6a19.6,19.6,0,0,1-4.5-.3c-3.3-.4-6.5-1-9.8-1.6l-10.9-2.1c-.9-.2-2.9-.2-3.7-.7s-.2.5-.5-.6.8-6.6,1-8.8l.9-7.5c0-.1-.1-.2-.2-.2-9.8-1.8-20.4.4-29.9,2.5s-19.5,4-30,3a159.8,159.8,0,0,1-26.6-5.2C58,229,57,229.5,57.7,229.7Z" transform="translate(-37.2 -36.5)"/></g><g id="_Group_5" data-name="&lt;Group&gt;"><path class="cls-2" d="M154.1,124.5c-2.1-.9-3.8-1.5-4.7-1.4-7.8.9-6.3,5.3-8.6,16.9s-7.2,24.9-21.5,39.1-36.4,19.6-42.8,20.2c-4.5.4-9.8-.6-15.7.4-2.6.5-4,3.1-3.3,5.9s4.8,7.1,18.2,3.6c15.1-3.9,35.8-9.8,52.7-27.6C151.6,157.1,145.7,126.2,154.1,124.5Z" transform="translate(-37.2 -36.5)"/><path d="M154.6,124.3c-5-2.1-10.6-1.8-12.3,4.1s-1.5,9.3-2.6,13.9a72.8,72.8,0,0,1-5.8,16.2c-10.7,21.3-32.4,37.4-56.3,40.3-4.6.6-23.2-3.3-20.8,6.9,1.5,6.4,10.4,5.5,15.1,4.6,21.4-4,43.2-13.5,57.9-29.9,8.3-9.2,13.5-20.5,16.5-32.5,1.2-4.5,2-9.1,3-13.7.6-2.8,1.3-8.5,4.7-9.5.7-.2.5-.7-.1-.6-3.5.9-4.4,5-5.2,8.1-1.9,7.5-3,15.2-5.4,22.6-7.8,23.6-26.7,40-49.6,48.5-4.5,1.7-9,3-13.6,4.3s-11.9,3.9-17.5,2.2-7.3-8.2,0-10.2c4.8-1.3,10.5.4,15.5-.3,15.7-2.2,31.9-10.2,42.9-21.6a75.9,75.9,0,0,0,17.8-28.6,94.4,94.4,0,0,0,3.5-15.2c1-6.6,2.2-13.1,11.3-9.2C154,125,155,124.5,154.6,124.3Z" transform="translate(-37.2 -36.5)"/></g><g id="_Group_6" data-name="&lt;Group&gt;"><path d="M146.2,130.8h.1c.8.1,1.3,1.1,1.2,2.1s-.8,1.8-1.5,1.8h-.1c-.8-.1-1.3-1.1-1.2-2.1s.8-1.8,1.5-1.8m0-.4h0a2.2,2.2,0,0,0-1.9,2.1,2.8,2.8,0,0,0,.3,1.7,1.6,1.6,0,0,0,1.2.9h.2a2.2,2.2,0,0,0,1.9-2.1c.2-1.3-.5-2.5-1.5-2.6Z" transform="translate(-37.2 -36.5)"/></g><g id="_Group_7" data-name="&lt;Group&gt;"><path class="cls-2" d="M145.6,134.1a7.8,7.8,0,0,1-2.5-.5c-1.6-.6-1.7-1.3-1.7-1.3l.5-2.3c0-.1.1-.5.9-.5h.4a9.4,9.4,0,0,1,3.5,2h0a2,2,0,0,1,.4,1.5,1.2,1.2,0,0,1-1.2,1.1Z" transform="translate(-37.2 -36.5)"/><path d="M142.7,129.6h.4a9.1,9.1,0,0,1,3.4,2,1.8,1.8,0,0,1,.3,1.4c-.2.8-.7.9-1,.9h-.2a7.6,7.6,0,0,1-2.4-.5c-1.2-.4-1.5-1-1.6-1.1l.5-2.3s.1-.4.7-.4m0-.4c-1,0-1.1.7-1.1.7l-.5,2.4s.1.8,1.9,1.5a8,8,0,0,0,2.6.5h.2a1.4,1.4,0,0,0,1.4-1.3,2.2,2.2,0,0,0-.4-1.7,9.4,9.4,0,0,0-3.6-2.1Z" transform="translate(-37.2 -36.5)"/></g><path id="_Path_6" data-name="&lt;Path&gt;" class="cls-8" d="M143.3,129.8a14.7,14.7,0,0,1,3.5,1.8" transform="translate(-37.2 -36.5)"/><path id="_Path_7" data-name="&lt;Path&gt;" class="cls-8" d="M143.9,130.6a18.4,18.4,0,0,1,3.1,1.7" transform="translate(-37.2 -36.5)"/><path id="_Path_8" data-name="&lt;Path&gt;" class="cls-8" d="M147,132.7l-2.5-1.3" transform="translate(-37.2 -36.5)"/><path id="_Path_9" data-name="&lt;Path&gt;" class="cls-8" d="M143.2,131.5a12.6,12.6,0,0,0,3.9,1.6" transform="translate(-37.2 -36.5)"/><path id="_Path_10" data-name="&lt;Path&gt;" class="cls-8" d="M143.1,132.7a9.8,9.8,0,0,0,3.8.8" transform="translate(-37.2 -36.5)"/><path id="_Path_11" data-name="&lt;Path&gt;" class="cls-8" d="M142.3,133.1a8.1,8.1,0,0,0,4.4.8" transform="translate(-37.2 -36.5)"/><g id="_Group_8" data-name="&lt;Group&gt;"><path d="M144.5,140.4h.2c.8.1,1.3,1.1,1.1,2.2s-.8,1.7-1.5,1.7H144c-.8-.1-1.3-1.1-1.1-2.2s.8-1.7,1.5-1.7m0-.4h0a2.2,2.2,0,0,0-1.9,2.1c-.2,1.3.4,2.5,1.4,2.6h.2a2.2,2.2,0,0,0,1.9-2.1,2.8,2.8,0,0,0-.2-1.7,1.6,1.6,0,0,0-1.2-.9Z" transform="translate(-37.2 -36.5)"/></g><g id="_Group_9" data-name="&lt;Group&gt;"><path class="cls-2" d="M144,143.7a7.3,7.3,0,0,1-2.6-.6c-1.6-.6-1.7-1.4-1.7-1.4l.6-2.3c0-.1.1-.5.8-.5h.4a9.2,9.2,0,0,1,3.4,2.2h0a2,2,0,0,1,.3,1.5,1.2,1.2,0,0,1-1.2,1.1Z" transform="translate(-37.2 -36.5)"/><path d="M141.1,139.1h.4a9.1,9.1,0,0,1,3.3,2.1,1.8,1.8,0,0,1,.3,1.4,1,1,0,0,1-1,.9h-.1a7.2,7.2,0,0,1-2.5-.6c-1.2-.5-1.5-1-1.6-1.2l.6-2.3s.1-.3.6-.3m0-.4c-.9,0-1,.7-1,.7l-.6,2.4s.1.8,1.8,1.5a7.6,7.6,0,0,0,2.6.6h.2a1.4,1.4,0,0,0,1.4-1.2,2.2,2.2,0,0,0-.3-1.7,9.4,9.4,0,0,0-3.5-2.2Z" transform="translate(-37.2 -36.5)"/></g><path id="_Path_12" data-name="&lt;Path&gt;" class="cls-8" d="M141.6,139.3a14.7,14.7,0,0,1,3.5,2" transform="translate(-37.2 -36.5)"/><path id="_Path_13" data-name="&lt;Path&gt;" class="cls-8" d="M142.2,140.1a18.4,18.4,0,0,1,3.1,1.8" transform="translate(-37.2 -36.5)"/><path id="_Path_14" data-name="&lt;Path&gt;" class="cls-8" d="M145.3,142.4l-2.4-1.3" transform="translate(-37.2 -36.5)"/><path id="_Path_15" data-name="&lt;Path&gt;" class="cls-8" d="M141.5,141a12.6,12.6,0,0,0,3.8,1.8" transform="translate(-37.2 -36.5)"/><path id="_Path_16" data-name="&lt;Path&gt;" class="cls-8" d="M141.4,142.2a9.8,9.8,0,0,0,3.7.9" transform="translate(-37.2 -36.5)"/><path id="_Path_17" data-name="&lt;Path&gt;" class="cls-8" d="M140.5,142.6a8.1,8.1,0,0,0,4.3,1" transform="translate(-37.2 -36.5)"/><g id="_Group_10" data-name="&lt;Group&gt;"><path d="M141.4,150h.3c.8.2,1.1,1.2.8,2.3a1.9,1.9,0,0,1-1.6,1.6h-.3c-.8-.2-1.1-1.2-.8-2.3a1.9,1.9,0,0,1,1.6-1.6m0-.4a2.3,2.3,0,0,0-2,1.9c-.4,1.3.1,2.5,1.1,2.8h.4a2.3,2.3,0,0,0,2-1.9c.4-1.3-.1-2.5-1.1-2.8Z" transform="translate(-37.2 -36.5)"/></g><g id="_Group_11" data-name="&lt;Group&gt;"><path class="cls-2" d="M140.8,153.3h-.2a7,7,0,0,1-2.6-.9c-1.5-.8-1.5-1.5-1.5-1.6l.8-2.2a.7.7,0,0,1,.7-.4h.6a9.2,9.2,0,0,1,3.2,2.5h0a2,2,0,0,1,.1,1.6,1.2,1.2,0,0,1-1.2.9Z" transform="translate(-37.2 -36.5)"/><path d="M138.1,148.3h.5a9.1,9.1,0,0,1,3.1,2.4,1.8,1.8,0,0,1,.1,1.4,1,1,0,0,1-1,.8h-.2a6.9,6.9,0,0,1-2.4-.9c-1.2-.6-1.4-1.2-1.4-1.3l.8-2.2s.1-.3.5-.3m0-.4a.9.9,0,0,0-.9.5l-.8,2.3s0,.8,1.6,1.7a7,7,0,0,0,2.6.9h.2a1.4,1.4,0,0,0,1.3-1.1,2.2,2.2,0,0,0-.1-1.8,9.4,9.4,0,0,0-3.3-2.6Z" transform="translate(-37.2 -36.5)"/></g><path id="_Path_18" data-name="&lt;Path&gt;" class="cls-8" d="M138.8,148.6a14.7,14.7,0,0,1,3.2,2.3" transform="translate(-37.2 -36.5)"/><path id="_Path_19" data-name="&lt;Path&gt;" class="cls-8" d="M139.3,149.4a18.4,18.4,0,0,1,2.8,2.1" transform="translate(-37.2 -36.5)"/><path id="_Path_20" data-name="&lt;Path&gt;" class="cls-8" d="M142.1,152l-2.3-1.6" transform="translate(-37.2 -36.5)"/><path id="_Path_21" data-name="&lt;Path&gt;" class="cls-8" d="M138.4,150.3a12.6,12.6,0,0,0,3.6,2.2" transform="translate(-37.2 -36.5)"/><path id="_Path_22" data-name="&lt;Path&gt;" class="cls-8" d="M138.2,151.4a9.8,9.8,0,0,0,3.6,1.3" transform="translate(-37.2 -36.5)"/><path id="_Path_23" data-name="&lt;Path&gt;" class="cls-8" d="M137.3,151.7a8.1,8.1,0,0,0,4.2,1.4" transform="translate(-37.2 -36.5)"/><g id="_Group_12" data-name="&lt;Group&gt;"><path d="M138.3,159.2h.4a1.8,1.8,0,0,1,.6,2.4,2,2,0,0,1-1.7,1.4h-.4a1.8,1.8,0,0,1-.6-2.4,2,2,0,0,1,1.7-1.4m0-.4h0a2.4,2.4,0,0,0-2,1.7c-.5,1.2-.1,2.5.8,2.9h.5a2.4,2.4,0,0,0,2-1.7c.5-1.2.1-2.5-.8-2.9Z" transform="translate(-37.2 -36.5)"/></g><g id="_Group_13" data-name="&lt;Group&gt;"><path class="cls-2" d="M137.6,162.5h-.3a7,7,0,0,1-2.5-1.1c-1.4-.9-1.4-1.7-1.4-1.7l1-2.2a.7.7,0,0,1,.6-.4l.7.2a9.2,9.2,0,0,1,2.9,2.8h0a2,2,0,0,1,0,1.6,1.2,1.2,0,0,1-1.1.8Z" transform="translate(-37.2 -36.5)"/><path d="M135.1,157.3l.6.2a9.1,9.1,0,0,1,2.8,2.7,1.8,1.8,0,0,1,0,1.4,1,1,0,0,1-.9.7h-.3a6.9,6.9,0,0,1-2.4-1.1c-1.1-.7-1.3-1.3-1.3-1.5l1-2.2a.5.5,0,0,1,.5-.2m0-.4a.9.9,0,0,0-.8.5l-1.1,2.2s-.1.8,1.5,1.9a7.1,7.1,0,0,0,2.5,1.2h.4a1.4,1.4,0,0,0,1.3-.9,2.2,2.2,0,0,0,0-1.8,9.4,9.4,0,0,0-3-2.9l-.8-.2Z" transform="translate(-37.2 -36.5)"/></g><path id="_Path_24" data-name="&lt;Path&gt;" class="cls-8" d="M135.9,157.6a14.7,14.7,0,0,1,3,2.6" transform="translate(-37.2 -36.5)"/><path id="_Path_25" data-name="&lt;Path&gt;" class="cls-8" d="M136.3,158.5a18.4,18.4,0,0,1,2.6,2.4" transform="translate(-37.2 -36.5)"/><path id="_Path_26" data-name="&lt;Path&gt;" class="cls-8" d="M138.8,161.4l-2.1-1.8" transform="translate(-37.2 -36.5)"/><path id="_Path_27" data-name="&lt;Path&gt;" class="cls-8" d="M135.4,159.3a12.6,12.6,0,0,0,3.4,2.5" transform="translate(-37.2 -36.5)"/><path id="_Path_28" data-name="&lt;Path&gt;" class="cls-8" d="M135.1,160.4a9.8,9.8,0,0,0,3.5,1.7" transform="translate(-37.2 -36.5)"/><path id="_Path_29" data-name="&lt;Path&gt;" class="cls-8" d="M134.1,160.6a8.1,8.1,0,0,0,4,1.8" transform="translate(-37.2 -36.5)"/><g id="_Group_14" data-name="&lt;Group&gt;"><path d="M132.9,168.3h.5a1.8,1.8,0,0,1,.3,2.4,2.1,2.1,0,0,1-1.7,1.2h-.5a1.8,1.8,0,0,1-.3-2.4,2.1,2.1,0,0,1,1.7-1.2m0-.4h0a2.5,2.5,0,0,0-2,1.4c-.6,1.2-.4,2.5.4,2.9l.7.2a2.5,2.5,0,0,0,2-1.4c.6-1.2.4-2.5-.4-2.9l-.7-.2Z" transform="translate(-37.2 -36.5)"/></g><g id="_Group_15" data-name="&lt;Group&gt;"><path class="cls-2" d="M132.1,171.5h-.5a7,7,0,0,1-2.3-1.5c-1.3-1.1-1.2-1.9-1.1-1.9l1.3-2a.6.6,0,0,1,.6-.3l.8.3a9.2,9.2,0,0,1,2.5,3.2h0a2,2,0,0,1-.2,1.6,1.2,1.2,0,0,1-1.1.7Z" transform="translate(-37.2 -36.5)"/><path d="M130.1,166l.7.2a9.1,9.1,0,0,1,2.4,3.1,1.8,1.8,0,0,1-.2,1.4,1.1,1.1,0,0,1-.9.6h-.4a6.9,6.9,0,0,1-2.2-1.4c-1-.9-1.1-1.5-1.1-1.6l1.3-2a.5.5,0,0,1,.4-.2m0-.4a.8.8,0,0,0-.7.4L128,168s-.2.8,1.2,2a7.1,7.1,0,0,0,2.3,1.5h.5a1.4,1.4,0,0,0,1.2-.8,2.2,2.2,0,0,0,.2-1.7,9.4,9.4,0,0,0-2.6-3.3,1.8,1.8,0,0,0-.9-.3Z" transform="translate(-37.2 -36.5)"/></g><path id="_Path_30" data-name="&lt;Path&gt;" class="cls-8" d="M130.9,166.4a14.7,14.7,0,0,1,2.6,3" transform="translate(-37.2 -36.5)"/><path id="_Path_31" data-name="&lt;Path&gt;" class="cls-8" d="M131.2,167.4a18.4,18.4,0,0,1,2.3,2.7" transform="translate(-37.2 -36.5)"/><path id="_Path_32" data-name="&lt;Path&gt;" class="cls-8" d="M133.3,170.5l-1.8-2.1" transform="translate(-37.2 -36.5)"/><path id="_Path_33" data-name="&lt;Path&gt;" class="cls-8" d="M130.2,168a12.6,12.6,0,0,0,3,2.9" transform="translate(-37.2 -36.5)"/><path id="_Path_34" data-name="&lt;Path&gt;" class="cls-8" d="M129.7,169.1a9.8,9.8,0,0,0,3.2,2.1" transform="translate(-37.2 -36.5)"/><path id="_Path_35" data-name="&lt;Path&gt;" class="cls-8" d="M128.8,169.1a8.1,8.1,0,0,0,3.8,2.3" transform="translate(-37.2 -36.5)"/><g id="_Group_16" data-name="&lt;Group&gt;"><path d="M126.6,176.3l.6.2a1.8,1.8,0,0,1,0,2.4,2.2,2.2,0,0,1-1.7,1l-.6-.2a1.8,1.8,0,0,1,0-2.4,2.2,2.2,0,0,1,1.7-1m0-.4h0a2.5,2.5,0,0,0-2,1.2,2.8,2.8,0,0,0-.5,1.6,1.6,1.6,0,0,0,.7,1.4l.8.3a2.5,2.5,0,0,0,2-1.2c.8-1.1.7-2.4-.1-3l-.8-.3Z" transform="translate(-37.2 -36.5)"/></g><g id="_Group_17" data-name="&lt;Group&gt;"><path class="cls-2" d="M125.7,179.4h-.6a7.1,7.1,0,0,1-2.1-1.7c-1.2-1.2-1-2-.9-2l1.5-1.8a.6.6,0,0,1,.5-.2,1.5,1.5,0,0,1,.8.4,9.2,9.2,0,0,1,2.2,3.4h0a2,2,0,0,1-.4,1.5,1.3,1.3,0,0,1-1,.6Z" transform="translate(-37.2 -36.5)"/><path d="M124.1,173.7l.7.3a9.1,9.1,0,0,1,2.1,3.3,1.8,1.8,0,0,1-.4,1.4,1.1,1.1,0,0,1-.9.5h-.5a6.9,6.9,0,0,1-2-1.6c-.9-1-.9-1.6-.9-1.7l1.5-1.9h.3m0-.4a.8.8,0,0,0-.6.3l-1.5,1.9s-.3.8,1,2.2a7,7,0,0,0,2.2,1.7,1.3,1.3,0,0,0,.7.2,1.5,1.5,0,0,0,1.2-.6,2.2,2.2,0,0,0,.4-1.7,9.4,9.4,0,0,0-2.2-3.5,1.6,1.6,0,0,0-1-.4Z" transform="translate(-37.2 -36.5)"/></g><path id="_Path_36" data-name="&lt;Path&gt;" class="cls-8" d="M124.9,174.2a14.7,14.7,0,0,1,2.3,3.3" transform="translate(-37.2 -36.5)"/><path id="_Path_37" data-name="&lt;Path&gt;" class="cls-8" d="M125.1,175.2a18.4,18.4,0,0,1,2,2.9" transform="translate(-37.2 -36.5)"/><path id="_Path_38" data-name="&lt;Path&gt;" class="cls-8" d="M126.9,178.6l-1.6-2.3" transform="translate(-37.2 -36.5)"/><path id="_Path_39" data-name="&lt;Path&gt;" class="cls-8" d="M124,175.7a12.6,12.6,0,0,0,2.7,3.2" transform="translate(-37.2 -36.5)"/><path id="_Path_40" data-name="&lt;Path&gt;" class="cls-8" d="M123.5,176.7a9.8,9.8,0,0,0,3,2.5" transform="translate(-37.2 -36.5)"/><path id="_Path_41" data-name="&lt;Path&gt;" class="cls-8" d="M122.5,176.7a8.1,8.1,0,0,0,3.5,2.7" transform="translate(-37.2 -36.5)"/><g id="_Group_18" data-name="&lt;Group&gt;"><path d="M119,183.5a1.2,1.2,0,0,1,1,.4,1.8,1.8,0,0,1-.7,2.3,2.4,2.4,0,0,1-1.4.5,1.2,1.2,0,0,1-1-.4,1.8,1.8,0,0,1,.7-2.3,2.4,2.4,0,0,1,1.4-.5m0-.4a2.8,2.8,0,0,0-1.7.6,2.8,2.8,0,0,0-1,1.4,1.5,1.5,0,0,0,1.5,2.1,2.8,2.8,0,0,0,1.7-.6,2.8,2.8,0,0,0,1-1.4,1.5,1.5,0,0,0-1.5-2.1Z" transform="translate(-37.2 -36.5)"/></g><g id="_Group_19" data-name="&lt;Group&gt;"><path class="cls-2" d="M118.1,186.3a1.1,1.1,0,0,1-.8-.4,7,7,0,0,1-1.5-2.3c-.7-1.5-.3-2.2-.3-2.2l2-1.3h.3a1.2,1.2,0,0,1,.9.6,9.2,9.2,0,0,1,1,3.9h0a2,2,0,0,1-.8,1.3l-.8.3Z" transform="translate(-37.2 -36.5)"/><path d="M117.8,180.3c.2,0,.5.2.8.6a9.1,9.1,0,0,1,1,3.8,1.8,1.8,0,0,1-.8,1.2l-.7.2a.9.9,0,0,1-.7-.3h0a6.9,6.9,0,0,1-1.4-2.2,2.5,2.5,0,0,1-.3-1.9l2-1.3h.2m0-.4h-.4l-2.1,1.3s-.5.7.3,2.4a7.1,7.1,0,0,0,1.5,2.3,1.3,1.3,0,0,0,1,.4,1.6,1.6,0,0,0,.9-.3,2.2,2.2,0,0,0,.9-1.5,9.4,9.4,0,0,0-1.1-4,1.3,1.3,0,0,0-1.1-.7Z" transform="translate(-37.2 -36.5)"/></g><path id="_Path_42" data-name="&lt;Path&gt;" class="cls-8" d="M118.6,181.1a14.7,14.7,0,0,1,1.2,3.8" transform="translate(-37.2 -36.5)"/><path id="_Path_43" data-name="&lt;Path&gt;" class="cls-8" d="M118.5,182a18.4,18.4,0,0,1,1,3.4" transform="translate(-37.2 -36.5)"/><path id="_Path_44" data-name="&lt;Path&gt;" class="cls-8" d="M119.1,185.8l-.8-2.6" transform="translate(-37.2 -36.5)"/><path id="_Path_45" data-name="&lt;Path&gt;" class="cls-8" d="M117.3,182.2a12.6,12.6,0,0,0,1.6,3.9" transform="translate(-37.2 -36.5)"/><path id="_Path_46" data-name="&lt;Path&gt;" class="cls-8" d="M116.4,183a9.8,9.8,0,0,0,2.1,3.3" transform="translate(-37.2 -36.5)"/><path id="_Path_47" data-name="&lt;Path&gt;" class="cls-8" d="M115.5,182.7a8.1,8.1,0,0,0,2.5,3.7" transform="translate(-37.2 -36.5)"/><g id="_Group_20" data-name="&lt;Group&gt;"><path d="M112,189a1.2,1.2,0,0,1,1,.4,1.8,1.8,0,0,1-.7,2.3,2.4,2.4,0,0,1-1.4.5,1.2,1.2,0,0,1-1-.4,1.8,1.8,0,0,1,.7-2.3,2.4,2.4,0,0,1,1.4-.5m0-.4h0a2.8,2.8,0,0,0-1.7.6c-1.1.8-1.4,2.1-.8,2.9a1.6,1.6,0,0,0,1.3.6,2.8,2.8,0,0,0,1.7-.6c1.1-.8,1.4-2.1.8-2.9a1.6,1.6,0,0,0-1.3-.6Z" transform="translate(-37.2 -36.5)"/></g><g id="_Group_21" data-name="&lt;Group&gt;"><path class="cls-2" d="M111.1,191.8a1.1,1.1,0,0,1-.8-.4,7,7,0,0,1-1.5-2.3c-.7-1.5-.3-2.2-.3-2.2l2-1.3h.3a1.2,1.2,0,0,1,.9.6,9.2,9.2,0,0,1,1,3.9h0a2,2,0,0,1-.8,1.3l-.8.3Z" transform="translate(-37.2 -36.5)"/><path d="M110.8,185.8c.2,0,.5.2.8.6a9.1,9.1,0,0,1,1,3.8,1.8,1.8,0,0,1-.8,1.2l-.7.2a.9.9,0,0,1-.7-.3h0a6.9,6.9,0,0,1-1.4-2.2,2.5,2.5,0,0,1-.3-1.9l2-1.3h.2m0-.4h-.4l-2.1,1.3s-.5.7.3,2.4a7,7,0,0,0,1.5,2.3,1.3,1.3,0,0,0,1,.4,1.6,1.6,0,0,0,.9-.3,2.2,2.2,0,0,0,.9-1.5,9.4,9.4,0,0,0-1.1-4,1.3,1.3,0,0,0-1.1-.7Z" transform="translate(-37.2 -36.5)"/></g><path id="_Path_48" data-name="&lt;Path&gt;" class="cls-8" d="M111.6,186.6a14.7,14.7,0,0,1,1.2,3.8" transform="translate(-37.2 -36.5)"/><path id="_Path_49" data-name="&lt;Path&gt;" class="cls-8" d="M111.5,187.5a18.4,18.4,0,0,1,1,3.4" transform="translate(-37.2 -36.5)"/><path id="_Path_50" data-name="&lt;Path&gt;" class="cls-8" d="M112.2,191.3l-.8-2.6" transform="translate(-37.2 -36.5)"/><path id="_Path_51" data-name="&lt;Path&gt;" class="cls-8" d="M110.3,187.7a12.6,12.6,0,0,0,1.6,3.9" transform="translate(-37.2 -36.5)"/><path id="_Path_52" data-name="&lt;Path&gt;" class="cls-8" d="M109.5,188.5a9.8,9.8,0,0,0,2.1,3.3" transform="translate(-37.2 -36.5)"/><path id="_Path_53" data-name="&lt;Path&gt;" class="cls-8" d="M108.5,188.2a8.1,8.1,0,0,0,2.5,3.7" transform="translate(-37.2 -36.5)"/><g id="_Group_22" data-name="&lt;Group&gt;"><path d="M103.5,193.6a1.3,1.3,0,0,1,1.2.6c.4.7,0,1.7-1,2.2a2.5,2.5,0,0,1-1.3.4,1.3,1.3,0,0,1-1.2-.6c-.4-.7,0-1.7,1-2.2a2.5,2.5,0,0,1,1.3-.4m0-.4h0a2.9,2.9,0,0,0-1.5.4c-1.1.7-1.6,1.9-1.1,2.8a1.7,1.7,0,0,0,1.5.7,2.9,2.9,0,0,0,1.5-.4c1.1-.7,1.6-1.9,1.1-2.8a1.7,1.7,0,0,0-1.5-.7Z" transform="translate(-37.2 -36.5)"/></g><g id="_Group_23" data-name="&lt;Group&gt;"><path class="cls-2" d="M102.6,196.3a1.1,1.1,0,0,1-.9-.5,7,7,0,0,1-1.2-2.4c-.5-1.6-.1-2.2,0-2.2l2.1-1.1h.3c.3,0,.6.3.9.7a9.2,9.2,0,0,1,.6,4h0a2,2,0,0,1-1,1.2l-.7.2Z" transform="translate(-37.2 -36.5)"/><path d="M102.8,190.3c.3,0,.6.3.7.6a9.1,9.1,0,0,1,.5,3.9,1.8,1.8,0,0,1-.9,1.1l-.6.2a.9.9,0,0,1-.7-.4h0a6.9,6.9,0,0,1-1.2-2.3,2.5,2.5,0,0,1-.1-2l2.1-1.1h.2m0-.4h-.4l-2.2,1.1s-.6.6,0,2.4a7.1,7.1,0,0,0,1.3,2.5,1.3,1.3,0,0,0,1.1.5l.8-.2a2.2,2.2,0,0,0,1.1-1.4,9.4,9.4,0,0,0-.6-4.1c-.4-.7-.8-.8-1.1-.8Z" transform="translate(-37.2 -36.5)"/></g><path id="_Path_54" data-name="&lt;Path&gt;" class="cls-8" d="M103.5,191.2a14.7,14.7,0,0,1,.7,3.9" transform="translate(-37.2 -36.5)"/><path id="_Path_55" data-name="&lt;Path&gt;" class="cls-8" d="M103.3,192.1a18.4,18.4,0,0,1,.6,3.5" transform="translate(-37.2 -36.5)"/><path id="_Path_56" data-name="&lt;Path&gt;" class="cls-8" d="M103.6,195.9c-.1-.5-.3-1.6-.5-2.7" transform="translate(-37.2 -36.5)"/><path id="_Path_57" data-name="&lt;Path&gt;" class="cls-8" d="M102.1,192.1a12.6,12.6,0,0,0,1.1,4" transform="translate(-37.2 -36.5)"/><path id="_Path_58" data-name="&lt;Path&gt;" class="cls-8" d="M101.2,192.8a9.8,9.8,0,0,0,1.7,3.5" transform="translate(-37.2 -36.5)"/><path id="_Path_59" data-name="&lt;Path&gt;" class="cls-8" d="M100.3,192.4a8.1,8.1,0,0,0,2.1,3.9" transform="translate(-37.2 -36.5)"/><g id="_Group_24" data-name="&lt;Group&gt;"><path d="M94.2,197.8a1.4,1.4,0,0,1,1.3.7c.3.7-.2,1.7-1.2,2.1l-1.1.3a1.4,1.4,0,0,1-1.3-.7c-.3-.7.2-1.7,1.2-2.1l1.1-.3m0-.4h0a3,3,0,0,0-1.3.3,2.8,2.8,0,0,0-1.3,1.1,1.6,1.6,0,0,0-.1,1.5,1.7,1.7,0,0,0,1.6.9l1.3-.3c1.2-.6,1.8-1.7,1.4-2.6a1.7,1.7,0,0,0-1.6-.9Z" transform="translate(-37.2 -36.5)"/></g><g id="_Group_25" data-name="&lt;Group&gt;"><path class="cls-2" d="M93.3,200.4a1.1,1.1,0,0,1-1-.5,7,7,0,0,1-1-2.5c-.4-1.7.1-2.2.2-2.2l2.2-.9h.2c.4,0,.7.3.9.8a9.4,9.4,0,0,1,.2,4.1h0a2,2,0,0,1-1.1,1.1Z" transform="translate(-37.2 -36.5)"/><path d="M93.9,194.5c.3,0,.5.3.7.7a9.1,9.1,0,0,1,.2,3.9,1.8,1.8,0,0,1-1,1h-.5a.9.9,0,0,1-.8-.4h0a6.9,6.9,0,0,1-1-2.4,2.5,2.5,0,0,1,.1-2l2.2-.9h.1m0-.4h-.3l-2.3.9s-.6.6-.2,2.4a7.1,7.1,0,0,0,1,2.6,1.3,1.3,0,0,0,1.1.6H94a2.2,2.2,0,0,0,1.2-1.3A9.4,9.4,0,0,0,95,195c-.3-.8-.8-.9-1.1-.9Z" transform="translate(-37.2 -36.5)"/></g><path id="_Path_60" data-name="&lt;Path&gt;" class="cls-8" d="M94.6,195.4a14.7,14.7,0,0,1,.4,4" transform="translate(-37.2 -36.5)"/><path id="_Path_61" data-name="&lt;Path&gt;" class="cls-8" d="M94.3,196.3a18.4,18.4,0,0,1,.3,3.5" transform="translate(-37.2 -36.5)"/><path id="_Path_62" data-name="&lt;Path&gt;" class="cls-8" d="M94.2,200.2c0-.5-.1-1.6-.3-2.8" transform="translate(-37.2 -36.5)"/><path id="_Path_63" data-name="&lt;Path&gt;" class="cls-8" d="M93.1,196.2a12.6,12.6,0,0,0,.7,4.1" transform="translate(-37.2 -36.5)"/><path id="_Path_64" data-name="&lt;Path&gt;" class="cls-8" d="M92.1,196.8a9.8,9.8,0,0,0,1.4,3.6" transform="translate(-37.2 -36.5)"/><path id="_Path_65" data-name="&lt;Path&gt;" class="cls-8" d="M91.3,196.3a8.1,8.1,0,0,0,1.7,4.1" transform="translate(-37.2 -36.5)"/><g id="_Group_26" data-name="&lt;Group&gt;"><path d="M85.1,200.5a1.5,1.5,0,0,1,1.5.8c.3.7-.4,1.6-1.4,2l-.9.2a1.5,1.5,0,0,1-1.5-.8c-.3-.7.4-1.6,1.4-2l.9-.2m0-.4h0l-1,.2c-1.3.4-2,1.5-1.6,2.5a1.8,1.8,0,0,0,1.8,1.1l1-.2c1.3-.4,2-1.5,1.6-2.5a1.8,1.8,0,0,0-1.8-1.1Z" transform="translate(-37.2 -36.5)"/></g><g id="_Group_27" data-name="&lt;Group&gt;"><path class="cls-2" d="M84.3,203a1.1,1.1,0,0,1-1-.7,7,7,0,0,1-.7-2.6c-.2-1.7.4-2.1.4-2.1l2.3-.6h.1c.4,0,.7.3.9.9A9.2,9.2,0,0,1,86,202h0a2,2,0,0,1-1.2,1Z" transform="translate(-37.2 -36.5)"/><path d="M85.4,197.2c.3,0,.5.3.7.8a9.1,9.1,0,0,1-.2,3.9,1.8,1.8,0,0,1-1.1.9h-.4a.9.9,0,0,1-.9-.5h0a6.9,6.9,0,0,1-.7-2.5,2.5,2.5,0,0,1,.3-1.9l2.3-.6h.1m0-.4h-.2l-2.4.6s-.7.5-.5,2.3a7,7,0,0,0,.7,2.7,1.3,1.3,0,0,0,1.2.8h.5a2.2,2.2,0,0,0,1.4-1.1,9.4,9.4,0,0,0,.3-4.2c-.3-.9-.8-1.1-1.1-1.1Z" transform="translate(-37.2 -36.5)"/></g><path id="_Path_66" data-name="&lt;Path&gt;" class="cls-8" d="M86,198.2a14.7,14.7,0,0,1-.1,4" transform="translate(-37.2 -36.5)"/><path id="_Path_67" data-name="&lt;Path&gt;" class="cls-8" d="M85.6,199.1a18.4,18.4,0,0,1-.1,3.5" transform="translate(-37.2 -36.5)"/><path id="_Path_68" data-name="&lt;Path&gt;" class="cls-8" d="M85.1,202.9c0-.5,0-1.6,0-2.8" transform="translate(-37.2 -36.5)"/><path id="_Path_69" data-name="&lt;Path&gt;" class="cls-8" d="M84.4,198.9a12.6,12.6,0,0,0,.3,4.2" transform="translate(-37.2 -36.5)"/><path id="_Path_70" data-name="&lt;Path&gt;" class="cls-8" d="M83.4,199.4a9.8,9.8,0,0,0,1,3.7" transform="translate(-37.2 -36.5)"/><path id="_Path_71" data-name="&lt;Path&gt;" class="cls-8" d="M82.6,198.7a8.1,8.1,0,0,0,1.2,4.3" transform="translate(-37.2 -36.5)"/><g id="_Group_28" data-name="&lt;Group&gt;"><path d="M72.2,202.1c1,0,1.8.5,1.9,1.3s-.8,1.5-1.9,1.6H72c-1,0-1.8-.5-1.9-1.3s.8-1.5,1.9-1.6h.2m0-.4h-.2c-1.3.1-2.3,1-2.2,2a2.1,2.1,0,0,0,2.3,1.6h.2c1.3-.1,2.3-1,2.2-2a2.1,2.1,0,0,0-2.3-1.6Z" transform="translate(-37.2 -36.5)"/></g><g id="_Group_29" data-name="&lt;Group&gt;"><path class="cls-2" d="M72,204.5a1.2,1.2,0,0,1-1.3-1,7,7,0,0,1,0-2.7c.2-1.7.9-2,.9-2H74c.1,0,.7.1.7,1.1a9.2,9.2,0,0,1-1.3,3.9h0a2,2,0,0,1-1.4.6Z" transform="translate(-37.2 -36.5)"/><path d="M71.6,199H74c.1,0,.5,0,.5.9a9.1,9.1,0,0,1-1.2,3.7,1.8,1.8,0,0,1-1.3.6c-.9,0-1.1-.7-1.1-.8h0a6.9,6.9,0,0,1,0-2.6c.2-1.3.6-1.7.8-1.8m-.1-.4s-.8.3-1.1,2.1a7.1,7.1,0,0,0,0,2.8,1.4,1.4,0,0,0,1.5,1.1h0a2.2,2.2,0,0,0,1.6-.7,9.4,9.4,0,0,0,1.3-4c0-1.3-.8-1.3-.9-1.3H71.5Z" transform="translate(-37.2 -36.5)"/></g><path id="_Path_72" data-name="&lt;Path&gt;" class="cls-8" d="M74.4,200.2a14.7,14.7,0,0,1-1.1,3.8" transform="translate(-37.2 -36.5)"/><path id="_Path_73" data-name="&lt;Path&gt;" class="cls-8" d="M73.8,200.9a18.4,18.4,0,0,1-1,3.4" transform="translate(-37.2 -36.5)"/><path id="_Path_74" data-name="&lt;Path&gt;" class="cls-8" d="M72.3,204.5l.7-2.7" transform="translate(-37.2 -36.5)"/><path id="_Path_75" data-name="&lt;Path&gt;" class="cls-8" d="M72.7,200.4a12.6,12.6,0,0,0-.8,4.1" transform="translate(-37.2 -36.5)"/><path id="_Path_76" data-name="&lt;Path&gt;" class="cls-8" d="M71.6,200.6a9.8,9.8,0,0,0,0,3.9" transform="translate(-37.2 -36.5)"/><path id="_Path_77" data-name="&lt;Path&gt;" class="cls-8" d="M71,199.8a8.1,8.1,0,0,0,.1,4.4" transform="translate(-37.2 -36.5)"/><path id="_Path_78" data-name="&lt;Path&gt;" d="M53.3,218.4c6.5,3.5,13.5,5.6,20.6,7.3s16.7,4.9,24.7,3c5.6-1.4,10-5.4,15.5-7.3,9.8-3.4,21.9-2.5,32.1-1.3a38.7,38.7,0,0,1,16.6,5.9c.6.4,2.9-.6,1.9-1.1-11.9-7.4-26.6-7.5-40.3-6.6a42.7,42.7,0,0,0-19,6c-2.6,1.5-5.1,3-8.1,3.5-4.9.8-10.1-.7-14.8-1.7-9.3-2-18.8-4.2-27.2-8.7-.7-.4-2.9.6-1.9,1.1Z" transform="translate(-37.2 -36.5)"/><g id="_Group_30" data-name="&lt;Group&gt;"><path d="M66.3,212.1a11.5,11.5,0,0,1-8.8-2.4c-2.8-2.5-2.4-5.9-.7-8.9.1-.1-.5-.1-.6.1-1.9,3.4-2,7.2,1.4,9.6a12.3,12.3,0,0,0,8.6,1.9c.2,0,.5-.3.1-.3Z" transform="translate(-37.2 -36.5)"/></g><g id="_Group_31" data-name="&lt;Group&gt;"><path d="M57.8,212.9c-4.7-2.1-6.1-6.6-3.7-11.1.1-.2-.4-.2-.5,0-2.5,4.6-1.1,9.3,3.7,11.5.2.1.7-.2.4-.3Z" transform="translate(-37.2 -36.5)"/></g><g id="_Group_32" data-name="&lt;Group&gt;"><path d="M55.8,214c-4.7-2.1-6.1-6.6-3.7-11.1.1-.2-.4-.2-.5,0-2.5,4.6-1.1,9.3,3.7,11.5.2.1.7-.2.4-.3Z" transform="translate(-37.2 -36.5)"/></g><g id="_Group_33" data-name="&lt;Group&gt;"><path d="M54.4,216.2c-5.1-2.3-6.6-7.2-4-12.1.1-.3-.4-.2-.5,0-2.7,5-1.2,10.1,4.1,12.4.2.1.7-.2.4-.3Z" transform="translate(-37.2 -36.5)"/></g><g id="_Group_34" data-name="&lt;Group&gt;"><path d="M53.3,219.2c-5.8-2.6-7.6-8.3-4.5-13.8,0-.1-.5-.1-.6.1-3,5.6-1.3,11.3,4.6,13.9.2.1.6-.2.5-.2Z" transform="translate(-37.2 -36.5)"/></g><g id="_Group_35" data-name="&lt;Group&gt;"><g id="_Group_36" data-name="&lt;Group&gt;"><path class="cls-2" d="M158.6,321.3c-1.4,2.3-4.6,4.4-3.3,7.9s6.4,7.8,18.5,7.4,47-8.1,76.8-18.6,67.8-24,70.6-25.6-1.9-6.7-10.3-4-21.1,6.2-24.9,5.9a8.3,8.3,0,0,1-6.9-5.6,12.4,12.4,0,0,1,.4-4.7l-13.5,4.8s4.5,4.7,2.7,8.6-13,8.2-29.7,13.4-24.5,8.2-30.1,6.1-2.3-10.9-2.3-10.9l-13,5.7s2.8,3.3,1.8,7.3-9.1,7.9-17,9.3-18.5-.3-13.8-8.4S158.6,321.3,158.6,321.3Z" transform="translate(-37.2 -36.5)"/><path d="M157.2,321.3c-1.8,2.5-4.5,4.9-3.4,8.3a9.5,9.5,0,0,0,3.9,4.5c5.6,3.8,13.3,3.7,19.7,3,18.6-1.9,37.2-7.1,55.1-12.5,20.5-6.1,40.6-13.7,60.7-21l22.4-8.2c1.8-.7,7.6-1.9,7.9-4.5s-3.1-3.4-4.7-3.8c-4.2-1-8.2.6-12.1,1.8a138,138,0,0,1-16.2,4.1c-6.4,1.1-11.3-2.6-9.5-9.3.2-.9-1.7-.5-2-.4l-13.5,4.8c-.3.1-1.2.6-.8,1.1,2,2.1,4,5.6,2.5,8.4s-4.9,3.7-7.1,4.7c-8.5,3.9-17.6,6.5-26.4,9.2-6.2,2-13.3,5.1-19.9,5s-7.3-5.9-5.5-11c.3-.9-1.7-.5-2-.4l-13,5.7c-.4.2-1.2.6-.8,1.1,7.3,9.4-7.8,14.6-14.8,15.5-3.3.4-8.5.8-11.2-1.7s-.3-4.9.5-7.6c1.7-6.1-8.1,1.7-9.4,2.8s1.6,1,2.3.4l3.6-2.9c1.6-1.3,1.3-1.1.4.5a10.7,10.7,0,0,0-1.6,4.1c-.4,5.1,6.2,6.2,10,6.3,8.2.3,32.7-5.9,22.9-18.4l-.8,1.1,13-5.7-2-.4c-6.7,19.5,20.6,9.6,28.7,7,10.3-3.2,21.4-6,30.9-11.3,5.8-3.3,7.6-8.1,2.6-13.5l-.8,1.1,13.5-4.8-2-.4c-1.4,5.4,1.3,10.3,7.2,10.9s13.2-2.2,18.9-3.9c4-1.2,11.6-4.9,15.1-1.5s.3,2.7-1.7,3.5c-5.4,2.1-10.9,4.1-16.3,6C265.9,312,230.5,325.6,193.4,333c-7.3,1.5-15,3.1-22.5,2.7-4.3-.2-9.5-1.2-12.6-4.5s-.9-6.6,1.5-10C160.6,320.3,157.7,320.5,157.2,321.3Z" transform="translate(-37.2 -36.5)"/></g><path id="_Path_79" data-name="&lt;Path&gt;" class="cls-3" d="M320.3,290.7c-2.8,1.5-40.8,15.1-70.6,25.6s-64.6,18.2-76.8,18.6c-10.2.3-15.4-2.7-17.6-5.7h0c1.3,3.4,6.4,7.8,18.5,7.4s47-8.1,76.8-18.6,67.8-24,70.6-25.6c1.2-.6,1-1.9-.1-3A1.4,1.4,0,0,1,320.3,290.7Z" transform="translate(-37.2 -36.5)"/></g><path id="_Path_80" data-name="&lt;Path&gt;" class="cls-5" d="M254.3,209.8c-6.6-13.3-8.7-31-8.7-31h-1.1c1.3,11.7,4.3,33.7,10.8,46.4,7.8,15.4,12.1,11.9,17.9,21.8a20.5,20.5,0,0,1,3,13.9c2.8-1.9,2.8-2.6,2.8-2.6a35,35,0,0,0-1.7-11.8h0C273.6,235.8,260.9,223.1,254.3,209.8Z" transform="translate(-37.2 -36.5)"/><g id="_Group_37" data-name="&lt;Group&gt;"><path class="cls-2" d="M255.3,225.2c-6.4-12.7-9.5-34.7-10.8-46.4-2,0-7,.2-18.5,2-5.7.9-22.2-.3-25,1.7-6.4,4.5-2.9,7.7.5,18.9s5.6,25.3,0,44.6-22.4,34.7-27.8,38.3-13.7,5.6-19.4,14-1.8,15.6-.4,18c8.6,1.6,24.1-1.9,36.9-6.6,25.4-9.4,23.9-15.9,39.8-25.9s21.4-10.5,32.2-15.6a101.5,101.5,0,0,0,13.2-7.3,20.5,20.5,0,0,0-3-13.9C267.4,237.1,263.1,240.6,255.3,225.2Z" transform="translate(-37.2 -36.5)"/><path d="M256.7,224.8c-6.9-14.2-9.1-30.9-10.8-46.4,0-.3-.6-.4-.9-.4a98.5,98.5,0,0,0-13.6,1.3,176.8,176.8,0,0,1-20.3,1.2c-7.9.2-17.6,1.7-14.3,12,2.1,6.6,4.6,12.9,5.8,19.8a72.5,72.5,0,0,1-.5,25.8c-3.2,16.2-11.8,30.2-23.8,41.4-8.7,8.1-22.7,10.6-27.2,22.7-1.3,3.5-1.9,12,1.7,14.6,1.3.9,5.2.5,6.6.5a69.3,69.3,0,0,0,11.3-1.4c14.1-2.7,29.2-7.6,41-16,4.1-2.9,7.6-6.5,11.4-9.7A99.6,99.6,0,0,1,242.3,278c6.3-3.3,13.1-5.6,19.6-8.6,3.7-1.7,7.4-3.5,10.9-5.6,1.7-1,4.2-1.9,4.9-3.8,2.3-6.2-3-14.9-7.3-19-1.8-1.7-3.9-3.1-5.7-4.8-3.4-3.2-5.8-7.3-8-11.4-.5-.9-3.3.1-2.9.8a42.8,42.8,0,0,0,11.1,14.2c5.1,4.2,9.2,9.7,9.9,16.5.5,4.6-1.4,5.6-4.9,7.5s-7.8,4.1-11.9,5.8-10.6,4.2-15.8,6.8A110.5,110.5,0,0,0,224,287.4c-4,3.1-7.6,6.7-11.5,9.9-12.6,10.3-30.7,16.1-46.7,18.1-2.7.3-9,1.6-10.9-.7s-2.1-6.8-1.8-9.3c1.1-9.6,10-14.5,17.7-18.5,9.8-5.1,17.6-14.2,23.7-23.2a73.5,73.5,0,0,0,12-44.8,77.5,77.5,0,0,0-4.1-20.3c-1.7-5-6.9-14.1,1.3-16.2,6.4-1.7,13.8-.2,20.4-.7,3.8-.3,7.6-1.1,11.4-1.5,1.5-.2,6.6-1.5,7.9-.6s.9,7.4,1.1,9c.6,4.2,1.3,8.5,2.1,12.7,1.7,8.3,3.7,16.7,7.5,24.3C254.3,226.5,257.1,225.5,256.7,224.8Z" transform="translate(-37.2 -36.5)"/></g><path id="_Path_81" data-name="&lt;Path&gt;" class="cls-6" d="M197.7,308.9c26.4-11.4,19.2-21.6,58.1-36.4,11.8-4.5,19.5-8.7,24.5-12.4a4.4,4.4,0,0,0-1.4-1.9s-.1,2.2-16,9.9c-10.8,5.2-16.8,5.9-32.2,15.6s-14.4,16.5-39.8,25.9c-12.7,4.7-28.3,8.2-36.9,6.6l.8,1.5h0C158,319,174.4,319,197.7,308.9Z" transform="translate(-37.2 -36.5)"/><g id="_Group_38" data-name="&lt;Group&gt;"><path class="cls-2" d="M172.1,319.6c15.4-3.7,34-9.6,45.7-20.6s19.5-16.1,23.4-18.2a40.7,40.7,0,0,1,6.6-3l6.4,15.8s21.9-6.8,25.8-8.7,6.6-2.5,4.8-7.9-4.6-15-4.4-16.2a1.4,1.4,0,0,0,0-.6c-5,3.7-12.7,7.8-24.5,12.4-38.9,14.8-31.8,25-58.1,36.4-23.3,10.1-39.7,10-42.9,8.9h0C156.4,320.2,159.5,322.6,172.1,319.6Z" transform="translate(-37.2 -36.5)"/><path class="cls-7" d="M172.1,319.9c10.8-2.6,21.6-5.8,31.5-10.9s17.1-12.8,25.7-19.7a94.6,94.6,0,0,1,10-7.1,50.4,50.4,0,0,1,5.7-3c1.5-.7,1.9-1.2,2.4-.7s2.6,6.4,3.3,8.2l2.8,7c.1.2.4.2.6.2,8.4-2.6,17-4.9,25.1-8.3,3.9-1.7,7.3-3.1,6.2-7.9s-4.3-11.5-4.6-17.6c0-.4-.8-.1-.9,0-12.5,9-27.6,12.5-41,19.7-8.4,4.5-15.1,10.3-22.1,16.6-9.9,9-22.2,14.3-35,18.1a87.7,87.7,0,0,1-19.2,3.6,32.8,32.8,0,0,1-5.8,0c-.5-.1-1.6-.5-2.1-.3s-.6.3-.4.5c3.7,5.4,12.7,3,17.8,1.8.7-.2.5-.8-.2-.6-5.6,1.3-10.2,2.1-15.4-.3-.3-.1-.4-.5-.6-.7s-1.4.1-.8,0a14.3,14.3,0,0,1,2.5.3c6.5.4,13.2-.8,19.4-2.4,16-3.9,30.7-10.5,42.8-21.7a92.9,92.9,0,0,1,17.4-13.2c10.3-5.8,21.8-9.2,32.4-14.5l5.3-2.8c.7-.4,4.5-3.4,5-3.2s1.9,8.6,2,9.1l1.9,6.1c1.2,3.9.7,5.9-3.1,8s-5.8,2.4-8.7,3.3l-11.9,3.9-4.4,1.4c-1.1.4-1.8.1-1.1.6-1.5-1.2-2.7-6.5-3.4-8.3l-3-7.4c-.1-.2-.4-.2-.6-.2-10.2,3.4-19.1,11.2-27,18.3s-14.3,11.6-23.2,15.4a159.8,159.8,0,0,1-25.6,8.1C171.3,319.5,171.5,320.1,172.1,319.9Z" transform="translate(-37.2 -36.5)"/></g><g id="_Group_39" data-name="&lt;Group&gt;"><path class="cls-2" d="M205.9,181.4c-2.3.2-4.1.5-4.8,1-6.4,4.5-2.9,7.7.5,18.9s5.6,25.3,0,44.6-22.4,34.7-27.8,38.3c-3.7,2.5-8.9,4.2-13.6,7.9-2,1.7-2.1,4.6-.1,6.8s7.6,3.9,17.7-5.6,26.7-25.8,32.9-49.5C219.3,211.2,199.3,187,205.9,181.4Z" transform="translate(-37.2 -36.5)"/><path d="M206,181.2c-7.5.8-10.3,5-7.8,12.2,3.6,10.2,6.5,20.2,6.3,31.2-.3,22.7-11.7,46.4-30.7,59.5-3.4,2.4-23.3,9.7-12.9,16.3,4.8,3.1,11.1-1.5,14.7-4.4,16.7-13.7,31.2-32.5,36.2-53.8,2.9-12.5,1.8-25.2-1.5-37.5-1.3-4.7-2.9-9.2-4.1-13.9-.7-2.7-2.2-7,.2-9.2.4-.4-.6-.4-.9-.1-2.8,2.7-1,7.7-.1,10.9,2.2,7.8,4.8,15.4,6.1,23.4,3.5,23-4.8,45.2-19.6,62.7-6.1,7.2-13.4,16-21.8,20.6-3.7,2.1-12.4,2.3-10.6-4.9,1.1-4.5,11.8-7.6,15.3-10.1,13.7-9.6,24.4-25.7,28.4-41.8a74.7,74.7,0,0,0,.8-34.2,133.1,133.1,0,0,0-4.7-15.1c-2.1-6-1.3-10.6,6.5-11.3C206.3,181.7,206.7,181.1,206,181.2Z" transform="translate(-37.2 -36.5)"/></g><g id="_Group_40" data-name="&lt;Group&gt;"><path d="M202.4,190.6a2,2,0,0,1,1.7,1.4,1.8,1.8,0,0,1-.6,2.4h-.4a2,2,0,0,1-1.7-1.4,1.8,1.8,0,0,1,.6-2.4h.4m0-.4h-.5c-.9.4-1.3,1.6-.8,2.9a2.4,2.4,0,0,0,2,1.6h.5c.9-.4,1.3-1.6.8-2.9a2.4,2.4,0,0,0-2-1.6Z" transform="translate(-37.2 -36.5)"/></g><g id="_Group_41" data-name="&lt;Group&gt;"><path class="cls-2" d="M199.8,194.8c-1,0-1.3-.4-1.3-.4l-.7-2.3a.6.6,0,0,1,0-.5,1.3,1.3,0,0,1,.8-.6l1.5-.2a11.5,11.5,0,0,1,2.5.3h0a2,2,0,0,1,1,1.2,1.2,1.2,0,0,1-.5,1.5,7,7,0,0,1-2.6.8Z" transform="translate(-37.2 -36.5)"/><path d="M200.1,191.1a11.4,11.4,0,0,1,2.4.3,1.8,1.8,0,0,1,.9,1.1,1,1,0,0,1-.4,1.3h-.1a6.9,6.9,0,0,1-2.5.8h-.8a1.8,1.8,0,0,1-1.1-.3l-.7-2.3c0-.1-.1-.5.7-.8l1.5-.2m0-.4-1.6.2c-1.3.4-1,1.3-1,1.3l.7,2.3s.3.5,1.5.5h.9a7.1,7.1,0,0,0,2.6-.8,1.4,1.4,0,0,0,.6-1.8,2.2,2.2,0,0,0-1.2-1.3,11.6,11.6,0,0,0-2.6-.3Z" transform="translate(-37.2 -36.5)"/></g><path id="_Path_82" data-name="&lt;Path&gt;" class="cls-8" d="M198.9,191.3a14.7,14.7,0,0,1,4-.1" transform="translate(-37.2 -36.5)"/><path id="_Path_83" data-name="&lt;Path&gt;" class="cls-8" d="M199.8,191.6a18.4,18.4,0,0,1,3.5,0" transform="translate(-37.2 -36.5)"/><path id="_Path_84" data-name="&lt;Path&gt;" class="cls-8" d="M203.6,192h-2.8" transform="translate(-37.2 -36.5)"/><path id="_Path_85" data-name="&lt;Path&gt;" class="cls-8" d="M199.6,192.8a12.6,12.6,0,0,0,4.2-.4" transform="translate(-37.2 -36.5)"/><path id="_Path_86" data-name="&lt;Path&gt;" class="cls-8" d="M200.2,193.9a9.8,9.8,0,0,0,3.7-1.1" transform="translate(-37.2 -36.5)"/><path id="_Path_87" data-name="&lt;Path&gt;" class="cls-8" d="M199.6,194.7a8.1,8.1,0,0,0,4.2-1.4" transform="translate(-37.2 -36.5)"/><g id="_Group_42" data-name="&lt;Group&gt;"><path d="M205.6,199.8a2,2,0,0,1,1.6,1.5,1.8,1.8,0,0,1-.7,2.3h-.3a2,2,0,0,1-1.6-1.5,1.8,1.8,0,0,1,.7-2.3h.3m0-.4h-.5a1.6,1.6,0,0,0-1,1.1,2.8,2.8,0,0,0,.1,1.7,2.4,2.4,0,0,0,2,1.7h.5a1.6,1.6,0,0,0,1-1.1,2.8,2.8,0,0,0-.1-1.7,2.4,2.4,0,0,0-2-1.7Z" transform="translate(-37.2 -36.5)"/></g><g id="_Group_43" data-name="&lt;Group&gt;"><path class="cls-2" d="M202.9,203.9c-1.1,0-1.5-.4-1.5-.4l-.6-2.3a.6.6,0,0,1,.1-.5,1.3,1.3,0,0,1,.8-.6l1.3-.2a11.4,11.4,0,0,1,2.8.4h0a2,2,0,0,1,1,1.2,1.2,1.2,0,0,1-.6,1.5,7,7,0,0,1-2.6.7h-.7Z" transform="translate(-37.2 -36.5)"/><path d="M203,200.2a11.3,11.3,0,0,1,2.7.4,1.8,1.8,0,0,1,.9,1.1,1,1,0,0,1-.5,1.3h-.1a6.9,6.9,0,0,1-2.5.7h-.7a2,2,0,0,1-1.3-.3l-.6-2.3a.4.4,0,0,1,0-.3,1.2,1.2,0,0,1,.7-.5H203m0-.4-1.3.2c-1.3.4-1,1.3-1,1.3l.6,2.4s.4.5,1.6.5h.7a7.1,7.1,0,0,0,2.7-.7,1.4,1.4,0,0,0,.7-1.7,2.2,2.2,0,0,0-1.1-1.3,11.5,11.5,0,0,0-2.9-.4Z" transform="translate(-37.2 -36.5)"/></g><path id="_Path_88" data-name="&lt;Path&gt;" class="cls-8" d="M202,200.4a14.7,14.7,0,0,1,4,.1" transform="translate(-37.2 -36.5)"/><path id="_Path_89" data-name="&lt;Path&gt;" class="cls-8" d="M202.9,200.8a18.4,18.4,0,0,1,3.5.1" transform="translate(-37.2 -36.5)"/><path id="_Path_90" data-name="&lt;Path&gt;" class="cls-8" d="M206.7,201.3h-2.8" transform="translate(-37.2 -36.5)"/><path id="_Path_91" data-name="&lt;Path&gt;" class="cls-8" d="M202.7,202a12.6,12.6,0,0,0,4.2-.3" transform="translate(-37.2 -36.5)"/><path id="_Path_92" data-name="&lt;Path&gt;" class="cls-8" d="M203.2,203a9.8,9.8,0,0,0,3.7-1" transform="translate(-37.2 -36.5)"/><path id="_Path_93" data-name="&lt;Path&gt;" class="cls-8" d="M202.6,203.8a8.1,8.1,0,0,0,4.3-1.2" transform="translate(-37.2 -36.5)"/><g id="_Group_44" data-name="&lt;Group&gt;"><path d="M207.4,209.7a1.9,1.9,0,0,1,1.6,1.6c.2,1.1-.2,2.1-.9,2.3h-.2a1.9,1.9,0,0,1-1.6-1.6c-.2-1.1.2-2.1.9-2.3h.2m0-.4h-.3c-1,.2-1.5,1.4-1.2,2.7a2.3,2.3,0,0,0,2,1.9h.3a1.6,1.6,0,0,0,1.1-1,2.8,2.8,0,0,0,.1-1.7,2.3,2.3,0,0,0-2-1.9Z" transform="translate(-37.2 -36.5)"/></g><g id="_Group_45" data-name="&lt;Group&gt;"><path class="cls-2" d="M205.1,213.5c-1.6,0-2-.6-2-.6l-.3-2.4a.6.6,0,0,1,.1-.4,1.3,1.3,0,0,1,.9-.5h.6a10.5,10.5,0,0,1,3.4.7h0a2,2,0,0,1,.9,1.3,1.2,1.2,0,0,1-.7,1.4,7.1,7.1,0,0,1-2.7.4Z" transform="translate(-37.2 -36.5)"/><path d="M204.3,209.8a10.6,10.6,0,0,1,3.3.7,1.8,1.8,0,0,1,.8,1.2,1,1,0,0,1-.6,1.2h-.1a6.9,6.9,0,0,1-2.6.4h-.1a2.5,2.5,0,0,1-1.8-.5l-.4-2.4a.4.4,0,0,1,.1-.3,1.2,1.2,0,0,1,.8-.4h.6m0-.4h-.6c-1.3.2-1.2,1.1-1.2,1.1l.4,2.4s.4.7,2.2.7h.1a7.1,7.1,0,0,0,2.7-.4,1.4,1.4,0,0,0,.9-1.7,2.2,2.2,0,0,0-1-1.5,10.8,10.8,0,0,0-3.5-.8Z" transform="translate(-37.2 -36.5)"/></g><path id="_Path_94" data-name="&lt;Path&gt;" class="cls-8" d="M204,209.9a14.7,14.7,0,0,1,4,.5" transform="translate(-37.2 -36.5)"/><path id="_Path_95" data-name="&lt;Path&gt;" class="cls-8" d="M204.8,210.4a18.4,18.4,0,0,1,3.5.5" transform="translate(-37.2 -36.5)"/><path id="_Path_96" data-name="&lt;Path&gt;" class="cls-8" d="M208.5,211.3l-2.8-.3" transform="translate(-37.2 -36.5)"/><path id="_Path_97" data-name="&lt;Path&gt;" class="cls-8" d="M204.5,211.6a12.6,12.6,0,0,0,4.2.2" transform="translate(-37.2 -36.5)"/><path id="_Path_98" data-name="&lt;Path&gt;" class="cls-8" d="M204.9,212.6a9.8,9.8,0,0,0,3.8-.6" transform="translate(-37.2 -36.5)"/><path id="_Path_99" data-name="&lt;Path&gt;" class="cls-8" d="M204.2,213.3a8.1,8.1,0,0,0,4.4-.8" transform="translate(-37.2 -36.5)"/><g id="_Group_46" data-name="&lt;Group&gt;"><path d="M209.1,219.4c.7,0,1.4.8,1.5,1.8s-.4,2.1-1.1,2.2h-.1c-.7,0-1.4-.8-1.5-1.8s.4-2.1,1.1-2.2h.1m0-.4H209c-1,.1-1.6,1.3-1.5,2.6a2.2,2.2,0,0,0,1.9,2.1h.2c1-.1,1.6-1.3,1.5-2.6a2.2,2.2,0,0,0-1.9-2.1Z" transform="translate(-37.2 -36.5)"/></g><g id="_Group_47" data-name="&lt;Group&gt;"><path class="cls-2" d="M207.6,223h-.9c-1.7-.1-2-.8-2-.8v-2.4a.6.6,0,0,1,.1-.4,1.3,1.3,0,0,1,.9-.4h.2a9.9,9.9,0,0,1,3.7,1.1h0a2,2,0,0,1,.7,1.4,1.2,1.2,0,0,1-.9,1.4,5.8,5.8,0,0,1-1.8.2Z" transform="translate(-37.2 -36.5)"/><path d="M205.8,219.1a9.7,9.7,0,0,1,3.6,1,1.8,1.8,0,0,1,.7,1.3c.1,1-.6,1.1-.7,1.2h-.1a5.6,5.6,0,0,1-1.7.2h-.9c-1.3-.1-1.7-.5-1.8-.7v-2.4c0-.1,0-.5.9-.6h.2m0-.4h-.3c-1.4.1-1.3,1-1.3,1v2.5s.3.8,2.2.9h.9a5.8,5.8,0,0,0,1.8-.2,1.4,1.4,0,0,0,1-1.6,2.2,2.2,0,0,0-.8-1.5,10,10,0,0,0-3.8-1.1Z" transform="translate(-37.2 -36.5)"/></g><path id="_Path_100" data-name="&lt;Path&gt;" class="cls-8" d="M205.8,219.2a14.7,14.7,0,0,1,3.9.9" transform="translate(-37.2 -36.5)"/><path id="_Path_101" data-name="&lt;Path&gt;" class="cls-8" d="M206.6,219.8a18.4,18.4,0,0,1,3.4.8" transform="translate(-37.2 -36.5)"/><path id="_Path_102" data-name="&lt;Path&gt;" class="cls-8" d="M210.2,221.1l-2.7-.6" transform="translate(-37.2 -36.5)"/><path id="_Path_103" data-name="&lt;Path&gt;" class="cls-8" d="M206.1,220.9a12.6,12.6,0,0,0,4.1.6" transform="translate(-37.2 -36.5)"/><path id="_Path_104" data-name="&lt;Path&gt;" class="cls-8" d="M206.4,222a9.8,9.8,0,0,0,3.9-.2" transform="translate(-37.2 -36.5)"/><path id="_Path_105" data-name="&lt;Path&gt;" class="cls-8" d="M205.7,222.7a8.1,8.1,0,0,0,4.4-.3" transform="translate(-37.2 -36.5)"/><g id="_Group_48" data-name="&lt;Group&gt;"><path d="M208.8,229.9c.8,0,1.4.9,1.4,2s-.6,2-1.4,2h0c-.8,0-1.4-.9-1.4-2s.6-2,1.4-2h0m0-.4h0c-1,0-1.8,1-1.8,2.4s.8,2.4,1.8,2.4a1.6,1.6,0,0,0,1.3-.7,2.8,2.8,0,0,0,.5-1.6c0-1.3-.8-2.4-1.8-2.4Z" transform="translate(-37.2 -36.5)"/></g><g id="_Group_49" data-name="&lt;Group&gt;"><path class="cls-2" d="M208,233.4l-2-.2c-1.7-.4-1.9-1.1-1.9-1.1l.2-2.4c0-.1.1-.7,1.1-.7h.1a9.3,9.3,0,0,1,3.8,1.6h0a2,2,0,0,1,.5,1.5,1.2,1.2,0,0,1-1.1,1.2Z" transform="translate(-37.2 -36.5)"/><path d="M205.4,229.2h.1a9.1,9.1,0,0,1,3.6,1.5,1.8,1.8,0,0,1,.5,1.3c-.1,1-.7,1-.9,1.1H208l-1.9-.2c-1.3-.3-1.7-.8-1.7-.9l.2-2.4s0-.5.9-.5m0-.4c-1.2,0-1.3.8-1.3.8l-.2,2.4s.2.8,2,1.2l2,.2h.8a1.4,1.4,0,0,0,1.2-1.4,2.2,2.2,0,0,0-.6-1.6,9.4,9.4,0,0,0-3.9-1.6Z" transform="translate(-37.2 -36.5)"/></g><path id="_Path_106" data-name="&lt;Path&gt;" class="cls-8" d="M205.7,229.4a14.7,14.7,0,0,1,3.8,1.4" transform="translate(-37.2 -36.5)"/><path id="_Path_107" data-name="&lt;Path&gt;" class="cls-8" d="M206.4,230a18.4,18.4,0,0,1,3.3,1.3" transform="translate(-37.2 -36.5)"/><path id="_Path_108" data-name="&lt;Path&gt;" class="cls-8" d="M209.8,231.8l-2.6-.9" transform="translate(-37.2 -36.5)"/><path id="_Path_109" data-name="&lt;Path&gt;" class="cls-8" d="M205.8,231.1a12.6,12.6,0,0,0,4,1.1" transform="translate(-37.2 -36.5)"/><path id="_Path_110" data-name="&lt;Path&gt;" class="cls-8" d="M205.9,232.2a9.8,9.8,0,0,0,3.9.3" transform="translate(-37.2 -36.5)"/><path id="_Path_111" data-name="&lt;Path&gt;" class="cls-8" d="M205.1,232.7a8.1,8.1,0,0,0,4.4.2" transform="translate(-37.2 -36.5)"/><g id="_Group_50" data-name="&lt;Group&gt;"><path d="M207.2,239.9h.1c.8.1,1.3,1,1.2,2.1s-.8,1.8-1.5,1.8h-.1c-.8-.1-1.3-1-1.2-2.1s.8-1.8,1.5-1.8m0-.4h0a2.2,2.2,0,0,0-1.9,2.2c-.1,1.3.5,2.4,1.5,2.5h.1a2.2,2.2,0,0,0,1.9-2.2,2.8,2.8,0,0,0-.3-1.7,1.6,1.6,0,0,0-1.2-.9Z" transform="translate(-37.2 -36.5)"/></g><g id="_Group_51" data-name="&lt;Group&gt;"><path class="cls-2" d="M206.6,243.3a8,8,0,0,1-2.4-.5c-1.6-.5-1.8-1.3-1.8-1.3l.4-2.3c0-.1.1-.6.9-.6h.3a9.2,9.2,0,0,1,3.6,2h0a2,2,0,0,1,.4,1.5,1.2,1.2,0,0,1-1.2,1.1Z" transform="translate(-37.2 -36.5)"/><path d="M203.7,238.9h.3a9.1,9.1,0,0,1,3.4,1.9,1.8,1.8,0,0,1,.4,1.4c-.2.9-.8,1-1,1h-.2a7.8,7.8,0,0,1-2.4-.5c-1.2-.4-1.6-.9-1.6-1.1l.4-2.3s.1-.4.7-.4m0-.4c-1,0-1.1.7-1.1.7l-.4,2.4s.1.8,1.9,1.4a8.2,8.2,0,0,0,2.5.5h.3a1.4,1.4,0,0,0,1.3-1.3,2.2,2.2,0,0,0-.4-1.7,9.4,9.4,0,0,0-3.7-2Z" transform="translate(-37.2 -36.5)"/></g><path id="_Path_112" data-name="&lt;Path&gt;" class="cls-8" d="M204.2,239.1a14.7,14.7,0,0,1,3.6,1.8" transform="translate(-37.2 -36.5)"/><path id="_Path_113" data-name="&lt;Path&gt;" class="cls-8" d="M204.8,239.8a18.4,18.4,0,0,1,3.2,1.6" transform="translate(-37.2 -36.5)"/><path id="_Path_114" data-name="&lt;Path&gt;" class="cls-8" d="M208,241.9l-2.5-1.2" transform="translate(-37.2 -36.5)"/><path id="_Path_115" data-name="&lt;Path&gt;" class="cls-8" d="M204.1,240.8a12.6,12.6,0,0,0,3.9,1.5" transform="translate(-37.2 -36.5)"/><path id="_Path_116" data-name="&lt;Path&gt;" class="cls-8" d="M204.1,241.9a9.8,9.8,0,0,0,3.8.7" transform="translate(-37.2 -36.5)"/><path id="_Path_117" data-name="&lt;Path&gt;" class="cls-8" d="M203.2,242.4a8.1,8.1,0,0,0,4.4.7" transform="translate(-37.2 -36.5)"/><g id="_Group_52" data-name="&lt;Group&gt;"><path d="M204.1,249.8h.4a1.8,1.8,0,0,1,.5,2.4,2,2,0,0,1-1.7,1.3h-.4a1.8,1.8,0,0,1-.5-2.4,2,2,0,0,1,1.7-1.3m0-.4h0a2.4,2.4,0,0,0-2,1.6c-.5,1.2-.2,2.5.7,2.9h.6a2.4,2.4,0,0,0,2-1.6c.5-1.2.2-2.5-.7-2.9Z" transform="translate(-37.2 -36.5)"/></g><g id="_Group_53" data-name="&lt;Group&gt;"><path class="cls-2" d="M203.4,253h-.4a7.1,7.1,0,0,1-2.4-1.3c-1.4-1-1.3-1.7-1.3-1.8l1.1-2.1a.7.7,0,0,1,.6-.3l.7.2a9.3,9.3,0,0,1,2.8,3h0a2,2,0,0,1-.1,1.6A1.2,1.2,0,0,1,203.4,253Z" transform="translate(-37.2 -36.5)"/><path d="M201.1,247.7l.7.2a9.1,9.1,0,0,1,2.7,2.9,1.8,1.8,0,0,1-.1,1.4,1,1,0,0,1-.9.7h-.4a6.9,6.9,0,0,1-2.3-1.2c-1.1-.8-1.2-1.4-1.2-1.5l1.1-2.1a.5.5,0,0,1,.4-.2m0-.4a.8.8,0,0,0-.8.4l-1.2,2.2s-.1.8,1.4,1.9a7,7,0,0,0,2.5,1.3h.4a1.4,1.4,0,0,0,1.3-.9,2.2,2.2,0,0,0,.1-1.8,9.4,9.4,0,0,0-2.9-3l-.8-.2Z" transform="translate(-37.2 -36.5)"/></g><path id="_Path_118" data-name="&lt;Path&gt;" class="cls-8" d="M201.9,248.1a14.7,14.7,0,0,1,2.9,2.8" transform="translate(-37.2 -36.5)"/><path id="_Path_119" data-name="&lt;Path&gt;" class="cls-8" d="M202.3,249a18.4,18.4,0,0,1,2.5,2.5" transform="translate(-37.2 -36.5)"/><path id="_Path_120" data-name="&lt;Path&gt;" class="cls-8" d="M204.7,252l-2-1.9" transform="translate(-37.2 -36.5)"/><path id="_Path_121" data-name="&lt;Path&gt;" class="cls-8" d="M201.3,249.7a12.6,12.6,0,0,0,3.2,2.7" transform="translate(-37.2 -36.5)"/><path id="_Path_122" data-name="&lt;Path&gt;" class="cls-8" d="M201,250.8a9.8,9.8,0,0,0,3.4,1.8" transform="translate(-37.2 -36.5)"/><path id="_Path_123" data-name="&lt;Path&gt;" class="cls-8" d="M200,251a8.1,8.1,0,0,0,4,2" transform="translate(-37.2 -36.5)"/><g id="_Group_54" data-name="&lt;Group&gt;"><path d="M200.7,258h.4a1.8,1.8,0,0,1,.5,2.4,2,2,0,0,1-1.7,1.3h-.4a1.8,1.8,0,0,1-.5-2.4,2,2,0,0,1,1.7-1.3m0-.4h0a2.4,2.4,0,0,0-2,1.6,2.8,2.8,0,0,0-.2,1.7,1.6,1.6,0,0,0,.9,1.2h.6a2.4,2.4,0,0,0,2-1.6,2.8,2.8,0,0,0,.2-1.7,1.6,1.6,0,0,0-.9-1.2Z" transform="translate(-37.2 -36.5)"/></g><g id="_Group_55" data-name="&lt;Group&gt;"><path class="cls-2" d="M200,261.2h-.4a7,7,0,0,1-2.4-1.3c-1.4-1-1.3-1.7-1.3-1.8l1.1-2.1a.7.7,0,0,1,.6-.3l.7.2a9.2,9.2,0,0,1,2.8,3h0a2,2,0,0,1-.1,1.6,1.2,1.2,0,0,1-1.1.8Z" transform="translate(-37.2 -36.5)"/><path d="M197.7,255.9l.7.2A9.1,9.1,0,0,1,201,259a1.8,1.8,0,0,1-.1,1.4,1,1,0,0,1-.9.7h-.4a6.9,6.9,0,0,1-2.3-1.2c-1.1-.8-1.2-1.4-1.2-1.5l1.1-2.1a.5.5,0,0,1,.4-.2m0-.4a.8.8,0,0,0-.8.4l-1.2,2.2s-.1.8,1.4,1.9a7.1,7.1,0,0,0,2.5,1.3h.4a1.4,1.4,0,0,0,1.3-.9,2.2,2.2,0,0,0,.1-1.8,9.4,9.4,0,0,0-2.9-3l-.8-.2Z" transform="translate(-37.2 -36.5)"/></g><path id="_Path_124" data-name="&lt;Path&gt;" class="cls-8" d="M198.4,256.3a14.7,14.7,0,0,1,2.9,2.8" transform="translate(-37.2 -36.5)"/><path id="_Path_125" data-name="&lt;Path&gt;" class="cls-8" d="M198.8,257.2a18.4,18.4,0,0,1,2.5,2.5" transform="translate(-37.2 -36.5)"/><path id="_Path_126" data-name="&lt;Path&gt;" class="cls-8" d="M201.2,260.2l-2-1.9" transform="translate(-37.2 -36.5)"/><path id="_Path_127" data-name="&lt;Path&gt;" class="cls-8" d="M197.8,257.9a12.6,12.6,0,0,0,3.2,2.7" transform="translate(-37.2 -36.5)"/><path id="_Path_128" data-name="&lt;Path&gt;" class="cls-8" d="M197.5,259a9.8,9.8,0,0,0,3.4,1.8" transform="translate(-37.2 -36.5)"/><path id="_Path_129" data-name="&lt;Path&gt;" class="cls-8" d="M196.5,259.2a8.1,8.1,0,0,0,4,2" transform="translate(-37.2 -36.5)"/><g id="_Group_56" data-name="&lt;Group&gt;"><path d="M195.4,266.1h.5a1.8,1.8,0,0,1,.2,2.4,2.1,2.1,0,0,1-1.7,1.1H194a1.8,1.8,0,0,1-.2-2.4,2.1,2.1,0,0,1,1.7-1.1m0-.4h0a2.5,2.5,0,0,0-2,1.3c-.7,1.1-.5,2.4.4,3l.7.2a2.5,2.5,0,0,0,2-1.3,2.8,2.8,0,0,0,.4-1.6,1.6,1.6,0,0,0-.8-1.3l-.7-.2Z" transform="translate(-37.2 -36.5)"/></g><g id="_Group_57" data-name="&lt;Group&gt;"><path class="cls-2" d="M194.7,269.3h-.5a7,7,0,0,1-2.2-1.5c-1.2-1.2-1.1-1.9-1.1-1.9l1.4-2a.6.6,0,0,1,.5-.3l.8.3a9.3,9.3,0,0,1,2.4,3.3h0a2,2,0,0,1-.3,1.5,1.3,1.3,0,0,1-1,.6Z" transform="translate(-37.2 -36.5)"/><path d="M192.7,263.7l.7.3a9.1,9.1,0,0,1,2.3,3.1,1.8,1.8,0,0,1-.3,1.4,1.1,1.1,0,0,1-.9.6h-.5a6.9,6.9,0,0,1-2.1-1.5c-1-.9-1-1.5-1-1.7l1.4-2a.5.5,0,0,1,.4-.2m0-.4a.8.8,0,0,0-.7.3l-1.4,2s-.2.8,1.2,2.1a7,7,0,0,0,2.3,1.6h.6a1.4,1.4,0,0,0,1.2-.7,2.2,2.2,0,0,0,.3-1.7,9.4,9.4,0,0,0-2.5-3.3,1.7,1.7,0,0,0-.9-.3Z" transform="translate(-37.2 -36.5)"/></g><path id="_Path_130" data-name="&lt;Path&gt;" class="cls-8" d="M193.6,264.2a14.7,14.7,0,0,1,2.5,3.1" transform="translate(-37.2 -36.5)"/><path id="_Path_131" data-name="&lt;Path&gt;" class="cls-8" d="M193.8,265.1a18.4,18.4,0,0,1,2.2,2.8" transform="translate(-37.2 -36.5)"/><path id="_Path_132" data-name="&lt;Path&gt;" class="cls-8" d="M195.9,268.4l-1.8-2.1" transform="translate(-37.2 -36.5)"/><path id="_Path_133" data-name="&lt;Path&gt;" class="cls-8" d="M192.8,265.7a12.6,12.6,0,0,0,2.9,3" transform="translate(-37.2 -36.5)"/><path id="_Path_134" data-name="&lt;Path&gt;" class="cls-8" d="M192.3,266.8a9.8,9.8,0,0,0,3.2,2.2" transform="translate(-37.2 -36.5)"/><path id="_Path_135" data-name="&lt;Path&gt;" class="cls-8" d="M191.3,266.8a8.1,8.1,0,0,0,3.7,2.5" transform="translate(-37.2 -36.5)"/><g id="_Group_58" data-name="&lt;Group&gt;"><path d="M189.4,274.3l.6.2a1.8,1.8,0,0,1,0,2.4,2.2,2.2,0,0,1-1.7,1l-.6-.2a1.8,1.8,0,0,1,0-2.4,2.2,2.2,0,0,1,1.7-1m0-.4h0a2.6,2.6,0,0,0-2,1.2c-.8,1.1-.7,2.4.1,3l.9.3a2.6,2.6,0,0,0,2-1.2c.8-1.1.7-2.4-.1-3l-.9-.3Z" transform="translate(-37.2 -36.5)"/></g><g id="_Group_59" data-name="&lt;Group&gt;"><path class="cls-2" d="M188.5,277.4l-.6-.2a7,7,0,0,1-2.1-1.7c-1.1-1.3-.9-2-.9-2l1.5-1.8a.6.6,0,0,1,.5-.2,1.4,1.4,0,0,1,.9.4,9.4,9.4,0,0,1,2.1,3.5h0a2,2,0,0,1-.4,1.5,1.3,1.3,0,0,1-1,.5Z" transform="translate(-37.2 -36.5)"/><path d="M187,271.7l.7.3a9.1,9.1,0,0,1,2,3.3,1.8,1.8,0,0,1-.4,1.4,1.1,1.1,0,0,1-.9.5H188a6.9,6.9,0,0,1-2-1.7c-.9-1-.9-1.6-.9-1.7l1.5-1.8h.3m0-.4a.8.8,0,0,0-.6.3l-1.6,1.9s-.3.8,1,2.2a7,7,0,0,0,2.1,1.8,1.3,1.3,0,0,0,.7.2,1.5,1.5,0,0,0,1.2-.6,2.2,2.2,0,0,0,.5-1.7,9.4,9.4,0,0,0-2.2-3.6,1.6,1.6,0,0,0-1-.4Z" transform="translate(-37.2 -36.5)"/></g><path id="_Path_136" data-name="&lt;Path&gt;" class="cls-8" d="M187.8,272.2a14.7,14.7,0,0,1,2.2,3.3" transform="translate(-37.2 -36.5)"/><path id="_Path_137" data-name="&lt;Path&gt;" class="cls-8" d="M188,273.1a18.4,18.4,0,0,1,2,2.9" transform="translate(-37.2 -36.5)"/><path id="_Path_138" data-name="&lt;Path&gt;" class="cls-8" d="M189.7,276.6l-1.6-2.3" transform="translate(-37.2 -36.5)"/><path id="_Path_139" data-name="&lt;Path&gt;" class="cls-8" d="M186.9,273.6a12.6,12.6,0,0,0,2.6,3.3" transform="translate(-37.2 -36.5)"/><path id="_Path_140" data-name="&lt;Path&gt;" class="cls-8" d="M186.3,274.7a9.8,9.8,0,0,0,2.9,2.5" transform="translate(-37.2 -36.5)"/><path id="_Path_141" data-name="&lt;Path&gt;" class="cls-8" d="M185.3,274.6a8.1,8.1,0,0,0,3.5,2.8" transform="translate(-37.2 -36.5)"/><g id="_Group_60" data-name="&lt;Group&gt;"><path d="M182.8,281a1.1,1.1,0,0,1,.8.3,1.8,1.8,0,0,1-.3,2.4,2.3,2.3,0,0,1-1.6.8,1.1,1.1,0,0,1-.8-.3,1.8,1.8,0,0,1,.3-2.4,2.3,2.3,0,0,1,1.6-.8m0-.4h0a2.6,2.6,0,0,0-1.9.9c-.9,1-1,2.3-.2,3a1.5,1.5,0,0,0,1,.4,2.6,2.6,0,0,0,1.9-.9,2.8,2.8,0,0,0,.7-1.5,1.6,1.6,0,0,0-.5-1.4,1.5,1.5,0,0,0-1-.4Z" transform="translate(-37.2 -36.5)"/></g><g id="_Group_61" data-name="&lt;Group&gt;"><path class="cls-2" d="M181.9,284a1.2,1.2,0,0,1-.7-.2,7.1,7.1,0,0,1-1.9-1.9c-1-1.4-.7-2.1-.7-2.1l1.7-1.6a.6.6,0,0,1,.4-.2,1.3,1.3,0,0,1,.9.5,9.2,9.2,0,0,1,1.7,3.7h0a2,2,0,0,1-.6,1.5,1.3,1.3,0,0,1-.9.4Z" transform="translate(-37.2 -36.5)"/><path d="M180.8,278.2a1.2,1.2,0,0,1,.8.4,9.1,9.1,0,0,1,1.7,3.5,1.8,1.8,0,0,1-.5,1.3,1.2,1.2,0,0,1-.8.4,1,1,0,0,1-.5-.2h-.1a6.9,6.9,0,0,1-1.8-1.9c-.8-1.1-.7-1.7-.7-1.8l1.7-1.6h.3m0-.4a.8.8,0,0,0-.6.2l-1.8,1.7s-.4.8.7,2.3a7,7,0,0,0,1.9,2,1.3,1.3,0,0,0,.8.3,1.5,1.5,0,0,0,1.1-.5,2.2,2.2,0,0,0,.6-1.6,9.4,9.4,0,0,0-1.8-3.8,1.5,1.5,0,0,0-1-.5Z" transform="translate(-37.2 -36.5)"/></g><path id="_Path_142" data-name="&lt;Path&gt;" class="cls-8" d="M181.6,278.8a14.7,14.7,0,0,1,1.9,3.5" transform="translate(-37.2 -36.5)"/><path id="_Path_143" data-name="&lt;Path&gt;" class="cls-8" d="M181.7,279.7a18.4,18.4,0,0,1,1.6,3.1" transform="translate(-37.2 -36.5)"/><path id="_Path_144" data-name="&lt;Path&gt;" class="cls-8" d="M183,283.3l-1.3-2.4" transform="translate(-37.2 -36.5)"/><path id="_Path_145" data-name="&lt;Path&gt;" class="cls-8" d="M180.5,280.1a12.6,12.6,0,0,0,2.2,3.5" transform="translate(-37.2 -36.5)"/><path id="_Path_146" data-name="&lt;Path&gt;" class="cls-8" d="M179.9,281.1a9.8,9.8,0,0,0,2.6,2.8" transform="translate(-37.2 -36.5)"/><path id="_Path_147" data-name="&lt;Path&gt;" class="cls-8" d="M178.9,280.9a8.1,8.1,0,0,0,3.1,3.2" transform="translate(-37.2 -36.5)"/><g id="_Group_62" data-name="&lt;Group&gt;"><path d="M172.5,288.6a1.3,1.3,0,0,1,1.1.5c.4.7,0,1.7-.9,2.3a2.5,2.5,0,0,1-1.3.4,1.3,1.3,0,0,1-1.1-.5c-.4-.7,0-1.7.9-2.3a2.5,2.5,0,0,1,1.3-.4m0-.4h0a2.9,2.9,0,0,0-1.5.5,2.8,2.8,0,0,0-1.1,1.3,1.6,1.6,0,0,0,.1,1.5,1.7,1.7,0,0,0,1.4.7,2.9,2.9,0,0,0,1.5-.5c1.1-.7,1.6-2,1-2.8a1.7,1.7,0,0,0-1.4-.7Z" transform="translate(-37.2 -36.5)"/></g><g id="_Group_63" data-name="&lt;Group&gt;"><path class="cls-2" d="M171.6,291.3a1.1,1.1,0,0,1-.9-.4,7,7,0,0,1-1.3-2.4c-.6-1.6-.1-2.2-.1-2.2l2.1-1.1h.3c.3,0,.6.2.9.7a9.2,9.2,0,0,1,.7,4h0a2,2,0,0,1-.9,1.3l-.7.2Z" transform="translate(-37.2 -36.5)"/><path d="M171.6,285.3c.3,0,.6.3.7.6a9.1,9.1,0,0,1,.7,3.9,1.8,1.8,0,0,1-.9,1.1l-.6.2a.9.9,0,0,1-.7-.3h0a6.9,6.9,0,0,1-1.3-2.3,2.5,2.5,0,0,1-.2-1.9l2.1-1.1h.2m0-.4h-.4l-2.2,1.2s-.6.6.1,2.4a7,7,0,0,0,1.4,2.4,1.3,1.3,0,0,0,1,.5l.8-.2a2.2,2.2,0,0,0,1-1.4,9.4,9.4,0,0,0-.7-4.1c-.4-.7-.8-.8-1.1-.8Z" transform="translate(-37.2 -36.5)"/></g><path id="_Path_148" data-name="&lt;Path&gt;" class="cls-8" d="M172.4,286.1a14.8,14.8,0,0,1,.9,3.9" transform="translate(-37.2 -36.5)"/><path id="_Path_149" data-name="&lt;Path&gt;" class="cls-8" d="M172.2,287.1a18.4,18.4,0,0,1,.8,3.5" transform="translate(-37.2 -36.5)"/><path id="_Path_150" data-name="&lt;Path&gt;" class="cls-8" d="M172.6,290.9c-.1-.5-.3-1.6-.6-2.7" transform="translate(-37.2 -36.5)"/><path id="_Path_151" data-name="&lt;Path&gt;" class="cls-8" d="M171,287.1a12.6,12.6,0,0,0,1.3,4" transform="translate(-37.2 -36.5)"/><path id="_Path_152" data-name="&lt;Path&gt;" class="cls-8" d="M170.1,287.9a9.8,9.8,0,0,0,1.8,3.4" transform="translate(-37.2 -36.5)"/><path id="_Path_153" data-name="&lt;Path&gt;" class="cls-8" d="M169.2,287.5a8.1,8.1,0,0,0,2.2,3.9" transform="translate(-37.2 -36.5)"/><path id="_Path_154" data-name="&lt;Path&gt;" d="M162.6,312.3c7.3,0,14.5-1.6,21.6-3.5s17-3.7,23.1-9.3c4.2-3.9,6.2-9.6,10-13.8,6.9-7.7,18-12.7,27.5-16.6a38.7,38.7,0,0,1,17.4-2.9c.8,0,2.3-1.9,1.1-1.9-14-.7-27,6.2-38.5,13.6a42.7,42.7,0,0,0-13.8,14.4c-1.5,2.6-3,5.1-5.4,7-3.9,3.1-9.1,4.2-13.8,5.6-9.1,2.8-18.5,5.4-28.1,5.4-.8,0-2.2,1.9-1.1,1.9Z" transform="translate(-37.2 -36.5)"/><g id="_Group_64" data-name="&lt;Group&gt;"><path d="M170.8,300.5a11.6,11.6,0,0,1-8.2,2.3c-4-.5-5.4-3.8-5.5-7.4,0-.3-.6-.2-.6,0,0,3.7,1.4,7,5.4,7.7a12.2,12.2,0,0,0,9.2-2.3c.3-.2-.1-.4-.4-.3Z" transform="translate(-37.2 -36.5)"/></g><g id="_Group_65" data-name="&lt;Group&gt;"><path d="M163.9,305.3a9.4,9.4,0,0,1-4.5-.7c-2.9-1.3-4-4.2-3.9-7.2,0-.3-.6-.2-.6,0,0,3,.9,5.9,3.7,7.3a9.8,9.8,0,0,0,5.2,1c.3,0,.4-.4,0-.4Z" transform="translate(-37.2 -36.5)"/></g><g id="_Group_66" data-name="&lt;Group&gt;"><path d="M162.6,307.2a9.4,9.4,0,0,1-4.5-.7c-2.9-1.3-4-4.2-3.9-7.2,0-.3-.6-.2-.6,0,0,3,.9,5.9,3.7,7.3a9.8,9.8,0,0,0,5.2,1c.3,0,.4-.4,0-.4Z" transform="translate(-37.2 -36.5)"/></g><g id="_Group_67" data-name="&lt;Group&gt;"><path d="M162.4,309.8a10.2,10.2,0,0,1-4.9-.8c-3.2-1.4-4.3-4.6-4.3-7.9,0-.3-.6-.2-.6,0,0,3.2,1,6.4,4,7.9a10.6,10.6,0,0,0,5.7,1.1c.3,0,.4-.4,0-.4Z" transform="translate(-37.2 -36.5)"/></g><g id="_Group_68" data-name="&lt;Group&gt;"><path d="M162.9,313a11.6,11.6,0,0,1-5.5-.9c-3.6-1.6-4.9-5.2-4.9-8.9,0-.3-.6-.2-.6,0,0,3.7,1.1,7.2,4.5,9a11.9,11.9,0,0,0,6.4,1.2c.3,0,.4-.4,0-.4Z" transform="translate(-37.2 -36.5)"/></g><path id="_Path_155" data-name="&lt;Path&gt;" class="cls-9" d="M169.5,40.4a.3.3,0,0,0-.4,0c-1,.6-2.1,3.8-2.2,4.2-2,7.5-3.9,15-5.8,22.6-3.1,12-6.1,24.1-9.3,36.1-1.9,7.4-3.4,15.3-6.2,22.4-1,2.5,3,2.7,3.9.5,2.1-5.5,3.4-11.5,4.9-17.2,2.7-10.1,5.3-20.3,7.9-30.5l7.1-27.7,1.5-5.8a19.5,19.5,0,0,1-.9-3.9C169.8,41,169.6,40.7,169.5,40.4Z" transform="translate(-37.2 -36.5)"/><path id="_Path_156" data-name="&lt;Path&gt;" class="cls-9" d="M205.3,182.5q-10.1-49.1-20.6-98.1c-1.8-8.6-3.7-17.1-5.7-25.6-1.5-6.4-2.9-13.1-5.3-19.2-1.1-2.6-3.4-3.7-5.1-.8a23.7,23.7,0,0,0-1.6,5.1l-.2.7c.1-.3,1.2-3.6,2.2-4.2a.3.3,0,0,1,.4,0c.1.2.3.6.4.8a19.5,19.5,0,0,0,.9,3.9l.2.7c.8,2.2,1.7,4.5,2.2,6.6s1.2,5,1.8,7.5c1.8,7.8,3.5,15.7,5.2,23.6q6.7,30.8,13.1,61.7l8.1,38.7C201.9,186.3,205.7,184.8,205.3,182.5Z" transform="translate(-37.2 -36.5)"/><path id="_Path_157" data-name="&lt;Path&gt;" class="cls-5" d="M177.5,81.1a4.8,4.8,0,0,0,6.9-.6,4.4,4.4,0,0,0,.9-3.5c0,3-7,2.7-9,1.7A4.2,4.2,0,0,0,177.5,81.1Z" transform="translate(-37.2 -36.5)"/><path id="_Path_158" data-name="&lt;Path&gt;" class="cls-5" d="M176.9,76.9l-.8.4a4.8,4.8,0,0,0,.1,1.5,12.5,12.5,0,0,0,7.1.2C184.3,77.9,182.3,73.9,176.9,76.9Z" transform="translate(-37.2 -36.5)"/><path id="_Path_159" data-name="&lt;Path&gt;" class="cls-5" d="M185.3,77.1a4.3,4.3,0,0,0-1.8-2.4,4.9,4.9,0,0,0-5.9,0,3.6,3.6,0,0,0-1.4,2.6l.8-.4c5.3-3,7.4,1,6.4,2.1C184.5,78.7,185.2,78.1,185.3,77.1Z" transform="translate(-37.2 -36.5)"/><path id="_Path_160" data-name="&lt;Path&gt;" class="cls-10" d="M171.6,109a16.8,16.8,0,0,1,.4,3.5,8.8,8.8,0,0,1-.5,2.2h1.1a7,7,0,0,0,.5-2.9,36.3,36.3,0,0,1,.2-3.8Z" transform="translate(-37.2 -36.5)"/><path id="_Path_161" data-name="&lt;Path&gt;" class="cls-5" d="M181.8,77.1c-3.1-.5-9.5-1.9-11.8,5.7s-.5,16.6.4,19.4a46.2,46.2,0,0,1,1.4,6.9,4,4,0,0,0,2.3-4.6c-.5-3.6,1-16,2.5-19.9s4-5,4.8-5.3S183.1,77.3,181.8,77.1Z" transform="translate(-37.2 -36.5)"/><path id="_Path_162" data-name="&lt;Path&gt;" class="cls-11" d="M170,86.7c1.2-5.8,2.2-10.9,12.3-9.3" transform="translate(-37.2 -36.5)"/><path id="_Path_163" data-name="&lt;Path&gt;" class="cls-11" d="M170.9,89.9c.2-3.8.2-13.8,11.5-12.2" transform="translate(-37.2 -36.5)"/><path id="_Path_164" data-name="&lt;Path&gt;" class="cls-10" d="M163.9,104.8a16.8,16.8,0,0,1-.5,3.5,8.8,8.8,0,0,1-1.1,2l1.1.2a7,7,0,0,0,1.3-2.6,36.3,36.3,0,0,1,1.2-3.6Z" transform="translate(-37.2 -36.5)"/><path id="_Path_165" data-name="&lt;Path&gt;" class="cls-5" d="M182.4,76.9c-2.8-1.3-8.2-1.2-12.5,5.5s-5.5,12.7-5.4,15.6a46.2,46.2,0,0,1-.5,7,4,4,0,0,0,3.4-3.8c.5-3.6,5.3-15.1,7.8-18.5s5.2-3.8,6.1-3.8S183.6,77.5,182.4,76.9Z" transform="translate(-37.2 -36.5)"/></g></g></svg>