<svg id="Layer_1" data-name="Layer 1" xmlns="http://www.w3.org/2000/svg" viewBox="0 0 292.8 176.2"><defs><style>.cls-1,.cls-3,.cls-5,.cls-6,.cls-7,.cls-8,.cls-9{fill:#fff;}.cls-1,.cls-2,.cls-3,.cls-4,.cls-5,.cls-7,.cls-8{stroke:#000;}.cls-1,.cls-2,.cls-5,.cls-7,.cls-8{stroke-linecap:round;stroke-linejoin:bevel;}.cls-1,.cls-2,.cls-3{stroke-width:2.59px;}.cls-1,.cls-2,.cls-3,.cls-4,.cls-6,.cls-7,.cls-8{fill-rule:evenodd;}.cls-3,.cls-4{stroke-miterlimit:10;}.cls-4,.cls-7{stroke-width:1.73px;}.cls-5,.cls-8{stroke-width:0.86px;}</style></defs><title>streamers</title><path class="cls-1" d="M112.4,178.4l12.1-13.2L71.5,136,37.7,124.8s-8.6,6.5.1,22.5,76,45.2,76,45.2Z" transform="translate(-31.2 -75.2)"/><path class="cls-2" d="M102.1,152.9,71.6,136,36,126.7c-2,2.9-2.9,12.2,1.7,20.7s16.6,15.1,32.7,24c-.1-.1-12.3-9.7-2.6-10S99.7,155.2,102.1,152.9Z" transform="translate(-31.2 -75.2)"/><path class="cls-3" d="M134.5,174.1l3.1-2.2-17.7-9.2c-13.8.3-17.5,12.4-15.8,25.6l23.1,10.7Z" transform="translate(-31.2 -75.2)"/><path class="cls-1" d="M183.5,204.6l-4.9-9.9-43.3-24s-22.7,1.6-15.7,25.1l47.2,20.3,5.2,2.2h0Z" transform="translate(-31.2 -75.2)"/><path class="cls-4" d="M183.5,204.6l-4.9-9.9-.4-.2-36.8,10.7,15,6.5c11-3.2,20.7-6,21.9-6.2l4.2.4,1.1-1.3Zm-16.1-16.1-38.8,11.2-9-3.9a34.1,34.1,0,0,1-1.1-4.6L153.9,181l13.5,7.5Zm-24.6-13.6-7.5-4.1s-11.3.8-15.5,9.4a14.6,14.6,0,0,0-.7,1.8l17.7-5.3Z" transform="translate(-31.2 -75.2)"/><path class="cls-5" d="M163.8,201.1h-.2l-.5-.2h-.4l-1.9-1h0l-11.3-5.9h0l-.4-.2-1.1-.6-.4-.2-1.5-.8-.3-.2-1.6-.8-.3-.2-1.6-.8h-.3l-1.6-.8h-.2l-1.7-.8h-.2l-1.7-.8h-.1c-8-3.8-14.7-6.5-14.4-4.9s3.1,3.3,7.1,5.7h0c2.5,1.5,5.5,3,8.6,4.6h0l3.7,1.8h.1c5.6,2.7,11,5.1,14.1,6.5h.6l.4.2h.9C163,203.9,166.5,204.5,163.8,201.1Z" transform="translate(-31.2 -75.2)"/><path class="cls-6" d="M185.3,197.8l-.3-.2c-6.3,2.6-6.8,7.9-6.8,7.9l9.3,6,1.9-3.6a5.5,5.5,0,0,1,1.7-1.8l-5.4-3.4Z" transform="translate(-31.2 -75.2)"/><path class="cls-1" d="M205.6,213.5c2-.4.6-3,.6-3s-5.6-3.7-12.6-7.9c-1.9.6-4.2,1.6-5.1,3.1l-1.5,2.8-7.3-4.7s.4-4.1,5.3-6.2l-6.6-3.4s-17.2,2.8-11.8,22.4c10.9,4.7,28.2,11.7,31.3,11.7s7.5-14.9,7.5-14.9Zm-15.8-13.2h0Zm-.6-.3-.3-.2.3.2Zm-.5-.3-.4-.2.4.2Zm-.6-.3-.4-.2.4.2Zm-.5-.3-.5-.3.5.3Zm-.6-.3-.5-.3.5.3Zm-.5-.3-.5-.3.5.3Zm-.6-.3-.5-.3Z" transform="translate(-31.2 -75.2)"/><path class="cls-7" d="M205.6,213.5c2-.4.6-3,.6-3l-3.2-2.1s-11.2,2.7-9.4,15.5a10.7,10.7,0,0,0,1.2,3.7,15,15,0,0,0,3.3.8C202.2,228.4,205.6,213.5,205.6,213.5Z" transform="translate(-31.2 -75.2)"/><path class="cls-7" d="M200.4,212.3a15.7,15.7,0,0,0-4.4,9.5c-.9,8.4,3.7,7.2,6.5,5C211,219.7,208.7,203.8,200.4,212.3Z" transform="translate(-31.2 -75.2)"/><path class="cls-4" d="M200.4,212.3a15.7,15.7,0,0,0-4.4,9.5,13.6,13.6,0,0,0,.1,3.8c5.3-1.4,9.4-9.8,7.4-15.5A8.8,8.8,0,0,0,200.4,212.3Z" transform="translate(-31.2 -75.2)"/><path class="cls-3" d="M90.3,155c9-2.5,22.4-5,27.1-14,10.6-20.3-13.1-43.2-31.6-38.8-16.7,4-58.4,6.8-51,34.2C41,159.6,71.9,160.3,90.3,155Z" transform="translate(-31.2 -75.2)"/><path class="cls-3" d="M52.7,109.7c-11.9,1.9-21,12.2-20.2,27.1.7,12.9,13.4,19.8,20.2,20.6,2.8.7,7.9.4,12.8-.8,16.2-4,18.6-25.1,8.1-37.5S53,109.6,52.7,109.7Z" transform="translate(-31.2 -75.2)"/><path class="cls-4" d="M37.5,135.7C39,150.2,54,154.9,64.6,151.7c23.2-6.9,3.8-48-16.4-36.3C41.4,119.4,36.5,127.3,37.5,135.7Z" transform="translate(-31.2 -75.2)"/><path class="cls-7" d="M37.5,135.8c1.6,14.5,16,19.2,26.7,16,2.7-.8,5.8-1.4,9.1-7.5-17.1-4.2-6.4-17.8-6.4-17.8L37.7,131A24.5,24.5,0,0,0,37.5,135.8Z" transform="translate(-31.2 -75.2)"/><path class="cls-8" d="M191.8,215.7S170.2,203,168.1,205s17.8,10.5,20.6,11.6S193.8,217.8,191.8,215.7Z" transform="translate(-31.2 -75.2)"/><path class="cls-8" d="M117.2,178.3s-10-6.4-10.1-4.1S119.1,182,117.2,178.3Z" transform="translate(-31.2 -75.2)"/><path class="cls-1" d="M231.7,200l-12.1-13.2,53-29.2,33.8-11.1s8.6,6.5-.1,22.5-76,45.2-76,45.2Z" transform="translate(-31.2 -75.2)"/><path class="cls-2" d="M241.9,174.5l30.6-16.9,35.5-9.3c2,2.9,2.9,12.2-1.7,20.7s-16.6,15.1-32.7,24c.1-.1,12.3-9.7,2.6-10S244.3,176.9,241.9,174.5Z" transform="translate(-31.2 -75.2)"/><path class="cls-3" d="M209.5,195.8l-3.1-2.2,17.7-9.2c13.8.3,17.5,12.4,15.8,25.6l-23.1,10.7Z" transform="translate(-31.2 -75.2)"/><path class="cls-1" d="M160.6,226.3l4.9-9.9,43.3-24s22.7,1.6,15.7,25.1l-47.2,20.3L172,240h0Z" transform="translate(-31.2 -75.2)"/><path class="cls-4" d="M160.6,226.3l1.1,1.3,4.2-.4c1.1.1,10.9,2.9,21.9,6.2l15-6.5-36.8-10.7-.4.2-4.9,9.9Zm16.1-16.1,13.5-7.5,35.2,10.3a34.1,34.1,0,0,1-1.1,4.6l-9,3.9-38.8-11.2Zm30.6-11.8,17.7,5.3a14.6,14.6,0,0,0-.7-1.8c-4.2-8.7-15.5-9.4-15.5-9.4l-7.5,4.1Z" transform="translate(-31.2 -75.2)"/><path class="cls-5" d="M180.2,222.8h.2l.5-.2h.4l1.9-1h0l11.3-5.9h0l.4-.2,1.1-.6.4-.2,1.5-.8.3-.2,1.6-.8.3-.2,1.6-.8h.3l1.6-.8h.2l1.7-.8h.2l1.7-.8h.1c8-3.8,14.7-6.5,14.4-4.9s-3.1,3.3-7.1,5.7h0c-2.5,1.5-5.5,3-8.6,4.6h0l-3.7,1.8h-.1c-5.6,2.7-11,5.1-14.1,6.5h-.6l-.4.2h-.9C181,225.6,177.5,226.2,180.2,222.8Z" transform="translate(-31.2 -75.2)"/><path class="cls-6" d="M158.7,219.5l.3-.2c6.3,2.6,6.8,7.9,6.8,7.9l-9.3,6-1.9-3.6a5.5,5.5,0,0,0-1.7-1.8l5.4-3.4Z" transform="translate(-31.2 -75.2)"/><path class="cls-1" d="M138.4,235.2s3.4,15,7.5,14.9,20.4-7,31.3-11.7c5.4-19.6-11.8-22.4-11.8-22.4l-6.6,3.4c5,2.1,5.3,6.2,5.3,6.2l-7.3,4.7-1.5-2.8c-.8-1.6-3.1-2.5-5.1-3.1-7,4.2-12.6,7.9-12.6,7.9s-1.3,2.5.6,3ZM154.2,222h0Zm.6-.3.3-.2-.3.2Zm.5-.3.4-.2-.4.2Zm.6-.3.4-.2-.4.2Zm.5-.3.5-.3-.5.3Zm.6-.3.5-.3-.5.3Zm.5-.3.5-.3-.5.3Zm1.1-.6-.5.3Z" transform="translate(-31.2 -75.2)"/><path class="cls-7" d="M138.4,235.2c-2-.4-.6-3-.6-3l3.2-2.1s11.2,2.7,9.4,15.5a10.7,10.7,0,0,1-1.2,3.7,15,15,0,0,1-3.3.8C141.8,250.1,138.4,235.2,138.4,235.2Z" transform="translate(-31.2 -75.2)"/><path class="cls-7" d="M143.6,234a15.7,15.7,0,0,1,4.4,9.5c.9,8.4-3.7,7.2-6.5,5C133.1,241.4,135.4,225.5,143.6,234Z" transform="translate(-31.2 -75.2)"/><path class="cls-4" d="M143.6,234a15.7,15.7,0,0,1,4.4,9.5,13.6,13.6,0,0,1-.1,3.8c-5.3-1.4-9.4-9.8-7.4-15.5A8.8,8.8,0,0,1,143.6,234Z" transform="translate(-31.2 -75.2)"/><path class="cls-3" d="M253.7,176.7c-9-2.5-22.4-5-27.1-14-10.6-20.3,13.1-43.2,31.6-38.8,16.7,4,58.4,6.8,51,34.2C303.1,181.3,272.1,181.9,253.7,176.7Z" transform="translate(-31.2 -75.2)"/><path class="cls-3" d="M291.3,131.4c11.9,1.9,21,12.2,20.2,27.1-.7,12.9-13.4,19.8-20.2,20.6-2.8.7-7.9.4-12.8-.8-16.2-4-18.6-25.1-8.1-37.5S291,131.3,291.3,131.4Z" transform="translate(-31.2 -75.2)"/><path class="cls-4" d="M306.6,157.3c-1.6,14.5-16.5,19.2-27.2,16.1-23.2-6.9-3.8-48,16.4-36.3C302.7,141.1,307.5,148.9,306.6,157.3Z" transform="translate(-31.2 -75.2)"/><path class="cls-7" d="M306.6,157.4c-1.6,14.5-16,19.2-26.7,16-2.7-.8-5.8-1.4-9.1-7.5,17.1-4.2,6.4-17.8,6.4-17.8l29.1,4.5A24.5,24.5,0,0,1,306.6,157.4Z" transform="translate(-31.2 -75.2)"/><path class="cls-8" d="M152.2,237.4s21.6-12.7,23.8-10.7-17.8,10.5-20.6,11.6S150.2,239.5,152.2,237.4Z" transform="translate(-31.2 -75.2)"/><path class="cls-8" d="M226.8,200s10-6.4,10.1-4.1S224.9,203.7,226.8,200Z" transform="translate(-31.2 -75.2)"/><rect class="cls-9" x="175.1" y="143.6" width="20.3" height="28.64" transform="translate(-65.8 -21.9) rotate(-15)"/><path d="M190.7,142.5l6.9,25.9-17.8,4.8-6.9-25.9,17.8-4.8m1.3-2.2-1.7.5-17.8,4.8-1.7.5.5,1.7,6.9,25.9.5,1.7,1.7-.5,17.8-4.8,1.7-.5-.5-1.7-6.9-25.9-.5-1.7Z" transform="translate(-31.2 -75.2)"/><path class="cls-9" d="M212.1,121.9a22.7,22.7,0,0,0-5.5-7.7l-.9-.8,1-.6c2.7-1.6,5.9-6.5,6.3-15v-.8h.8a17.9,17.9,0,0,1,8.9,2.6l.5.3v.6c-1,9.5-4.5,17.5-9.8,21.8l-.9.7Z" transform="translate(-31.2 -75.2)"/><path d="M213.9,97.8a17.1,17.1,0,0,1,8.5,2.5c-1,10.3-5,17.6-9.5,21.3a23.6,23.6,0,0,0-5.7-8c3.3-2,6.4-7.5,6.7-15.7m-1.7-1.7v1.7c-.4,8.1-3.4,12.8-5.9,14.3l-2,1.2,1.8,1.6a21.8,21.8,0,0,1,5.3,7.4l.9,2.1,1.7-1.4c5.4-4.5,9.1-12.7,10.1-22.4V99.4l-1-.6a18.7,18.7,0,0,0-9.3-2.7Z" transform="translate(-31.2 -75.2)"/><path class="cls-9" d="M65.2,228.2a146.3,146.3,0,0,1-24.4-12.7l-.5-.3v-.6a46.8,46.8,0,0,1,10.6-23l.7-.8.7.8a96.7,96.7,0,0,0,15.8,14l.6.4-.3.7a34.7,34.7,0,0,0-2.1,20.5l.4,1.8Z" transform="translate(-31.2 -75.2)"/><path d="M51.8,192.2a98,98,0,0,0,15.9,14.1,35.8,35.8,0,0,0-2.2,21.1,145.3,145.3,0,0,1-24.2-12.6,46,46,0,0,1,10.4-22.6m0-2.9L50.4,191a47.7,47.7,0,0,0-10.9,23.5l-.2,1.2,1,.7a147.1,147.1,0,0,0,24.5,12.8l3.3,1.4-.8-3.5a33.7,33.7,0,0,1,2.1-20l.6-1.4-1.2-.9a95.7,95.7,0,0,1-15.6-13.8l-1.5-1.6Z" transform="translate(-31.2 -75.2)"/><path class="cls-9" d="M152.3,115.4c-5.7-2.6-11.4-5.4-17-8.4l-.5-.3v-.6c.2-10,4.3-20.3,11.6-29l.6-.7.7.6,10.4,8,.7.5-.4.7c-5.1,9.3-6.9,19.3-4.9,28.2l.4,1.8Z" transform="translate(-31.2 -75.2)"/><path d="M147.2,77.7c3.2,2.5,6.7,5.2,10.5,8-5.3,9.7-6.9,20-5,28.8-6-2.7-11.6-5.5-16.9-8.4.2-9.3,4-19.5,11.4-28.4m-.3-2.6-1.2,1.4c-7.4,8.9-11.6,19.4-11.8,29.6v1.1l1,.5c5.6,3,11.3,5.8,17,8.4l3.4,1.5-.8-3.6c-1.9-8.6-.2-18.4,4.8-27.5l.8-1.4-1.3-1-10.4-8-1.4-1.1Z" transform="translate(-31.2 -75.2)"/><rect class="cls-9" x="291.8" y="192.2" width="28.6" height="20.25" transform="translate(-69.4 254.1) rotate(-53.7)"/><path d="M306.6,186.1,321.5,197l-15.9,21.6-14.9-10.9,15.9-21.6m-.4-2.5-1.1,1.4-15.9,21.6-1.1,1.4,1.4,1.1,14.9,10.9,1.4,1.1,1.1-1.4,15.9-21.6,1.1-1.4-1.4-1.1-14.9-10.9-1.4-1.1Z" transform="translate(-31.2 -75.2)"/><path class="cls-9" d="M284.4,224.6a22.7,22.7,0,0,0-5.5-7.7l-.9-.8,1-.6c2.7-1.6,5.9-6.5,6.3-15v-.8h.8a17.9,17.9,0,0,1,8.9,2.6l.5.3v.6c-1,9.5-4.5,17.5-9.8,21.8l-.9.7Z" transform="translate(-31.2 -75.2)"/><path d="M286.2,200.5a17.1,17.1,0,0,1,8.5,2.5c-1,10.3-5,17.6-9.5,21.3a23.6,23.6,0,0,0-5.7-8c3.3-2,6.4-7.5,6.7-15.7m-1.7-1.7v1.7c-.4,8.1-3.4,12.8-5.9,14.3l-2,1.2,1.8,1.6a21.8,21.8,0,0,1,5.3,7.4l.9,2.1,1.7-1.4c5.4-4.5,9.1-12.7,10.1-22.4V202l-1-.6a18.7,18.7,0,0,0-9.3-2.7Z" transform="translate(-31.2 -75.2)"/><path class="cls-9" d="M96.3,225.3a67.7,67.7,0,0,1-15.8-14.1l-.3-.3.2-.4a45.8,45.8,0,0,1,10.1-13.3l.7-.7.3.9a44.7,44.7,0,0,0,8.8,14l.3.3-.2.4a29.7,29.7,0,0,0-3.2,12.6V226Z" transform="translate(-31.2 -75.2)"/><path d="M91,197.7a45.2,45.2,0,0,0,9,14.2,30.3,30.3,0,0,0-3.3,12.9,67.4,67.4,0,0,1-15.7-14,45.4,45.4,0,0,1,10-13.1m.6-2.3-1.5,1.4a46.5,46.5,0,0,0-10.3,13.5l-.4.8.5.7a68.4,68.4,0,0,0,16,14.3l2,1.3v-2.4a29.1,29.1,0,0,1,3.1-12.3l.4-.8-.6-.7a44,44,0,0,1-8.7-13.8l-.7-1.9Z" transform="translate(-31.2 -75.2)"/></svg>