<svg xmlns="http://www.w3.org/2000/svg" viewBox="0 0 246.7 310.6"><defs><style>.cls-1,.cls-4{fill:#fff;}.cls-2,.cls-3,.cls-6{fill:none;}.cls-2,.cls-3,.cls-4,.cls-5,.cls-6{stroke:#000;}.cls-2,.cls-4,.cls-5{stroke-width:2.59px;}.cls-3,.cls-4{stroke-miterlimit:10;}.cls-3{stroke-width:3.46px;}.cls-6{stroke-width:1.73px;}</style></defs><title>whistle</title><g id="Layer_3" data-name="Layer 3"><path class="cls-1" d="M121.5,173.8s-14.9-4-22.2-.4-12.3,7.1-13.5,11.6a5.6,5.6,0,0,1-5.5,4.3S72,197,71.9,200.1c0,0-10.1.8-9.7,13.1s11.2,15.8,11.2,15.8-5.2,1.2-3.8,11.7c0,0-9.4,8.8-6.5,14.4s10.3,14.7,10.3,14.7-18.5,19.5.1,35.6S92.5,314,92.5,314s8.1,22.2,29.8,17.2,30.6-18,33.7-35.2,3.1-22.1,3.1-22.1l18.2,14.4,6.5,25.7,10.5,6.5,3.9,7.8s16.5-8,22.9-8.2l2.3-1.9-3.3-4.8,1.6-5.4-.6-13.4s1.6-1.6,3.6-4.2,1.5-10.7,1.5-10.7L244.4,258s4.3,39.8,30.4,38,32.3-24.8,30-31.4l-2.7-8s7-3.1,2.7-13.6l-1.9-1.9s4.1-12.4-7.9-23.9c0,0,2.9-11.1-.5-14.8,0,0,4.3-6,4.9-9.2,0,0,4.1-10.7-3-16.3s-9.1-2.5-9.1-2.5,1.6-11.6-5.6-15.7c0,0,9.2-13.5-9.8-23.3l-2-2.9s1.7-13.4-.8-14.3-6.9-.7-6.9-.7,10.3-15.7-3.9-16.2c0,0-.9-9-3.6-11.4,0,0,5.1-26.4-22.5-26.1s-19.3,33.7-19.3,33.7-14-10.6-28.5,0S121.5,173.8,121.5,173.8Z" transform="translate(-61.1 -23.8)"/><path class="cls-1" d="M147.6,290.3s103,20.7,112.2-20.5-28.4-31.5-28.4-31.5l-82.2,36.2Z" transform="translate(-61.1 -23.8)"/><path class="cls-1" d="M103.8,41s-2.5-7.7,9.1-11.4S130.5,23,136.6,32Z" transform="translate(-61.1 -23.8)"/></g><g id="Layer_1" data-name="Layer 1"><ellipse cx="127.3" cy="63.8" rx="45.2" ry="33.4" transform="translate(-73.8 14.1) rotate(-16.2)"/><path d="M182.4,100.1c-.4,1.3-.1.3.8-.1s1.7-1.1,2.5-1.5a33.1,33.1,0,0,1,8.9-3.4c8.5-1.8,15.5,1.5,19.9,9.1.8,1.4,1.6-2.7,1-3.7-4.8-8.4-12.9-11.7-22.2-9.3-3.1.8-11.5,3.1-12.5,6.8-.4,1.4.9,4.9,1.6,2.2Z" transform="translate(-61.1 -23.8)"/><path d="M186.5,117.7c6.9-2.6,16.8-3.1,20.2,4.8.9,2.1,1.8-1.9,1.3-3.1-3.9-8.9-14.1-8.9-22.1-5.9-1.2.5-.9,4.7.5,4.2Z" transform="translate(-61.1 -23.8)"/><path class="cls-2" d="M156,209.9c8.1-8.9,21.9-9.8,21.9-9.8" transform="translate(-61.1 -23.8)"/><path class="cls-1" d="M182.5,98.4,172.6,67a41.2,41.2,0,0,0-6.8-15l-.5-.9-1.9-2.1A41.4,41.4,0,0,0,91.9,86q.4,1.5.8,2.9l36,125.2" transform="translate(-61.1 -23.8)"/><path d="M184.1,96.2,176.5,72c-3-9.4-5.3-19.4-12.2-26.8C152.9,32.8,136,27.3,119.6,32.3c-14.3,4.5-25,16.3-29,30.6-4.6,16.5,1.7,32.4,6.2,48l17.8,62L127,216.3c1.5,5.4,4.1-1.6,3.3-4.4L104.2,121,94.4,86.8c-9.8-33.9,29.9-59.4,58.7-42a39.1,39.1,0,0,1,15.4,17c1.9,4,2.9,8.7,4.3,13l8.1,25.8c1.7,5.3,4.2-1.6,3.3-4.4Z" transform="translate(-61.1 -23.8)"/><path d="M214.7,77c4-7,10.8-13.3,19.3-12.2,11.8,1.5,20.7,9.1,19.9,21.7-.1,1.9,1.6,4.1,1.8,1.1.8-12.5-4.5-22.8-17-26.2-5.8-1.6-11.3-1.6-16.3,2.1a31.8,31.8,0,0,0-8.6,9.8c-.6,1,.2,5.1,1,3.7Z" transform="translate(-61.1 -23.8)"/><path d="M235.7,104.9a16,16,0,0,1,8.4,3.8c2.8,2.6,3.1,6,3.5,9.6s.1,6.2-3,9l1.1,1h0c-.1-.4-.5-1.4-1.1-1h-.1c-1,.7-.8,2.7-.4,3.6,1.3,2.8,7.9,1.4,10.4,2.6,5,2.4,8.2,9.2,4.3,13.8-.8.9-.2,5.1,1,3.7,3.8-4.6,4.1-10.4,1.1-15.5a18,18,0,0,0-4.7-5.4,9.4,9.4,0,0,0-3.9-1.5c-.6-.1-6.6-.2-6.9-.8l-.4,3.6h.1l-1.1-1h0c.1.3.5,1.5,1.1,1,6.1-5.5,5.4-13.5,3.2-21-1.6-5.6-7.1-9-12.7-9.8-1.2-.2-1.4,4.1,0,4.3Z" transform="translate(-61.1 -23.8)"/><path d="M236.2,87.1c-.3,3.3-1.1.9.1,1.2a9.7,9.7,0,0,0,2.3-.6,22.3,22.3,0,0,1,6.5-.5c8.1.7,11.6,7,12.2,14.6.1,1,.9,2.3,1.6,1-.7,1.3-.3.2.9.6s2.1.2,3,.9c5,3.3-2.7,12.9-4.8,15.9-.4.6-.7,4.8.7,3.9s3.3-2.9,5.4-3.9c6.7-3,5.7,5.6,5.1,9.8s-.2,5.6,4,8.6c5.8,4.1,13.5,10.6,8,18-.7,1-.1,5.1,1,3.7,4.5-6.1,3.9-13.5-1-19.3a39.5,39.5,0,0,0-8.1-7,16.7,16.7,0,0,1-2.8-1.9l-.3-.2q1.3,2,1.1-.7a14.4,14.4,0,0,0,.4-4.1c.3-3.7.5-12.3-5.2-11.9-3.4.3-5.3,3.2-8,4.7l.7,3.9c3.6-5.2,10.8-15.4,6.2-22.1-1-1.5-6.3-4.5-7.6-2l1.6,1c-.6-8.2-3.9-16.4-13-17.7-2.3-.3-11.5-.8-11.8,3-.1,1.9,1.6,4.1,1.8,1.1Z" transform="translate(-61.1 -23.8)"/><path d="M220.2,112.6a45.2,45.2,0,0,0-1.5-8.9c-.3-1-.9-3.4-2.3-3.3s-2.6,4.1-2.9,5.4a3.6,3.6,0,0,0,.3,3c.6.7,1.1-.2,1.3-.8a12.2,12.2,0,0,1,1-2.9c.2-.3.2-.3.4-.4s0,0,.1.1-.1-.3,0,0l.2.3a2,2,0,0,1,.2.7l.3,1.1a52.2,52.2,0,0,1,1,6.8c0,.6.4,1.9,1.2,1.5s.7-2,.7-2.7Z" transform="translate(-61.1 -23.8)"/><path d="M256.7,158.4c6.2-2.5,14.6-3.7,20.8-.6,11.6,5.8,10.4,23.9,4.5,33.5-.6,1,.1,5.1,1,3.7,6.3-10.4,8-27.4,0-37.4-6.3-7.9-18.3-6.9-26.8-3.5-1.2.5-.9,4.7.5,4.2Z" transform="translate(-61.1 -23.8)"/><path d="M297.5,198a23.6,23.6,0,0,0,4.1-12.1c.3-8.4-5.7-12.6-13.4-14.2-1.1-.2-1.4,4,0,4.3,5.8,1.2,12.6,4.3,11.3,11.3a19.4,19.4,0,0,1-3,7c-.7,1,0,5.1,1,3.7Z" transform="translate(-61.1 -23.8)"/><path d="M288.8,199.5a13.8,13.8,0,0,1,4,3.3c4.2,5,2.2,10.6-1.1,15.6-.7,1,0,5.1,1,3.7,5.6-8.5,7.1-21.3-3.4-26.8-1.2-.6-1.7,3.5-.5,4.2Z" transform="translate(-61.1 -23.8)"/><path d="M266.8,252.8c7.6-1.7,17-4.9,21.9-11.4,6.6-8.9,7.2-21-1.6-28.4-.9-.8-1.6,3.3-.5,4.2,5.7,4.8,6.1,10.5,3,17.1a19.1,19.1,0,0,1-8.5,8.8,51.7,51.7,0,0,1-14.3,5.4c-1.4.3-1.1,4.6,0,4.3Z" transform="translate(-61.1 -23.8)"/><path d="M283.6,261.5c7-3.8,16.2-9.2,19.4-16.8,4.6-10.9,0-21.3-7.5-29.3-1.2-1.3-1.8,2.8-1,3.7,3.8,4.1,8.1,8.8,8.2,14.7s-1,8.8-4.3,12.3-9.9,8.3-15.4,11.2c-1.2.6-.7,4.8.5,4.2Z" transform="translate(-61.1 -23.8)"/><path d="M299.6,261c8.1-5,11.7-15,3.6-21.9-.9-.8-1.6,3.3-.5,4.2s4,3.8,3,6.5a11.7,11.7,0,0,1-2.5,3.7,20.5,20.5,0,0,1-4.1,3.4c-1.1.7-.6,4.9.5,4.2Z" transform="translate(-61.1 -23.8)"/><path d="M274.8,298.2c7.8-1.1,16.3-4.2,22-9.8,8.1-8.1,11.5-21.4,6.5-31.9-1-2.1-1.9,2-1.3,3.1,5.2,10.8-1.9,23.6-11.6,29.1a45.5,45.5,0,0,1-15.5,5.2c-1.4.2-1.2,4.5,0,4.3Z" transform="translate(-61.1 -23.8)"/><path d="M105.8,171.2A26.2,26.2,0,0,0,92,174.6c-7.9,4.8-9.2,14-7.7,22.5.5,2.9,2.2.8,1.8-1.1-1.5-8.4,1.2-15.4,9.4-18.6a26.6,26.6,0,0,1,10.3-1.8c1.3,0,1.4-4.3,0-4.3Z" transform="translate(-61.1 -23.8)"/><path d="M73.3,205.7c-2.8-7.4,4-13.5,11.1-15.8,1.2-.4,1-4.6-.5-4.2-6.4,2.1-11.7,6.2-12.8,13.2a19.4,19.4,0,0,0,.9,9.9c.8,2.1,1.8-1.9,1.3-3.1Z" transform="translate(-61.1 -23.8)"/><path d="M76.8,229.1a42,42,0,0,1-10.3-8.7c-6.4-7.7-2.1-15.8,5.6-20.1,1.2-.7.7-4.8-.5-4.2-7.5,4.3-12.5,12.7-9.7,21.6,2.1,6.7,8.7,12,14.5,15.5,1.1.7,1.7-3.5.5-4.2Z" transform="translate(-61.1 -23.8)"/><path d="M76.7,245.3c-3.8-1.4-7.6-4.9-5.9-9.2a3.8,3.8,0,0,0,0-3.1c-.4-.6-1-.9-1.3,0-2.5,6.6-.1,13.8,6.8,16.4,1.4.5,1.7-3.7.5-4.2Z" transform="translate(-61.1 -23.8)"/><path d="M73.6,266.4a19.6,19.6,0,0,0-1.7-1c-1.7-1.2-1.8-2.1-2.8-3.8a7.5,7.5,0,0,0-1.5-1.7c-1.3-1.4-2.7-2.5-3.3-4.3-1.6-4.6,2.8-9.1,5.8-12,.9-.9.3-5-1-3.7-5.5,5.5-9.9,13.7-5,21.1a14.4,14.4,0,0,0,2.2,2.5c.6.6,1.6,1.9,1.1.9.7,1.4.9,2.6,2.1,3.8s2.4,1.5,3.5,2.4,1.6-3.3.5-4.2Z" transform="translate(-61.1 -23.8)"/><path d="M87.3,246.8c-5,8.2-6.7,20.9,4.8,24,1.1.3,1.4-3.9,0-4.3-5.1-1.4-7.7-4.7-6.4-10a22.8,22.8,0,0,1,2.5-6c.6-1-.1-5.1-1-3.7Z" transform="translate(-61.1 -23.8)"/><path d="M85.7,311.2c-6.8-3.2-14.3-8.5-17.6-15.5-2.1-4.5-1.6-12.6.4-17.3s7.4-7.7,11.3-10.6c1.1-.8.5-4.9-.5-4.2-4.5,3.3-10,6.6-12.2,12a36.7,36.7,0,0,0-1.9,17.8c1.6,10.1,11.3,17.7,20.1,21.9,1.3.6,1.7-3.6.5-4.2Z" transform="translate(-61.1 -23.8)"/><path d="M96,204.4c-4.3.2-6.3,2.4-8.4,5.8a4.4,4.4,0,0,1-1.2,1.5,20.1,20.1,0,0,0-2.7,2.8c-6.4,9.3,2.7,19.3,9.7,24.8.9.8,1.6-3.3.5-4.2-4-3.2-12.8-10.1-9.6-16.3.7-1.4,2.4-3.4,4-3.9s.5-.8.6-1c.7-3.5,3.8-5.1,7.1-5.3,1.4-.1,1.3-4.4,0-4.3Z" transform="translate(-61.1 -23.8)"/><path d="M83.9,237.1c-1.5.4-1.3,3.6-1.1,4.7s1,3.8,3,4.3,1.4-3.9,0-4.3a1.6,1.6,0,0,1-.8-.6,2.8,2.8,0,0,1-.3-.6v-.3q.1.3,0,0v-.2q0,.5,0,.1c0-.5-.1.4,0,0v.2a1.1,1.1,0,0,1-.7.8c1.4-.4,1.1-4.6,0-4.3Z" transform="translate(-61.1 -23.8)"/><path d="M73.9,273c-1.4,2.7-1.3,6.9-1.4,9.8-.1,5,.7,10.4,3.3,14.8a9.6,9.6,0,0,0,3.9,3.9c2.1,1,2.6.9,4.2,2.9a20.5,20.5,0,0,0,1.5,2c4.1,4.3,10,4.1,15.2,2,1.2-.5.9-4.7-.5-4.2-4.9,2-10.5,2.1-14.2-2.1-.7-.8-1.1-1.9-1.9-2.7s-2.5-1.4-3.9-2.2c-4.4-2.4-5.5-8.8-5.6-13.4,0-2.2-.3-5.8.8-7.8S75,271,73.9,273Z" transform="translate(-61.1 -23.8)"/><path d="M115.9,290.2a9.4,9.4,0,0,0,6.4,2.5c5.6-.3,7.1-7.8,7.8-12.1.3-1.9-1.4-4-1.8-1.1s-2.1,9.6-7.1,8.9a9.4,9.4,0,0,1-4.7-2.3c-.9-.8-1.5,3.3-.5,4.2Z" transform="translate(-61.1 -23.8)"/><path d="M93.8,289.7c3.1,20.9,32.9,20.3,41.2,3.5.5-1.1-.3-5.1-1.3-3.1-4.5,9.1-15.8,12.7-25.4,10.9-6-1.1-11.9-7.4-12.6-12.5-.4-2.9-2.1-.8-1.8,1.1Z" transform="translate(-61.1 -23.8)"/><path d="M115,311.9a25.2,25.2,0,0,0,12.3,3.2c8-.2,12-6.5,13.6-13.7.3-1.4-1.1-4.9-1.6-2.2-1.6,7.5-6.3,12.3-14.2,11.5a25.4,25.4,0,0,1-9.5-3c-1.2-.7-1.7,3.5-.5,4.2Z" transform="translate(-61.1 -23.8)"/><path d="M91.9,315.6c3.4,9.2,11.6,17.3,21.5,18.6,14,1.8,28.7-5.7,34.8-18.3.5-1.1-.3-5.1-1.3-3.1-5.8,12-20.4,18.7-33.5,17-9.3-1.2-17-8.8-20.2-17.3-.8-2.1-1.8,1.9-1.3,3.1Z" transform="translate(-61.1 -23.8)"/><path d="M102.1,201.8l32,20c.8.5,1.2-2.6.4-3.1l-32-20c-.8-.5-1.2,2.6-.4,3.1Z" transform="translate(-61.1 -23.8)"/><path d="M104.7,213.9l33.1,17c.9.5,1.3-2.7.4-3.1l-33.1-17c-.9-.5-1.3,2.7-.4,3.1Z" transform="translate(-61.1 -23.8)"/><path d="M105.7,220.6l35.1,15c1,.4,1.3-2.7.4-3.1l-35.1-15c-1-.4-1.3,2.7-.4,3.1Z" transform="translate(-61.1 -23.8)"/><path d="M94.6,258.6l32-7.5c1.1-.3.8-3.4,0-3.2l-32,7.5c-1.1.3-.8,3.4,0,3.2Z" transform="translate(-61.1 -23.8)"/><path d="M100.5,266.2l24.6-11.1c.9-.4.6-3.6-.4-3.1l-24.6,11.1c-.9.4-.6,3.6.4,3.1Z" transform="translate(-61.1 -23.8)"/><path d="M107.7,270.1l13.8-7.8c.9-.5.5-3.6-.4-3.1L107.3,267c-.9.5-.5,3.6.4,3.1Z" transform="translate(-61.1 -23.8)"/><path d="M216,142.7l-13.8,49c-.4,1.4.9,4.9,1.6,2.2l13.8-49c.4-1.4-.9-4.9-1.6-2.2Z" transform="translate(-61.1 -23.8)"/><path d="M225.5,138.3l-15.7,44.6c-.4,1.1.6,5.2,1.3,3.1l15.7-44.6c.4-1.1-.6-5.2-1.3-3.1Z" transform="translate(-61.1 -23.8)"/><path d="M225.6,154.8l-12.4,31.8c-.4,1.1.5,5.2,1.3,3.1L227,157.9c.4-1.1-.5-5.2-1.3-3.1Z" transform="translate(-61.1 -23.8)"/><path d="M238,155.4l-24.9,51.1c-.5,1.1.3,5.1,1.3,3.1l24.9-51.1c.5-1.1-.3-5.1-1.3-3.1Z" transform="translate(-61.1 -23.8)"/><path d="M238.9,188.5l-12.1,16c-.7,1-.1,5.1,1,3.7l12.1-16c.7-1,.1-5.1-1-3.7Z" transform="translate(-61.1 -23.8)"/><path d="M233.9,223.1l9.2-4.6c1.2-.6.8-4.8-.5-4.2l-9.2,4.6c-1.2.6-.8,4.8.5,4.2Z" transform="translate(-61.1 -23.8)"/><path d="M257.5,211.4l16.8-9.5c1.2-.7.7-4.8-.5-4.2L257,207.3c-1.2.7-.7,4.8.5,4.2Z" transform="translate(-61.1 -23.8)"/><line class="cls-3" x1="200.8" y1="161.5" x2="229.6" y2="289.8"/><path d="M221.9,264.8s4.7,6.1,9.6-1.2c0,.1,7.1-7.2,7.8-22.6s.8-23.9.8-26.5a171.5,171.5,0,0,1,2.7-22.5c1.4-6.3,5.3-15.6,9.1-19.1s7.9-6.4,12.8-4.3,10.7,8.6,3.7,16.1c-.5.1-5,1.4-5.1,3.7-.1-.1-2.4-2.8-4.2-2.2s-4.3,4.2-5.7,8-2,10-1.9,15,.6,27.9.1,31.1-.8,19.7-6,26.6-8.9,10.5-17.3,14c-.2-.3.8,2.7-.6,5.2s-4,6-4,6-1.7-.3-1-1.2,1.7-2.4.9-2.6-1.1-.6-1.9.3-2.2,2-.8,6,3.5,6.4,3.5,9.3-.5,3.7-.7,4a8.1,8.1,0,0,1-2.4,2.4s-6-3.9-11.2-2.7-7.8,2.1-11.3,4.8c-.1,0-.2,2.6,1.7,3.5a26.3,26.3,0,0,1,19.9-3.4c.1,0,.7,1.9,1.4,2.6s2,2.7,1.4,3.2-1.9,3-2.3,1.9a16.2,16.2,0,0,0-1.2-3.5c-.6-.9-9.5-1-16.2,1.8-.4.2,1.1,1.6.9,2.5s-.2,5.1-.2,5.1l-8.8,5.8a10.1,10.1,0,0,1-3.9-9.7c-.4-.4-8.1,1.4-13-10.2-2.4-8.6-3-10.2-3-10.2s-6.5-2.7-8.1-5-2.2-3.6-2.2-6,28.2-7.2,28.2-7.2-.1,1.7,2.8,1.8,13.5-1.6,16.6,0,3.3,3.8,3.3,3.8-.7,1.1-9.9.9l-11.7-.2s-3.4-.1-1,2.8,3.8,4.8,4.3,9.4c-.1.1-1.3,2.5-6,4.6s-4.6,7.3-4.6,7.3.9.3,4.8-2.7,7.7-6.6,13.1-7.6a128.7,128.7,0,0,1,14.9-1.3s.1-6.5-2.9-11.4c.1.3,3-3.7,3.5-7.3s.6-7.5-.9-10.6-2.3-6.7-9.3-7.4-25.3-.4-25.3-.4l11.6-5.2a3.3,3.3,0,0,0,3.3.7,13.3,13.3,0,0,1,9.1-.1c4.8,1.4,6.7,2.2,6.7,2.2l4.6-6.5s2.4-3,2.4-4.1.1-4.2,1.7-3.5a10.8,10.8,0,0,0,3.4,1.4c.9.1,1.4.2,1.4.5s-7.3,14.2-7.3,14.2Z" transform="translate(-61.1 -23.8)"/><path class="cls-1" d="M226.2,283.5s-2.7-.9-3,.2.4,2.2,2.7,1.7A5.9,5.9,0,0,1,226.2,283.5Z" transform="translate(-61.1 -23.8)"/><path class="cls-1" d="M265.4,171.5s3.1,6.2,1.1,10.6c-.2,0,3.3,1.2,3.2-5.6C269.7,176.4,269.7,172,265.4,171.5Z" transform="translate(-61.1 -23.8)"/><path class="cls-1" d="M258.4,175.1s3.7-1.7,4.9.1c0-.1.5,5.5-1.9,5.5S258.6,179.9,258.4,175.1Z" transform="translate(-61.1 -23.8)"/><path class="cls-1" d="M256.3,184.1c-.3-.3-2.3-1.9-3.7,1.2s-4.5,13-4.8,20.1-.2,11.7-.2,16.1-.2,19.9-.7,23,.2,11.3-8.1,26.2c0-.1.6,1.9,3.4-1.9s6-9.9,6.4-13.9,1.5-13.3,1.6-18.3,0-17.8.4-24.8,2.2-19.5,4.8-25.6C255,186.2,257.7,185.7,256.3,184.1Z" transform="translate(-61.1 -23.8)"/><path class="cls-1" d="M220.3,268.3l3.1-.2s4,3.1,4.4,7c-.4.1-2.2,1.8-3.7.5S220.7,270.8,220.3,268.3Z" transform="translate(-61.1 -23.8)"/><path d="M196.6,282l.5.9,5.8.5c3.3.3,7.9.6,10.2-.1s4.2-1.7-1.8-1.8S196.6,282,196.6,282Z" transform="translate(-61.1 -23.8)"/><path d="M161.3,222.2s-4.8,1.9-3.9-6c-.4-.6-2.8-4.8-4.8-2.8s-4.5,3.9-2.2-.9,14.3-7.8,16.8-9.1,10.9-2.1,10.9-2.1l-3.2,17.5S161.5,221.5,161.3,222.2Z" transform="translate(-61.1 -23.8)"/><path class="cls-1" d="M161.3,222.2c-.7.3-9.3-5,13.8-8.2C175.1,214,167.6,219.8,161.3,222.2Z" transform="translate(-61.1 -23.8)"/><path class="cls-4" d="M139.8,265.6S127,261,132,250.1s15-19.7,20.4-23.2S171,216.3,180,214.2s15-3.7,26.1-2.4,18.7,3.3,20.9,5.6,4.8,6.9,4.5,16.6S139.8,265.6,139.8,265.6Z" transform="translate(-61.1 -23.8)"/><path class="cls-4" d="M164.1,279.6s-15.7-.9-23.3-13.5c-.3.1-5-6.5-3.7-10.5s6.8-21.7,31.4-30.5,45.8-10.7,60.5.4c.1-.1,4.6,6.3,2.4,16.1s-5.2,15.4-11.2,23.5c-.1.2-18.6-.1-36.6,1.3C169.9,267.5,164.1,279.6,164.1,279.6Z" transform="translate(-61.1 -23.8)"/><path d="M141.9,254.1s16.4-22.6,37.6-27.1c0,0,3.9,3.9,7.5,4.6-.1-.4,6.2,5.5,10.8,12.7-.4.1.1,3.6.1,3.6s4.2,6.5,2.4,8.9c-.1-.4-.1.6-2.4,1s-.7,3.3.9,2.9,5.2-2,7.9-1.2l9.5,3.2,7.1-10.6s.1-3.5.9-3.5a22.4,22.4,0,0,1,4.2,1.4c.2.1-6,14.7-8.3,15s-50.1,2.7-50.1,2.7l-.4-1.6a52,52,0,0,0-5,2.3,17.7,17.7,0,0,1-2.6,1.3,41.3,41.3,0,0,1,3.5-4.5c2.2-2.4,3.9-3.3,4-4.3s-.4-.9-3,.6-4.8,4-5.8,3.6-.7-1.6.7-3.2a13.7,13.7,0,0,0,2.2-3.2s-.1-.9-3,1-7.5,3.7-3.7-1.2,3.5-4.2,2.9-4.8-2.7,1.4-4.6,3.2-4,1.6-1.3-1.6,3.3-4.9,2.4-4.9a8.5,8.5,0,0,0-4.9,3c-1.7,2-7.8,5.5-3.3,0s-.3-3.6-.7-2.7S143.2,255.4,141.9,254.1Z" transform="translate(-61.1 -23.8)"/><ellipse cx="178.6" cy="282.5" rx="14.7" ry="18.3" transform="translate(-134.7 39.5) rotate(-16.7)"/><path class="cls-1" d="M173.5,274.1a2.4,2.4,0,0,0,.8,2.9c1.6,1.2,3.3,3,3.2,4.4s-.6,5.8-.1,6.9,1.4,2.7,3.7,1.6,2.8,0,2.8-3.4.4-5.1-1.5-8.1S178.9,273.1,173.5,274.1Z" transform="translate(-61.1 -23.8)"/><path class="cls-1" d="M173.9,267.4a7.3,7.3,0,0,1,5.8-1.8c3.4.6,9.3,2.7,11.6,11.9s-.4,22.1-10.8,22.7c-.1-.1.6-1.5,2.2-2.7s6.4-5.8,5.9-12.2-2.2-14-8.8-17.6c-.4,0-3.5.7-4.5.4A3.5,3.5,0,0,1,173.9,267.4Z" transform="translate(-61.1 -23.8)"/><path d="M187.4,210.5l15.3-72.6c.3-1.4-1.1-4.9-1.6-2.2l-15.3,72.6c-.3,1.4,1.1,4.9,1.6,2.2Z" transform="translate(-61.1 -23.8)"/><path d="M188.5,164.9l13.4-62.9c.3-1.4-1.1-4.9-1.6-2.2l-13.4,62.9c-.3,1.4,1.1,4.9,1.6,2.2Z" transform="translate(-61.1 -23.8)"/><path d="M122.5,45.5l20.7,73.4c.8,2.7,2-.8,1.6-2.2L124.1,43.3c-.8-2.7-2,.8-1.6,2.2Z" transform="translate(-61.1 -23.8)"/><path d="M115.3,39.2l40.1,140.2,5.7,19.8c.8,2.7,2-.8,1.6-2.2L122.7,56.9,117,37c-.8-2.7-2,.8-1.6,2.2Z" transform="translate(-61.1 -23.8)"/><path d="M110.8,42.2l40.3,140.2,5.7,19.8c.8,2.7,2-.8,1.6-2.2L118.1,59.9l-5.7-19.8c-.8-2.7-2,.8-1.6,2.2Z" transform="translate(-61.1 -23.8)"/><path d="M154,203.4s-6.2,3.5-13.5,11.9c-.4-.3-44.2-161.1-44.2-161.1L109.7,41Z" transform="translate(-61.1 -23.8)"/><path class="cls-5" d="M207.9,197.2s-1.9,6.6,5.5,8.9C213.5,206.1,216.2,198.8,207.9,197.2Z" transform="translate(-61.1 -23.8)"/><path d="M180.5,178.4,175,213.9c-.3,1.9,1.4,4,1.8,1.1l5.4-35.5c.3-1.9-1.4-4-1.8-1.1Z" transform="translate(-61.1 -23.8)"/><path class="cls-6" d="M137.3,218.3s10.9-16.7,40.9-23.3" transform="translate(-61.1 -23.8)"/><path d="M92,89.8A46.8,46.8,0,0,0,87.3,92s.5,5,2.2,7.7c0,0,3.3-.9,4.4.1s2.4-2.3,2.4-2.3Z" transform="translate(-61.1 -23.8)"/><path d="M103.8,35.8s2.2,0,5.5-2.3,10.8-3.7,15.7-4.3l8.6-1.2s.3-.7-1-1.9-1.2-.3-4.6-.4a17.4,17.4,0,0,0-5.3.4s-2.6-2.9-5.3-2.3-6.6,2.4-6.8,6.2A7.6,7.6,0,0,0,103.8,35.8Z" transform="translate(-61.1 -23.8)"/></g></svg>