<?xml version="1.0" encoding="utf-8"?>
<!-- Generator: Adobe Illustrator 21.1.0, SVG Export Plug-In . SVG Version: 6.00 Build 0)  -->
<svg version="1.1" id="zoom-out" xmlns="http://www.w3.org/2000/svg" xmlns:xlink="http://www.w3.org/1999/xlink" x="0px" y="0px"
	 viewBox="0 0 612 612" style="enable-background:new 0 0 612 612;" xml:space="preserve">
<g>
	<g id="Zoom__x2B_">
		<g>
			<path d="M205.3,208.3h-68.4v68.4h68.4h68.4h68.4v-68.4h-68.4H205.3z M599.7,540.1L435.8,379.3c27.1-38.8,43.1-85.9,43.1-136.8
				C478.9,110.2,371.7,3,239.5,3S0,110.2,0,242.5S107.2,482,239.5,482c50.9,0,98-16,136.8-43.1l163.8,160.8
				c16.5,16.5,43.1,16.5,59.6,0C616.1,583.2,616.1,556.6,599.7,540.1z M239.5,413.5c-94.5,0-171.1-76.6-171.1-171.1
				S145,71.4,239.5,71.4c94.5,0,171.1,76.6,171.1,171.1C410.5,336.9,333.9,413.5,239.5,413.5z"/>
		</g>
	</g>
</g>
</svg>
