<svg id="zoom" xmlns="http://www.w3.org/2000/svg" viewBox="0 0 612 609"><title>zoom</title><g id="Zoom_" data-name="Zoom +"><path d="M273.7,139.9H205.3v68.4H136.8v68.4h68.4v68.4h68.4V276.7h68.4V208.3H273.7Zm326,400.3L435.8,379.3a238.3,238.3,0,0,0,43.1-136.8C478.9,110.2,371.7,3,239.5,3S0,110.2,0,242.5,107.2,482,239.5,482a238.3,238.3,0,0,0,136.8-43.1L540.1,599.7a42.1,42.1,0,1,0,59.6-59.5ZM239.5,413.5A171.1,171.1,0,1,1,410.5,242.5,171.1,171.1,0,0,1,239.5,413.5Z" transform="translate(0 -3)"/></g></svg>